%TF.GenerationSoftware,KiCad,Pcbnew,10.0.4*%
%TF.CreationDate,2026-10-10T00:16:53+05:30*%
%TF.ProjectId,LED Chaser (CD4017 + 555),4c454420-4368-4617-9365-722028434434,rev?*%
%TF.SameCoordinates,Original*%
%TF.FileFunction,Legend,Top*%
%TF.FilePolarity,Positive*%
%FSLAX46Y46*%
G04 Gerber Fmt 4.6, Leading zero omitted, Abs format (unit mm)*
G04 Created by KiCad (PCBNEW 10.0.4) date 2026-10-10 00:16:53*
%MOMM*%
%LPD*%
G01*
G04 APERTURE LIST*
G04 Aperture macros list*
%AMRoundRect*
0 Rectangle with rounded corners*
0 $1 Rounding radius*
0 $2 $3 $4 $5 $6 $7 $8 $9 X,Y pos of 4 corners*
0 Add a 4 corners polygon primitive as box body*
4,1,4,$2,$3,$4,$5,$6,$7,$8,$9,$2,$3,0*
0 Add four circle primitives for the rounded corners*
1,1,$1+$1,$2,$3*
1,1,$1+$1,$4,$5*
1,1,$1+$1,$6,$7*
1,1,$1+$1,$8,$9*
0 Add four rect primitives between the rounded corners*
20,1,$1+$1,$2,$3,$4,$5,0*
20,1,$1+$1,$4,$5,$6,$7,0*
20,1,$1+$1,$6,$7,$8,$9,0*
20,1,$1+$1,$8,$9,$2,$3,0*%
G04 Aperture macros list end*
%ADD10C,0.100000*%
%ADD11C,0.150000*%
%ADD12C,0.120000*%
%ADD13C,1.600000*%
%ADD14C,1.700000*%
%ADD15R,1.700000X1.700000*%
%ADD16C,1.800000*%
%ADD17R,1.800000X1.800000*%
%ADD18RoundRect,0.250000X-0.550000X-0.550000X0.550000X-0.550000X0.550000X0.550000X-0.550000X0.550000X0*%
G04 APERTURE END LIST*
D10*
X103008533Y-67303884D02*
X103008533Y-68065789D01*
X102627580Y-67684836D02*
X103389485Y-67684836D01*
X103627580Y-69780074D02*
X103627580Y-69303884D01*
X103627580Y-69303884D02*
X103151390Y-69256265D01*
X103151390Y-69256265D02*
X103199009Y-69303884D01*
X103199009Y-69303884D02*
X103246628Y-69399122D01*
X103246628Y-69399122D02*
X103246628Y-69637217D01*
X103246628Y-69637217D02*
X103199009Y-69732455D01*
X103199009Y-69732455D02*
X103151390Y-69780074D01*
X103151390Y-69780074D02*
X103056152Y-69827693D01*
X103056152Y-69827693D02*
X102818057Y-69827693D01*
X102818057Y-69827693D02*
X102722819Y-69780074D01*
X102722819Y-69780074D02*
X102675200Y-69732455D01*
X102675200Y-69732455D02*
X102627580Y-69637217D01*
X102627580Y-69637217D02*
X102627580Y-69399122D01*
X102627580Y-69399122D02*
X102675200Y-69303884D01*
X102675200Y-69303884D02*
X102722819Y-69256265D01*
X103627580Y-70113408D02*
X102627580Y-70446741D01*
X102627580Y-70446741D02*
X103627580Y-70780074D01*
X103579961Y-72399122D02*
X103627580Y-72303884D01*
X103627580Y-72303884D02*
X103627580Y-72161027D01*
X103627580Y-72161027D02*
X103579961Y-72018170D01*
X103579961Y-72018170D02*
X103484723Y-71922932D01*
X103484723Y-71922932D02*
X103389485Y-71875313D01*
X103389485Y-71875313D02*
X103199009Y-71827694D01*
X103199009Y-71827694D02*
X103056152Y-71827694D01*
X103056152Y-71827694D02*
X102865676Y-71875313D01*
X102865676Y-71875313D02*
X102770438Y-71922932D01*
X102770438Y-71922932D02*
X102675200Y-72018170D01*
X102675200Y-72018170D02*
X102627580Y-72161027D01*
X102627580Y-72161027D02*
X102627580Y-72256265D01*
X102627580Y-72256265D02*
X102675200Y-72399122D01*
X102675200Y-72399122D02*
X102722819Y-72446741D01*
X102722819Y-72446741D02*
X103056152Y-72446741D01*
X103056152Y-72446741D02*
X103056152Y-72256265D01*
X102627580Y-72875313D02*
X103627580Y-72875313D01*
X103627580Y-72875313D02*
X102627580Y-73446741D01*
X102627580Y-73446741D02*
X103627580Y-73446741D01*
X102627580Y-73922932D02*
X103627580Y-73922932D01*
X103627580Y-73922932D02*
X103627580Y-74161027D01*
X103627580Y-74161027D02*
X103579961Y-74303884D01*
X103579961Y-74303884D02*
X103484723Y-74399122D01*
X103484723Y-74399122D02*
X103389485Y-74446741D01*
X103389485Y-74446741D02*
X103199009Y-74494360D01*
X103199009Y-74494360D02*
X103056152Y-74494360D01*
X103056152Y-74494360D02*
X102865676Y-74446741D01*
X102865676Y-74446741D02*
X102770438Y-74399122D01*
X102770438Y-74399122D02*
X102675200Y-74303884D01*
X102675200Y-74303884D02*
X102627580Y-74161027D01*
X102627580Y-74161027D02*
X102627580Y-73922932D01*
D11*
X134071428Y-58084819D02*
X133738095Y-57608628D01*
X133500000Y-58084819D02*
X133500000Y-57084819D01*
X133500000Y-57084819D02*
X133880952Y-57084819D01*
X133880952Y-57084819D02*
X133976190Y-57132438D01*
X133976190Y-57132438D02*
X134023809Y-57180057D01*
X134023809Y-57180057D02*
X134071428Y-57275295D01*
X134071428Y-57275295D02*
X134071428Y-57418152D01*
X134071428Y-57418152D02*
X134023809Y-57513390D01*
X134023809Y-57513390D02*
X133976190Y-57561009D01*
X133976190Y-57561009D02*
X133880952Y-57608628D01*
X133880952Y-57608628D02*
X133500000Y-57608628D01*
X134404762Y-57084819D02*
X135023809Y-57084819D01*
X135023809Y-57084819D02*
X134690476Y-57465771D01*
X134690476Y-57465771D02*
X134833333Y-57465771D01*
X134833333Y-57465771D02*
X134928571Y-57513390D01*
X134928571Y-57513390D02*
X134976190Y-57561009D01*
X134976190Y-57561009D02*
X135023809Y-57656247D01*
X135023809Y-57656247D02*
X135023809Y-57894342D01*
X135023809Y-57894342D02*
X134976190Y-57989580D01*
X134976190Y-57989580D02*
X134928571Y-58037200D01*
X134928571Y-58037200D02*
X134833333Y-58084819D01*
X134833333Y-58084819D02*
X134547619Y-58084819D01*
X134547619Y-58084819D02*
X134452381Y-58037200D01*
X134452381Y-58037200D02*
X134404762Y-57989580D01*
X136738095Y-58084819D02*
X136166667Y-58084819D01*
X136452381Y-58084819D02*
X136452381Y-57084819D01*
X136452381Y-57084819D02*
X136357143Y-57227676D01*
X136357143Y-57227676D02*
X136261905Y-57322914D01*
X136261905Y-57322914D02*
X136166667Y-57370533D01*
X137166667Y-58084819D02*
X137166667Y-57084819D01*
X137261905Y-57703866D02*
X137547619Y-58084819D01*
X137547619Y-57418152D02*
X137166667Y-57799104D01*
X134071428Y-66084819D02*
X133738095Y-65608628D01*
X133500000Y-66084819D02*
X133500000Y-65084819D01*
X133500000Y-65084819D02*
X133880952Y-65084819D01*
X133880952Y-65084819D02*
X133976190Y-65132438D01*
X133976190Y-65132438D02*
X134023809Y-65180057D01*
X134023809Y-65180057D02*
X134071428Y-65275295D01*
X134071428Y-65275295D02*
X134071428Y-65418152D01*
X134071428Y-65418152D02*
X134023809Y-65513390D01*
X134023809Y-65513390D02*
X133976190Y-65561009D01*
X133976190Y-65561009D02*
X133880952Y-65608628D01*
X133880952Y-65608628D02*
X133500000Y-65608628D01*
X134928571Y-65418152D02*
X134928571Y-66084819D01*
X134690476Y-65037200D02*
X134452381Y-65751485D01*
X134452381Y-65751485D02*
X135071428Y-65751485D01*
X136738095Y-66084819D02*
X136166667Y-66084819D01*
X136452381Y-66084819D02*
X136452381Y-65084819D01*
X136452381Y-65084819D02*
X136357143Y-65227676D01*
X136357143Y-65227676D02*
X136261905Y-65322914D01*
X136261905Y-65322914D02*
X136166667Y-65370533D01*
X137166667Y-66084819D02*
X137166667Y-65084819D01*
X137261905Y-65703866D02*
X137547619Y-66084819D01*
X137547619Y-65418152D02*
X137166667Y-65799104D01*
X105166666Y-67299819D02*
X105166666Y-68014104D01*
X105166666Y-68014104D02*
X105119047Y-68156961D01*
X105119047Y-68156961D02*
X105023809Y-68252200D01*
X105023809Y-68252200D02*
X104880952Y-68299819D01*
X104880952Y-68299819D02*
X104785714Y-68299819D01*
X106166666Y-68299819D02*
X105595238Y-68299819D01*
X105880952Y-68299819D02*
X105880952Y-67299819D01*
X105880952Y-67299819D02*
X105785714Y-67442676D01*
X105785714Y-67442676D02*
X105690476Y-67537914D01*
X105690476Y-67537914D02*
X105595238Y-67585533D01*
X146491905Y-56494819D02*
X146491905Y-55494819D01*
X146491905Y-55494819D02*
X146730000Y-55494819D01*
X146730000Y-55494819D02*
X146872857Y-55542438D01*
X146872857Y-55542438D02*
X146968095Y-55637676D01*
X146968095Y-55637676D02*
X147015714Y-55732914D01*
X147015714Y-55732914D02*
X147063333Y-55923390D01*
X147063333Y-55923390D02*
X147063333Y-56066247D01*
X147063333Y-56066247D02*
X147015714Y-56256723D01*
X147015714Y-56256723D02*
X146968095Y-56351961D01*
X146968095Y-56351961D02*
X146872857Y-56447200D01*
X146872857Y-56447200D02*
X146730000Y-56494819D01*
X146730000Y-56494819D02*
X146491905Y-56494819D01*
X148015714Y-56494819D02*
X147444286Y-56494819D01*
X147730000Y-56494819D02*
X147730000Y-55494819D01*
X147730000Y-55494819D02*
X147634762Y-55637676D01*
X147634762Y-55637676D02*
X147539524Y-55732914D01*
X147539524Y-55732914D02*
X147444286Y-55780533D01*
X118957381Y-90734819D02*
X118957381Y-91544342D01*
X118957381Y-91544342D02*
X119005000Y-91639580D01*
X119005000Y-91639580D02*
X119052619Y-91687200D01*
X119052619Y-91687200D02*
X119147857Y-91734819D01*
X119147857Y-91734819D02*
X119338333Y-91734819D01*
X119338333Y-91734819D02*
X119433571Y-91687200D01*
X119433571Y-91687200D02*
X119481190Y-91639580D01*
X119481190Y-91639580D02*
X119528809Y-91544342D01*
X119528809Y-91544342D02*
X119528809Y-90734819D01*
X119957381Y-90830057D02*
X120005000Y-90782438D01*
X120005000Y-90782438D02*
X120100238Y-90734819D01*
X120100238Y-90734819D02*
X120338333Y-90734819D01*
X120338333Y-90734819D02*
X120433571Y-90782438D01*
X120433571Y-90782438D02*
X120481190Y-90830057D01*
X120481190Y-90830057D02*
X120528809Y-90925295D01*
X120528809Y-90925295D02*
X120528809Y-91020533D01*
X120528809Y-91020533D02*
X120481190Y-91163390D01*
X120481190Y-91163390D02*
X119909762Y-91734819D01*
X119909762Y-91734819D02*
X120528809Y-91734819D01*
X122147857Y-91068152D02*
X122147857Y-91734819D01*
X121909762Y-90687200D02*
X121671667Y-91401485D01*
X121671667Y-91401485D02*
X122290714Y-91401485D01*
X122862143Y-90734819D02*
X122957381Y-90734819D01*
X122957381Y-90734819D02*
X123052619Y-90782438D01*
X123052619Y-90782438D02*
X123100238Y-90830057D01*
X123100238Y-90830057D02*
X123147857Y-90925295D01*
X123147857Y-90925295D02*
X123195476Y-91115771D01*
X123195476Y-91115771D02*
X123195476Y-91353866D01*
X123195476Y-91353866D02*
X123147857Y-91544342D01*
X123147857Y-91544342D02*
X123100238Y-91639580D01*
X123100238Y-91639580D02*
X123052619Y-91687200D01*
X123052619Y-91687200D02*
X122957381Y-91734819D01*
X122957381Y-91734819D02*
X122862143Y-91734819D01*
X122862143Y-91734819D02*
X122766905Y-91687200D01*
X122766905Y-91687200D02*
X122719286Y-91639580D01*
X122719286Y-91639580D02*
X122671667Y-91544342D01*
X122671667Y-91544342D02*
X122624048Y-91353866D01*
X122624048Y-91353866D02*
X122624048Y-91115771D01*
X122624048Y-91115771D02*
X122671667Y-90925295D01*
X122671667Y-90925295D02*
X122719286Y-90830057D01*
X122719286Y-90830057D02*
X122766905Y-90782438D01*
X122766905Y-90782438D02*
X122862143Y-90734819D01*
X124147857Y-91734819D02*
X123576429Y-91734819D01*
X123862143Y-91734819D02*
X123862143Y-90734819D01*
X123862143Y-90734819D02*
X123766905Y-90877676D01*
X123766905Y-90877676D02*
X123671667Y-90972914D01*
X123671667Y-90972914D02*
X123576429Y-91020533D01*
X124481191Y-90734819D02*
X125147857Y-90734819D01*
X125147857Y-90734819D02*
X124719286Y-91734819D01*
X117642381Y-74004819D02*
X117642381Y-74814342D01*
X117642381Y-74814342D02*
X117690000Y-74909580D01*
X117690000Y-74909580D02*
X117737619Y-74957200D01*
X117737619Y-74957200D02*
X117832857Y-75004819D01*
X117832857Y-75004819D02*
X118023333Y-75004819D01*
X118023333Y-75004819D02*
X118118571Y-74957200D01*
X118118571Y-74957200D02*
X118166190Y-74909580D01*
X118166190Y-74909580D02*
X118213809Y-74814342D01*
X118213809Y-74814342D02*
X118213809Y-74004819D01*
X119213809Y-75004819D02*
X118642381Y-75004819D01*
X118928095Y-75004819D02*
X118928095Y-74004819D01*
X118928095Y-74004819D02*
X118832857Y-74147676D01*
X118832857Y-74147676D02*
X118737619Y-74242914D01*
X118737619Y-74242914D02*
X118642381Y-74290533D01*
X120404286Y-75004819D02*
X120404286Y-74004819D01*
X120404286Y-74004819D02*
X120975714Y-75004819D01*
X120975714Y-75004819D02*
X120975714Y-74004819D01*
X121451905Y-74481009D02*
X121785238Y-74481009D01*
X121928095Y-75004819D02*
X121451905Y-75004819D01*
X121451905Y-75004819D02*
X121451905Y-74004819D01*
X121451905Y-74004819D02*
X121928095Y-74004819D01*
X122832857Y-74004819D02*
X122356667Y-74004819D01*
X122356667Y-74004819D02*
X122309048Y-74481009D01*
X122309048Y-74481009D02*
X122356667Y-74433390D01*
X122356667Y-74433390D02*
X122451905Y-74385771D01*
X122451905Y-74385771D02*
X122690000Y-74385771D01*
X122690000Y-74385771D02*
X122785238Y-74433390D01*
X122785238Y-74433390D02*
X122832857Y-74481009D01*
X122832857Y-74481009D02*
X122880476Y-74576247D01*
X122880476Y-74576247D02*
X122880476Y-74814342D01*
X122880476Y-74814342D02*
X122832857Y-74909580D01*
X122832857Y-74909580D02*
X122785238Y-74957200D01*
X122785238Y-74957200D02*
X122690000Y-75004819D01*
X122690000Y-75004819D02*
X122451905Y-75004819D01*
X122451905Y-75004819D02*
X122356667Y-74957200D01*
X122356667Y-74957200D02*
X122309048Y-74909580D01*
X123785238Y-74004819D02*
X123309048Y-74004819D01*
X123309048Y-74004819D02*
X123261429Y-74481009D01*
X123261429Y-74481009D02*
X123309048Y-74433390D01*
X123309048Y-74433390D02*
X123404286Y-74385771D01*
X123404286Y-74385771D02*
X123642381Y-74385771D01*
X123642381Y-74385771D02*
X123737619Y-74433390D01*
X123737619Y-74433390D02*
X123785238Y-74481009D01*
X123785238Y-74481009D02*
X123832857Y-74576247D01*
X123832857Y-74576247D02*
X123832857Y-74814342D01*
X123832857Y-74814342D02*
X123785238Y-74909580D01*
X123785238Y-74909580D02*
X123737619Y-74957200D01*
X123737619Y-74957200D02*
X123642381Y-75004819D01*
X123642381Y-75004819D02*
X123404286Y-75004819D01*
X123404286Y-75004819D02*
X123309048Y-74957200D01*
X123309048Y-74957200D02*
X123261429Y-74909580D01*
X124737619Y-74004819D02*
X124261429Y-74004819D01*
X124261429Y-74004819D02*
X124213810Y-74481009D01*
X124213810Y-74481009D02*
X124261429Y-74433390D01*
X124261429Y-74433390D02*
X124356667Y-74385771D01*
X124356667Y-74385771D02*
X124594762Y-74385771D01*
X124594762Y-74385771D02*
X124690000Y-74433390D01*
X124690000Y-74433390D02*
X124737619Y-74481009D01*
X124737619Y-74481009D02*
X124785238Y-74576247D01*
X124785238Y-74576247D02*
X124785238Y-74814342D01*
X124785238Y-74814342D02*
X124737619Y-74909580D01*
X124737619Y-74909580D02*
X124690000Y-74957200D01*
X124690000Y-74957200D02*
X124594762Y-75004819D01*
X124594762Y-75004819D02*
X124356667Y-75004819D01*
X124356667Y-75004819D02*
X124261429Y-74957200D01*
X124261429Y-74957200D02*
X124213810Y-74909580D01*
X125213810Y-75004819D02*
X125213810Y-74004819D01*
X125213810Y-74004819D02*
X125594762Y-74004819D01*
X125594762Y-74004819D02*
X125690000Y-74052438D01*
X125690000Y-74052438D02*
X125737619Y-74100057D01*
X125737619Y-74100057D02*
X125785238Y-74195295D01*
X125785238Y-74195295D02*
X125785238Y-74338152D01*
X125785238Y-74338152D02*
X125737619Y-74433390D01*
X125737619Y-74433390D02*
X125690000Y-74481009D01*
X125690000Y-74481009D02*
X125594762Y-74528628D01*
X125594762Y-74528628D02*
X125213810Y-74528628D01*
X133095237Y-131584819D02*
X132761904Y-131108628D01*
X132523809Y-131584819D02*
X132523809Y-130584819D01*
X132523809Y-130584819D02*
X132904761Y-130584819D01*
X132904761Y-130584819D02*
X132999999Y-130632438D01*
X132999999Y-130632438D02*
X133047618Y-130680057D01*
X133047618Y-130680057D02*
X133095237Y-130775295D01*
X133095237Y-130775295D02*
X133095237Y-130918152D01*
X133095237Y-130918152D02*
X133047618Y-131013390D01*
X133047618Y-131013390D02*
X132999999Y-131061009D01*
X132999999Y-131061009D02*
X132904761Y-131108628D01*
X132904761Y-131108628D02*
X132523809Y-131108628D01*
X134047618Y-131584819D02*
X133476190Y-131584819D01*
X133761904Y-131584819D02*
X133761904Y-130584819D01*
X133761904Y-130584819D02*
X133666666Y-130727676D01*
X133666666Y-130727676D02*
X133571428Y-130822914D01*
X133571428Y-130822914D02*
X133476190Y-130870533D01*
X134428571Y-130680057D02*
X134476190Y-130632438D01*
X134476190Y-130632438D02*
X134571428Y-130584819D01*
X134571428Y-130584819D02*
X134809523Y-130584819D01*
X134809523Y-130584819D02*
X134904761Y-130632438D01*
X134904761Y-130632438D02*
X134952380Y-130680057D01*
X134952380Y-130680057D02*
X134999999Y-130775295D01*
X134999999Y-130775295D02*
X134999999Y-130870533D01*
X134999999Y-130870533D02*
X134952380Y-131013390D01*
X134952380Y-131013390D02*
X134380952Y-131584819D01*
X134380952Y-131584819D02*
X134999999Y-131584819D01*
X136714285Y-131584819D02*
X136142857Y-131584819D01*
X136428571Y-131584819D02*
X136428571Y-130584819D01*
X136428571Y-130584819D02*
X136333333Y-130727676D01*
X136333333Y-130727676D02*
X136238095Y-130822914D01*
X136238095Y-130822914D02*
X136142857Y-130870533D01*
X137142857Y-131584819D02*
X137142857Y-130584819D01*
X137238095Y-131203866D02*
X137523809Y-131584819D01*
X137523809Y-130918152D02*
X137142857Y-131299104D01*
X133095237Y-123084819D02*
X132761904Y-122608628D01*
X132523809Y-123084819D02*
X132523809Y-122084819D01*
X132523809Y-122084819D02*
X132904761Y-122084819D01*
X132904761Y-122084819D02*
X132999999Y-122132438D01*
X132999999Y-122132438D02*
X133047618Y-122180057D01*
X133047618Y-122180057D02*
X133095237Y-122275295D01*
X133095237Y-122275295D02*
X133095237Y-122418152D01*
X133095237Y-122418152D02*
X133047618Y-122513390D01*
X133047618Y-122513390D02*
X132999999Y-122561009D01*
X132999999Y-122561009D02*
X132904761Y-122608628D01*
X132904761Y-122608628D02*
X132523809Y-122608628D01*
X134047618Y-123084819D02*
X133476190Y-123084819D01*
X133761904Y-123084819D02*
X133761904Y-122084819D01*
X133761904Y-122084819D02*
X133666666Y-122227676D01*
X133666666Y-122227676D02*
X133571428Y-122322914D01*
X133571428Y-122322914D02*
X133476190Y-122370533D01*
X134999999Y-123084819D02*
X134428571Y-123084819D01*
X134714285Y-123084819D02*
X134714285Y-122084819D01*
X134714285Y-122084819D02*
X134619047Y-122227676D01*
X134619047Y-122227676D02*
X134523809Y-122322914D01*
X134523809Y-122322914D02*
X134428571Y-122370533D01*
X136714285Y-123084819D02*
X136142857Y-123084819D01*
X136428571Y-123084819D02*
X136428571Y-122084819D01*
X136428571Y-122084819D02*
X136333333Y-122227676D01*
X136333333Y-122227676D02*
X136238095Y-122322914D01*
X136238095Y-122322914D02*
X136142857Y-122370533D01*
X137142857Y-123084819D02*
X137142857Y-122084819D01*
X137238095Y-122703866D02*
X137523809Y-123084819D01*
X137523809Y-122418152D02*
X137142857Y-122799104D01*
X133095237Y-114584819D02*
X132761904Y-114108628D01*
X132523809Y-114584819D02*
X132523809Y-113584819D01*
X132523809Y-113584819D02*
X132904761Y-113584819D01*
X132904761Y-113584819D02*
X132999999Y-113632438D01*
X132999999Y-113632438D02*
X133047618Y-113680057D01*
X133047618Y-113680057D02*
X133095237Y-113775295D01*
X133095237Y-113775295D02*
X133095237Y-113918152D01*
X133095237Y-113918152D02*
X133047618Y-114013390D01*
X133047618Y-114013390D02*
X132999999Y-114061009D01*
X132999999Y-114061009D02*
X132904761Y-114108628D01*
X132904761Y-114108628D02*
X132523809Y-114108628D01*
X134047618Y-114584819D02*
X133476190Y-114584819D01*
X133761904Y-114584819D02*
X133761904Y-113584819D01*
X133761904Y-113584819D02*
X133666666Y-113727676D01*
X133666666Y-113727676D02*
X133571428Y-113822914D01*
X133571428Y-113822914D02*
X133476190Y-113870533D01*
X134666666Y-113584819D02*
X134761904Y-113584819D01*
X134761904Y-113584819D02*
X134857142Y-113632438D01*
X134857142Y-113632438D02*
X134904761Y-113680057D01*
X134904761Y-113680057D02*
X134952380Y-113775295D01*
X134952380Y-113775295D02*
X134999999Y-113965771D01*
X134999999Y-113965771D02*
X134999999Y-114203866D01*
X134999999Y-114203866D02*
X134952380Y-114394342D01*
X134952380Y-114394342D02*
X134904761Y-114489580D01*
X134904761Y-114489580D02*
X134857142Y-114537200D01*
X134857142Y-114537200D02*
X134761904Y-114584819D01*
X134761904Y-114584819D02*
X134666666Y-114584819D01*
X134666666Y-114584819D02*
X134571428Y-114537200D01*
X134571428Y-114537200D02*
X134523809Y-114489580D01*
X134523809Y-114489580D02*
X134476190Y-114394342D01*
X134476190Y-114394342D02*
X134428571Y-114203866D01*
X134428571Y-114203866D02*
X134428571Y-113965771D01*
X134428571Y-113965771D02*
X134476190Y-113775295D01*
X134476190Y-113775295D02*
X134523809Y-113680057D01*
X134523809Y-113680057D02*
X134571428Y-113632438D01*
X134571428Y-113632438D02*
X134666666Y-113584819D01*
X136714285Y-114584819D02*
X136142857Y-114584819D01*
X136428571Y-114584819D02*
X136428571Y-113584819D01*
X136428571Y-113584819D02*
X136333333Y-113727676D01*
X136333333Y-113727676D02*
X136238095Y-113822914D01*
X136238095Y-113822914D02*
X136142857Y-113870533D01*
X137142857Y-114584819D02*
X137142857Y-113584819D01*
X137238095Y-114203866D02*
X137523809Y-114584819D01*
X137523809Y-113918152D02*
X137142857Y-114299104D01*
X134071428Y-106584819D02*
X133738095Y-106108628D01*
X133500000Y-106584819D02*
X133500000Y-105584819D01*
X133500000Y-105584819D02*
X133880952Y-105584819D01*
X133880952Y-105584819D02*
X133976190Y-105632438D01*
X133976190Y-105632438D02*
X134023809Y-105680057D01*
X134023809Y-105680057D02*
X134071428Y-105775295D01*
X134071428Y-105775295D02*
X134071428Y-105918152D01*
X134071428Y-105918152D02*
X134023809Y-106013390D01*
X134023809Y-106013390D02*
X133976190Y-106061009D01*
X133976190Y-106061009D02*
X133880952Y-106108628D01*
X133880952Y-106108628D02*
X133500000Y-106108628D01*
X134547619Y-106584819D02*
X134738095Y-106584819D01*
X134738095Y-106584819D02*
X134833333Y-106537200D01*
X134833333Y-106537200D02*
X134880952Y-106489580D01*
X134880952Y-106489580D02*
X134976190Y-106346723D01*
X134976190Y-106346723D02*
X135023809Y-106156247D01*
X135023809Y-106156247D02*
X135023809Y-105775295D01*
X135023809Y-105775295D02*
X134976190Y-105680057D01*
X134976190Y-105680057D02*
X134928571Y-105632438D01*
X134928571Y-105632438D02*
X134833333Y-105584819D01*
X134833333Y-105584819D02*
X134642857Y-105584819D01*
X134642857Y-105584819D02*
X134547619Y-105632438D01*
X134547619Y-105632438D02*
X134500000Y-105680057D01*
X134500000Y-105680057D02*
X134452381Y-105775295D01*
X134452381Y-105775295D02*
X134452381Y-106013390D01*
X134452381Y-106013390D02*
X134500000Y-106108628D01*
X134500000Y-106108628D02*
X134547619Y-106156247D01*
X134547619Y-106156247D02*
X134642857Y-106203866D01*
X134642857Y-106203866D02*
X134833333Y-106203866D01*
X134833333Y-106203866D02*
X134928571Y-106156247D01*
X134928571Y-106156247D02*
X134976190Y-106108628D01*
X134976190Y-106108628D02*
X135023809Y-106013390D01*
X136738095Y-106584819D02*
X136166667Y-106584819D01*
X136452381Y-106584819D02*
X136452381Y-105584819D01*
X136452381Y-105584819D02*
X136357143Y-105727676D01*
X136357143Y-105727676D02*
X136261905Y-105822914D01*
X136261905Y-105822914D02*
X136166667Y-105870533D01*
X137166667Y-106584819D02*
X137166667Y-105584819D01*
X137261905Y-106203866D02*
X137547619Y-106584819D01*
X137547619Y-105918152D02*
X137166667Y-106299104D01*
X134071428Y-98584819D02*
X133738095Y-98108628D01*
X133500000Y-98584819D02*
X133500000Y-97584819D01*
X133500000Y-97584819D02*
X133880952Y-97584819D01*
X133880952Y-97584819D02*
X133976190Y-97632438D01*
X133976190Y-97632438D02*
X134023809Y-97680057D01*
X134023809Y-97680057D02*
X134071428Y-97775295D01*
X134071428Y-97775295D02*
X134071428Y-97918152D01*
X134071428Y-97918152D02*
X134023809Y-98013390D01*
X134023809Y-98013390D02*
X133976190Y-98061009D01*
X133976190Y-98061009D02*
X133880952Y-98108628D01*
X133880952Y-98108628D02*
X133500000Y-98108628D01*
X134642857Y-98013390D02*
X134547619Y-97965771D01*
X134547619Y-97965771D02*
X134500000Y-97918152D01*
X134500000Y-97918152D02*
X134452381Y-97822914D01*
X134452381Y-97822914D02*
X134452381Y-97775295D01*
X134452381Y-97775295D02*
X134500000Y-97680057D01*
X134500000Y-97680057D02*
X134547619Y-97632438D01*
X134547619Y-97632438D02*
X134642857Y-97584819D01*
X134642857Y-97584819D02*
X134833333Y-97584819D01*
X134833333Y-97584819D02*
X134928571Y-97632438D01*
X134928571Y-97632438D02*
X134976190Y-97680057D01*
X134976190Y-97680057D02*
X135023809Y-97775295D01*
X135023809Y-97775295D02*
X135023809Y-97822914D01*
X135023809Y-97822914D02*
X134976190Y-97918152D01*
X134976190Y-97918152D02*
X134928571Y-97965771D01*
X134928571Y-97965771D02*
X134833333Y-98013390D01*
X134833333Y-98013390D02*
X134642857Y-98013390D01*
X134642857Y-98013390D02*
X134547619Y-98061009D01*
X134547619Y-98061009D02*
X134500000Y-98108628D01*
X134500000Y-98108628D02*
X134452381Y-98203866D01*
X134452381Y-98203866D02*
X134452381Y-98394342D01*
X134452381Y-98394342D02*
X134500000Y-98489580D01*
X134500000Y-98489580D02*
X134547619Y-98537200D01*
X134547619Y-98537200D02*
X134642857Y-98584819D01*
X134642857Y-98584819D02*
X134833333Y-98584819D01*
X134833333Y-98584819D02*
X134928571Y-98537200D01*
X134928571Y-98537200D02*
X134976190Y-98489580D01*
X134976190Y-98489580D02*
X135023809Y-98394342D01*
X135023809Y-98394342D02*
X135023809Y-98203866D01*
X135023809Y-98203866D02*
X134976190Y-98108628D01*
X134976190Y-98108628D02*
X134928571Y-98061009D01*
X134928571Y-98061009D02*
X134833333Y-98013390D01*
X136738095Y-98584819D02*
X136166667Y-98584819D01*
X136452381Y-98584819D02*
X136452381Y-97584819D01*
X136452381Y-97584819D02*
X136357143Y-97727676D01*
X136357143Y-97727676D02*
X136261905Y-97822914D01*
X136261905Y-97822914D02*
X136166667Y-97870533D01*
X137166667Y-98584819D02*
X137166667Y-97584819D01*
X137261905Y-98203866D02*
X137547619Y-98584819D01*
X137547619Y-97918152D02*
X137166667Y-98299104D01*
X134071428Y-91084819D02*
X133738095Y-90608628D01*
X133500000Y-91084819D02*
X133500000Y-90084819D01*
X133500000Y-90084819D02*
X133880952Y-90084819D01*
X133880952Y-90084819D02*
X133976190Y-90132438D01*
X133976190Y-90132438D02*
X134023809Y-90180057D01*
X134023809Y-90180057D02*
X134071428Y-90275295D01*
X134071428Y-90275295D02*
X134071428Y-90418152D01*
X134071428Y-90418152D02*
X134023809Y-90513390D01*
X134023809Y-90513390D02*
X133976190Y-90561009D01*
X133976190Y-90561009D02*
X133880952Y-90608628D01*
X133880952Y-90608628D02*
X133500000Y-90608628D01*
X134404762Y-90084819D02*
X135071428Y-90084819D01*
X135071428Y-90084819D02*
X134642857Y-91084819D01*
X136738095Y-91084819D02*
X136166667Y-91084819D01*
X136452381Y-91084819D02*
X136452381Y-90084819D01*
X136452381Y-90084819D02*
X136357143Y-90227676D01*
X136357143Y-90227676D02*
X136261905Y-90322914D01*
X136261905Y-90322914D02*
X136166667Y-90370533D01*
X137166667Y-91084819D02*
X137166667Y-90084819D01*
X137261905Y-90703866D02*
X137547619Y-91084819D01*
X137547619Y-90418152D02*
X137166667Y-90799104D01*
X134071428Y-82584819D02*
X133738095Y-82108628D01*
X133500000Y-82584819D02*
X133500000Y-81584819D01*
X133500000Y-81584819D02*
X133880952Y-81584819D01*
X133880952Y-81584819D02*
X133976190Y-81632438D01*
X133976190Y-81632438D02*
X134023809Y-81680057D01*
X134023809Y-81680057D02*
X134071428Y-81775295D01*
X134071428Y-81775295D02*
X134071428Y-81918152D01*
X134071428Y-81918152D02*
X134023809Y-82013390D01*
X134023809Y-82013390D02*
X133976190Y-82061009D01*
X133976190Y-82061009D02*
X133880952Y-82108628D01*
X133880952Y-82108628D02*
X133500000Y-82108628D01*
X134928571Y-81584819D02*
X134738095Y-81584819D01*
X134738095Y-81584819D02*
X134642857Y-81632438D01*
X134642857Y-81632438D02*
X134595238Y-81680057D01*
X134595238Y-81680057D02*
X134500000Y-81822914D01*
X134500000Y-81822914D02*
X134452381Y-82013390D01*
X134452381Y-82013390D02*
X134452381Y-82394342D01*
X134452381Y-82394342D02*
X134500000Y-82489580D01*
X134500000Y-82489580D02*
X134547619Y-82537200D01*
X134547619Y-82537200D02*
X134642857Y-82584819D01*
X134642857Y-82584819D02*
X134833333Y-82584819D01*
X134833333Y-82584819D02*
X134928571Y-82537200D01*
X134928571Y-82537200D02*
X134976190Y-82489580D01*
X134976190Y-82489580D02*
X135023809Y-82394342D01*
X135023809Y-82394342D02*
X135023809Y-82156247D01*
X135023809Y-82156247D02*
X134976190Y-82061009D01*
X134976190Y-82061009D02*
X134928571Y-82013390D01*
X134928571Y-82013390D02*
X134833333Y-81965771D01*
X134833333Y-81965771D02*
X134642857Y-81965771D01*
X134642857Y-81965771D02*
X134547619Y-82013390D01*
X134547619Y-82013390D02*
X134500000Y-82061009D01*
X134500000Y-82061009D02*
X134452381Y-82156247D01*
X136738095Y-82584819D02*
X136166667Y-82584819D01*
X136452381Y-82584819D02*
X136452381Y-81584819D01*
X136452381Y-81584819D02*
X136357143Y-81727676D01*
X136357143Y-81727676D02*
X136261905Y-81822914D01*
X136261905Y-81822914D02*
X136166667Y-81870533D01*
X137166667Y-82584819D02*
X137166667Y-81584819D01*
X137261905Y-82203866D02*
X137547619Y-82584819D01*
X137547619Y-81918152D02*
X137166667Y-82299104D01*
X134071428Y-74584819D02*
X133738095Y-74108628D01*
X133500000Y-74584819D02*
X133500000Y-73584819D01*
X133500000Y-73584819D02*
X133880952Y-73584819D01*
X133880952Y-73584819D02*
X133976190Y-73632438D01*
X133976190Y-73632438D02*
X134023809Y-73680057D01*
X134023809Y-73680057D02*
X134071428Y-73775295D01*
X134071428Y-73775295D02*
X134071428Y-73918152D01*
X134071428Y-73918152D02*
X134023809Y-74013390D01*
X134023809Y-74013390D02*
X133976190Y-74061009D01*
X133976190Y-74061009D02*
X133880952Y-74108628D01*
X133880952Y-74108628D02*
X133500000Y-74108628D01*
X134976190Y-73584819D02*
X134500000Y-73584819D01*
X134500000Y-73584819D02*
X134452381Y-74061009D01*
X134452381Y-74061009D02*
X134500000Y-74013390D01*
X134500000Y-74013390D02*
X134595238Y-73965771D01*
X134595238Y-73965771D02*
X134833333Y-73965771D01*
X134833333Y-73965771D02*
X134928571Y-74013390D01*
X134928571Y-74013390D02*
X134976190Y-74061009D01*
X134976190Y-74061009D02*
X135023809Y-74156247D01*
X135023809Y-74156247D02*
X135023809Y-74394342D01*
X135023809Y-74394342D02*
X134976190Y-74489580D01*
X134976190Y-74489580D02*
X134928571Y-74537200D01*
X134928571Y-74537200D02*
X134833333Y-74584819D01*
X134833333Y-74584819D02*
X134595238Y-74584819D01*
X134595238Y-74584819D02*
X134500000Y-74537200D01*
X134500000Y-74537200D02*
X134452381Y-74489580D01*
X136738095Y-74584819D02*
X136166667Y-74584819D01*
X136452381Y-74584819D02*
X136452381Y-73584819D01*
X136452381Y-73584819D02*
X136357143Y-73727676D01*
X136357143Y-73727676D02*
X136261905Y-73822914D01*
X136261905Y-73822914D02*
X136166667Y-73870533D01*
X137166667Y-74584819D02*
X137166667Y-73584819D01*
X137261905Y-74203866D02*
X137547619Y-74584819D01*
X137547619Y-73918152D02*
X137166667Y-74299104D01*
X109454819Y-91476190D02*
X108978628Y-91809523D01*
X109454819Y-92047618D02*
X108454819Y-92047618D01*
X108454819Y-92047618D02*
X108454819Y-91666666D01*
X108454819Y-91666666D02*
X108502438Y-91571428D01*
X108502438Y-91571428D02*
X108550057Y-91523809D01*
X108550057Y-91523809D02*
X108645295Y-91476190D01*
X108645295Y-91476190D02*
X108788152Y-91476190D01*
X108788152Y-91476190D02*
X108883390Y-91523809D01*
X108883390Y-91523809D02*
X108931009Y-91571428D01*
X108931009Y-91571428D02*
X108978628Y-91666666D01*
X108978628Y-91666666D02*
X108978628Y-92047618D01*
X108550057Y-91095237D02*
X108502438Y-91047618D01*
X108502438Y-91047618D02*
X108454819Y-90952380D01*
X108454819Y-90952380D02*
X108454819Y-90714285D01*
X108454819Y-90714285D02*
X108502438Y-90619047D01*
X108502438Y-90619047D02*
X108550057Y-90571428D01*
X108550057Y-90571428D02*
X108645295Y-90523809D01*
X108645295Y-90523809D02*
X108740533Y-90523809D01*
X108740533Y-90523809D02*
X108883390Y-90571428D01*
X108883390Y-90571428D02*
X109454819Y-91142856D01*
X109454819Y-91142856D02*
X109454819Y-90523809D01*
X109454819Y-88809523D02*
X109454819Y-89380951D01*
X109454819Y-89095237D02*
X108454819Y-89095237D01*
X108454819Y-89095237D02*
X108597676Y-89190475D01*
X108597676Y-89190475D02*
X108692914Y-89285713D01*
X108692914Y-89285713D02*
X108740533Y-89380951D01*
X108454819Y-88190475D02*
X108454819Y-88095237D01*
X108454819Y-88095237D02*
X108502438Y-87999999D01*
X108502438Y-87999999D02*
X108550057Y-87952380D01*
X108550057Y-87952380D02*
X108645295Y-87904761D01*
X108645295Y-87904761D02*
X108835771Y-87857142D01*
X108835771Y-87857142D02*
X109073866Y-87857142D01*
X109073866Y-87857142D02*
X109264342Y-87904761D01*
X109264342Y-87904761D02*
X109359580Y-87952380D01*
X109359580Y-87952380D02*
X109407200Y-87999999D01*
X109407200Y-87999999D02*
X109454819Y-88095237D01*
X109454819Y-88095237D02*
X109454819Y-88190475D01*
X109454819Y-88190475D02*
X109407200Y-88285713D01*
X109407200Y-88285713D02*
X109359580Y-88333332D01*
X109359580Y-88333332D02*
X109264342Y-88380951D01*
X109264342Y-88380951D02*
X109073866Y-88428570D01*
X109073866Y-88428570D02*
X108835771Y-88428570D01*
X108835771Y-88428570D02*
X108645295Y-88380951D01*
X108645295Y-88380951D02*
X108550057Y-88333332D01*
X108550057Y-88333332D02*
X108502438Y-88285713D01*
X108502438Y-88285713D02*
X108454819Y-88190475D01*
X108454819Y-87238094D02*
X108454819Y-87142856D01*
X108454819Y-87142856D02*
X108502438Y-87047618D01*
X108502438Y-87047618D02*
X108550057Y-86999999D01*
X108550057Y-86999999D02*
X108645295Y-86952380D01*
X108645295Y-86952380D02*
X108835771Y-86904761D01*
X108835771Y-86904761D02*
X109073866Y-86904761D01*
X109073866Y-86904761D02*
X109264342Y-86952380D01*
X109264342Y-86952380D02*
X109359580Y-86999999D01*
X109359580Y-86999999D02*
X109407200Y-87047618D01*
X109407200Y-87047618D02*
X109454819Y-87142856D01*
X109454819Y-87142856D02*
X109454819Y-87238094D01*
X109454819Y-87238094D02*
X109407200Y-87333332D01*
X109407200Y-87333332D02*
X109359580Y-87380951D01*
X109359580Y-87380951D02*
X109264342Y-87428570D01*
X109264342Y-87428570D02*
X109073866Y-87476189D01*
X109073866Y-87476189D02*
X108835771Y-87476189D01*
X108835771Y-87476189D02*
X108645295Y-87428570D01*
X108645295Y-87428570D02*
X108550057Y-87380951D01*
X108550057Y-87380951D02*
X108502438Y-87333332D01*
X108502438Y-87333332D02*
X108454819Y-87238094D01*
X109454819Y-86476189D02*
X108454819Y-86476189D01*
X109454819Y-85904761D02*
X108883390Y-86333332D01*
X108454819Y-85904761D02*
X109026247Y-86476189D01*
X109454819Y-76500000D02*
X108978628Y-76833333D01*
X109454819Y-77071428D02*
X108454819Y-77071428D01*
X108454819Y-77071428D02*
X108454819Y-76690476D01*
X108454819Y-76690476D02*
X108502438Y-76595238D01*
X108502438Y-76595238D02*
X108550057Y-76547619D01*
X108550057Y-76547619D02*
X108645295Y-76500000D01*
X108645295Y-76500000D02*
X108788152Y-76500000D01*
X108788152Y-76500000D02*
X108883390Y-76547619D01*
X108883390Y-76547619D02*
X108931009Y-76595238D01*
X108931009Y-76595238D02*
X108978628Y-76690476D01*
X108978628Y-76690476D02*
X108978628Y-77071428D01*
X109454819Y-75547619D02*
X109454819Y-76119047D01*
X109454819Y-75833333D02*
X108454819Y-75833333D01*
X108454819Y-75833333D02*
X108597676Y-75928571D01*
X108597676Y-75928571D02*
X108692914Y-76023809D01*
X108692914Y-76023809D02*
X108740533Y-76119047D01*
X109454819Y-73833333D02*
X109454819Y-74404761D01*
X109454819Y-74119047D02*
X108454819Y-74119047D01*
X108454819Y-74119047D02*
X108597676Y-74214285D01*
X108597676Y-74214285D02*
X108692914Y-74309523D01*
X108692914Y-74309523D02*
X108740533Y-74404761D01*
X108454819Y-73214285D02*
X108454819Y-73119047D01*
X108454819Y-73119047D02*
X108502438Y-73023809D01*
X108502438Y-73023809D02*
X108550057Y-72976190D01*
X108550057Y-72976190D02*
X108645295Y-72928571D01*
X108645295Y-72928571D02*
X108835771Y-72880952D01*
X108835771Y-72880952D02*
X109073866Y-72880952D01*
X109073866Y-72880952D02*
X109264342Y-72928571D01*
X109264342Y-72928571D02*
X109359580Y-72976190D01*
X109359580Y-72976190D02*
X109407200Y-73023809D01*
X109407200Y-73023809D02*
X109454819Y-73119047D01*
X109454819Y-73119047D02*
X109454819Y-73214285D01*
X109454819Y-73214285D02*
X109407200Y-73309523D01*
X109407200Y-73309523D02*
X109359580Y-73357142D01*
X109359580Y-73357142D02*
X109264342Y-73404761D01*
X109264342Y-73404761D02*
X109073866Y-73452380D01*
X109073866Y-73452380D02*
X108835771Y-73452380D01*
X108835771Y-73452380D02*
X108645295Y-73404761D01*
X108645295Y-73404761D02*
X108550057Y-73357142D01*
X108550057Y-73357142D02*
X108502438Y-73309523D01*
X108502438Y-73309523D02*
X108454819Y-73214285D01*
X109454819Y-72452380D02*
X108454819Y-72452380D01*
X109454819Y-71880952D02*
X108883390Y-72309523D01*
X108454819Y-71880952D02*
X109026247Y-72452380D01*
X146515714Y-129994819D02*
X146515714Y-128994819D01*
X146515714Y-128994819D02*
X146753809Y-128994819D01*
X146753809Y-128994819D02*
X146896666Y-129042438D01*
X146896666Y-129042438D02*
X146991904Y-129137676D01*
X146991904Y-129137676D02*
X147039523Y-129232914D01*
X147039523Y-129232914D02*
X147087142Y-129423390D01*
X147087142Y-129423390D02*
X147087142Y-129566247D01*
X147087142Y-129566247D02*
X147039523Y-129756723D01*
X147039523Y-129756723D02*
X146991904Y-129851961D01*
X146991904Y-129851961D02*
X146896666Y-129947200D01*
X146896666Y-129947200D02*
X146753809Y-129994819D01*
X146753809Y-129994819D02*
X146515714Y-129994819D01*
X148039523Y-129994819D02*
X147468095Y-129994819D01*
X147753809Y-129994819D02*
X147753809Y-128994819D01*
X147753809Y-128994819D02*
X147658571Y-129137676D01*
X147658571Y-129137676D02*
X147563333Y-129232914D01*
X147563333Y-129232914D02*
X147468095Y-129280533D01*
X148658571Y-128994819D02*
X148753809Y-128994819D01*
X148753809Y-128994819D02*
X148849047Y-129042438D01*
X148849047Y-129042438D02*
X148896666Y-129090057D01*
X148896666Y-129090057D02*
X148944285Y-129185295D01*
X148944285Y-129185295D02*
X148991904Y-129375771D01*
X148991904Y-129375771D02*
X148991904Y-129613866D01*
X148991904Y-129613866D02*
X148944285Y-129804342D01*
X148944285Y-129804342D02*
X148896666Y-129899580D01*
X148896666Y-129899580D02*
X148849047Y-129947200D01*
X148849047Y-129947200D02*
X148753809Y-129994819D01*
X148753809Y-129994819D02*
X148658571Y-129994819D01*
X148658571Y-129994819D02*
X148563333Y-129947200D01*
X148563333Y-129947200D02*
X148515714Y-129899580D01*
X148515714Y-129899580D02*
X148468095Y-129804342D01*
X148468095Y-129804342D02*
X148420476Y-129613866D01*
X148420476Y-129613866D02*
X148420476Y-129375771D01*
X148420476Y-129375771D02*
X148468095Y-129185295D01*
X148468095Y-129185295D02*
X148515714Y-129090057D01*
X148515714Y-129090057D02*
X148563333Y-129042438D01*
X148563333Y-129042438D02*
X148658571Y-128994819D01*
X146991905Y-121494819D02*
X146991905Y-120494819D01*
X146991905Y-120494819D02*
X147230000Y-120494819D01*
X147230000Y-120494819D02*
X147372857Y-120542438D01*
X147372857Y-120542438D02*
X147468095Y-120637676D01*
X147468095Y-120637676D02*
X147515714Y-120732914D01*
X147515714Y-120732914D02*
X147563333Y-120923390D01*
X147563333Y-120923390D02*
X147563333Y-121066247D01*
X147563333Y-121066247D02*
X147515714Y-121256723D01*
X147515714Y-121256723D02*
X147468095Y-121351961D01*
X147468095Y-121351961D02*
X147372857Y-121447200D01*
X147372857Y-121447200D02*
X147230000Y-121494819D01*
X147230000Y-121494819D02*
X146991905Y-121494819D01*
X148039524Y-121494819D02*
X148230000Y-121494819D01*
X148230000Y-121494819D02*
X148325238Y-121447200D01*
X148325238Y-121447200D02*
X148372857Y-121399580D01*
X148372857Y-121399580D02*
X148468095Y-121256723D01*
X148468095Y-121256723D02*
X148515714Y-121066247D01*
X148515714Y-121066247D02*
X148515714Y-120685295D01*
X148515714Y-120685295D02*
X148468095Y-120590057D01*
X148468095Y-120590057D02*
X148420476Y-120542438D01*
X148420476Y-120542438D02*
X148325238Y-120494819D01*
X148325238Y-120494819D02*
X148134762Y-120494819D01*
X148134762Y-120494819D02*
X148039524Y-120542438D01*
X148039524Y-120542438D02*
X147991905Y-120590057D01*
X147991905Y-120590057D02*
X147944286Y-120685295D01*
X147944286Y-120685295D02*
X147944286Y-120923390D01*
X147944286Y-120923390D02*
X147991905Y-121018628D01*
X147991905Y-121018628D02*
X148039524Y-121066247D01*
X148039524Y-121066247D02*
X148134762Y-121113866D01*
X148134762Y-121113866D02*
X148325238Y-121113866D01*
X148325238Y-121113866D02*
X148420476Y-121066247D01*
X148420476Y-121066247D02*
X148468095Y-121018628D01*
X148468095Y-121018628D02*
X148515714Y-120923390D01*
X146761905Y-112994819D02*
X146761905Y-111994819D01*
X146761905Y-111994819D02*
X147000000Y-111994819D01*
X147000000Y-111994819D02*
X147142857Y-112042438D01*
X147142857Y-112042438D02*
X147238095Y-112137676D01*
X147238095Y-112137676D02*
X147285714Y-112232914D01*
X147285714Y-112232914D02*
X147333333Y-112423390D01*
X147333333Y-112423390D02*
X147333333Y-112566247D01*
X147333333Y-112566247D02*
X147285714Y-112756723D01*
X147285714Y-112756723D02*
X147238095Y-112851961D01*
X147238095Y-112851961D02*
X147142857Y-112947200D01*
X147142857Y-112947200D02*
X147000000Y-112994819D01*
X147000000Y-112994819D02*
X146761905Y-112994819D01*
X147904762Y-112423390D02*
X147809524Y-112375771D01*
X147809524Y-112375771D02*
X147761905Y-112328152D01*
X147761905Y-112328152D02*
X147714286Y-112232914D01*
X147714286Y-112232914D02*
X147714286Y-112185295D01*
X147714286Y-112185295D02*
X147761905Y-112090057D01*
X147761905Y-112090057D02*
X147809524Y-112042438D01*
X147809524Y-112042438D02*
X147904762Y-111994819D01*
X147904762Y-111994819D02*
X148095238Y-111994819D01*
X148095238Y-111994819D02*
X148190476Y-112042438D01*
X148190476Y-112042438D02*
X148238095Y-112090057D01*
X148238095Y-112090057D02*
X148285714Y-112185295D01*
X148285714Y-112185295D02*
X148285714Y-112232914D01*
X148285714Y-112232914D02*
X148238095Y-112328152D01*
X148238095Y-112328152D02*
X148190476Y-112375771D01*
X148190476Y-112375771D02*
X148095238Y-112423390D01*
X148095238Y-112423390D02*
X147904762Y-112423390D01*
X147904762Y-112423390D02*
X147809524Y-112471009D01*
X147809524Y-112471009D02*
X147761905Y-112518628D01*
X147761905Y-112518628D02*
X147714286Y-112613866D01*
X147714286Y-112613866D02*
X147714286Y-112804342D01*
X147714286Y-112804342D02*
X147761905Y-112899580D01*
X147761905Y-112899580D02*
X147809524Y-112947200D01*
X147809524Y-112947200D02*
X147904762Y-112994819D01*
X147904762Y-112994819D02*
X148095238Y-112994819D01*
X148095238Y-112994819D02*
X148190476Y-112947200D01*
X148190476Y-112947200D02*
X148238095Y-112899580D01*
X148238095Y-112899580D02*
X148285714Y-112804342D01*
X148285714Y-112804342D02*
X148285714Y-112613866D01*
X148285714Y-112613866D02*
X148238095Y-112518628D01*
X148238095Y-112518628D02*
X148190476Y-112471009D01*
X148190476Y-112471009D02*
X148095238Y-112423390D01*
X146756905Y-104994819D02*
X146756905Y-103994819D01*
X146756905Y-103994819D02*
X146995000Y-103994819D01*
X146995000Y-103994819D02*
X147137857Y-104042438D01*
X147137857Y-104042438D02*
X147233095Y-104137676D01*
X147233095Y-104137676D02*
X147280714Y-104232914D01*
X147280714Y-104232914D02*
X147328333Y-104423390D01*
X147328333Y-104423390D02*
X147328333Y-104566247D01*
X147328333Y-104566247D02*
X147280714Y-104756723D01*
X147280714Y-104756723D02*
X147233095Y-104851961D01*
X147233095Y-104851961D02*
X147137857Y-104947200D01*
X147137857Y-104947200D02*
X146995000Y-104994819D01*
X146995000Y-104994819D02*
X146756905Y-104994819D01*
X147661667Y-103994819D02*
X148328333Y-103994819D01*
X148328333Y-103994819D02*
X147899762Y-104994819D01*
X146491905Y-96994819D02*
X146491905Y-95994819D01*
X146491905Y-95994819D02*
X146730000Y-95994819D01*
X146730000Y-95994819D02*
X146872857Y-96042438D01*
X146872857Y-96042438D02*
X146968095Y-96137676D01*
X146968095Y-96137676D02*
X147015714Y-96232914D01*
X147015714Y-96232914D02*
X147063333Y-96423390D01*
X147063333Y-96423390D02*
X147063333Y-96566247D01*
X147063333Y-96566247D02*
X147015714Y-96756723D01*
X147015714Y-96756723D02*
X146968095Y-96851961D01*
X146968095Y-96851961D02*
X146872857Y-96947200D01*
X146872857Y-96947200D02*
X146730000Y-96994819D01*
X146730000Y-96994819D02*
X146491905Y-96994819D01*
X147920476Y-95994819D02*
X147730000Y-95994819D01*
X147730000Y-95994819D02*
X147634762Y-96042438D01*
X147634762Y-96042438D02*
X147587143Y-96090057D01*
X147587143Y-96090057D02*
X147491905Y-96232914D01*
X147491905Y-96232914D02*
X147444286Y-96423390D01*
X147444286Y-96423390D02*
X147444286Y-96804342D01*
X147444286Y-96804342D02*
X147491905Y-96899580D01*
X147491905Y-96899580D02*
X147539524Y-96947200D01*
X147539524Y-96947200D02*
X147634762Y-96994819D01*
X147634762Y-96994819D02*
X147825238Y-96994819D01*
X147825238Y-96994819D02*
X147920476Y-96947200D01*
X147920476Y-96947200D02*
X147968095Y-96899580D01*
X147968095Y-96899580D02*
X148015714Y-96804342D01*
X148015714Y-96804342D02*
X148015714Y-96566247D01*
X148015714Y-96566247D02*
X147968095Y-96471009D01*
X147968095Y-96471009D02*
X147920476Y-96423390D01*
X147920476Y-96423390D02*
X147825238Y-96375771D01*
X147825238Y-96375771D02*
X147634762Y-96375771D01*
X147634762Y-96375771D02*
X147539524Y-96423390D01*
X147539524Y-96423390D02*
X147491905Y-96471009D01*
X147491905Y-96471009D02*
X147444286Y-96566247D01*
X146491905Y-88994819D02*
X146491905Y-87994819D01*
X146491905Y-87994819D02*
X146730000Y-87994819D01*
X146730000Y-87994819D02*
X146872857Y-88042438D01*
X146872857Y-88042438D02*
X146968095Y-88137676D01*
X146968095Y-88137676D02*
X147015714Y-88232914D01*
X147015714Y-88232914D02*
X147063333Y-88423390D01*
X147063333Y-88423390D02*
X147063333Y-88566247D01*
X147063333Y-88566247D02*
X147015714Y-88756723D01*
X147015714Y-88756723D02*
X146968095Y-88851961D01*
X146968095Y-88851961D02*
X146872857Y-88947200D01*
X146872857Y-88947200D02*
X146730000Y-88994819D01*
X146730000Y-88994819D02*
X146491905Y-88994819D01*
X147968095Y-87994819D02*
X147491905Y-87994819D01*
X147491905Y-87994819D02*
X147444286Y-88471009D01*
X147444286Y-88471009D02*
X147491905Y-88423390D01*
X147491905Y-88423390D02*
X147587143Y-88375771D01*
X147587143Y-88375771D02*
X147825238Y-88375771D01*
X147825238Y-88375771D02*
X147920476Y-88423390D01*
X147920476Y-88423390D02*
X147968095Y-88471009D01*
X147968095Y-88471009D02*
X148015714Y-88566247D01*
X148015714Y-88566247D02*
X148015714Y-88804342D01*
X148015714Y-88804342D02*
X147968095Y-88899580D01*
X147968095Y-88899580D02*
X147920476Y-88947200D01*
X147920476Y-88947200D02*
X147825238Y-88994819D01*
X147825238Y-88994819D02*
X147587143Y-88994819D01*
X147587143Y-88994819D02*
X147491905Y-88947200D01*
X147491905Y-88947200D02*
X147444286Y-88899580D01*
X146491905Y-80994819D02*
X146491905Y-79994819D01*
X146491905Y-79994819D02*
X146730000Y-79994819D01*
X146730000Y-79994819D02*
X146872857Y-80042438D01*
X146872857Y-80042438D02*
X146968095Y-80137676D01*
X146968095Y-80137676D02*
X147015714Y-80232914D01*
X147015714Y-80232914D02*
X147063333Y-80423390D01*
X147063333Y-80423390D02*
X147063333Y-80566247D01*
X147063333Y-80566247D02*
X147015714Y-80756723D01*
X147015714Y-80756723D02*
X146968095Y-80851961D01*
X146968095Y-80851961D02*
X146872857Y-80947200D01*
X146872857Y-80947200D02*
X146730000Y-80994819D01*
X146730000Y-80994819D02*
X146491905Y-80994819D01*
X147920476Y-80328152D02*
X147920476Y-80994819D01*
X147682381Y-79947200D02*
X147444286Y-80661485D01*
X147444286Y-80661485D02*
X148063333Y-80661485D01*
X146491905Y-72994819D02*
X146491905Y-71994819D01*
X146491905Y-71994819D02*
X146730000Y-71994819D01*
X146730000Y-71994819D02*
X146872857Y-72042438D01*
X146872857Y-72042438D02*
X146968095Y-72137676D01*
X146968095Y-72137676D02*
X147015714Y-72232914D01*
X147015714Y-72232914D02*
X147063333Y-72423390D01*
X147063333Y-72423390D02*
X147063333Y-72566247D01*
X147063333Y-72566247D02*
X147015714Y-72756723D01*
X147015714Y-72756723D02*
X146968095Y-72851961D01*
X146968095Y-72851961D02*
X146872857Y-72947200D01*
X146872857Y-72947200D02*
X146730000Y-72994819D01*
X146730000Y-72994819D02*
X146491905Y-72994819D01*
X147396667Y-71994819D02*
X148015714Y-71994819D01*
X148015714Y-71994819D02*
X147682381Y-72375771D01*
X147682381Y-72375771D02*
X147825238Y-72375771D01*
X147825238Y-72375771D02*
X147920476Y-72423390D01*
X147920476Y-72423390D02*
X147968095Y-72471009D01*
X147968095Y-72471009D02*
X148015714Y-72566247D01*
X148015714Y-72566247D02*
X148015714Y-72804342D01*
X148015714Y-72804342D02*
X147968095Y-72899580D01*
X147968095Y-72899580D02*
X147920476Y-72947200D01*
X147920476Y-72947200D02*
X147825238Y-72994819D01*
X147825238Y-72994819D02*
X147539524Y-72994819D01*
X147539524Y-72994819D02*
X147444286Y-72947200D01*
X147444286Y-72947200D02*
X147396667Y-72899580D01*
X146491905Y-64494819D02*
X146491905Y-63494819D01*
X146491905Y-63494819D02*
X146730000Y-63494819D01*
X146730000Y-63494819D02*
X146872857Y-63542438D01*
X146872857Y-63542438D02*
X146968095Y-63637676D01*
X146968095Y-63637676D02*
X147015714Y-63732914D01*
X147015714Y-63732914D02*
X147063333Y-63923390D01*
X147063333Y-63923390D02*
X147063333Y-64066247D01*
X147063333Y-64066247D02*
X147015714Y-64256723D01*
X147015714Y-64256723D02*
X146968095Y-64351961D01*
X146968095Y-64351961D02*
X146872857Y-64447200D01*
X146872857Y-64447200D02*
X146730000Y-64494819D01*
X146730000Y-64494819D02*
X146491905Y-64494819D01*
X147444286Y-63590057D02*
X147491905Y-63542438D01*
X147491905Y-63542438D02*
X147587143Y-63494819D01*
X147587143Y-63494819D02*
X147825238Y-63494819D01*
X147825238Y-63494819D02*
X147920476Y-63542438D01*
X147920476Y-63542438D02*
X147968095Y-63590057D01*
X147968095Y-63590057D02*
X148015714Y-63685295D01*
X148015714Y-63685295D02*
X148015714Y-63780533D01*
X148015714Y-63780533D02*
X147968095Y-63923390D01*
X147968095Y-63923390D02*
X147396667Y-64494819D01*
X147396667Y-64494819D02*
X148015714Y-64494819D01*
X119511904Y-122859580D02*
X119464285Y-122907200D01*
X119464285Y-122907200D02*
X119321428Y-122954819D01*
X119321428Y-122954819D02*
X119226190Y-122954819D01*
X119226190Y-122954819D02*
X119083333Y-122907200D01*
X119083333Y-122907200D02*
X118988095Y-122811961D01*
X118988095Y-122811961D02*
X118940476Y-122716723D01*
X118940476Y-122716723D02*
X118892857Y-122526247D01*
X118892857Y-122526247D02*
X118892857Y-122383390D01*
X118892857Y-122383390D02*
X118940476Y-122192914D01*
X118940476Y-122192914D02*
X118988095Y-122097676D01*
X118988095Y-122097676D02*
X119083333Y-122002438D01*
X119083333Y-122002438D02*
X119226190Y-121954819D01*
X119226190Y-121954819D02*
X119321428Y-121954819D01*
X119321428Y-121954819D02*
X119464285Y-122002438D01*
X119464285Y-122002438D02*
X119511904Y-122050057D01*
X120369047Y-122288152D02*
X120369047Y-122954819D01*
X120130952Y-121907200D02*
X119892857Y-122621485D01*
X119892857Y-122621485D02*
X120511904Y-122621485D01*
X122178571Y-122954819D02*
X121607143Y-122954819D01*
X121892857Y-122954819D02*
X121892857Y-121954819D01*
X121892857Y-121954819D02*
X121797619Y-122097676D01*
X121797619Y-122097676D02*
X121702381Y-122192914D01*
X121702381Y-122192914D02*
X121607143Y-122240533D01*
X122797619Y-121954819D02*
X122892857Y-121954819D01*
X122892857Y-121954819D02*
X122988095Y-122002438D01*
X122988095Y-122002438D02*
X123035714Y-122050057D01*
X123035714Y-122050057D02*
X123083333Y-122145295D01*
X123083333Y-122145295D02*
X123130952Y-122335771D01*
X123130952Y-122335771D02*
X123130952Y-122573866D01*
X123130952Y-122573866D02*
X123083333Y-122764342D01*
X123083333Y-122764342D02*
X123035714Y-122859580D01*
X123035714Y-122859580D02*
X122988095Y-122907200D01*
X122988095Y-122907200D02*
X122892857Y-122954819D01*
X122892857Y-122954819D02*
X122797619Y-122954819D01*
X122797619Y-122954819D02*
X122702381Y-122907200D01*
X122702381Y-122907200D02*
X122654762Y-122859580D01*
X122654762Y-122859580D02*
X122607143Y-122764342D01*
X122607143Y-122764342D02*
X122559524Y-122573866D01*
X122559524Y-122573866D02*
X122559524Y-122335771D01*
X122559524Y-122335771D02*
X122607143Y-122145295D01*
X122607143Y-122145295D02*
X122654762Y-122050057D01*
X122654762Y-122050057D02*
X122702381Y-122002438D01*
X122702381Y-122002438D02*
X122797619Y-121954819D01*
X123750000Y-121954819D02*
X123845238Y-121954819D01*
X123845238Y-121954819D02*
X123940476Y-122002438D01*
X123940476Y-122002438D02*
X123988095Y-122050057D01*
X123988095Y-122050057D02*
X124035714Y-122145295D01*
X124035714Y-122145295D02*
X124083333Y-122335771D01*
X124083333Y-122335771D02*
X124083333Y-122573866D01*
X124083333Y-122573866D02*
X124035714Y-122764342D01*
X124035714Y-122764342D02*
X123988095Y-122859580D01*
X123988095Y-122859580D02*
X123940476Y-122907200D01*
X123940476Y-122907200D02*
X123845238Y-122954819D01*
X123845238Y-122954819D02*
X123750000Y-122954819D01*
X123750000Y-122954819D02*
X123654762Y-122907200D01*
X123654762Y-122907200D02*
X123607143Y-122859580D01*
X123607143Y-122859580D02*
X123559524Y-122764342D01*
X123559524Y-122764342D02*
X123511905Y-122573866D01*
X123511905Y-122573866D02*
X123511905Y-122335771D01*
X123511905Y-122335771D02*
X123559524Y-122145295D01*
X123559524Y-122145295D02*
X123607143Y-122050057D01*
X123607143Y-122050057D02*
X123654762Y-122002438D01*
X123654762Y-122002438D02*
X123750000Y-121954819D01*
X125273810Y-122288152D02*
X125273810Y-122954819D01*
X125273810Y-122383390D02*
X125321429Y-122335771D01*
X125321429Y-122335771D02*
X125416667Y-122288152D01*
X125416667Y-122288152D02*
X125559524Y-122288152D01*
X125559524Y-122288152D02*
X125654762Y-122335771D01*
X125654762Y-122335771D02*
X125702381Y-122431009D01*
X125702381Y-122431009D02*
X125702381Y-122954819D01*
X126511905Y-122431009D02*
X126178572Y-122431009D01*
X126178572Y-122954819D02*
X126178572Y-121954819D01*
X126178572Y-121954819D02*
X126654762Y-121954819D01*
X108511904Y-61359580D02*
X108464285Y-61407200D01*
X108464285Y-61407200D02*
X108321428Y-61454819D01*
X108321428Y-61454819D02*
X108226190Y-61454819D01*
X108226190Y-61454819D02*
X108083333Y-61407200D01*
X108083333Y-61407200D02*
X107988095Y-61311961D01*
X107988095Y-61311961D02*
X107940476Y-61216723D01*
X107940476Y-61216723D02*
X107892857Y-61026247D01*
X107892857Y-61026247D02*
X107892857Y-60883390D01*
X107892857Y-60883390D02*
X107940476Y-60692914D01*
X107940476Y-60692914D02*
X107988095Y-60597676D01*
X107988095Y-60597676D02*
X108083333Y-60502438D01*
X108083333Y-60502438D02*
X108226190Y-60454819D01*
X108226190Y-60454819D02*
X108321428Y-60454819D01*
X108321428Y-60454819D02*
X108464285Y-60502438D01*
X108464285Y-60502438D02*
X108511904Y-60550057D01*
X108845238Y-60454819D02*
X109464285Y-60454819D01*
X109464285Y-60454819D02*
X109130952Y-60835771D01*
X109130952Y-60835771D02*
X109273809Y-60835771D01*
X109273809Y-60835771D02*
X109369047Y-60883390D01*
X109369047Y-60883390D02*
X109416666Y-60931009D01*
X109416666Y-60931009D02*
X109464285Y-61026247D01*
X109464285Y-61026247D02*
X109464285Y-61264342D01*
X109464285Y-61264342D02*
X109416666Y-61359580D01*
X109416666Y-61359580D02*
X109369047Y-61407200D01*
X109369047Y-61407200D02*
X109273809Y-61454819D01*
X109273809Y-61454819D02*
X108988095Y-61454819D01*
X108988095Y-61454819D02*
X108892857Y-61407200D01*
X108892857Y-61407200D02*
X108845238Y-61359580D01*
X111178571Y-61454819D02*
X110607143Y-61454819D01*
X110892857Y-61454819D02*
X110892857Y-60454819D01*
X110892857Y-60454819D02*
X110797619Y-60597676D01*
X110797619Y-60597676D02*
X110702381Y-60692914D01*
X110702381Y-60692914D02*
X110607143Y-60740533D01*
X111797619Y-60454819D02*
X111892857Y-60454819D01*
X111892857Y-60454819D02*
X111988095Y-60502438D01*
X111988095Y-60502438D02*
X112035714Y-60550057D01*
X112035714Y-60550057D02*
X112083333Y-60645295D01*
X112083333Y-60645295D02*
X112130952Y-60835771D01*
X112130952Y-60835771D02*
X112130952Y-61073866D01*
X112130952Y-61073866D02*
X112083333Y-61264342D01*
X112083333Y-61264342D02*
X112035714Y-61359580D01*
X112035714Y-61359580D02*
X111988095Y-61407200D01*
X111988095Y-61407200D02*
X111892857Y-61454819D01*
X111892857Y-61454819D02*
X111797619Y-61454819D01*
X111797619Y-61454819D02*
X111702381Y-61407200D01*
X111702381Y-61407200D02*
X111654762Y-61359580D01*
X111654762Y-61359580D02*
X111607143Y-61264342D01*
X111607143Y-61264342D02*
X111559524Y-61073866D01*
X111559524Y-61073866D02*
X111559524Y-60835771D01*
X111559524Y-60835771D02*
X111607143Y-60645295D01*
X111607143Y-60645295D02*
X111654762Y-60550057D01*
X111654762Y-60550057D02*
X111702381Y-60502438D01*
X111702381Y-60502438D02*
X111797619Y-60454819D01*
X112750000Y-60454819D02*
X112845238Y-60454819D01*
X112845238Y-60454819D02*
X112940476Y-60502438D01*
X112940476Y-60502438D02*
X112988095Y-60550057D01*
X112988095Y-60550057D02*
X113035714Y-60645295D01*
X113035714Y-60645295D02*
X113083333Y-60835771D01*
X113083333Y-60835771D02*
X113083333Y-61073866D01*
X113083333Y-61073866D02*
X113035714Y-61264342D01*
X113035714Y-61264342D02*
X112988095Y-61359580D01*
X112988095Y-61359580D02*
X112940476Y-61407200D01*
X112940476Y-61407200D02*
X112845238Y-61454819D01*
X112845238Y-61454819D02*
X112750000Y-61454819D01*
X112750000Y-61454819D02*
X112654762Y-61407200D01*
X112654762Y-61407200D02*
X112607143Y-61359580D01*
X112607143Y-61359580D02*
X112559524Y-61264342D01*
X112559524Y-61264342D02*
X112511905Y-61073866D01*
X112511905Y-61073866D02*
X112511905Y-60835771D01*
X112511905Y-60835771D02*
X112559524Y-60645295D01*
X112559524Y-60645295D02*
X112607143Y-60550057D01*
X112607143Y-60550057D02*
X112654762Y-60502438D01*
X112654762Y-60502438D02*
X112750000Y-60454819D01*
X114273810Y-60788152D02*
X114273810Y-61454819D01*
X114273810Y-60883390D02*
X114321429Y-60835771D01*
X114321429Y-60835771D02*
X114416667Y-60788152D01*
X114416667Y-60788152D02*
X114559524Y-60788152D01*
X114559524Y-60788152D02*
X114654762Y-60835771D01*
X114654762Y-60835771D02*
X114702381Y-60931009D01*
X114702381Y-60931009D02*
X114702381Y-61454819D01*
X115511905Y-60931009D02*
X115178572Y-60931009D01*
X115178572Y-61454819D02*
X115178572Y-60454819D01*
X115178572Y-60454819D02*
X115654762Y-60454819D01*
X109369047Y-108859580D02*
X109321428Y-108907200D01*
X109321428Y-108907200D02*
X109178571Y-108954819D01*
X109178571Y-108954819D02*
X109083333Y-108954819D01*
X109083333Y-108954819D02*
X108940476Y-108907200D01*
X108940476Y-108907200D02*
X108845238Y-108811961D01*
X108845238Y-108811961D02*
X108797619Y-108716723D01*
X108797619Y-108716723D02*
X108750000Y-108526247D01*
X108750000Y-108526247D02*
X108750000Y-108383390D01*
X108750000Y-108383390D02*
X108797619Y-108192914D01*
X108797619Y-108192914D02*
X108845238Y-108097676D01*
X108845238Y-108097676D02*
X108940476Y-108002438D01*
X108940476Y-108002438D02*
X109083333Y-107954819D01*
X109083333Y-107954819D02*
X109178571Y-107954819D01*
X109178571Y-107954819D02*
X109321428Y-108002438D01*
X109321428Y-108002438D02*
X109369047Y-108050057D01*
X109750000Y-108050057D02*
X109797619Y-108002438D01*
X109797619Y-108002438D02*
X109892857Y-107954819D01*
X109892857Y-107954819D02*
X110130952Y-107954819D01*
X110130952Y-107954819D02*
X110226190Y-108002438D01*
X110226190Y-108002438D02*
X110273809Y-108050057D01*
X110273809Y-108050057D02*
X110321428Y-108145295D01*
X110321428Y-108145295D02*
X110321428Y-108240533D01*
X110321428Y-108240533D02*
X110273809Y-108383390D01*
X110273809Y-108383390D02*
X109702381Y-108954819D01*
X109702381Y-108954819D02*
X110321428Y-108954819D01*
X112035714Y-108954819D02*
X111464286Y-108954819D01*
X111750000Y-108954819D02*
X111750000Y-107954819D01*
X111750000Y-107954819D02*
X111654762Y-108097676D01*
X111654762Y-108097676D02*
X111559524Y-108192914D01*
X111559524Y-108192914D02*
X111464286Y-108240533D01*
X112654762Y-107954819D02*
X112750000Y-107954819D01*
X112750000Y-107954819D02*
X112845238Y-108002438D01*
X112845238Y-108002438D02*
X112892857Y-108050057D01*
X112892857Y-108050057D02*
X112940476Y-108145295D01*
X112940476Y-108145295D02*
X112988095Y-108335771D01*
X112988095Y-108335771D02*
X112988095Y-108573866D01*
X112988095Y-108573866D02*
X112940476Y-108764342D01*
X112940476Y-108764342D02*
X112892857Y-108859580D01*
X112892857Y-108859580D02*
X112845238Y-108907200D01*
X112845238Y-108907200D02*
X112750000Y-108954819D01*
X112750000Y-108954819D02*
X112654762Y-108954819D01*
X112654762Y-108954819D02*
X112559524Y-108907200D01*
X112559524Y-108907200D02*
X112511905Y-108859580D01*
X112511905Y-108859580D02*
X112464286Y-108764342D01*
X112464286Y-108764342D02*
X112416667Y-108573866D01*
X112416667Y-108573866D02*
X112416667Y-108335771D01*
X112416667Y-108335771D02*
X112464286Y-108145295D01*
X112464286Y-108145295D02*
X112511905Y-108050057D01*
X112511905Y-108050057D02*
X112559524Y-108002438D01*
X112559524Y-108002438D02*
X112654762Y-107954819D01*
X113416667Y-108288152D02*
X113416667Y-108954819D01*
X113416667Y-108383390D02*
X113464286Y-108335771D01*
X113464286Y-108335771D02*
X113559524Y-108288152D01*
X113559524Y-108288152D02*
X113702381Y-108288152D01*
X113702381Y-108288152D02*
X113797619Y-108335771D01*
X113797619Y-108335771D02*
X113845238Y-108431009D01*
X113845238Y-108431009D02*
X113845238Y-108954819D01*
X114654762Y-108431009D02*
X114321429Y-108431009D01*
X114321429Y-108954819D02*
X114321429Y-107954819D01*
X114321429Y-107954819D02*
X114797619Y-107954819D01*
X109619047Y-97109580D02*
X109571428Y-97157200D01*
X109571428Y-97157200D02*
X109428571Y-97204819D01*
X109428571Y-97204819D02*
X109333333Y-97204819D01*
X109333333Y-97204819D02*
X109190476Y-97157200D01*
X109190476Y-97157200D02*
X109095238Y-97061961D01*
X109095238Y-97061961D02*
X109047619Y-96966723D01*
X109047619Y-96966723D02*
X109000000Y-96776247D01*
X109000000Y-96776247D02*
X109000000Y-96633390D01*
X109000000Y-96633390D02*
X109047619Y-96442914D01*
X109047619Y-96442914D02*
X109095238Y-96347676D01*
X109095238Y-96347676D02*
X109190476Y-96252438D01*
X109190476Y-96252438D02*
X109333333Y-96204819D01*
X109333333Y-96204819D02*
X109428571Y-96204819D01*
X109428571Y-96204819D02*
X109571428Y-96252438D01*
X109571428Y-96252438D02*
X109619047Y-96300057D01*
X110571428Y-97204819D02*
X110000000Y-97204819D01*
X110285714Y-97204819D02*
X110285714Y-96204819D01*
X110285714Y-96204819D02*
X110190476Y-96347676D01*
X110190476Y-96347676D02*
X110095238Y-96442914D01*
X110095238Y-96442914D02*
X110000000Y-96490533D01*
X112285714Y-97204819D02*
X111714286Y-97204819D01*
X112000000Y-97204819D02*
X112000000Y-96204819D01*
X112000000Y-96204819D02*
X111904762Y-96347676D01*
X111904762Y-96347676D02*
X111809524Y-96442914D01*
X111809524Y-96442914D02*
X111714286Y-96490533D01*
X112904762Y-96204819D02*
X113000000Y-96204819D01*
X113000000Y-96204819D02*
X113095238Y-96252438D01*
X113095238Y-96252438D02*
X113142857Y-96300057D01*
X113142857Y-96300057D02*
X113190476Y-96395295D01*
X113190476Y-96395295D02*
X113238095Y-96585771D01*
X113238095Y-96585771D02*
X113238095Y-96823866D01*
X113238095Y-96823866D02*
X113190476Y-97014342D01*
X113190476Y-97014342D02*
X113142857Y-97109580D01*
X113142857Y-97109580D02*
X113095238Y-97157200D01*
X113095238Y-97157200D02*
X113000000Y-97204819D01*
X113000000Y-97204819D02*
X112904762Y-97204819D01*
X112904762Y-97204819D02*
X112809524Y-97157200D01*
X112809524Y-97157200D02*
X112761905Y-97109580D01*
X112761905Y-97109580D02*
X112714286Y-97014342D01*
X112714286Y-97014342D02*
X112666667Y-96823866D01*
X112666667Y-96823866D02*
X112666667Y-96585771D01*
X112666667Y-96585771D02*
X112714286Y-96395295D01*
X112714286Y-96395295D02*
X112761905Y-96300057D01*
X112761905Y-96300057D02*
X112809524Y-96252438D01*
X112809524Y-96252438D02*
X112904762Y-96204819D01*
X114095238Y-96538152D02*
X114095238Y-97204819D01*
X113666667Y-96538152D02*
X113666667Y-97061961D01*
X113666667Y-97061961D02*
X113714286Y-97157200D01*
X113714286Y-97157200D02*
X113809524Y-97204819D01*
X113809524Y-97204819D02*
X113952381Y-97204819D01*
X113952381Y-97204819D02*
X114047619Y-97157200D01*
X114047619Y-97157200D02*
X114095238Y-97109580D01*
X114904762Y-96681009D02*
X114571429Y-96681009D01*
X114571429Y-97204819D02*
X114571429Y-96204819D01*
X114571429Y-96204819D02*
X115047619Y-96204819D01*
%TO.C,R3 1k*%
D12*
X131460000Y-60000000D02*
X132230000Y-60000000D01*
X139540000Y-60000000D02*
X138770000Y-60000000D01*
X132230000Y-58630000D02*
X138770000Y-58630000D01*
X138770000Y-61370000D01*
X132230000Y-61370000D01*
X132230000Y-58630000D01*
%TO.C,R4 1k*%
X132230000Y-66630000D02*
X138770000Y-66630000D01*
X138770000Y-69370000D01*
X132230000Y-69370000D01*
X132230000Y-66630000D01*
X139540000Y-68000000D02*
X138770000Y-68000000D01*
X131460000Y-68000000D02*
X132230000Y-68000000D01*
%TO.C,J1*%
X106880000Y-71495000D02*
X106880000Y-74145000D01*
X104120000Y-74145000D02*
X106880000Y-74145000D01*
X104120000Y-71495000D02*
X106880000Y-71495000D01*
X104120000Y-71495000D02*
X104120000Y-74145000D01*
X104120000Y-70225000D02*
X104120000Y-68845000D01*
X104120000Y-68845000D02*
X105500000Y-68845000D01*
%TO.C,D1*%
X149730000Y-60000000D02*
G75*
G02*
X144730000Y-60000000I-2500000J0D01*
G01*
X144730000Y-60000000D02*
G75*
G02*
X149730000Y-60000000I2500000J0D01*
G01*
X150220000Y-60000000D02*
G75*
G02*
X144670000Y-61544830I-2990000J0D01*
G01*
X144670000Y-58455170D02*
G75*
G02*
X150220000Y-60000000I2560000J-1544830D01*
G01*
X144670000Y-58455000D02*
X144670000Y-61545000D01*
%TO.C,U2 4017*%
X119355000Y-92280000D02*
X119355000Y-112720000D01*
X119355000Y-112720000D02*
X124655000Y-112720000D01*
X121005000Y-92280000D02*
X119355000Y-92280000D01*
X124655000Y-92280000D02*
X123005000Y-92280000D01*
X124655000Y-112720000D02*
X124655000Y-92280000D01*
X123005000Y-92280000D02*
G75*
G02*
X121005000Y-92280000I-1000000J0D01*
G01*
%TO.C,U1 NE555P*%
X119040000Y-75550000D02*
X119040000Y-85830000D01*
X119040000Y-85830000D02*
X124340000Y-85830000D01*
X120690000Y-75550000D02*
X119040000Y-75550000D01*
X124340000Y-75550000D02*
X122690000Y-75550000D01*
X124340000Y-85830000D02*
X124340000Y-75550000D01*
X122690000Y-75550000D02*
G75*
G02*
X120690000Y-75550000I-1000000J0D01*
G01*
%TO.C,R12 1k*%
X130960000Y-133500000D02*
X131730000Y-133500000D01*
X139040000Y-133500000D02*
X138270000Y-133500000D01*
X131730000Y-132130000D02*
X138270000Y-132130000D01*
X138270000Y-134870000D01*
X131730000Y-134870000D01*
X131730000Y-132130000D01*
%TO.C,R11 1k*%
X130960000Y-125000000D02*
X131730000Y-125000000D01*
X139040000Y-125000000D02*
X138270000Y-125000000D01*
X131730000Y-123630000D02*
X138270000Y-123630000D01*
X138270000Y-126370000D01*
X131730000Y-126370000D01*
X131730000Y-123630000D01*
%TO.C,R10 1k*%
X130960000Y-116500000D02*
X131730000Y-116500000D01*
X139040000Y-116500000D02*
X138270000Y-116500000D01*
X131730000Y-115130000D02*
X138270000Y-115130000D01*
X138270000Y-117870000D01*
X131730000Y-117870000D01*
X131730000Y-115130000D01*
%TO.C,R9 1k*%
X131460000Y-108500000D02*
X132230000Y-108500000D01*
X139540000Y-108500000D02*
X138770000Y-108500000D01*
X132230000Y-107130000D02*
X138770000Y-107130000D01*
X138770000Y-109870000D01*
X132230000Y-109870000D01*
X132230000Y-107130000D01*
%TO.C,R8 1k*%
X131460000Y-100500000D02*
X132230000Y-100500000D01*
X139540000Y-100500000D02*
X138770000Y-100500000D01*
X132230000Y-99130000D02*
X138770000Y-99130000D01*
X138770000Y-101870000D01*
X132230000Y-101870000D01*
X132230000Y-99130000D01*
%TO.C,R7 1k*%
X131460000Y-93000000D02*
X132230000Y-93000000D01*
X139540000Y-93000000D02*
X138770000Y-93000000D01*
X132230000Y-91630000D02*
X138770000Y-91630000D01*
X138770000Y-94370000D01*
X132230000Y-94370000D01*
X132230000Y-91630000D01*
%TO.C,R6 1k*%
X131460000Y-84500000D02*
X132230000Y-84500000D01*
X139540000Y-84500000D02*
X138770000Y-84500000D01*
X132230000Y-83130000D02*
X138770000Y-83130000D01*
X138770000Y-85870000D01*
X132230000Y-85870000D01*
X132230000Y-83130000D01*
%TO.C,R5 1k*%
X131460000Y-76500000D02*
X132230000Y-76500000D01*
X139540000Y-76500000D02*
X138770000Y-76500000D01*
X132230000Y-75130000D02*
X138770000Y-75130000D01*
X138770000Y-77870000D01*
X132230000Y-77870000D01*
X132230000Y-75130000D01*
%TO.C,R2 100K*%
X111500000Y-84960000D02*
X111500000Y-85730000D01*
X111500000Y-93040000D02*
X111500000Y-92270000D01*
X110130000Y-85730000D02*
X112870000Y-85730000D01*
X112870000Y-92270000D01*
X110130000Y-92270000D01*
X110130000Y-85730000D01*
%TO.C,R1 10K*%
X111500000Y-70460000D02*
X111500000Y-71230000D01*
X111500000Y-78540000D02*
X111500000Y-77770000D01*
X110130000Y-71230000D02*
X112870000Y-71230000D01*
X112870000Y-77770000D01*
X110130000Y-77770000D01*
X110130000Y-71230000D01*
%TO.C,D10*%
X145170000Y-131955000D02*
X145170000Y-135045000D01*
X145170000Y-131955170D02*
G75*
G02*
X150720000Y-133500000I2560000J-1544830D01*
G01*
X150720000Y-133500000D02*
G75*
G02*
X145170000Y-135044830I-2990000J0D01*
G01*
X150230000Y-133500000D02*
G75*
G02*
X145230000Y-133500000I-2500000J0D01*
G01*
X145230000Y-133500000D02*
G75*
G02*
X150230000Y-133500000I2500000J0D01*
G01*
%TO.C,D9*%
X145170000Y-123455000D02*
X145170000Y-126545000D01*
X145170000Y-123455170D02*
G75*
G02*
X150720000Y-125000000I2560000J-1544830D01*
G01*
X150720000Y-125000000D02*
G75*
G02*
X145170000Y-126544830I-2990000J0D01*
G01*
X150230000Y-125000000D02*
G75*
G02*
X145230000Y-125000000I-2500000J0D01*
G01*
X145230000Y-125000000D02*
G75*
G02*
X150230000Y-125000000I2500000J0D01*
G01*
%TO.C,D8*%
X144940000Y-114955000D02*
X144940000Y-118045000D01*
X144940000Y-114955170D02*
G75*
G02*
X150490000Y-116500000I2560000J-1544830D01*
G01*
X150490000Y-116500000D02*
G75*
G02*
X144940000Y-118044830I-2990000J0D01*
G01*
X150000000Y-116500000D02*
G75*
G02*
X145000000Y-116500000I-2500000J0D01*
G01*
X145000000Y-116500000D02*
G75*
G02*
X150000000Y-116500000I2500000J0D01*
G01*
%TO.C,D7*%
X144935000Y-106955000D02*
X144935000Y-110045000D01*
X144935000Y-106955170D02*
G75*
G02*
X150485000Y-108500000I2560000J-1544830D01*
G01*
X150485000Y-108500000D02*
G75*
G02*
X144935000Y-110044830I-2990000J0D01*
G01*
X149995000Y-108500000D02*
G75*
G02*
X144995000Y-108500000I-2500000J0D01*
G01*
X144995000Y-108500000D02*
G75*
G02*
X149995000Y-108500000I2500000J0D01*
G01*
%TO.C,D6*%
X144670000Y-98955000D02*
X144670000Y-102045000D01*
X144670000Y-98955170D02*
G75*
G02*
X150220000Y-100500000I2560000J-1544830D01*
G01*
X150220000Y-100500000D02*
G75*
G02*
X144670000Y-102044830I-2990000J0D01*
G01*
X149730000Y-100500000D02*
G75*
G02*
X144730000Y-100500000I-2500000J0D01*
G01*
X144730000Y-100500000D02*
G75*
G02*
X149730000Y-100500000I2500000J0D01*
G01*
%TO.C,D5*%
X144670000Y-90955000D02*
X144670000Y-94045000D01*
X144670000Y-90955170D02*
G75*
G02*
X150220000Y-92500000I2560000J-1544830D01*
G01*
X150220000Y-92500000D02*
G75*
G02*
X144670000Y-94044830I-2990000J0D01*
G01*
X149730000Y-92500000D02*
G75*
G02*
X144730000Y-92500000I-2500000J0D01*
G01*
X144730000Y-92500000D02*
G75*
G02*
X149730000Y-92500000I2500000J0D01*
G01*
%TO.C,D4*%
X144670000Y-82955000D02*
X144670000Y-86045000D01*
X144670000Y-82955170D02*
G75*
G02*
X150220000Y-84500000I2560000J-1544830D01*
G01*
X150220000Y-84500000D02*
G75*
G02*
X144670000Y-86044830I-2990000J0D01*
G01*
X149730000Y-84500000D02*
G75*
G02*
X144730000Y-84500000I-2500000J0D01*
G01*
X144730000Y-84500000D02*
G75*
G02*
X149730000Y-84500000I2500000J0D01*
G01*
%TO.C,D3*%
X144670000Y-74955000D02*
X144670000Y-78045000D01*
X144670000Y-74955170D02*
G75*
G02*
X150220000Y-76500000I2560000J-1544830D01*
G01*
X150220000Y-76500000D02*
G75*
G02*
X144670000Y-78044830I-2990000J0D01*
G01*
X149730000Y-76500000D02*
G75*
G02*
X144730000Y-76500000I-2500000J0D01*
G01*
X144730000Y-76500000D02*
G75*
G02*
X149730000Y-76500000I2500000J0D01*
G01*
%TO.C,D2*%
X144670000Y-66455000D02*
X144670000Y-69545000D01*
X144670000Y-66455170D02*
G75*
G02*
X150220000Y-68000000I2560000J-1544830D01*
G01*
X150220000Y-68000000D02*
G75*
G02*
X144670000Y-69544830I-2990000J0D01*
G01*
X149730000Y-68000000D02*
G75*
G02*
X144730000Y-68000000I-2500000J0D01*
G01*
X144730000Y-68000000D02*
G75*
G02*
X149730000Y-68000000I2500000J0D01*
G01*
%TO.C,C4 100 nF*%
X120130000Y-118130000D02*
X125370000Y-118130000D01*
X120130000Y-120870000D02*
X120130000Y-118130000D01*
X125370000Y-118130000D02*
X125370000Y-120870000D01*
X125370000Y-120870000D02*
X120130000Y-120870000D01*
%TO.C,C3 100 nF*%
X109130000Y-62130000D02*
X114370000Y-62130000D01*
X109130000Y-64870000D02*
X109130000Y-62130000D01*
X114370000Y-62130000D02*
X114370000Y-64870000D01*
X114370000Y-64870000D02*
X109130000Y-64870000D01*
%TO.C,C2 10nF*%
X114370000Y-107370000D02*
X109130000Y-107370000D01*
X114370000Y-104630000D02*
X114370000Y-107370000D01*
X109130000Y-107370000D02*
X109130000Y-104630000D01*
X109130000Y-104630000D02*
X114370000Y-104630000D01*
%TO.C,C1 10uF*%
X109195225Y-99025000D02*
X109695225Y-99025000D01*
X109445225Y-98775000D02*
X109445225Y-99275000D01*
X112000000Y-97920000D02*
X112000000Y-99460000D01*
X112000000Y-101540000D02*
X112000000Y-103080000D01*
X112040000Y-97920000D02*
X112040000Y-99460000D01*
X112040000Y-101540000D02*
X112040000Y-103080000D01*
X112080000Y-97921000D02*
X112080000Y-99460000D01*
X112080000Y-101540000D02*
X112080000Y-103079000D01*
X112120000Y-97923000D02*
X112120000Y-99460000D01*
X112120000Y-101540000D02*
X112120000Y-103077000D01*
X112160000Y-97925000D02*
X112160000Y-99460000D01*
X112160000Y-101540000D02*
X112160000Y-103075000D01*
X112200000Y-97928000D02*
X112200000Y-99460000D01*
X112200000Y-101540000D02*
X112200000Y-103072000D01*
X112240000Y-97931000D02*
X112240000Y-99460000D01*
X112240000Y-101540000D02*
X112240000Y-103069000D01*
X112280000Y-97935000D02*
X112280000Y-99460000D01*
X112280000Y-101540000D02*
X112280000Y-103065000D01*
X112320000Y-97940000D02*
X112320000Y-99460000D01*
X112320000Y-101540000D02*
X112320000Y-103060000D01*
X112360000Y-97945000D02*
X112360000Y-99460000D01*
X112360000Y-101540000D02*
X112360000Y-103055000D01*
X112400000Y-97951000D02*
X112400000Y-99460000D01*
X112400000Y-101540000D02*
X112400000Y-103049000D01*
X112440000Y-97957000D02*
X112440000Y-99460000D01*
X112440000Y-101540000D02*
X112440000Y-103043000D01*
X112480000Y-97964000D02*
X112480000Y-99460000D01*
X112480000Y-101540000D02*
X112480000Y-103036000D01*
X112520000Y-97972000D02*
X112520000Y-99460000D01*
X112520000Y-101540000D02*
X112520000Y-103028000D01*
X112560000Y-97981000D02*
X112560000Y-99460000D01*
X112560000Y-101540000D02*
X112560000Y-103019000D01*
X112600000Y-97990000D02*
X112600000Y-99460000D01*
X112600000Y-101540000D02*
X112600000Y-103010000D01*
X112640000Y-97999000D02*
X112640000Y-99460000D01*
X112640000Y-101540000D02*
X112640000Y-103001000D01*
X112680000Y-98010000D02*
X112680000Y-99460000D01*
X112680000Y-101540000D02*
X112680000Y-102990000D01*
X112720000Y-98021000D02*
X112720000Y-99460000D01*
X112720000Y-101540000D02*
X112720000Y-102979000D01*
X112760000Y-98033000D02*
X112760000Y-99460000D01*
X112760000Y-101540000D02*
X112760000Y-102967000D01*
X112800000Y-98045000D02*
X112800000Y-99460000D01*
X112800000Y-101540000D02*
X112800000Y-102955000D01*
X112840000Y-98058000D02*
X112840000Y-99460000D01*
X112840000Y-101540000D02*
X112840000Y-102942000D01*
X112880000Y-98072000D02*
X112880000Y-99460000D01*
X112880000Y-101540000D02*
X112880000Y-102928000D01*
X112920000Y-98087000D02*
X112920000Y-99460000D01*
X112920000Y-101540000D02*
X112920000Y-102913000D01*
X112960000Y-98102000D02*
X112960000Y-99460000D01*
X112960000Y-101540000D02*
X112960000Y-102898000D01*
X113000000Y-98118000D02*
X113000000Y-99460000D01*
X113000000Y-101540000D02*
X113000000Y-102882000D01*
X113040000Y-98135000D02*
X113040000Y-99460000D01*
X113040000Y-101540000D02*
X113040000Y-102865000D01*
X113080000Y-98153000D02*
X113080000Y-99460000D01*
X113080000Y-101540000D02*
X113080000Y-102847000D01*
X113120000Y-98171000D02*
X113120000Y-99460000D01*
X113120000Y-101540000D02*
X113120000Y-102829000D01*
X113160000Y-98191000D02*
X113160000Y-99460000D01*
X113160000Y-101540000D02*
X113160000Y-102809000D01*
X113200000Y-98211000D02*
X113200000Y-99460000D01*
X113200000Y-101540000D02*
X113200000Y-102789000D01*
X113240000Y-98232000D02*
X113240000Y-99460000D01*
X113240000Y-101540000D02*
X113240000Y-102768000D01*
X113280000Y-98254000D02*
X113280000Y-99460000D01*
X113280000Y-101540000D02*
X113280000Y-102746000D01*
X113320000Y-98277000D02*
X113320000Y-99460000D01*
X113320000Y-101540000D02*
X113320000Y-102723000D01*
X113360000Y-98301000D02*
X113360000Y-99460000D01*
X113360000Y-101540000D02*
X113360000Y-102699000D01*
X113400000Y-98325000D02*
X113400000Y-99460000D01*
X113400000Y-101540000D02*
X113400000Y-102675000D01*
X113440000Y-98351000D02*
X113440000Y-99460000D01*
X113440000Y-101540000D02*
X113440000Y-102649000D01*
X113480000Y-98378000D02*
X113480000Y-99460000D01*
X113480000Y-101540000D02*
X113480000Y-102622000D01*
X113520000Y-98406000D02*
X113520000Y-99460000D01*
X113520000Y-101540000D02*
X113520000Y-102594000D01*
X113560000Y-98435000D02*
X113560000Y-99460000D01*
X113560000Y-101540000D02*
X113560000Y-102565000D01*
X113600000Y-98465000D02*
X113600000Y-99460000D01*
X113600000Y-101540000D02*
X113600000Y-102535000D01*
X113640000Y-98497000D02*
X113640000Y-99460000D01*
X113640000Y-101540000D02*
X113640000Y-102503000D01*
X113680000Y-98530000D02*
X113680000Y-99460000D01*
X113680000Y-101540000D02*
X113680000Y-102470000D01*
X113720000Y-98564000D02*
X113720000Y-99460000D01*
X113720000Y-101540000D02*
X113720000Y-102436000D01*
X113760000Y-98599000D02*
X113760000Y-99460000D01*
X113760000Y-101540000D02*
X113760000Y-102401000D01*
X113800000Y-98636000D02*
X113800000Y-99460000D01*
X113800000Y-101540000D02*
X113800000Y-102364000D01*
X113840000Y-98675000D02*
X113840000Y-99460000D01*
X113840000Y-101540000D02*
X113840000Y-102325000D01*
X113880000Y-98715000D02*
X113880000Y-99460000D01*
X113880000Y-101540000D02*
X113880000Y-102285000D01*
X113920000Y-98757000D02*
X113920000Y-99460000D01*
X113920000Y-101540000D02*
X113920000Y-102243000D01*
X113960000Y-98801000D02*
X113960000Y-99460000D01*
X113960000Y-101540000D02*
X113960000Y-102199000D01*
X114000000Y-98848000D02*
X114000000Y-99460000D01*
X114000000Y-101540000D02*
X114000000Y-102152000D01*
X114040000Y-98896000D02*
X114040000Y-102104000D01*
X114080000Y-98947000D02*
X114080000Y-102053000D01*
X114120000Y-99001000D02*
X114120000Y-101999000D01*
X114160000Y-99057000D02*
X114160000Y-101943000D01*
X114200000Y-99117000D02*
X114200000Y-101883000D01*
X114240000Y-99181000D02*
X114240000Y-101819000D01*
X114280000Y-99249000D02*
X114280000Y-101751000D01*
X114320000Y-99323000D02*
X114320000Y-101677000D01*
X114360000Y-99402000D02*
X114360000Y-101598000D01*
X114400000Y-99489000D02*
X114400000Y-101511000D01*
X114440000Y-99586000D02*
X114440000Y-101414000D01*
X114480000Y-99695000D02*
X114480000Y-101305000D01*
X114520000Y-99823000D02*
X114520000Y-101177000D01*
X114560000Y-99983000D02*
X114560000Y-101017000D01*
X114600000Y-100217000D02*
X114600000Y-100783000D01*
X114620000Y-100500000D02*
G75*
G02*
X109380000Y-100500000I-2620000J0D01*
G01*
X109380000Y-100500000D02*
G75*
G02*
X114620000Y-100500000I2620000J0D01*
G01*
%TD*%
%LPC*%
D13*
%TO.C,R3 1k*%
X130420000Y-60000000D03*
X140580000Y-60000000D03*
%TD*%
%TO.C,R4 1k*%
X140580000Y-68000000D03*
X130420000Y-68000000D03*
%TD*%
D14*
%TO.C,J1*%
X105500000Y-72765000D03*
D15*
X105500000Y-70225000D03*
%TD*%
D16*
%TO.C,D1*%
X148500000Y-60000000D03*
D17*
X145960000Y-60000000D03*
%TD*%
D18*
%TO.C,U2 4017*%
X118195000Y-93610000D03*
D13*
X118195000Y-96150000D03*
X118195000Y-98690000D03*
X118195000Y-101230000D03*
X118195000Y-103770000D03*
X118195000Y-106310000D03*
X118195000Y-108850000D03*
X118195000Y-111390000D03*
X125815000Y-111390000D03*
X125815000Y-108850000D03*
X125815000Y-106310000D03*
X125815000Y-103770000D03*
X125815000Y-101230000D03*
X125815000Y-98690000D03*
X125815000Y-96150000D03*
X125815000Y-93610000D03*
%TD*%
D18*
%TO.C,U1 NE555P*%
X117880000Y-76880000D03*
D13*
X117880000Y-79420000D03*
X117880000Y-81960000D03*
X117880000Y-84500000D03*
X125500000Y-84500000D03*
X125500000Y-81960000D03*
X125500000Y-79420000D03*
X125500000Y-76880000D03*
%TD*%
%TO.C,R12 1k*%
X129920000Y-133500000D03*
X140080000Y-133500000D03*
%TD*%
%TO.C,R11 1k*%
X129920000Y-125000000D03*
X140080000Y-125000000D03*
%TD*%
%TO.C,R10 1k*%
X129920000Y-116500000D03*
X140080000Y-116500000D03*
%TD*%
%TO.C,R9 1k*%
X130420000Y-108500000D03*
X140580000Y-108500000D03*
%TD*%
%TO.C,R8 1k*%
X130420000Y-100500000D03*
X140580000Y-100500000D03*
%TD*%
%TO.C,R7 1k*%
X130420000Y-93000000D03*
X140580000Y-93000000D03*
%TD*%
%TO.C,R6 1k*%
X130420000Y-84500000D03*
X140580000Y-84500000D03*
%TD*%
%TO.C,R5 1k*%
X130420000Y-76500000D03*
X140580000Y-76500000D03*
%TD*%
%TO.C,R2 100K*%
X111500000Y-83920000D03*
X111500000Y-94080000D03*
%TD*%
%TO.C,R1 10K*%
X111500000Y-69420000D03*
X111500000Y-79580000D03*
%TD*%
D17*
%TO.C,D10*%
X146460000Y-133500000D03*
D16*
X149000000Y-133500000D03*
%TD*%
D17*
%TO.C,D9*%
X146460000Y-125000000D03*
D16*
X149000000Y-125000000D03*
%TD*%
D17*
%TO.C,D8*%
X146230000Y-116500000D03*
D16*
X148770000Y-116500000D03*
%TD*%
D17*
%TO.C,D7*%
X146225000Y-108500000D03*
D16*
X148765000Y-108500000D03*
%TD*%
D17*
%TO.C,D6*%
X145960000Y-100500000D03*
D16*
X148500000Y-100500000D03*
%TD*%
D17*
%TO.C,D5*%
X145960000Y-92500000D03*
D16*
X148500000Y-92500000D03*
%TD*%
D17*
%TO.C,D4*%
X145960000Y-84500000D03*
D16*
X148500000Y-84500000D03*
%TD*%
D17*
%TO.C,D3*%
X145960000Y-76500000D03*
D16*
X148500000Y-76500000D03*
%TD*%
D17*
%TO.C,D2*%
X145960000Y-68000000D03*
D16*
X148500000Y-68000000D03*
%TD*%
D13*
%TO.C,C4 100 nF*%
X121500000Y-119500000D03*
X124000000Y-119500000D03*
%TD*%
%TO.C,C3 100 nF*%
X110500000Y-63500000D03*
X113000000Y-63500000D03*
%TD*%
%TO.C,C2 10nF*%
X113000000Y-106000000D03*
X110500000Y-106000000D03*
%TD*%
D18*
%TO.C,C1 10uF*%
X111000000Y-100500000D03*
D13*
X113000000Y-100500000D03*
%TD*%
%LPD*%
M02*
