M48
; DRILL file KiCad 10.0.4 date 2026-10-10T00:18:16
; FORMAT={-:-/ absolute / metric / decimal}
; #@! TF.CreationDate,2026-10-10T00:18:16+05:30
; #@! TF.GenerationSoftware,Kicad,Pcbnew,10.0.4
; #@! TF.FileFunction,MixedPlating,1,2
FMAT,2
METRIC
; #@! TA.AperFunction,Plated,PTH,ViaDrill
T1C0.300
; #@! TA.AperFunction,Plated,PTH,ComponentDrill
T2C0.800
; #@! TA.AperFunction,Plated,PTH,ComponentDrill
T3C0.900
; #@! TA.AperFunction,Plated,PTH,ComponentDrill
T4C1.000
%
G90
G05
T1
X116.0Y-84.0
X116.0Y-88.5
X116.0Y-105.0
X116.0Y-114.0
X120.0Y-98.5
X121.0Y-82.5
X121.5Y-88.0
T2
X110.5Y-63.5
X110.5Y-106.0
X111.0Y-100.5
X111.5Y-69.42
X111.5Y-79.58
X111.5Y-83.92
X111.5Y-94.08
X113.0Y-63.5
X113.0Y-100.5
X113.0Y-106.0
X117.88Y-76.88
X117.88Y-79.42
X117.88Y-81.96
X117.88Y-84.5
X118.195Y-93.61
X118.195Y-96.15
X118.195Y-98.69
X118.195Y-101.23
X118.195Y-103.77
X118.195Y-106.31
X118.195Y-108.85
X118.195Y-111.39
X121.5Y-119.5
X124.0Y-119.5
X125.5Y-76.88
X125.5Y-79.42
X125.5Y-81.96
X125.5Y-84.5
X125.815Y-93.61
X125.815Y-96.15
X125.815Y-98.69
X125.815Y-101.23
X125.815Y-103.77
X125.815Y-106.31
X125.815Y-108.85
X125.815Y-111.39
X129.92Y-116.5
X129.92Y-125.0
X129.92Y-133.5
X130.42Y-60.0
X130.42Y-68.0
X130.42Y-76.5
X130.42Y-84.5
X130.42Y-93.0
X130.42Y-100.5
X130.42Y-108.5
X140.08Y-116.5
X140.08Y-125.0
X140.08Y-133.5
X140.58Y-60.0
X140.58Y-68.0
X140.58Y-76.5
X140.58Y-84.5
X140.58Y-93.0
X140.58Y-100.5
X140.58Y-108.5
T3
X145.96Y-60.0
X145.96Y-68.0
X145.96Y-76.5
X145.96Y-84.5
X145.96Y-92.5
X145.96Y-100.5
X146.225Y-108.5
X146.23Y-116.5
X146.46Y-125.0
X146.46Y-133.5
X148.5Y-60.0
X148.5Y-68.0
X148.5Y-76.5
X148.5Y-84.5
X148.5Y-92.5
X148.5Y-100.5
X148.765Y-108.5
X148.77Y-116.5
X149.0Y-125.0
X149.0Y-133.5
T4
X105.5Y-70.225
X105.5Y-72.765
M30
