%TF.GenerationSoftware,KiCad,Pcbnew,10.0.4*%
%TF.CreationDate,2026-10-10T00:16:53+05:30*%
%TF.ProjectId,LED Chaser (CD4017 + 555),4c454420-4368-4617-9365-722028434434,rev?*%
%TF.SameCoordinates,Original*%
%TF.FileFunction,Copper,L2,Bot*%
%TF.FilePolarity,Positive*%
%FSLAX46Y46*%
G04 Gerber Fmt 4.6, Leading zero omitted, Abs format (unit mm)*
G04 Created by KiCad (PCBNEW 10.0.4) date 2026-10-10 00:16:53*
%MOMM*%
%LPD*%
G01*
G04 APERTURE LIST*
G04 Aperture macros list*
%AMRoundRect*
0 Rectangle with rounded corners*
0 $1 Rounding radius*
0 $2 $3 $4 $5 $6 $7 $8 $9 X,Y pos of 4 corners*
0 Add a 4 corners polygon primitive as box body*
4,1,4,$2,$3,$4,$5,$6,$7,$8,$9,$2,$3,0*
0 Add four circle primitives for the rounded corners*
1,1,$1+$1,$2,$3*
1,1,$1+$1,$4,$5*
1,1,$1+$1,$6,$7*
1,1,$1+$1,$8,$9*
0 Add four rect primitives between the rounded corners*
20,1,$1+$1,$2,$3,$4,$5,0*
20,1,$1+$1,$4,$5,$6,$7,0*
20,1,$1+$1,$6,$7,$8,$9,0*
20,1,$1+$1,$8,$9,$2,$3,0*%
G04 Aperture macros list end*
%TA.AperFunction,ComponentPad*%
%ADD10C,1.600000*%
%TD*%
%TA.AperFunction,ComponentPad*%
%ADD11C,1.700000*%
%TD*%
%TA.AperFunction,ComponentPad*%
%ADD12R,1.700000X1.700000*%
%TD*%
%TA.AperFunction,ComponentPad*%
%ADD13C,1.800000*%
%TD*%
%TA.AperFunction,ComponentPad*%
%ADD14R,1.800000X1.800000*%
%TD*%
%TA.AperFunction,ComponentPad*%
%ADD15RoundRect,0.250000X-0.550000X-0.550000X0.550000X-0.550000X0.550000X0.550000X-0.550000X0.550000X0*%
%TD*%
%TA.AperFunction,ViaPad*%
%ADD16C,0.600000*%
%TD*%
%TA.AperFunction,Conductor*%
%ADD17C,0.200000*%
%TD*%
G04 APERTURE END LIST*
D10*
%TO.P,R3 1k,1*%
%TO.N,/Q0*%
X130420000Y-60000000D03*
%TO.P,R3 1k,2*%
%TO.N,Net-(D1-A)*%
X140580000Y-60000000D03*
%TD*%
%TO.P,R4 1k,2*%
%TO.N,Net-(D2-A)*%
X140580000Y-68000000D03*
%TO.P,R4 1k,1*%
%TO.N,/Q1*%
X130420000Y-68000000D03*
%TD*%
D11*
%TO.P,J1,2,Pin_2_2*%
%TO.N,GND*%
X105500000Y-72765000D03*
D12*
%TO.P,J1,1,Pin_1_1*%
%TO.N,+5V*%
X105500000Y-70225000D03*
%TD*%
D13*
%TO.P,D1,2,A_2*%
%TO.N,Net-(D1-A)*%
X148500000Y-60000000D03*
D14*
%TO.P,D1,1,K_1*%
%TO.N,GND*%
X145960000Y-60000000D03*
%TD*%
D15*
%TO.P,U2 4017,1,Q5_1*%
%TO.N,/Q5*%
X118195000Y-93610000D03*
D10*
%TO.P,U2 4017,2,Q1_2*%
%TO.N,/Q1*%
X118195000Y-96150000D03*
%TO.P,U2 4017,3,Q0_3*%
%TO.N,/Q0*%
X118195000Y-98690000D03*
%TO.P,U2 4017,4,Q2_4*%
%TO.N,/Q2*%
X118195000Y-101230000D03*
%TO.P,U2 4017,5,Q6_5*%
%TO.N,/Q6*%
X118195000Y-103770000D03*
%TO.P,U2 4017,6,Q7_6*%
%TO.N,/Q7*%
X118195000Y-106310000D03*
%TO.P,U2 4017,7,Q3_7*%
%TO.N,/Q3*%
X118195000Y-108850000D03*
%TO.P,U2 4017,8,VSS_8*%
%TO.N,GND*%
X118195000Y-111390000D03*
%TO.P,U2 4017,9,Q8_9*%
%TO.N,/Q8*%
X125815000Y-111390000D03*
%TO.P,U2 4017,10,Q4_10*%
%TO.N,/Q4*%
X125815000Y-108850000D03*
%TO.P,U2 4017,11,Q9_11*%
%TO.N,/Q9*%
X125815000Y-106310000D03*
%TO.P,U2 4017,12,Cout_12*%
%TO.N,unconnected-(U2-Cout-Pad12)*%
X125815000Y-103770000D03*
%TO.P,U2 4017,13,CKEN_13*%
%TO.N,GND*%
X125815000Y-101230000D03*
%TO.P,U2 4017,14,CLK_14*%
%TO.N,/CLOCK*%
X125815000Y-98690000D03*
%TO.P,U2 4017,15,Reset_15*%
%TO.N,GND*%
X125815000Y-96150000D03*
%TO.P,U2 4017,16,VDD_16*%
%TO.N,+5V*%
X125815000Y-93610000D03*
%TD*%
D15*
%TO.P,U1 NE555P,1,GND_1*%
%TO.N,GND*%
X117880000Y-76880000D03*
D10*
%TO.P,U1 NE555P,2,TRIG_2*%
%TO.N,Net-(U1-THRES)*%
X117880000Y-79420000D03*
%TO.P,U1 NE555P,3,OUT_3*%
%TO.N,/CLOCK*%
X117880000Y-81960000D03*
%TO.P,U1 NE555P,4,~{RST}_4*%
%TO.N,+5V*%
X117880000Y-84500000D03*
%TO.P,U1 NE555P,5,CONT_5*%
%TO.N,Net-(U1-CONT)*%
X125500000Y-84500000D03*
%TO.P,U1 NE555P,6,THRES_6*%
%TO.N,Net-(U1-THRES)*%
X125500000Y-81960000D03*
%TO.P,U1 NE555P,7,DISCH_7*%
%TO.N,Net-(U1-DISCH)*%
X125500000Y-79420000D03*
%TO.P,U1 NE555P,8,VCC_8*%
%TO.N,+5V*%
X125500000Y-76880000D03*
%TD*%
%TO.P,R12 1k,1*%
%TO.N,/Q9*%
X129920000Y-133500000D03*
%TO.P,R12 1k,2*%
%TO.N,Net-(D10-A)*%
X140080000Y-133500000D03*
%TD*%
%TO.P,R11 1k,1*%
%TO.N,/Q8*%
X129920000Y-125000000D03*
%TO.P,R11 1k,2*%
%TO.N,Net-(D9-A)*%
X140080000Y-125000000D03*
%TD*%
%TO.P,R10 1k,1*%
%TO.N,/Q7*%
X129920000Y-116500000D03*
%TO.P,R10 1k,2*%
%TO.N,Net-(D8-A)*%
X140080000Y-116500000D03*
%TD*%
%TO.P,R9 1k,1*%
%TO.N,/Q6*%
X130420000Y-108500000D03*
%TO.P,R9 1k,2*%
%TO.N,Net-(D7-A)*%
X140580000Y-108500000D03*
%TD*%
%TO.P,R8 1k,1*%
%TO.N,/Q5*%
X130420000Y-100500000D03*
%TO.P,R8 1k,2*%
%TO.N,Net-(D6-A)*%
X140580000Y-100500000D03*
%TD*%
%TO.P,R7 1k,1*%
%TO.N,/Q4*%
X130420000Y-93000000D03*
%TO.P,R7 1k,2*%
%TO.N,Net-(D5-A)*%
X140580000Y-93000000D03*
%TD*%
%TO.P,R6 1k,1*%
%TO.N,/Q3*%
X130420000Y-84500000D03*
%TO.P,R6 1k,2*%
%TO.N,Net-(D4-A)*%
X140580000Y-84500000D03*
%TD*%
%TO.P,R5 1k,1*%
%TO.N,/Q2*%
X130420000Y-76500000D03*
%TO.P,R5 1k,2*%
%TO.N,Net-(D3-A)*%
X140580000Y-76500000D03*
%TD*%
%TO.P,R2 100K,1*%
%TO.N,Net-(U1-DISCH)*%
X111500000Y-83920000D03*
%TO.P,R2 100K,2*%
%TO.N,Net-(U1-THRES)*%
X111500000Y-94080000D03*
%TD*%
%TO.P,R1 10K,1*%
%TO.N,+5V*%
X111500000Y-69420000D03*
%TO.P,R1 10K,2*%
%TO.N,Net-(U1-DISCH)*%
X111500000Y-79580000D03*
%TD*%
D14*
%TO.P,D10,1,K_1*%
%TO.N,GND*%
X146460000Y-133500000D03*
D13*
%TO.P,D10,2,A_2*%
%TO.N,Net-(D10-A)*%
X149000000Y-133500000D03*
%TD*%
D14*
%TO.P,D9,1,K_1*%
%TO.N,GND*%
X146460000Y-125000000D03*
D13*
%TO.P,D9,2,A_2*%
%TO.N,Net-(D9-A)*%
X149000000Y-125000000D03*
%TD*%
D14*
%TO.P,D8,1,K_1*%
%TO.N,GND*%
X146230000Y-116500000D03*
D13*
%TO.P,D8,2,A_2*%
%TO.N,Net-(D8-A)*%
X148770000Y-116500000D03*
%TD*%
D14*
%TO.P,D7,1,K_1*%
%TO.N,GND*%
X146225000Y-108500000D03*
D13*
%TO.P,D7,2,A_2*%
%TO.N,Net-(D7-A)*%
X148765000Y-108500000D03*
%TD*%
D14*
%TO.P,D6,1,K_1*%
%TO.N,GND*%
X145960000Y-100500000D03*
D13*
%TO.P,D6,2,A_2*%
%TO.N,Net-(D6-A)*%
X148500000Y-100500000D03*
%TD*%
D14*
%TO.P,D5,1,K_1*%
%TO.N,GND*%
X145960000Y-92500000D03*
D13*
%TO.P,D5,2,A_2*%
%TO.N,Net-(D5-A)*%
X148500000Y-92500000D03*
%TD*%
D14*
%TO.P,D4,1,K_1*%
%TO.N,GND*%
X145960000Y-84500000D03*
D13*
%TO.P,D4,2,A_2*%
%TO.N,Net-(D4-A)*%
X148500000Y-84500000D03*
%TD*%
D14*
%TO.P,D3,1,K_1*%
%TO.N,GND*%
X145960000Y-76500000D03*
D13*
%TO.P,D3,2,A_2*%
%TO.N,Net-(D3-A)*%
X148500000Y-76500000D03*
%TD*%
D14*
%TO.P,D2,1,K_1*%
%TO.N,GND*%
X145960000Y-68000000D03*
D13*
%TO.P,D2,2,A_2*%
%TO.N,Net-(D2-A)*%
X148500000Y-68000000D03*
%TD*%
D10*
%TO.P,C4 100 nF,1*%
%TO.N,GND*%
X121500000Y-119500000D03*
%TO.P,C4 100 nF,2*%
%TO.N,+5V*%
X124000000Y-119500000D03*
%TD*%
%TO.P,C3 100 nF,1*%
%TO.N,GND*%
X110500000Y-63500000D03*
%TO.P,C3 100 nF,2*%
%TO.N,+5V*%
X113000000Y-63500000D03*
%TD*%
%TO.P,C2 10nF,1*%
%TO.N,GND*%
X113000000Y-106000000D03*
%TO.P,C2 10nF,2*%
%TO.N,Net-(U1-CONT)*%
X110500000Y-106000000D03*
%TD*%
D15*
%TO.P,C1 10uF,1*%
%TO.N,Net-(U1-THRES)*%
X111000000Y-100500000D03*
D10*
%TO.P,C1 10uF,2*%
%TO.N,GND*%
X113000000Y-100500000D03*
%TD*%
D16*
%TO.N,GND*%
X120000000Y-98500000D03*
%TO.N,/CLOCK*%
X116000000Y-88500000D03*
X116000000Y-84000000D03*
%TO.N,Net-(U1-CONT)*%
X121500000Y-88000000D03*
%TO.N,Net-(U1-THRES)*%
X121000000Y-82500000D03*
%TO.N,/Q7*%
X116000000Y-114000000D03*
%TO.N,/Q6*%
X116000000Y-105000000D03*
%TD*%
%TO.N,GND*%
D17*
X122350000Y-96150000D02*
X120000000Y-98500000D01*
X125815000Y-96150000D02*
X122350000Y-96150000D01*
X111900000Y-107100000D02*
X113000000Y-106000000D01*
X110044365Y-107100000D02*
X111900000Y-107100000D01*
X109400000Y-106455635D02*
X110044365Y-107100000D01*
X109400000Y-104100000D02*
X109400000Y-106455635D01*
X113000000Y-100500000D02*
X109400000Y-104100000D01*
%TO.N,/CLOCK*%
X116000000Y-84000000D02*
X116000000Y-88500000D01*
%TO.N,Net-(U1-THRES)*%
X121000000Y-84580000D02*
X121000000Y-82500000D01*
X111500000Y-94080000D02*
X121000000Y-84580000D01*
X111000000Y-100500000D02*
X111000000Y-94580000D01*
X111000000Y-94580000D02*
X111500000Y-94080000D01*
%TO.N,Net-(U1-CONT)*%
X114100000Y-102400000D02*
X110500000Y-106000000D01*
X114100000Y-95400000D02*
X114100000Y-102400000D01*
X121500000Y-88000000D02*
X114100000Y-95400000D01*
%TO.N,Net-(U1-THRES)*%
X120960000Y-82500000D02*
X117880000Y-79420000D01*
X121000000Y-82500000D02*
X120960000Y-82500000D01*
%TO.N,/Q9*%
X127000000Y-102364365D02*
X127000000Y-105125000D01*
X131920000Y-100444365D02*
X130875635Y-99400000D01*
X129964365Y-99400000D02*
X127000000Y-102364365D01*
X131920000Y-131500000D02*
X131920000Y-100444365D01*
X130875635Y-99400000D02*
X129964365Y-99400000D01*
X127000000Y-105125000D02*
X125815000Y-106310000D01*
X129920000Y-133500000D02*
X131920000Y-131500000D01*
%TO.N,/Q8*%
X131520000Y-123400000D02*
X131520000Y-108044365D01*
X130875635Y-107400000D02*
X129805000Y-107400000D01*
X129805000Y-107400000D02*
X125815000Y-111390000D01*
X129920000Y-125000000D02*
X131520000Y-123400000D01*
X131520000Y-108044365D02*
X130875635Y-107400000D01*
%TO.N,/Q7*%
X118500000Y-116500000D02*
X116000000Y-114000000D01*
X129920000Y-116500000D02*
X118500000Y-116500000D01*
%TO.N,/Q6*%
X116000000Y-111316321D02*
X116000000Y-105000000D01*
X117573679Y-112890000D02*
X116000000Y-111316321D01*
X126030000Y-112890000D02*
X117573679Y-112890000D01*
X130420000Y-108500000D02*
X126030000Y-112890000D01*
%TO.N,/Q5*%
X117739365Y-112490000D02*
X116695000Y-111445635D01*
X126270635Y-109950000D02*
X125359365Y-109950000D01*
X116695000Y-95110000D02*
X118195000Y-93610000D01*
X130420000Y-105800635D02*
X126270635Y-109950000D01*
X125359365Y-109950000D02*
X122819365Y-112490000D01*
X122819365Y-112490000D02*
X117739365Y-112490000D01*
X130420000Y-100500000D02*
X130420000Y-105800635D01*
X116695000Y-111445635D02*
X116695000Y-95110000D01*
%TO.N,/Q4*%
X124715000Y-109950000D02*
X125815000Y-108850000D01*
X117739365Y-109950000D02*
X124715000Y-109950000D01*
X117095000Y-109305635D02*
X117739365Y-109950000D01*
X117095000Y-108394365D02*
X117095000Y-109305635D01*
X117739365Y-107750000D02*
X117095000Y-108394365D01*
X118650635Y-107750000D02*
X117739365Y-107750000D01*
X124715000Y-101685635D02*
X118650635Y-107750000D01*
X124715000Y-100774365D02*
X124715000Y-101685635D01*
X125359365Y-100130000D02*
X124715000Y-100774365D01*
X126270635Y-100130000D02*
X125359365Y-100130000D01*
X130420000Y-95980635D02*
X126270635Y-100130000D01*
X130420000Y-93000000D02*
X130420000Y-95980635D01*
%TO.N,/Q3*%
X131520000Y-97080635D02*
X126100635Y-102500000D01*
X126100635Y-102500000D02*
X124545000Y-102500000D01*
X131520000Y-85600000D02*
X131520000Y-97080635D01*
X130420000Y-84500000D02*
X131520000Y-85600000D01*
X124545000Y-102500000D02*
X118195000Y-108850000D01*
%TO.N,/Q2*%
X129320000Y-94540635D02*
X126270635Y-97590000D01*
X126270635Y-97590000D02*
X121835000Y-97590000D01*
X129320000Y-77600000D02*
X129320000Y-94540635D01*
X130420000Y-76500000D02*
X129320000Y-77600000D01*
X121835000Y-97590000D02*
X118195000Y-101230000D01*
%TO.N,/Q1*%
X117095000Y-99145635D02*
X117095000Y-97250000D01*
X117739365Y-99790000D02*
X117095000Y-99145635D01*
X118650635Y-99790000D02*
X117739365Y-99790000D01*
X117095000Y-97250000D02*
X118195000Y-96150000D01*
X119295000Y-99145635D02*
X118650635Y-99790000D01*
X119295000Y-98234365D02*
X119295000Y-99145635D01*
X126915000Y-90614365D02*
X119295000Y-98234365D01*
X126915000Y-71505000D02*
X126915000Y-90614365D01*
X130420000Y-68000000D02*
X126915000Y-71505000D01*
%TO.N,/Q0*%
X124400000Y-92485000D02*
X118195000Y-98690000D01*
X124400000Y-66020000D02*
X124400000Y-92485000D01*
X130420000Y-60000000D02*
X124400000Y-66020000D01*
%TD*%
%TA.AperFunction,Conductor*%
%TO.N,GND*%
G36*
X124514233Y-93966879D02*
G01*
X124570166Y-94008751D01*
X124588830Y-94044742D01*
X124609781Y-94109222D01*
X124702715Y-94291613D01*
X124823028Y-94457213D01*
X124967786Y-94601971D01*
X125133385Y-94722284D01*
X125133387Y-94722285D01*
X125133390Y-94722287D01*
X125210566Y-94761610D01*
X125226630Y-94769795D01*
X125277426Y-94817770D01*
X125294221Y-94885591D01*
X125271684Y-94951725D01*
X125226630Y-94990765D01*
X125133644Y-95038143D01*
X125089077Y-95070523D01*
X125089077Y-95070524D01*
X125768554Y-95750000D01*
X125762339Y-95750000D01*
X125660606Y-95777259D01*
X125569394Y-95829920D01*
X125494920Y-95904394D01*
X125442259Y-95995606D01*
X125415000Y-96097339D01*
X125415000Y-96103553D01*
X124735524Y-95424077D01*
X124735523Y-95424077D01*
X124703143Y-95468644D01*
X124610244Y-95650968D01*
X124547009Y-95845582D01*
X124515000Y-96047682D01*
X124515000Y-96252317D01*
X124547009Y-96454417D01*
X124610245Y-96649034D01*
X124691857Y-96809206D01*
X124704753Y-96877875D01*
X124678476Y-96942615D01*
X124621370Y-96982872D01*
X124581372Y-96989500D01*
X121755941Y-96989500D01*
X121727134Y-96997219D01*
X121701830Y-97003999D01*
X121631980Y-97002336D01*
X121574118Y-96963173D01*
X121546614Y-96898944D01*
X121558201Y-96830042D01*
X121582054Y-96796545D01*
X124383220Y-93995378D01*
X124444541Y-93961895D01*
X124514233Y-93966879D01*
G37*
%TD.AperFunction*%
%TA.AperFunction,Conductor*%
G36*
X158942539Y-54020185D02*
G01*
X158988294Y-54072989D01*
X158999500Y-54124500D01*
X158999500Y-139375500D01*
X158979815Y-139442539D01*
X158927011Y-139488294D01*
X158875500Y-139499500D01*
X101124500Y-139499500D01*
X101057461Y-139479815D01*
X101011706Y-139427011D01*
X101000500Y-139375500D01*
X101000500Y-119397682D01*
X120200000Y-119397682D01*
X120200000Y-119602317D01*
X120232009Y-119804417D01*
X120295244Y-119999031D01*
X120388141Y-120181350D01*
X120388147Y-120181359D01*
X120420523Y-120225921D01*
X120420524Y-120225922D01*
X121100000Y-119546446D01*
X121100000Y-119552661D01*
X121127259Y-119654394D01*
X121179920Y-119745606D01*
X121254394Y-119820080D01*
X121345606Y-119872741D01*
X121447339Y-119900000D01*
X121453553Y-119900000D01*
X120774076Y-120579474D01*
X120818650Y-120611859D01*
X121000968Y-120704755D01*
X121195582Y-120767990D01*
X121397683Y-120800000D01*
X121602317Y-120800000D01*
X121804417Y-120767990D01*
X121999031Y-120704755D01*
X122181349Y-120611859D01*
X122225921Y-120579474D01*
X121546447Y-119900000D01*
X121552661Y-119900000D01*
X121654394Y-119872741D01*
X121745606Y-119820080D01*
X121820080Y-119745606D01*
X121872741Y-119654394D01*
X121900000Y-119552661D01*
X121900000Y-119546448D01*
X122579474Y-120225922D01*
X122579474Y-120225921D01*
X122611859Y-120181349D01*
X122639233Y-120127624D01*
X122687207Y-120076827D01*
X122755028Y-120060031D01*
X122821163Y-120082567D01*
X122860203Y-120127621D01*
X122887713Y-120181611D01*
X123008028Y-120347213D01*
X123152786Y-120491971D01*
X123273226Y-120579474D01*
X123318390Y-120612287D01*
X123434607Y-120671503D01*
X123500776Y-120705218D01*
X123500778Y-120705218D01*
X123500781Y-120705220D01*
X123605137Y-120739127D01*
X123695465Y-120768477D01*
X123796557Y-120784488D01*
X123897648Y-120800500D01*
X123897649Y-120800500D01*
X124102351Y-120800500D01*
X124102352Y-120800500D01*
X124304534Y-120768477D01*
X124499219Y-120705220D01*
X124681610Y-120612287D01*
X124774590Y-120544732D01*
X124847213Y-120491971D01*
X124847215Y-120491968D01*
X124847219Y-120491966D01*
X124991966Y-120347219D01*
X124991968Y-120347215D01*
X124991971Y-120347213D01*
X125044732Y-120274590D01*
X125112287Y-120181610D01*
X125205220Y-119999219D01*
X125268477Y-119804534D01*
X125300500Y-119602352D01*
X125300500Y-119397648D01*
X125292257Y-119345606D01*
X125268477Y-119195465D01*
X125237458Y-119100000D01*
X125205220Y-119000781D01*
X125205218Y-119000778D01*
X125205218Y-119000776D01*
X125162750Y-118917429D01*
X125112287Y-118818390D01*
X125080092Y-118774077D01*
X124991971Y-118652786D01*
X124847213Y-118508028D01*
X124681613Y-118387715D01*
X124681612Y-118387714D01*
X124681610Y-118387713D01*
X124624653Y-118358691D01*
X124499223Y-118294781D01*
X124304534Y-118231522D01*
X124129995Y-118203878D01*
X124102352Y-118199500D01*
X123897648Y-118199500D01*
X123873329Y-118203351D01*
X123695465Y-118231522D01*
X123500776Y-118294781D01*
X123318386Y-118387715D01*
X123152786Y-118508028D01*
X123008028Y-118652786D01*
X122887714Y-118818386D01*
X122860203Y-118872379D01*
X122812227Y-118923174D01*
X122744406Y-118939968D01*
X122678272Y-118917429D01*
X122639234Y-118872376D01*
X122611861Y-118818652D01*
X122579474Y-118774077D01*
X122579474Y-118774076D01*
X121900000Y-119453551D01*
X121900000Y-119447339D01*
X121872741Y-119345606D01*
X121820080Y-119254394D01*
X121745606Y-119179920D01*
X121654394Y-119127259D01*
X121552661Y-119100000D01*
X121546446Y-119100000D01*
X122225922Y-118420524D01*
X122225921Y-118420523D01*
X122181359Y-118388147D01*
X122181350Y-118388141D01*
X121999031Y-118295244D01*
X121804417Y-118232009D01*
X121602317Y-118200000D01*
X121397683Y-118200000D01*
X121195582Y-118232009D01*
X121000968Y-118295244D01*
X120818644Y-118388143D01*
X120774077Y-118420523D01*
X120774077Y-118420524D01*
X121453554Y-119100000D01*
X121447339Y-119100000D01*
X121345606Y-119127259D01*
X121254394Y-119179920D01*
X121179920Y-119254394D01*
X121127259Y-119345606D01*
X121100000Y-119447339D01*
X121100000Y-119453553D01*
X120420524Y-118774077D01*
X120420523Y-118774077D01*
X120388143Y-118818644D01*
X120295244Y-119000968D01*
X120232009Y-119195582D01*
X120200000Y-119397682D01*
X101000500Y-119397682D01*
X101000500Y-105897648D01*
X109199500Y-105897648D01*
X109199500Y-106102351D01*
X109231522Y-106304534D01*
X109294781Y-106499223D01*
X109353536Y-106614534D01*
X109387585Y-106681359D01*
X109387715Y-106681613D01*
X109508028Y-106847213D01*
X109652786Y-106991971D01*
X109773226Y-107079474D01*
X109818390Y-107112287D01*
X109906574Y-107157219D01*
X110000776Y-107205218D01*
X110000778Y-107205218D01*
X110000781Y-107205220D01*
X110105137Y-107239127D01*
X110195465Y-107268477D01*
X110296557Y-107284488D01*
X110397648Y-107300500D01*
X110397649Y-107300500D01*
X110602351Y-107300500D01*
X110602352Y-107300500D01*
X110804534Y-107268477D01*
X110999219Y-107205220D01*
X111181610Y-107112287D01*
X111274590Y-107044732D01*
X111347213Y-106991971D01*
X111347215Y-106991968D01*
X111347219Y-106991966D01*
X111491966Y-106847219D01*
X111491968Y-106847215D01*
X111491971Y-106847213D01*
X111576298Y-106731144D01*
X111612287Y-106681610D01*
X111639795Y-106627621D01*
X111687769Y-106576826D01*
X111755589Y-106560030D01*
X111821725Y-106582567D01*
X111860765Y-106627621D01*
X111888141Y-106681350D01*
X111888147Y-106681359D01*
X111920523Y-106725921D01*
X111920524Y-106725922D01*
X112600000Y-106046446D01*
X112600000Y-106052661D01*
X112627259Y-106154394D01*
X112679920Y-106245606D01*
X112754394Y-106320080D01*
X112845606Y-106372741D01*
X112947339Y-106400000D01*
X112953553Y-106400000D01*
X112274076Y-107079474D01*
X112318650Y-107111859D01*
X112500968Y-107204755D01*
X112695582Y-107267990D01*
X112897683Y-107300000D01*
X113102317Y-107300000D01*
X113304417Y-107267990D01*
X113499031Y-107204755D01*
X113681349Y-107111859D01*
X113725921Y-107079474D01*
X113046447Y-106400000D01*
X113052661Y-106400000D01*
X113154394Y-106372741D01*
X113245606Y-106320080D01*
X113320080Y-106245606D01*
X113372741Y-106154394D01*
X113400000Y-106052661D01*
X113400000Y-106046447D01*
X114079474Y-106725921D01*
X114111859Y-106681349D01*
X114204755Y-106499031D01*
X114267990Y-106304417D01*
X114300000Y-106102317D01*
X114300000Y-105897682D01*
X114267990Y-105695582D01*
X114204755Y-105500968D01*
X114111859Y-105318650D01*
X114079474Y-105274077D01*
X114079474Y-105274076D01*
X113400000Y-105953551D01*
X113400000Y-105947339D01*
X113372741Y-105845606D01*
X113320080Y-105754394D01*
X113245606Y-105679920D01*
X113154394Y-105627259D01*
X113052661Y-105600000D01*
X113046446Y-105600000D01*
X113725922Y-104920524D01*
X113725921Y-104920523D01*
X113681359Y-104888147D01*
X113681350Y-104888141D01*
X113499031Y-104795244D01*
X113304417Y-104732009D01*
X113102317Y-104700000D01*
X112948595Y-104700000D01*
X112881556Y-104680315D01*
X112835801Y-104627511D01*
X112825857Y-104558353D01*
X112854882Y-104494797D01*
X112860900Y-104488333D01*
X114458506Y-102890728D01*
X114458511Y-102890724D01*
X114468714Y-102880520D01*
X114468716Y-102880520D01*
X114580520Y-102768716D01*
X114644607Y-102657713D01*
X114659577Y-102631785D01*
X114700501Y-102479057D01*
X114700501Y-102320943D01*
X114700501Y-102313348D01*
X114700500Y-102313330D01*
X114700500Y-95700096D01*
X114720185Y-95633057D01*
X114736814Y-95612420D01*
X116682819Y-93666414D01*
X116744142Y-93632930D01*
X116813834Y-93637914D01*
X116869767Y-93679786D01*
X116894184Y-93745250D01*
X116894500Y-93754096D01*
X116894500Y-94009902D01*
X116874815Y-94076941D01*
X116858181Y-94097583D01*
X116214481Y-94741282D01*
X116214480Y-94741284D01*
X116171794Y-94815220D01*
X116164361Y-94828094D01*
X116164359Y-94828096D01*
X116135425Y-94878209D01*
X116135424Y-94878210D01*
X116129586Y-94899999D01*
X116094499Y-95030943D01*
X116094499Y-95030945D01*
X116094499Y-95199046D01*
X116094500Y-95199059D01*
X116094500Y-104075500D01*
X116074815Y-104142539D01*
X116022011Y-104188294D01*
X115970500Y-104199500D01*
X115921155Y-104199500D01*
X115766510Y-104230261D01*
X115766498Y-104230264D01*
X115620827Y-104290602D01*
X115620814Y-104290609D01*
X115489711Y-104378210D01*
X115489707Y-104378213D01*
X115378213Y-104489707D01*
X115378210Y-104489711D01*
X115290609Y-104620814D01*
X115290602Y-104620827D01*
X115230264Y-104766498D01*
X115230261Y-104766510D01*
X115199500Y-104921153D01*
X115199500Y-105078846D01*
X115230261Y-105233489D01*
X115230264Y-105233501D01*
X115290602Y-105379172D01*
X115290609Y-105379185D01*
X115378602Y-105510874D01*
X115399480Y-105577551D01*
X115399500Y-105579765D01*
X115399500Y-111229651D01*
X115399499Y-111229669D01*
X115399499Y-111395375D01*
X115399498Y-111395375D01*
X115440423Y-111548106D01*
X115469358Y-111598221D01*
X115469359Y-111598225D01*
X115469360Y-111598225D01*
X115519479Y-111685035D01*
X115519481Y-111685038D01*
X115638349Y-111803906D01*
X115638355Y-111803911D01*
X117088818Y-113254374D01*
X117088828Y-113254385D01*
X117093158Y-113258715D01*
X117093159Y-113258716D01*
X117204963Y-113370520D01*
X117218288Y-113378213D01*
X117255157Y-113399499D01*
X117255156Y-113399499D01*
X117255159Y-113399500D01*
X117341888Y-113449574D01*
X117341889Y-113449574D01*
X117341894Y-113449577D01*
X117494622Y-113490500D01*
X125943331Y-113490500D01*
X125943347Y-113490501D01*
X125950943Y-113490501D01*
X126109054Y-113490501D01*
X126109057Y-113490501D01*
X126261785Y-113449577D01*
X126348522Y-113399499D01*
X126398716Y-113370520D01*
X126510520Y-113258716D01*
X126510520Y-113258714D01*
X126520724Y-113248511D01*
X126520727Y-113248506D01*
X129975159Y-109794075D01*
X130036480Y-109760592D01*
X130101154Y-109763826D01*
X130115466Y-109768477D01*
X130317648Y-109800500D01*
X130317649Y-109800500D01*
X130522351Y-109800500D01*
X130522352Y-109800500D01*
X130724534Y-109768477D01*
X130724539Y-109768475D01*
X130724541Y-109768475D01*
X130757180Y-109757870D01*
X130827021Y-109755873D01*
X130886855Y-109791953D01*
X130917684Y-109854653D01*
X130919500Y-109875800D01*
X130919500Y-115375308D01*
X130899815Y-115442347D01*
X130847011Y-115488102D01*
X130777853Y-115498046D01*
X130722615Y-115475627D01*
X130601609Y-115387712D01*
X130419223Y-115294781D01*
X130224534Y-115231522D01*
X130038799Y-115202105D01*
X130022352Y-115199500D01*
X129817648Y-115199500D01*
X129801201Y-115202105D01*
X129615465Y-115231522D01*
X129420776Y-115294781D01*
X129238386Y-115387715D01*
X129072786Y-115508028D01*
X128928028Y-115652786D01*
X128807715Y-115818385D01*
X128800883Y-115831795D01*
X128752909Y-115882591D01*
X128690398Y-115899500D01*
X118800097Y-115899500D01*
X118733058Y-115879815D01*
X118712416Y-115863181D01*
X116834574Y-113985339D01*
X116801089Y-113924016D01*
X116800638Y-113921849D01*
X116769738Y-113766510D01*
X116769737Y-113766503D01*
X116769735Y-113766498D01*
X116709397Y-113620827D01*
X116709390Y-113620814D01*
X116621789Y-113489711D01*
X116621786Y-113489707D01*
X116510292Y-113378213D01*
X116510288Y-113378210D01*
X116379185Y-113290609D01*
X116379172Y-113290602D01*
X116233501Y-113230264D01*
X116233489Y-113230261D01*
X116078845Y-113199500D01*
X116078842Y-113199500D01*
X115921158Y-113199500D01*
X115921155Y-113199500D01*
X115766510Y-113230261D01*
X115766498Y-113230264D01*
X115620827Y-113290602D01*
X115620814Y-113290609D01*
X115489711Y-113378210D01*
X115489707Y-113378213D01*
X115378213Y-113489707D01*
X115378210Y-113489711D01*
X115290609Y-113620814D01*
X115290602Y-113620827D01*
X115230264Y-113766498D01*
X115230261Y-113766510D01*
X115199500Y-113921153D01*
X115199500Y-114078846D01*
X115230261Y-114233489D01*
X115230264Y-114233501D01*
X115290602Y-114379172D01*
X115290609Y-114379185D01*
X115378210Y-114510288D01*
X115378213Y-114510292D01*
X115489707Y-114621786D01*
X115489711Y-114621789D01*
X115620814Y-114709390D01*
X115620827Y-114709397D01*
X115766498Y-114769735D01*
X115766503Y-114769737D01*
X115831147Y-114782595D01*
X115921849Y-114800638D01*
X115983760Y-114833023D01*
X115985339Y-114834574D01*
X118015139Y-116864374D01*
X118015149Y-116864385D01*
X118019479Y-116868715D01*
X118019480Y-116868716D01*
X118131284Y-116980520D01*
X118218095Y-117030639D01*
X118218097Y-117030641D01*
X118256151Y-117052611D01*
X118268215Y-117059577D01*
X118420943Y-117100501D01*
X118420946Y-117100501D01*
X118586653Y-117100501D01*
X118586669Y-117100500D01*
X128690398Y-117100500D01*
X128757437Y-117120185D01*
X128800883Y-117168205D01*
X128807715Y-117181614D01*
X128928028Y-117347213D01*
X129072786Y-117491971D01*
X129227749Y-117604556D01*
X129238390Y-117612287D01*
X129354607Y-117671503D01*
X129420776Y-117705218D01*
X129420778Y-117705218D01*
X129420781Y-117705220D01*
X129525137Y-117739127D01*
X129615465Y-117768477D01*
X129716557Y-117784488D01*
X129817648Y-117800500D01*
X129817649Y-117800500D01*
X130022351Y-117800500D01*
X130022352Y-117800500D01*
X130224534Y-117768477D01*
X130419219Y-117705220D01*
X130601610Y-117612287D01*
X130673451Y-117560091D01*
X130722615Y-117524373D01*
X130788421Y-117500893D01*
X130856475Y-117516719D01*
X130905170Y-117566825D01*
X130919500Y-117624691D01*
X130919500Y-123099901D01*
X130899815Y-123166940D01*
X130883181Y-123187582D01*
X130364841Y-123705921D01*
X130303518Y-123739406D01*
X130238845Y-123736172D01*
X130224535Y-123731523D01*
X130123443Y-123715511D01*
X130022352Y-123699500D01*
X129817648Y-123699500D01*
X129801201Y-123702105D01*
X129615465Y-123731522D01*
X129420776Y-123794781D01*
X129238386Y-123887715D01*
X129072786Y-124008028D01*
X128928028Y-124152786D01*
X128807715Y-124318386D01*
X128714781Y-124500776D01*
X128651522Y-124695465D01*
X128619500Y-124897648D01*
X128619500Y-125102351D01*
X128651522Y-125304534D01*
X128714781Y-125499223D01*
X128759907Y-125587786D01*
X128783668Y-125634420D01*
X128807715Y-125681613D01*
X128928028Y-125847213D01*
X129072786Y-125991971D01*
X129227749Y-126104556D01*
X129238390Y-126112287D01*
X129354607Y-126171503D01*
X129420776Y-126205218D01*
X129420778Y-126205218D01*
X129420781Y-126205220D01*
X129525137Y-126239127D01*
X129615465Y-126268477D01*
X129716557Y-126284488D01*
X129817648Y-126300500D01*
X129817649Y-126300500D01*
X130022351Y-126300500D01*
X130022352Y-126300500D01*
X130224534Y-126268477D01*
X130419219Y-126205220D01*
X130601610Y-126112287D01*
X130694590Y-126044732D01*
X130767213Y-125991971D01*
X130767215Y-125991968D01*
X130767219Y-125991966D01*
X130911966Y-125847219D01*
X130911968Y-125847215D01*
X130911971Y-125847213D01*
X131032284Y-125681614D01*
X131032285Y-125681613D01*
X131032287Y-125681610D01*
X131085015Y-125578124D01*
X131132989Y-125527329D01*
X131200810Y-125510534D01*
X131266945Y-125533071D01*
X131310397Y-125587786D01*
X131319500Y-125634420D01*
X131319500Y-131199902D01*
X131299815Y-131266941D01*
X131283181Y-131287583D01*
X130364842Y-132205921D01*
X130303519Y-132239406D01*
X130238848Y-132236173D01*
X130224534Y-132231522D01*
X130038799Y-132202105D01*
X130022352Y-132199500D01*
X129817648Y-132199500D01*
X129801201Y-132202105D01*
X129615465Y-132231522D01*
X129420776Y-132294781D01*
X129238386Y-132387715D01*
X129072786Y-132508028D01*
X128928028Y-132652786D01*
X128807715Y-132818386D01*
X128714781Y-133000776D01*
X128651522Y-133195465D01*
X128619500Y-133397648D01*
X128619500Y-133602351D01*
X128651522Y-133804534D01*
X128714781Y-133999223D01*
X128807715Y-134181613D01*
X128928028Y-134347213D01*
X129072786Y-134491971D01*
X129227749Y-134604556D01*
X129238390Y-134612287D01*
X129354607Y-134671503D01*
X129420776Y-134705218D01*
X129420778Y-134705218D01*
X129420781Y-134705220D01*
X129525137Y-134739127D01*
X129615465Y-134768477D01*
X129716557Y-134784488D01*
X129817648Y-134800500D01*
X129817649Y-134800500D01*
X130022351Y-134800500D01*
X130022352Y-134800500D01*
X130224534Y-134768477D01*
X130419219Y-134705220D01*
X130601610Y-134612287D01*
X130694590Y-134544732D01*
X130767213Y-134491971D01*
X130767215Y-134491968D01*
X130767219Y-134491966D01*
X130911966Y-134347219D01*
X130911968Y-134347215D01*
X130911971Y-134347213D01*
X130964732Y-134274590D01*
X131032287Y-134181610D01*
X131125220Y-133999219D01*
X131188477Y-133804534D01*
X131220500Y-133602352D01*
X131220500Y-133397648D01*
X138779500Y-133397648D01*
X138779500Y-133602351D01*
X138811522Y-133804534D01*
X138874781Y-133999223D01*
X138967715Y-134181613D01*
X139088028Y-134347213D01*
X139232786Y-134491971D01*
X139387749Y-134604556D01*
X139398390Y-134612287D01*
X139514607Y-134671503D01*
X139580776Y-134705218D01*
X139580778Y-134705218D01*
X139580781Y-134705220D01*
X139685137Y-134739127D01*
X139775465Y-134768477D01*
X139876557Y-134784488D01*
X139977648Y-134800500D01*
X139977649Y-134800500D01*
X140182351Y-134800500D01*
X140182352Y-134800500D01*
X140384534Y-134768477D01*
X140579219Y-134705220D01*
X140761610Y-134612287D01*
X140854590Y-134544732D01*
X140927213Y-134491971D01*
X140927215Y-134491968D01*
X140927219Y-134491966D01*
X141071966Y-134347219D01*
X141071968Y-134347215D01*
X141071971Y-134347213D01*
X141124732Y-134274590D01*
X141192287Y-134181610D01*
X141285220Y-133999219D01*
X141348477Y-133804534D01*
X141352948Y-133776306D01*
X141368322Y-133679240D01*
X141380500Y-133602351D01*
X141380500Y-133397648D01*
X141348477Y-133195465D01*
X141319127Y-133105137D01*
X141285220Y-133000781D01*
X141285218Y-133000778D01*
X141285218Y-133000776D01*
X141251503Y-132934607D01*
X141192287Y-132818390D01*
X141154205Y-132765974D01*
X141071971Y-132652786D01*
X140971340Y-132552155D01*
X145060000Y-132552155D01*
X145060000Y-133250000D01*
X146084722Y-133250000D01*
X146040667Y-133326306D01*
X146010000Y-133440756D01*
X146010000Y-133559244D01*
X146040667Y-133673694D01*
X146084722Y-133750000D01*
X145060000Y-133750000D01*
X145060000Y-134447844D01*
X145066401Y-134507372D01*
X145066403Y-134507379D01*
X145116645Y-134642086D01*
X145116649Y-134642093D01*
X145202809Y-134757187D01*
X145202812Y-134757190D01*
X145317906Y-134843350D01*
X145317913Y-134843354D01*
X145452620Y-134893596D01*
X145452627Y-134893598D01*
X145512155Y-134899999D01*
X145512172Y-134900000D01*
X146210000Y-134900000D01*
X146210000Y-133875277D01*
X146286306Y-133919333D01*
X146400756Y-133950000D01*
X146519244Y-133950000D01*
X146633694Y-133919333D01*
X146710000Y-133875277D01*
X146710000Y-134900000D01*
X147407828Y-134900000D01*
X147407844Y-134899999D01*
X147467372Y-134893598D01*
X147467379Y-134893596D01*
X147602086Y-134843354D01*
X147602093Y-134843350D01*
X147717187Y-134757190D01*
X147717190Y-134757187D01*
X147803350Y-134642093D01*
X147803354Y-134642086D01*
X147833213Y-134562031D01*
X147875084Y-134506097D01*
X147940548Y-134481680D01*
X148008821Y-134496531D01*
X148037076Y-134517683D01*
X148087636Y-134568243D01*
X148087641Y-134568247D01*
X148243192Y-134681260D01*
X148265978Y-134697815D01*
X148382501Y-134757187D01*
X148462393Y-134797895D01*
X148462396Y-134797896D01*
X148567221Y-134831955D01*
X148672049Y-134866015D01*
X148889778Y-134900500D01*
X148889779Y-134900500D01*
X149110221Y-134900500D01*
X149110222Y-134900500D01*
X149327951Y-134866015D01*
X149537606Y-134797895D01*
X149734022Y-134697815D01*
X149912365Y-134568242D01*
X150068242Y-134412365D01*
X150197815Y-134234022D01*
X150297895Y-134037606D01*
X150366015Y-133827951D01*
X150400500Y-133610222D01*
X150400500Y-133389778D01*
X150366015Y-133172049D01*
X150328035Y-133055156D01*
X150297896Y-132962396D01*
X150297895Y-132962393D01*
X150263237Y-132894375D01*
X150197815Y-132765978D01*
X150115573Y-132652781D01*
X150068247Y-132587641D01*
X150068243Y-132587636D01*
X149912363Y-132431756D01*
X149912358Y-132431752D01*
X149734025Y-132302187D01*
X149734024Y-132302186D01*
X149734022Y-132302185D01*
X149650549Y-132259653D01*
X149537606Y-132202104D01*
X149537603Y-132202103D01*
X149327952Y-132133985D01*
X149219086Y-132116742D01*
X149110222Y-132099500D01*
X148889778Y-132099500D01*
X148817201Y-132110995D01*
X148672047Y-132133985D01*
X148462396Y-132202103D01*
X148462393Y-132202104D01*
X148265974Y-132302187D01*
X148087641Y-132431752D01*
X148087636Y-132431756D01*
X148037075Y-132482317D01*
X147975752Y-132515801D01*
X147906060Y-132510816D01*
X147850127Y-132468945D01*
X147833213Y-132437968D01*
X147803354Y-132357913D01*
X147803350Y-132357906D01*
X147717190Y-132242812D01*
X147717187Y-132242809D01*
X147602093Y-132156649D01*
X147602086Y-132156645D01*
X147467379Y-132106403D01*
X147467372Y-132106401D01*
X147407844Y-132100000D01*
X146710000Y-132100000D01*
X146710000Y-133124722D01*
X146633694Y-133080667D01*
X146519244Y-133050000D01*
X146400756Y-133050000D01*
X146286306Y-133080667D01*
X146210000Y-133124722D01*
X146210000Y-132100000D01*
X145512155Y-132100000D01*
X145452627Y-132106401D01*
X145452620Y-132106403D01*
X145317913Y-132156645D01*
X145317906Y-132156649D01*
X145202812Y-132242809D01*
X145202809Y-132242812D01*
X145116649Y-132357906D01*
X145116645Y-132357913D01*
X145066403Y-132492620D01*
X145066401Y-132492627D01*
X145060000Y-132552155D01*
X140971340Y-132552155D01*
X140927213Y-132508028D01*
X140761613Y-132387715D01*
X140761612Y-132387714D01*
X140761610Y-132387713D01*
X140703111Y-132357906D01*
X140579223Y-132294781D01*
X140384534Y-132231522D01*
X140198799Y-132202105D01*
X140182352Y-132199500D01*
X139977648Y-132199500D01*
X139961201Y-132202105D01*
X139775465Y-132231522D01*
X139580776Y-132294781D01*
X139398386Y-132387715D01*
X139232786Y-132508028D01*
X139088028Y-132652786D01*
X138967715Y-132818386D01*
X138874781Y-133000776D01*
X138811522Y-133195465D01*
X138779500Y-133397648D01*
X131220500Y-133397648D01*
X131209200Y-133326306D01*
X131188478Y-133195472D01*
X131188477Y-133195471D01*
X131188477Y-133195466D01*
X131183825Y-133181151D01*
X131181832Y-133111312D01*
X131214075Y-133055158D01*
X132288713Y-131980521D01*
X132288716Y-131980520D01*
X132400520Y-131868716D01*
X132450639Y-131781904D01*
X132479577Y-131731785D01*
X132520500Y-131579057D01*
X132520500Y-131420943D01*
X132520500Y-124897648D01*
X138779500Y-124897648D01*
X138779500Y-125102351D01*
X138811522Y-125304534D01*
X138874781Y-125499223D01*
X138919907Y-125587786D01*
X138943668Y-125634420D01*
X138967715Y-125681613D01*
X139088028Y-125847213D01*
X139232786Y-125991971D01*
X139387749Y-126104556D01*
X139398390Y-126112287D01*
X139514607Y-126171503D01*
X139580776Y-126205218D01*
X139580778Y-126205218D01*
X139580781Y-126205220D01*
X139685137Y-126239127D01*
X139775465Y-126268477D01*
X139876557Y-126284488D01*
X139977648Y-126300500D01*
X139977649Y-126300500D01*
X140182351Y-126300500D01*
X140182352Y-126300500D01*
X140384534Y-126268477D01*
X140579219Y-126205220D01*
X140761610Y-126112287D01*
X140854590Y-126044732D01*
X140927213Y-125991971D01*
X140927215Y-125991968D01*
X140927219Y-125991966D01*
X141071966Y-125847219D01*
X141071968Y-125847215D01*
X141071971Y-125847213D01*
X141124732Y-125774590D01*
X141192287Y-125681610D01*
X141285220Y-125499219D01*
X141348477Y-125304534D01*
X141352948Y-125276306D01*
X141368322Y-125179240D01*
X141380500Y-125102351D01*
X141380500Y-124897648D01*
X141348477Y-124695465D01*
X141319127Y-124605137D01*
X141285220Y-124500781D01*
X141285218Y-124500778D01*
X141285218Y-124500776D01*
X141251503Y-124434607D01*
X141192287Y-124318390D01*
X141154205Y-124265974D01*
X141071971Y-124152786D01*
X140971340Y-124052155D01*
X145060000Y-124052155D01*
X145060000Y-124750000D01*
X146084722Y-124750000D01*
X146040667Y-124826306D01*
X146010000Y-124940756D01*
X146010000Y-125059244D01*
X146040667Y-125173694D01*
X146084722Y-125250000D01*
X145060000Y-125250000D01*
X145060000Y-125947844D01*
X145066401Y-126007372D01*
X145066403Y-126007379D01*
X145116645Y-126142086D01*
X145116649Y-126142093D01*
X145202809Y-126257187D01*
X145202812Y-126257190D01*
X145317906Y-126343350D01*
X145317913Y-126343354D01*
X145452620Y-126393596D01*
X145452627Y-126393598D01*
X145512155Y-126399999D01*
X145512172Y-126400000D01*
X146210000Y-126400000D01*
X146210000Y-125375277D01*
X146286306Y-125419333D01*
X146400756Y-125450000D01*
X146519244Y-125450000D01*
X146633694Y-125419333D01*
X146710000Y-125375277D01*
X146710000Y-126400000D01*
X147407828Y-126400000D01*
X147407844Y-126399999D01*
X147467372Y-126393598D01*
X147467379Y-126393596D01*
X147602086Y-126343354D01*
X147602093Y-126343350D01*
X147717187Y-126257190D01*
X147717190Y-126257187D01*
X147803350Y-126142093D01*
X147803354Y-126142086D01*
X147833213Y-126062031D01*
X147875084Y-126006097D01*
X147940548Y-125981680D01*
X148008821Y-125996531D01*
X148037076Y-126017683D01*
X148087636Y-126068243D01*
X148087641Y-126068247D01*
X148243192Y-126181260D01*
X148265978Y-126197815D01*
X148382501Y-126257187D01*
X148462393Y-126297895D01*
X148462396Y-126297896D01*
X148567221Y-126331955D01*
X148672049Y-126366015D01*
X148889778Y-126400500D01*
X148889779Y-126400500D01*
X149110221Y-126400500D01*
X149110222Y-126400500D01*
X149327951Y-126366015D01*
X149537606Y-126297895D01*
X149734022Y-126197815D01*
X149912365Y-126068242D01*
X150068242Y-125912365D01*
X150197815Y-125734022D01*
X150297895Y-125537606D01*
X150366015Y-125327951D01*
X150400500Y-125110222D01*
X150400500Y-124889778D01*
X150366015Y-124672049D01*
X150331955Y-124567221D01*
X150297896Y-124462396D01*
X150297895Y-124462393D01*
X150263237Y-124394375D01*
X150197815Y-124265978D01*
X150115573Y-124152781D01*
X150068247Y-124087641D01*
X150068243Y-124087636D01*
X149912363Y-123931756D01*
X149912358Y-123931752D01*
X149734025Y-123802187D01*
X149734024Y-123802186D01*
X149734022Y-123802185D01*
X149650549Y-123759653D01*
X149537606Y-123702104D01*
X149537603Y-123702103D01*
X149327952Y-123633985D01*
X149219086Y-123616742D01*
X149110222Y-123599500D01*
X148889778Y-123599500D01*
X148817201Y-123610995D01*
X148672047Y-123633985D01*
X148462396Y-123702103D01*
X148462393Y-123702104D01*
X148265974Y-123802187D01*
X148087641Y-123931752D01*
X148087636Y-123931756D01*
X148037075Y-123982317D01*
X147975752Y-124015801D01*
X147906060Y-124010816D01*
X147850127Y-123968945D01*
X147833213Y-123937968D01*
X147803354Y-123857913D01*
X147803350Y-123857906D01*
X147717190Y-123742812D01*
X147717187Y-123742809D01*
X147602093Y-123656649D01*
X147602086Y-123656645D01*
X147467379Y-123606403D01*
X147467372Y-123606401D01*
X147407844Y-123600000D01*
X146710000Y-123600000D01*
X146710000Y-124624722D01*
X146633694Y-124580667D01*
X146519244Y-124550000D01*
X146400756Y-124550000D01*
X146286306Y-124580667D01*
X146210000Y-124624722D01*
X146210000Y-123600000D01*
X145512155Y-123600000D01*
X145452627Y-123606401D01*
X145452620Y-123606403D01*
X145317913Y-123656645D01*
X145317906Y-123656649D01*
X145202812Y-123742809D01*
X145202809Y-123742812D01*
X145116649Y-123857906D01*
X145116645Y-123857913D01*
X145066403Y-123992620D01*
X145066401Y-123992627D01*
X145060000Y-124052155D01*
X140971340Y-124052155D01*
X140927213Y-124008028D01*
X140761613Y-123887715D01*
X140761612Y-123887714D01*
X140761610Y-123887713D01*
X140703111Y-123857906D01*
X140579223Y-123794781D01*
X140384534Y-123731522D01*
X140198799Y-123702105D01*
X140182352Y-123699500D01*
X139977648Y-123699500D01*
X139961201Y-123702105D01*
X139775465Y-123731522D01*
X139580776Y-123794781D01*
X139398386Y-123887715D01*
X139232786Y-124008028D01*
X139088028Y-124152786D01*
X138967715Y-124318386D01*
X138874781Y-124500776D01*
X138811522Y-124695465D01*
X138779500Y-124897648D01*
X132520500Y-124897648D01*
X132520500Y-116397648D01*
X138779500Y-116397648D01*
X138779500Y-116602351D01*
X138811522Y-116804534D01*
X138874781Y-116999223D01*
X138967715Y-117181613D01*
X139088028Y-117347213D01*
X139232786Y-117491971D01*
X139387749Y-117604556D01*
X139398390Y-117612287D01*
X139514607Y-117671503D01*
X139580776Y-117705218D01*
X139580778Y-117705218D01*
X139580781Y-117705220D01*
X139685137Y-117739127D01*
X139775465Y-117768477D01*
X139876557Y-117784488D01*
X139977648Y-117800500D01*
X139977649Y-117800500D01*
X140182351Y-117800500D01*
X140182352Y-117800500D01*
X140384534Y-117768477D01*
X140579219Y-117705220D01*
X140761610Y-117612287D01*
X140854590Y-117544732D01*
X140927213Y-117491971D01*
X140927215Y-117491968D01*
X140927219Y-117491966D01*
X141071966Y-117347219D01*
X141071968Y-117347215D01*
X141071971Y-117347213D01*
X141124732Y-117274590D01*
X141192287Y-117181610D01*
X141285220Y-116999219D01*
X141348477Y-116804534D01*
X141352948Y-116776306D01*
X141368322Y-116679240D01*
X141380500Y-116602351D01*
X141380500Y-116397648D01*
X141348477Y-116195465D01*
X141319127Y-116105137D01*
X141285220Y-116000781D01*
X141285218Y-116000778D01*
X141285218Y-116000776D01*
X141251503Y-115934607D01*
X141192287Y-115818390D01*
X141154205Y-115765974D01*
X141071971Y-115652786D01*
X140971340Y-115552155D01*
X144830000Y-115552155D01*
X144830000Y-116250000D01*
X145854722Y-116250000D01*
X145810667Y-116326306D01*
X145780000Y-116440756D01*
X145780000Y-116559244D01*
X145810667Y-116673694D01*
X145854722Y-116750000D01*
X144830000Y-116750000D01*
X144830000Y-117447844D01*
X144836401Y-117507372D01*
X144836403Y-117507379D01*
X144886645Y-117642086D01*
X144886649Y-117642093D01*
X144972809Y-117757187D01*
X144972812Y-117757190D01*
X145087906Y-117843350D01*
X145087913Y-117843354D01*
X145222620Y-117893596D01*
X145222627Y-117893598D01*
X145282155Y-117899999D01*
X145282172Y-117900000D01*
X145980000Y-117900000D01*
X145980000Y-116875277D01*
X146056306Y-116919333D01*
X146170756Y-116950000D01*
X146289244Y-116950000D01*
X146403694Y-116919333D01*
X146480000Y-116875277D01*
X146480000Y-117900000D01*
X147177828Y-117900000D01*
X147177844Y-117899999D01*
X147237372Y-117893598D01*
X147237379Y-117893596D01*
X147372086Y-117843354D01*
X147372093Y-117843350D01*
X147487187Y-117757190D01*
X147487190Y-117757187D01*
X147573350Y-117642093D01*
X147573354Y-117642086D01*
X147603213Y-117562031D01*
X147645084Y-117506097D01*
X147710548Y-117481680D01*
X147778821Y-117496531D01*
X147807076Y-117517683D01*
X147857636Y-117568243D01*
X147857641Y-117568247D01*
X148013192Y-117681260D01*
X148035978Y-117697815D01*
X148152501Y-117757187D01*
X148232393Y-117797895D01*
X148232396Y-117797896D01*
X148337221Y-117831955D01*
X148442049Y-117866015D01*
X148659778Y-117900500D01*
X148659779Y-117900500D01*
X148880221Y-117900500D01*
X148880222Y-117900500D01*
X149097951Y-117866015D01*
X149307606Y-117797895D01*
X149504022Y-117697815D01*
X149682365Y-117568242D01*
X149838242Y-117412365D01*
X149967815Y-117234022D01*
X150067895Y-117037606D01*
X150136015Y-116827951D01*
X150170500Y-116610222D01*
X150170500Y-116389778D01*
X150136015Y-116172049D01*
X150101955Y-116067221D01*
X150067896Y-115962396D01*
X150067895Y-115962393D01*
X150017343Y-115863181D01*
X149967815Y-115765978D01*
X149885573Y-115652781D01*
X149838247Y-115587641D01*
X149838243Y-115587636D01*
X149682363Y-115431756D01*
X149682358Y-115431752D01*
X149504025Y-115302187D01*
X149504024Y-115302186D01*
X149504022Y-115302185D01*
X149441096Y-115270122D01*
X149307606Y-115202104D01*
X149307603Y-115202103D01*
X149097952Y-115133985D01*
X148989086Y-115116742D01*
X148880222Y-115099500D01*
X148659778Y-115099500D01*
X148587201Y-115110995D01*
X148442047Y-115133985D01*
X148232396Y-115202103D01*
X148232393Y-115202104D01*
X148035974Y-115302187D01*
X147857641Y-115431752D01*
X147857636Y-115431756D01*
X147807075Y-115482317D01*
X147745752Y-115515801D01*
X147676060Y-115510816D01*
X147620127Y-115468945D01*
X147603213Y-115437968D01*
X147573354Y-115357913D01*
X147573350Y-115357906D01*
X147487190Y-115242812D01*
X147487187Y-115242809D01*
X147372093Y-115156649D01*
X147372086Y-115156645D01*
X147237379Y-115106403D01*
X147237372Y-115106401D01*
X147177844Y-115100000D01*
X146480000Y-115100000D01*
X146480000Y-116124722D01*
X146403694Y-116080667D01*
X146289244Y-116050000D01*
X146170756Y-116050000D01*
X146056306Y-116080667D01*
X145980000Y-116124722D01*
X145980000Y-115100000D01*
X145282155Y-115100000D01*
X145222627Y-115106401D01*
X145222620Y-115106403D01*
X145087913Y-115156645D01*
X145087906Y-115156649D01*
X144972812Y-115242809D01*
X144972809Y-115242812D01*
X144886649Y-115357906D01*
X144886645Y-115357913D01*
X144836403Y-115492620D01*
X144836401Y-115492627D01*
X144830000Y-115552155D01*
X140971340Y-115552155D01*
X140927213Y-115508028D01*
X140761613Y-115387715D01*
X140761612Y-115387714D01*
X140761610Y-115387713D01*
X140703111Y-115357906D01*
X140579223Y-115294781D01*
X140384534Y-115231522D01*
X140198799Y-115202105D01*
X140182352Y-115199500D01*
X139977648Y-115199500D01*
X139961201Y-115202105D01*
X139775465Y-115231522D01*
X139580776Y-115294781D01*
X139398386Y-115387715D01*
X139232786Y-115508028D01*
X139088028Y-115652786D01*
X138967715Y-115818386D01*
X138874781Y-116000776D01*
X138811522Y-116195465D01*
X138779500Y-116397648D01*
X132520500Y-116397648D01*
X132520500Y-108397648D01*
X139279500Y-108397648D01*
X139279500Y-108602351D01*
X139311522Y-108804534D01*
X139374781Y-108999223D01*
X139467715Y-109181613D01*
X139588028Y-109347213D01*
X139732786Y-109491971D01*
X139887749Y-109604556D01*
X139898390Y-109612287D01*
X140014607Y-109671503D01*
X140080776Y-109705218D01*
X140080778Y-109705218D01*
X140080781Y-109705220D01*
X140185137Y-109739127D01*
X140275465Y-109768477D01*
X140376557Y-109784488D01*
X140477648Y-109800500D01*
X140477649Y-109800500D01*
X140682351Y-109800500D01*
X140682352Y-109800500D01*
X140884534Y-109768477D01*
X141079219Y-109705220D01*
X141261610Y-109612287D01*
X141354590Y-109544732D01*
X141427213Y-109491971D01*
X141427215Y-109491968D01*
X141427219Y-109491966D01*
X141571966Y-109347219D01*
X141571968Y-109347215D01*
X141571971Y-109347213D01*
X141630552Y-109266581D01*
X141692287Y-109181610D01*
X141785220Y-108999219D01*
X141848477Y-108804534D01*
X141852948Y-108776306D01*
X141868322Y-108679240D01*
X141880500Y-108602351D01*
X141880500Y-108397648D01*
X141848477Y-108195465D01*
X141819127Y-108105137D01*
X141785220Y-108000781D01*
X141785218Y-108000778D01*
X141785218Y-108000776D01*
X141751503Y-107934607D01*
X141692287Y-107818390D01*
X141633674Y-107737715D01*
X141571971Y-107652786D01*
X141471340Y-107552155D01*
X144825000Y-107552155D01*
X144825000Y-108250000D01*
X145849722Y-108250000D01*
X145805667Y-108326306D01*
X145775000Y-108440756D01*
X145775000Y-108559244D01*
X145805667Y-108673694D01*
X145849722Y-108750000D01*
X144825000Y-108750000D01*
X144825000Y-109447844D01*
X144831401Y-109507372D01*
X144831403Y-109507379D01*
X144881645Y-109642086D01*
X144881649Y-109642093D01*
X144967809Y-109757187D01*
X144967812Y-109757190D01*
X145082906Y-109843350D01*
X145082913Y-109843354D01*
X145217620Y-109893596D01*
X145217627Y-109893598D01*
X145277155Y-109899999D01*
X145277172Y-109900000D01*
X145975000Y-109900000D01*
X145975000Y-108875277D01*
X146051306Y-108919333D01*
X146165756Y-108950000D01*
X146284244Y-108950000D01*
X146398694Y-108919333D01*
X146475000Y-108875277D01*
X146475000Y-109900000D01*
X147172828Y-109900000D01*
X147172844Y-109899999D01*
X147232372Y-109893598D01*
X147232379Y-109893596D01*
X147367086Y-109843354D01*
X147367093Y-109843350D01*
X147482187Y-109757190D01*
X147482190Y-109757187D01*
X147568350Y-109642093D01*
X147568354Y-109642086D01*
X147598213Y-109562031D01*
X147640084Y-109506097D01*
X147705548Y-109481680D01*
X147773821Y-109496531D01*
X147802076Y-109517683D01*
X147852636Y-109568243D01*
X147852641Y-109568247D01*
X148008192Y-109681260D01*
X148030978Y-109697815D01*
X148144922Y-109755873D01*
X148227393Y-109797895D01*
X148227396Y-109797896D01*
X148332221Y-109831955D01*
X148437049Y-109866015D01*
X148654778Y-109900500D01*
X148654779Y-109900500D01*
X148875221Y-109900500D01*
X148875222Y-109900500D01*
X149092951Y-109866015D01*
X149302606Y-109797895D01*
X149499022Y-109697815D01*
X149677365Y-109568242D01*
X149833242Y-109412365D01*
X149962815Y-109234022D01*
X150062895Y-109037606D01*
X150131015Y-108827951D01*
X150165500Y-108610222D01*
X150165500Y-108389778D01*
X150131015Y-108172049D01*
X150096955Y-108067221D01*
X150062896Y-107962396D01*
X150062895Y-107962393D01*
X150009717Y-107858028D01*
X149962815Y-107765978D01*
X149942279Y-107737713D01*
X149833247Y-107587641D01*
X149833243Y-107587636D01*
X149677363Y-107431756D01*
X149677358Y-107431752D01*
X149499025Y-107302187D01*
X149499024Y-107302186D01*
X149499022Y-107302185D01*
X149431911Y-107267990D01*
X149302606Y-107202104D01*
X149302603Y-107202103D01*
X149092952Y-107133985D01*
X148984086Y-107116742D01*
X148875222Y-107099500D01*
X148654778Y-107099500D01*
X148582201Y-107110995D01*
X148437047Y-107133985D01*
X148227396Y-107202103D01*
X148227393Y-107202104D01*
X148030974Y-107302187D01*
X147852641Y-107431752D01*
X147852636Y-107431756D01*
X147802075Y-107482317D01*
X147740752Y-107515801D01*
X147671060Y-107510816D01*
X147615127Y-107468945D01*
X147598213Y-107437968D01*
X147568354Y-107357913D01*
X147568350Y-107357906D01*
X147482190Y-107242812D01*
X147482187Y-107242809D01*
X147367093Y-107156649D01*
X147367086Y-107156645D01*
X147232379Y-107106403D01*
X147232372Y-107106401D01*
X147172844Y-107100000D01*
X146475000Y-107100000D01*
X146475000Y-108124722D01*
X146398694Y-108080667D01*
X146284244Y-108050000D01*
X146165756Y-108050000D01*
X146051306Y-108080667D01*
X145975000Y-108124722D01*
X145975000Y-107100000D01*
X145277155Y-107100000D01*
X145217627Y-107106401D01*
X145217620Y-107106403D01*
X145082913Y-107156645D01*
X145082906Y-107156649D01*
X144967812Y-107242809D01*
X144967809Y-107242812D01*
X144881649Y-107357906D01*
X144881645Y-107357913D01*
X144831403Y-107492620D01*
X144831401Y-107492627D01*
X144825000Y-107552155D01*
X141471340Y-107552155D01*
X141427213Y-107508028D01*
X141261613Y-107387715D01*
X141261612Y-107387714D01*
X141261610Y-107387713D01*
X141177053Y-107344629D01*
X141079223Y-107294781D01*
X140884534Y-107231522D01*
X140698799Y-107202105D01*
X140682352Y-107199500D01*
X140477648Y-107199500D01*
X140461201Y-107202105D01*
X140275465Y-107231522D01*
X140080776Y-107294781D01*
X139898386Y-107387715D01*
X139732786Y-107508028D01*
X139588028Y-107652786D01*
X139467715Y-107818386D01*
X139374781Y-108000776D01*
X139311522Y-108195465D01*
X139279500Y-108397648D01*
X132520500Y-108397648D01*
X132520500Y-100397648D01*
X139279500Y-100397648D01*
X139279500Y-100602351D01*
X139311522Y-100804534D01*
X139374781Y-100999223D01*
X139426135Y-101100009D01*
X139442948Y-101133007D01*
X139467715Y-101181613D01*
X139588028Y-101347213D01*
X139732786Y-101491971D01*
X139845067Y-101573546D01*
X139898390Y-101612287D01*
X139979499Y-101653614D01*
X140080776Y-101705218D01*
X140080778Y-101705218D01*
X140080781Y-101705220D01*
X140154655Y-101729223D01*
X140275465Y-101768477D01*
X140284292Y-101769875D01*
X140477648Y-101800500D01*
X140477649Y-101800500D01*
X140682351Y-101800500D01*
X140682352Y-101800500D01*
X140884534Y-101768477D01*
X141079219Y-101705220D01*
X141261610Y-101612287D01*
X141390482Y-101518657D01*
X141427213Y-101491971D01*
X141427215Y-101491968D01*
X141427219Y-101491966D01*
X141571966Y-101347219D01*
X141571968Y-101347215D01*
X141571971Y-101347213D01*
X141624732Y-101274590D01*
X141692287Y-101181610D01*
X141785220Y-100999219D01*
X141848477Y-100804534D01*
X141852948Y-100776306D01*
X141868322Y-100679240D01*
X141874511Y-100640166D01*
X141880500Y-100602352D01*
X141880500Y-100397648D01*
X141848477Y-100195465D01*
X141817458Y-100100000D01*
X141785220Y-100000781D01*
X141785218Y-100000778D01*
X141785218Y-100000776D01*
X141733865Y-99899991D01*
X141692287Y-99818390D01*
X141653380Y-99764838D01*
X141571971Y-99652786D01*
X141471340Y-99552155D01*
X144560000Y-99552155D01*
X144560000Y-100250000D01*
X145584722Y-100250000D01*
X145540667Y-100326306D01*
X145510000Y-100440756D01*
X145510000Y-100559244D01*
X145540667Y-100673694D01*
X145584722Y-100750000D01*
X144560000Y-100750000D01*
X144560000Y-101447844D01*
X144566401Y-101507372D01*
X144566403Y-101507379D01*
X144616645Y-101642086D01*
X144616649Y-101642093D01*
X144702809Y-101757187D01*
X144702812Y-101757190D01*
X144817906Y-101843350D01*
X144817913Y-101843354D01*
X144952620Y-101893596D01*
X144952627Y-101893598D01*
X145012155Y-101899999D01*
X145012172Y-101900000D01*
X145710000Y-101900000D01*
X145710000Y-100875277D01*
X145786306Y-100919333D01*
X145900756Y-100950000D01*
X146019244Y-100950000D01*
X146133694Y-100919333D01*
X146210000Y-100875277D01*
X146210000Y-101900000D01*
X146907828Y-101900000D01*
X146907844Y-101899999D01*
X146967372Y-101893598D01*
X146967379Y-101893596D01*
X147102086Y-101843354D01*
X147102093Y-101843350D01*
X147217187Y-101757190D01*
X147217190Y-101757187D01*
X147303350Y-101642093D01*
X147303354Y-101642086D01*
X147333213Y-101562031D01*
X147375084Y-101506097D01*
X147440548Y-101481680D01*
X147508821Y-101496531D01*
X147537076Y-101517683D01*
X147587636Y-101568243D01*
X147587641Y-101568247D01*
X147691654Y-101643816D01*
X147765978Y-101697815D01*
X147873375Y-101752537D01*
X147962393Y-101797895D01*
X147962396Y-101797896D01*
X148067221Y-101831955D01*
X148172049Y-101866015D01*
X148389778Y-101900500D01*
X148389779Y-101900500D01*
X148610221Y-101900500D01*
X148610222Y-101900500D01*
X148827951Y-101866015D01*
X149037606Y-101797895D01*
X149234022Y-101697815D01*
X149412365Y-101568242D01*
X149568242Y-101412365D01*
X149697815Y-101234022D01*
X149797895Y-101037606D01*
X149866015Y-100827951D01*
X149900500Y-100610222D01*
X149900500Y-100389778D01*
X149866015Y-100172049D01*
X149831955Y-100067221D01*
X149797896Y-99962396D01*
X149797895Y-99962393D01*
X149763237Y-99894375D01*
X149697815Y-99765978D01*
X149614133Y-99650799D01*
X149568247Y-99587641D01*
X149568243Y-99587636D01*
X149412363Y-99431756D01*
X149412358Y-99431752D01*
X149234025Y-99302187D01*
X149234024Y-99302186D01*
X149234022Y-99302185D01*
X149161406Y-99265185D01*
X149037606Y-99202104D01*
X149037603Y-99202103D01*
X148827952Y-99133985D01*
X148705471Y-99114586D01*
X148610222Y-99099500D01*
X148389778Y-99099500D01*
X148317201Y-99110995D01*
X148172047Y-99133985D01*
X147962396Y-99202103D01*
X147962393Y-99202104D01*
X147765974Y-99302187D01*
X147587641Y-99431752D01*
X147587636Y-99431756D01*
X147537075Y-99482317D01*
X147475752Y-99515801D01*
X147406060Y-99510816D01*
X147350127Y-99468945D01*
X147333213Y-99437968D01*
X147303354Y-99357913D01*
X147303350Y-99357906D01*
X147217190Y-99242812D01*
X147217187Y-99242809D01*
X147102093Y-99156649D01*
X147102086Y-99156645D01*
X146967379Y-99106403D01*
X146967372Y-99106401D01*
X146907844Y-99100000D01*
X146210000Y-99100000D01*
X146210000Y-100124722D01*
X146133694Y-100080667D01*
X146019244Y-100050000D01*
X145900756Y-100050000D01*
X145786306Y-100080667D01*
X145710000Y-100124722D01*
X145710000Y-99100000D01*
X145012155Y-99100000D01*
X144952627Y-99106401D01*
X144952620Y-99106403D01*
X144817913Y-99156645D01*
X144817906Y-99156649D01*
X144702812Y-99242809D01*
X144702809Y-99242812D01*
X144616649Y-99357906D01*
X144616645Y-99357913D01*
X144566403Y-99492620D01*
X144566401Y-99492627D01*
X144560000Y-99552155D01*
X141471340Y-99552155D01*
X141427213Y-99508028D01*
X141261613Y-99387715D01*
X141261612Y-99387714D01*
X141261610Y-99387713D01*
X141201898Y-99357288D01*
X141079223Y-99294781D01*
X140884534Y-99231522D01*
X140698799Y-99202105D01*
X140682352Y-99199500D01*
X140477648Y-99199500D01*
X140461201Y-99202105D01*
X140275465Y-99231522D01*
X140080776Y-99294781D01*
X139898386Y-99387715D01*
X139732786Y-99508028D01*
X139588028Y-99652786D01*
X139467715Y-99818386D01*
X139374781Y-100000776D01*
X139311522Y-100195465D01*
X139279500Y-100397648D01*
X132520500Y-100397648D01*
X132520500Y-100365308D01*
X132495102Y-100270520D01*
X132479577Y-100212580D01*
X132448478Y-100158716D01*
X132448478Y-100158714D01*
X132400524Y-100075655D01*
X132400521Y-100075651D01*
X132400520Y-100075649D01*
X132288716Y-99963845D01*
X132288715Y-99963844D01*
X132284385Y-99959514D01*
X132284374Y-99959504D01*
X131363225Y-99038355D01*
X131363223Y-99038352D01*
X131244352Y-98919481D01*
X131244351Y-98919480D01*
X131157539Y-98869360D01*
X131157539Y-98869359D01*
X131157535Y-98869358D01*
X131107420Y-98840423D01*
X130954692Y-98799499D01*
X130949733Y-98799499D01*
X130882694Y-98779814D01*
X130836939Y-98727010D01*
X130826995Y-98657852D01*
X130856020Y-98594296D01*
X130862052Y-98587818D01*
X131111767Y-98338103D01*
X131878506Y-97571362D01*
X131878511Y-97571359D01*
X131888714Y-97561155D01*
X131888716Y-97561155D01*
X132000520Y-97449351D01*
X132079577Y-97312419D01*
X132109534Y-97200616D01*
X132120500Y-97159693D01*
X132120500Y-97001578D01*
X132120500Y-92897648D01*
X139279500Y-92897648D01*
X139279500Y-93102351D01*
X139311522Y-93304534D01*
X139374781Y-93499223D01*
X139416335Y-93580776D01*
X139447574Y-93642086D01*
X139467715Y-93681613D01*
X139588028Y-93847213D01*
X139732786Y-93991971D01*
X139887749Y-94104556D01*
X139898390Y-94112287D01*
X140014607Y-94171503D01*
X140080776Y-94205218D01*
X140080778Y-94205218D01*
X140080781Y-94205220D01*
X140185137Y-94239127D01*
X140275465Y-94268477D01*
X140376557Y-94284488D01*
X140477648Y-94300500D01*
X140477649Y-94300500D01*
X140682351Y-94300500D01*
X140682352Y-94300500D01*
X140884534Y-94268477D01*
X141079219Y-94205220D01*
X141261610Y-94112287D01*
X141354590Y-94044732D01*
X141427213Y-93991971D01*
X141427215Y-93991968D01*
X141427219Y-93991966D01*
X141571966Y-93847219D01*
X141571968Y-93847215D01*
X141571971Y-93847213D01*
X141637375Y-93757190D01*
X141692287Y-93681610D01*
X141785220Y-93499219D01*
X141848477Y-93304534D01*
X141880500Y-93102352D01*
X141880500Y-92897648D01*
X141869461Y-92827951D01*
X141852052Y-92718036D01*
X141848477Y-92695465D01*
X141785218Y-92500776D01*
X141725630Y-92383830D01*
X141692287Y-92318390D01*
X141659007Y-92272583D01*
X141571971Y-92152786D01*
X141427213Y-92008028D01*
X141261613Y-91887715D01*
X141261612Y-91887714D01*
X141261610Y-91887713D01*
X141204653Y-91858691D01*
X141079223Y-91794781D01*
X140884534Y-91731522D01*
X140709995Y-91703878D01*
X140682352Y-91699500D01*
X140477648Y-91699500D01*
X140453329Y-91703351D01*
X140275465Y-91731522D01*
X140080776Y-91794781D01*
X139898386Y-91887715D01*
X139732786Y-92008028D01*
X139588028Y-92152786D01*
X139467715Y-92318386D01*
X139374781Y-92500776D01*
X139311522Y-92695465D01*
X139279500Y-92897648D01*
X132120500Y-92897648D01*
X132120500Y-91552155D01*
X144560000Y-91552155D01*
X144560000Y-92250000D01*
X145584722Y-92250000D01*
X145540667Y-92326306D01*
X145510000Y-92440756D01*
X145510000Y-92559244D01*
X145540667Y-92673694D01*
X145584722Y-92750000D01*
X144560000Y-92750000D01*
X144560000Y-93447844D01*
X144566401Y-93507372D01*
X144566403Y-93507379D01*
X144616645Y-93642086D01*
X144616649Y-93642093D01*
X144702809Y-93757187D01*
X144702812Y-93757190D01*
X144817906Y-93843350D01*
X144817913Y-93843354D01*
X144952620Y-93893596D01*
X144952627Y-93893598D01*
X145012155Y-93899999D01*
X145012172Y-93900000D01*
X145710000Y-93900000D01*
X145710000Y-92875277D01*
X145786306Y-92919333D01*
X145900756Y-92950000D01*
X146019244Y-92950000D01*
X146133694Y-92919333D01*
X146210000Y-92875277D01*
X146210000Y-93900000D01*
X146907828Y-93900000D01*
X146907844Y-93899999D01*
X146967372Y-93893598D01*
X146967379Y-93893596D01*
X147102086Y-93843354D01*
X147102093Y-93843350D01*
X147217187Y-93757190D01*
X147217190Y-93757187D01*
X147303350Y-93642093D01*
X147303354Y-93642086D01*
X147333213Y-93562031D01*
X147375084Y-93506097D01*
X147440548Y-93481680D01*
X147508821Y-93496531D01*
X147537076Y-93517683D01*
X147587636Y-93568243D01*
X147587641Y-93568247D01*
X147722759Y-93666415D01*
X147765978Y-93697815D01*
X147894375Y-93763237D01*
X147962393Y-93797895D01*
X147962396Y-93797896D01*
X148067221Y-93831955D01*
X148172049Y-93866015D01*
X148389778Y-93900500D01*
X148389779Y-93900500D01*
X148610221Y-93900500D01*
X148610222Y-93900500D01*
X148827951Y-93866015D01*
X149037606Y-93797895D01*
X149234022Y-93697815D01*
X149412365Y-93568242D01*
X149568242Y-93412365D01*
X149697815Y-93234022D01*
X149797895Y-93037606D01*
X149866015Y-92827951D01*
X149900500Y-92610222D01*
X149900500Y-92389778D01*
X149866015Y-92172049D01*
X149831955Y-92067221D01*
X149797896Y-91962396D01*
X149797895Y-91962393D01*
X149712563Y-91794923D01*
X149697815Y-91765978D01*
X149610169Y-91645343D01*
X149568247Y-91587641D01*
X149568243Y-91587636D01*
X149412363Y-91431756D01*
X149412358Y-91431752D01*
X149234025Y-91302187D01*
X149234024Y-91302186D01*
X149234022Y-91302185D01*
X149171096Y-91270122D01*
X149037606Y-91202104D01*
X149037603Y-91202103D01*
X148827952Y-91133985D01*
X148719086Y-91116742D01*
X148610222Y-91099500D01*
X148389778Y-91099500D01*
X148317201Y-91110995D01*
X148172047Y-91133985D01*
X147962396Y-91202103D01*
X147962393Y-91202104D01*
X147765974Y-91302187D01*
X147587641Y-91431752D01*
X147587636Y-91431756D01*
X147537075Y-91482317D01*
X147475752Y-91515801D01*
X147406060Y-91510816D01*
X147350127Y-91468945D01*
X147333213Y-91437968D01*
X147303354Y-91357913D01*
X147303350Y-91357906D01*
X147217190Y-91242812D01*
X147217187Y-91242809D01*
X147102093Y-91156649D01*
X147102086Y-91156645D01*
X146967379Y-91106403D01*
X146967372Y-91106401D01*
X146907844Y-91100000D01*
X146210000Y-91100000D01*
X146210000Y-92124722D01*
X146133694Y-92080667D01*
X146019244Y-92050000D01*
X145900756Y-92050000D01*
X145786306Y-92080667D01*
X145710000Y-92124722D01*
X145710000Y-91100000D01*
X145012155Y-91100000D01*
X144952627Y-91106401D01*
X144952620Y-91106403D01*
X144817913Y-91156645D01*
X144817906Y-91156649D01*
X144702812Y-91242809D01*
X144702809Y-91242812D01*
X144616649Y-91357906D01*
X144616645Y-91357913D01*
X144566403Y-91492620D01*
X144566401Y-91492627D01*
X144560000Y-91552155D01*
X132120500Y-91552155D01*
X132120500Y-85689059D01*
X132120501Y-85689046D01*
X132120501Y-85520945D01*
X132120501Y-85520943D01*
X132079577Y-85368215D01*
X132050639Y-85318095D01*
X132000520Y-85231284D01*
X131888716Y-85119480D01*
X131888715Y-85119479D01*
X131884385Y-85115149D01*
X131884374Y-85115139D01*
X131714077Y-84944842D01*
X131680592Y-84883519D01*
X131683828Y-84818841D01*
X131688477Y-84804534D01*
X131720500Y-84602352D01*
X131720500Y-84397648D01*
X139279500Y-84397648D01*
X139279500Y-84602351D01*
X139311522Y-84804534D01*
X139374781Y-84999223D01*
X139467715Y-85181613D01*
X139588028Y-85347213D01*
X139732786Y-85491971D01*
X139887749Y-85604556D01*
X139898390Y-85612287D01*
X139972055Y-85649821D01*
X140080776Y-85705218D01*
X140080778Y-85705218D01*
X140080781Y-85705220D01*
X140185137Y-85739127D01*
X140275465Y-85768477D01*
X140303555Y-85772926D01*
X140477648Y-85800500D01*
X140477649Y-85800500D01*
X140682351Y-85800500D01*
X140682352Y-85800500D01*
X140884534Y-85768477D01*
X141079219Y-85705220D01*
X141261610Y-85612287D01*
X141387333Y-85520945D01*
X141427213Y-85491971D01*
X141427215Y-85491968D01*
X141427219Y-85491966D01*
X141571966Y-85347219D01*
X141571968Y-85347215D01*
X141571971Y-85347213D01*
X141635181Y-85260210D01*
X141692287Y-85181610D01*
X141785220Y-84999219D01*
X141848477Y-84804534D01*
X141854388Y-84767213D01*
X141868322Y-84679240D01*
X141880500Y-84602351D01*
X141880500Y-84397648D01*
X141848477Y-84195465D01*
X141819127Y-84105137D01*
X141785220Y-84000781D01*
X141785218Y-84000778D01*
X141785218Y-84000776D01*
X141744647Y-83921153D01*
X141692287Y-83818390D01*
X141682595Y-83805050D01*
X141571971Y-83652786D01*
X141471340Y-83552155D01*
X144560000Y-83552155D01*
X144560000Y-84250000D01*
X145584722Y-84250000D01*
X145540667Y-84326306D01*
X145510000Y-84440756D01*
X145510000Y-84559244D01*
X145540667Y-84673694D01*
X145584722Y-84750000D01*
X144560000Y-84750000D01*
X144560000Y-85447844D01*
X144566401Y-85507372D01*
X144566403Y-85507379D01*
X144616645Y-85642086D01*
X144616649Y-85642093D01*
X144702809Y-85757187D01*
X144702812Y-85757190D01*
X144817906Y-85843350D01*
X144817913Y-85843354D01*
X144952620Y-85893596D01*
X144952627Y-85893598D01*
X145012155Y-85899999D01*
X145012172Y-85900000D01*
X145710000Y-85900000D01*
X145710000Y-84875277D01*
X145786306Y-84919333D01*
X145900756Y-84950000D01*
X146019244Y-84950000D01*
X146133694Y-84919333D01*
X146210000Y-84875277D01*
X146210000Y-85900000D01*
X146907828Y-85900000D01*
X146907844Y-85899999D01*
X146967372Y-85893598D01*
X146967379Y-85893596D01*
X147102086Y-85843354D01*
X147102093Y-85843350D01*
X147217187Y-85757190D01*
X147217190Y-85757187D01*
X147303350Y-85642093D01*
X147303354Y-85642086D01*
X147333213Y-85562031D01*
X147375084Y-85506097D01*
X147440548Y-85481680D01*
X147508821Y-85496531D01*
X147537076Y-85517683D01*
X147587636Y-85568243D01*
X147587641Y-85568247D01*
X147740160Y-85679057D01*
X147765978Y-85697815D01*
X147882501Y-85757187D01*
X147962393Y-85797895D01*
X147962396Y-85797896D01*
X148067221Y-85831955D01*
X148172049Y-85866015D01*
X148389778Y-85900500D01*
X148389779Y-85900500D01*
X148610221Y-85900500D01*
X148610222Y-85900500D01*
X148827951Y-85866015D01*
X149037606Y-85797895D01*
X149234022Y-85697815D01*
X149412365Y-85568242D01*
X149568242Y-85412365D01*
X149697815Y-85234022D01*
X149797895Y-85037606D01*
X149866015Y-84827951D01*
X149900500Y-84610222D01*
X149900500Y-84389778D01*
X149866015Y-84172049D01*
X149831955Y-84067221D01*
X149797896Y-83962396D01*
X149797895Y-83962393D01*
X149763237Y-83894375D01*
X149697815Y-83765978D01*
X149630780Y-83673711D01*
X149568247Y-83587641D01*
X149568243Y-83587636D01*
X149412363Y-83431756D01*
X149412358Y-83431752D01*
X149234025Y-83302187D01*
X149234024Y-83302186D01*
X149234022Y-83302185D01*
X149171096Y-83270122D01*
X149037606Y-83202104D01*
X149037603Y-83202103D01*
X148827952Y-83133985D01*
X148719086Y-83116742D01*
X148610222Y-83099500D01*
X148389778Y-83099500D01*
X148317201Y-83110995D01*
X148172047Y-83133985D01*
X147962396Y-83202103D01*
X147962393Y-83202104D01*
X147765974Y-83302187D01*
X147587641Y-83431752D01*
X147587636Y-83431756D01*
X147537075Y-83482317D01*
X147475752Y-83515801D01*
X147406060Y-83510816D01*
X147350127Y-83468945D01*
X147333213Y-83437968D01*
X147303354Y-83357913D01*
X147303350Y-83357906D01*
X147217190Y-83242812D01*
X147217187Y-83242809D01*
X147102093Y-83156649D01*
X147102086Y-83156645D01*
X146967379Y-83106403D01*
X146967372Y-83106401D01*
X146907844Y-83100000D01*
X146210000Y-83100000D01*
X146210000Y-84124722D01*
X146133694Y-84080667D01*
X146019244Y-84050000D01*
X145900756Y-84050000D01*
X145786306Y-84080667D01*
X145710000Y-84124722D01*
X145710000Y-83100000D01*
X145012155Y-83100000D01*
X144952627Y-83106401D01*
X144952620Y-83106403D01*
X144817913Y-83156645D01*
X144817906Y-83156649D01*
X144702812Y-83242809D01*
X144702809Y-83242812D01*
X144616649Y-83357906D01*
X144616645Y-83357913D01*
X144566403Y-83492620D01*
X144566401Y-83492627D01*
X144560000Y-83552155D01*
X141471340Y-83552155D01*
X141427213Y-83508028D01*
X141261613Y-83387715D01*
X141261612Y-83387714D01*
X141261610Y-83387713D01*
X141203111Y-83357906D01*
X141079223Y-83294781D01*
X140884534Y-83231522D01*
X140698799Y-83202105D01*
X140682352Y-83199500D01*
X140477648Y-83199500D01*
X140461201Y-83202105D01*
X140275465Y-83231522D01*
X140080776Y-83294781D01*
X139898386Y-83387715D01*
X139732786Y-83508028D01*
X139588028Y-83652786D01*
X139467715Y-83818386D01*
X139374781Y-84000776D01*
X139311522Y-84195465D01*
X139279500Y-84397648D01*
X131720500Y-84397648D01*
X131688477Y-84195465D01*
X131659127Y-84105137D01*
X131625220Y-84000781D01*
X131625218Y-84000778D01*
X131625218Y-84000776D01*
X131584647Y-83921153D01*
X131532287Y-83818390D01*
X131522595Y-83805050D01*
X131411971Y-83652786D01*
X131267213Y-83508028D01*
X131101613Y-83387715D01*
X131101612Y-83387714D01*
X131101610Y-83387713D01*
X131043111Y-83357906D01*
X130919223Y-83294781D01*
X130724534Y-83231522D01*
X130538799Y-83202105D01*
X130522352Y-83199500D01*
X130317648Y-83199500D01*
X130263704Y-83208044D01*
X130115464Y-83231523D01*
X130115457Y-83231524D01*
X130082817Y-83242130D01*
X130012976Y-83244125D01*
X129953143Y-83208044D01*
X129922316Y-83145343D01*
X129920500Y-83124199D01*
X129920500Y-77900097D01*
X129929144Y-77870656D01*
X129935668Y-77840670D01*
X129939422Y-77835654D01*
X129940185Y-77833058D01*
X129956819Y-77812416D01*
X129975158Y-77794077D01*
X130036481Y-77760592D01*
X130101157Y-77763827D01*
X130115466Y-77768477D01*
X130317648Y-77800500D01*
X130317649Y-77800500D01*
X130522351Y-77800500D01*
X130522352Y-77800500D01*
X130724534Y-77768477D01*
X130919219Y-77705220D01*
X131101610Y-77612287D01*
X131227333Y-77520945D01*
X131267213Y-77491971D01*
X131267215Y-77491968D01*
X131267219Y-77491966D01*
X131411966Y-77347219D01*
X131411968Y-77347215D01*
X131411971Y-77347213D01*
X131480608Y-77252741D01*
X131532287Y-77181610D01*
X131625220Y-76999219D01*
X131688477Y-76804534D01*
X131720500Y-76602352D01*
X131720500Y-76397648D01*
X139279500Y-76397648D01*
X139279500Y-76602351D01*
X139311522Y-76804534D01*
X139374781Y-76999223D01*
X139436055Y-77119478D01*
X139439177Y-77125606D01*
X139467715Y-77181613D01*
X139588028Y-77347213D01*
X139732786Y-77491971D01*
X139887749Y-77604556D01*
X139898390Y-77612287D01*
X140014607Y-77671503D01*
X140080776Y-77705218D01*
X140080778Y-77705218D01*
X140080781Y-77705220D01*
X140185137Y-77739127D01*
X140275465Y-77768477D01*
X140376557Y-77784488D01*
X140477648Y-77800500D01*
X140477649Y-77800500D01*
X140682351Y-77800500D01*
X140682352Y-77800500D01*
X140884534Y-77768477D01*
X141079219Y-77705220D01*
X141261610Y-77612287D01*
X141387333Y-77520945D01*
X141427213Y-77491971D01*
X141427215Y-77491968D01*
X141427219Y-77491966D01*
X141571966Y-77347219D01*
X141571968Y-77347215D01*
X141571971Y-77347213D01*
X141640608Y-77252741D01*
X141692287Y-77181610D01*
X141785220Y-76999219D01*
X141848477Y-76804534D01*
X141852948Y-76776306D01*
X141868322Y-76679240D01*
X141880500Y-76602351D01*
X141880500Y-76397648D01*
X141848477Y-76195465D01*
X141819127Y-76105137D01*
X141785220Y-76000781D01*
X141785218Y-76000778D01*
X141785218Y-76000776D01*
X141751503Y-75934607D01*
X141692287Y-75818390D01*
X141684556Y-75807749D01*
X141571971Y-75652786D01*
X141471340Y-75552155D01*
X144560000Y-75552155D01*
X144560000Y-76250000D01*
X145584722Y-76250000D01*
X145540667Y-76326306D01*
X145510000Y-76440756D01*
X145510000Y-76559244D01*
X145540667Y-76673694D01*
X145584722Y-76750000D01*
X144560000Y-76750000D01*
X144560000Y-77447844D01*
X144566401Y-77507372D01*
X144566403Y-77507379D01*
X144616645Y-77642086D01*
X144616649Y-77642093D01*
X144702809Y-77757187D01*
X144702812Y-77757190D01*
X144817906Y-77843350D01*
X144817913Y-77843354D01*
X144952620Y-77893596D01*
X144952627Y-77893598D01*
X145012155Y-77899999D01*
X145012172Y-77900000D01*
X145710000Y-77900000D01*
X145710000Y-76875277D01*
X145786306Y-76919333D01*
X145900756Y-76950000D01*
X146019244Y-76950000D01*
X146133694Y-76919333D01*
X146210000Y-76875277D01*
X146210000Y-77900000D01*
X146907828Y-77900000D01*
X146907844Y-77899999D01*
X146967372Y-77893598D01*
X146967379Y-77893596D01*
X147102086Y-77843354D01*
X147102093Y-77843350D01*
X147217187Y-77757190D01*
X147217190Y-77757187D01*
X147303350Y-77642093D01*
X147303354Y-77642086D01*
X147333213Y-77562031D01*
X147375084Y-77506097D01*
X147440548Y-77481680D01*
X147508821Y-77496531D01*
X147537076Y-77517683D01*
X147587636Y-77568243D01*
X147587641Y-77568247D01*
X147740160Y-77679057D01*
X147765978Y-77697815D01*
X147866667Y-77749119D01*
X147962393Y-77797895D01*
X147962396Y-77797896D01*
X148067221Y-77831955D01*
X148172049Y-77866015D01*
X148389778Y-77900500D01*
X148389779Y-77900500D01*
X148610221Y-77900500D01*
X148610222Y-77900500D01*
X148827951Y-77866015D01*
X149037606Y-77797895D01*
X149234022Y-77697815D01*
X149412365Y-77568242D01*
X149568242Y-77412365D01*
X149697815Y-77234022D01*
X149797895Y-77037606D01*
X149866015Y-76827951D01*
X149900500Y-76610222D01*
X149900500Y-76389778D01*
X149866015Y-76172049D01*
X149831955Y-76067221D01*
X149797896Y-75962396D01*
X149797895Y-75962393D01*
X149763237Y-75894375D01*
X149697815Y-75765978D01*
X149610386Y-75645641D01*
X149568247Y-75587641D01*
X149568243Y-75587636D01*
X149412363Y-75431756D01*
X149412358Y-75431752D01*
X149234025Y-75302187D01*
X149234024Y-75302186D01*
X149234022Y-75302185D01*
X149171096Y-75270122D01*
X149037606Y-75202104D01*
X149037603Y-75202103D01*
X148827952Y-75133985D01*
X148719086Y-75116742D01*
X148610222Y-75099500D01*
X148389778Y-75099500D01*
X148317201Y-75110995D01*
X148172047Y-75133985D01*
X147962396Y-75202103D01*
X147962393Y-75202104D01*
X147765974Y-75302187D01*
X147587641Y-75431752D01*
X147587636Y-75431756D01*
X147537075Y-75482317D01*
X147475752Y-75515801D01*
X147406060Y-75510816D01*
X147350127Y-75468945D01*
X147333213Y-75437968D01*
X147303354Y-75357913D01*
X147303350Y-75357906D01*
X147217190Y-75242812D01*
X147217187Y-75242809D01*
X147102093Y-75156649D01*
X147102086Y-75156645D01*
X146967379Y-75106403D01*
X146967372Y-75106401D01*
X146907844Y-75100000D01*
X146210000Y-75100000D01*
X146210000Y-76124722D01*
X146133694Y-76080667D01*
X146019244Y-76050000D01*
X145900756Y-76050000D01*
X145786306Y-76080667D01*
X145710000Y-76124722D01*
X145710000Y-75100000D01*
X145012155Y-75100000D01*
X144952627Y-75106401D01*
X144952620Y-75106403D01*
X144817913Y-75156645D01*
X144817906Y-75156649D01*
X144702812Y-75242809D01*
X144702809Y-75242812D01*
X144616649Y-75357906D01*
X144616645Y-75357913D01*
X144566403Y-75492620D01*
X144566401Y-75492627D01*
X144560000Y-75552155D01*
X141471340Y-75552155D01*
X141427213Y-75508028D01*
X141261613Y-75387715D01*
X141261612Y-75387714D01*
X141261610Y-75387713D01*
X141203111Y-75357906D01*
X141079223Y-75294781D01*
X140884534Y-75231522D01*
X140698799Y-75202105D01*
X140682352Y-75199500D01*
X140477648Y-75199500D01*
X140461201Y-75202105D01*
X140275465Y-75231522D01*
X140080776Y-75294781D01*
X139898386Y-75387715D01*
X139732786Y-75508028D01*
X139588028Y-75652786D01*
X139467715Y-75818386D01*
X139374781Y-76000776D01*
X139311522Y-76195465D01*
X139279500Y-76397648D01*
X131720500Y-76397648D01*
X131688477Y-76195465D01*
X131659127Y-76105137D01*
X131625220Y-76000781D01*
X131625218Y-76000778D01*
X131625218Y-76000776D01*
X131591503Y-75934607D01*
X131532287Y-75818390D01*
X131524556Y-75807749D01*
X131411971Y-75652786D01*
X131267213Y-75508028D01*
X131101613Y-75387715D01*
X131101612Y-75387714D01*
X131101610Y-75387713D01*
X131043111Y-75357906D01*
X130919223Y-75294781D01*
X130724534Y-75231522D01*
X130538799Y-75202105D01*
X130522352Y-75199500D01*
X130317648Y-75199500D01*
X130301201Y-75202105D01*
X130115465Y-75231522D01*
X129920776Y-75294781D01*
X129738386Y-75387715D01*
X129572786Y-75508028D01*
X129428028Y-75652786D01*
X129307715Y-75818386D01*
X129214781Y-76000776D01*
X129151522Y-76195465D01*
X129119500Y-76397648D01*
X129119500Y-76602351D01*
X129151522Y-76804534D01*
X129156173Y-76818848D01*
X129156606Y-76834059D01*
X129161924Y-76848315D01*
X129157582Y-76868271D01*
X129158165Y-76888690D01*
X129150076Y-76902775D01*
X129147072Y-76916588D01*
X129125921Y-76944842D01*
X128951286Y-77119478D01*
X128839481Y-77231282D01*
X128839477Y-77231287D01*
X128796027Y-77306547D01*
X128760423Y-77368215D01*
X128719499Y-77520943D01*
X128719499Y-77520945D01*
X128719499Y-77689046D01*
X128719500Y-77689059D01*
X128719500Y-94240537D01*
X128699815Y-94307576D01*
X128683181Y-94328218D01*
X127246384Y-95765014D01*
X127185061Y-95798499D01*
X127115369Y-95793515D01*
X127059436Y-95751643D01*
X127040772Y-95715651D01*
X127019755Y-95650970D01*
X126926859Y-95468650D01*
X126894474Y-95424077D01*
X126894474Y-95424076D01*
X126215000Y-96103551D01*
X126215000Y-96097339D01*
X126187741Y-95995606D01*
X126135080Y-95904394D01*
X126060606Y-95829920D01*
X125969394Y-95777259D01*
X125867661Y-95750000D01*
X125861446Y-95750000D01*
X126540922Y-95070524D01*
X126540921Y-95070523D01*
X126496359Y-95038147D01*
X126496350Y-95038141D01*
X126403369Y-94990765D01*
X126352573Y-94942790D01*
X126335778Y-94874969D01*
X126358315Y-94808835D01*
X126403370Y-94769795D01*
X126419434Y-94761610D01*
X126496610Y-94722287D01*
X126546144Y-94686298D01*
X126662213Y-94601971D01*
X126662215Y-94601968D01*
X126662219Y-94601966D01*
X126806966Y-94457219D01*
X126806968Y-94457215D01*
X126806971Y-94457213D01*
X126859774Y-94384534D01*
X126927287Y-94291610D01*
X127020220Y-94109219D01*
X127083477Y-93914534D01*
X127115500Y-93712352D01*
X127115500Y-93507648D01*
X127083477Y-93305466D01*
X127060263Y-93234022D01*
X127020218Y-93110776D01*
X126968865Y-93009992D01*
X126927287Y-92928390D01*
X126888338Y-92874781D01*
X126806971Y-92762786D01*
X126662213Y-92618028D01*
X126496613Y-92497715D01*
X126496612Y-92497714D01*
X126496610Y-92497713D01*
X126384826Y-92440756D01*
X126314222Y-92404781D01*
X126249742Y-92383830D01*
X126192067Y-92344392D01*
X126164869Y-92280033D01*
X126176784Y-92211186D01*
X126200377Y-92178221D01*
X127273506Y-91105093D01*
X127273511Y-91105089D01*
X127283714Y-91094885D01*
X127283716Y-91094885D01*
X127395520Y-90983081D01*
X127474577Y-90846149D01*
X127515500Y-90693422D01*
X127515500Y-71805097D01*
X127535185Y-71738058D01*
X127551819Y-71717416D01*
X128736951Y-70532284D01*
X129975159Y-69294075D01*
X130036480Y-69260592D01*
X130101154Y-69263826D01*
X130115466Y-69268477D01*
X130317648Y-69300500D01*
X130317649Y-69300500D01*
X130522351Y-69300500D01*
X130522352Y-69300500D01*
X130724534Y-69268477D01*
X130919219Y-69205220D01*
X131101610Y-69112287D01*
X131194590Y-69044732D01*
X131267213Y-68991971D01*
X131267215Y-68991968D01*
X131267219Y-68991966D01*
X131411966Y-68847219D01*
X131411968Y-68847215D01*
X131411971Y-68847213D01*
X131491037Y-68738386D01*
X131532287Y-68681610D01*
X131625220Y-68499219D01*
X131688477Y-68304534D01*
X131720500Y-68102352D01*
X131720500Y-67897648D01*
X139279500Y-67897648D01*
X139279500Y-68102351D01*
X139311522Y-68304534D01*
X139374781Y-68499223D01*
X139467715Y-68681613D01*
X139588028Y-68847213D01*
X139732786Y-68991971D01*
X139887749Y-69104556D01*
X139898390Y-69112287D01*
X140014607Y-69171503D01*
X140080776Y-69205218D01*
X140080778Y-69205218D01*
X140080781Y-69205220D01*
X140185137Y-69239127D01*
X140275465Y-69268477D01*
X140376557Y-69284488D01*
X140477648Y-69300500D01*
X140477649Y-69300500D01*
X140682351Y-69300500D01*
X140682352Y-69300500D01*
X140884534Y-69268477D01*
X141079219Y-69205220D01*
X141261610Y-69112287D01*
X141354590Y-69044732D01*
X141427213Y-68991971D01*
X141427215Y-68991968D01*
X141427219Y-68991966D01*
X141571966Y-68847219D01*
X141571968Y-68847215D01*
X141571971Y-68847213D01*
X141651037Y-68738386D01*
X141692287Y-68681610D01*
X141785220Y-68499219D01*
X141848477Y-68304534D01*
X141852948Y-68276306D01*
X141868322Y-68179240D01*
X141880500Y-68102351D01*
X141880500Y-67897648D01*
X141848477Y-67695465D01*
X141819127Y-67605137D01*
X141785220Y-67500781D01*
X141785218Y-67500778D01*
X141785218Y-67500776D01*
X141751503Y-67434607D01*
X141692287Y-67318390D01*
X141654205Y-67265974D01*
X141571971Y-67152786D01*
X141471340Y-67052155D01*
X144560000Y-67052155D01*
X144560000Y-67750000D01*
X145584722Y-67750000D01*
X145540667Y-67826306D01*
X145510000Y-67940756D01*
X145510000Y-68059244D01*
X145540667Y-68173694D01*
X145584722Y-68250000D01*
X144560000Y-68250000D01*
X144560000Y-68947844D01*
X144566401Y-69007372D01*
X144566403Y-69007379D01*
X144616645Y-69142086D01*
X144616649Y-69142093D01*
X144702809Y-69257187D01*
X144702812Y-69257190D01*
X144817906Y-69343350D01*
X144817913Y-69343354D01*
X144952620Y-69393596D01*
X144952627Y-69393598D01*
X145012155Y-69399999D01*
X145012172Y-69400000D01*
X145710000Y-69400000D01*
X145710000Y-68375277D01*
X145786306Y-68419333D01*
X145900756Y-68450000D01*
X146019244Y-68450000D01*
X146133694Y-68419333D01*
X146210000Y-68375277D01*
X146210000Y-69400000D01*
X146907828Y-69400000D01*
X146907844Y-69399999D01*
X146967372Y-69393598D01*
X146967379Y-69393596D01*
X147102086Y-69343354D01*
X147102093Y-69343350D01*
X147217187Y-69257190D01*
X147217190Y-69257187D01*
X147303350Y-69142093D01*
X147303354Y-69142086D01*
X147333213Y-69062031D01*
X147375084Y-69006097D01*
X147440548Y-68981680D01*
X147508821Y-68996531D01*
X147537076Y-69017683D01*
X147587636Y-69068243D01*
X147587641Y-69068247D01*
X147743192Y-69181260D01*
X147765978Y-69197815D01*
X147882501Y-69257187D01*
X147962393Y-69297895D01*
X147962396Y-69297896D01*
X148023188Y-69317648D01*
X148172049Y-69366015D01*
X148389778Y-69400500D01*
X148389779Y-69400500D01*
X148610221Y-69400500D01*
X148610222Y-69400500D01*
X148827951Y-69366015D01*
X149037606Y-69297895D01*
X149234022Y-69197815D01*
X149412365Y-69068242D01*
X149568242Y-68912365D01*
X149697815Y-68734022D01*
X149797895Y-68537606D01*
X149866015Y-68327951D01*
X149900500Y-68110222D01*
X149900500Y-67889778D01*
X149866015Y-67672049D01*
X149831955Y-67567221D01*
X149797896Y-67462396D01*
X149797895Y-67462393D01*
X149763237Y-67394375D01*
X149697815Y-67265978D01*
X149615573Y-67152781D01*
X149568247Y-67087641D01*
X149568243Y-67087636D01*
X149412363Y-66931756D01*
X149412358Y-66931752D01*
X149234025Y-66802187D01*
X149234024Y-66802186D01*
X149234022Y-66802185D01*
X149171096Y-66770122D01*
X149037606Y-66702104D01*
X149037603Y-66702103D01*
X148827952Y-66633985D01*
X148719086Y-66616742D01*
X148610222Y-66599500D01*
X148389778Y-66599500D01*
X148317201Y-66610995D01*
X148172047Y-66633985D01*
X147962396Y-66702103D01*
X147962393Y-66702104D01*
X147765974Y-66802187D01*
X147587641Y-66931752D01*
X147587636Y-66931756D01*
X147537075Y-66982317D01*
X147475752Y-67015801D01*
X147406060Y-67010816D01*
X147350127Y-66968945D01*
X147333213Y-66937968D01*
X147303354Y-66857913D01*
X147303350Y-66857906D01*
X147217190Y-66742812D01*
X147217187Y-66742809D01*
X147102093Y-66656649D01*
X147102086Y-66656645D01*
X146967379Y-66606403D01*
X146967372Y-66606401D01*
X146907844Y-66600000D01*
X146210000Y-66600000D01*
X146210000Y-67624722D01*
X146133694Y-67580667D01*
X146019244Y-67550000D01*
X145900756Y-67550000D01*
X145786306Y-67580667D01*
X145710000Y-67624722D01*
X145710000Y-66600000D01*
X145012155Y-66600000D01*
X144952627Y-66606401D01*
X144952620Y-66606403D01*
X144817913Y-66656645D01*
X144817906Y-66656649D01*
X144702812Y-66742809D01*
X144702809Y-66742812D01*
X144616649Y-66857906D01*
X144616645Y-66857913D01*
X144566403Y-66992620D01*
X144566401Y-66992627D01*
X144560000Y-67052155D01*
X141471340Y-67052155D01*
X141427213Y-67008028D01*
X141261613Y-66887715D01*
X141261612Y-66887714D01*
X141261610Y-66887713D01*
X141203111Y-66857906D01*
X141079223Y-66794781D01*
X140884534Y-66731522D01*
X140698799Y-66702105D01*
X140682352Y-66699500D01*
X140477648Y-66699500D01*
X140461201Y-66702105D01*
X140275465Y-66731522D01*
X140080776Y-66794781D01*
X139898386Y-66887715D01*
X139732786Y-67008028D01*
X139588028Y-67152786D01*
X139467715Y-67318386D01*
X139374781Y-67500776D01*
X139311522Y-67695465D01*
X139279500Y-67897648D01*
X131720500Y-67897648D01*
X131688477Y-67695465D01*
X131659127Y-67605137D01*
X131625220Y-67500781D01*
X131625218Y-67500778D01*
X131625218Y-67500776D01*
X131591503Y-67434607D01*
X131532287Y-67318390D01*
X131494205Y-67265974D01*
X131411971Y-67152786D01*
X131267213Y-67008028D01*
X131101613Y-66887715D01*
X131101612Y-66887714D01*
X131101610Y-66887713D01*
X131043111Y-66857906D01*
X130919223Y-66794781D01*
X130724534Y-66731522D01*
X130538799Y-66702105D01*
X130522352Y-66699500D01*
X130317648Y-66699500D01*
X130301201Y-66702105D01*
X130115465Y-66731522D01*
X129920776Y-66794781D01*
X129738386Y-66887715D01*
X129572786Y-67008028D01*
X129428028Y-67152786D01*
X129307715Y-67318386D01*
X129214781Y-67500776D01*
X129151522Y-67695465D01*
X129119500Y-67897648D01*
X129119500Y-68102351D01*
X129151523Y-68304535D01*
X129156172Y-68318845D01*
X129158165Y-68388687D01*
X129125921Y-68444841D01*
X126549731Y-71021032D01*
X126549725Y-71021038D01*
X126546286Y-71024478D01*
X126546284Y-71024480D01*
X126434480Y-71136284D01*
X126405170Y-71187051D01*
X126355423Y-71273215D01*
X126314499Y-71425943D01*
X126314499Y-71425945D01*
X126314499Y-71594046D01*
X126314500Y-71594059D01*
X126314500Y-75633073D01*
X126294815Y-75700112D01*
X126242011Y-75745867D01*
X126172853Y-75755811D01*
X126134206Y-75743558D01*
X125999226Y-75674782D01*
X125804534Y-75611522D01*
X125629995Y-75583878D01*
X125602352Y-75579500D01*
X125397648Y-75579500D01*
X125346280Y-75587636D01*
X125195464Y-75611523D01*
X125195457Y-75611524D01*
X125162817Y-75622130D01*
X125092976Y-75624125D01*
X125033143Y-75588044D01*
X125002316Y-75525343D01*
X125000500Y-75504199D01*
X125000500Y-66320097D01*
X125020185Y-66253058D01*
X125036819Y-66232416D01*
X127464818Y-63804417D01*
X129975159Y-61294075D01*
X130036480Y-61260592D01*
X130101154Y-61263826D01*
X130115466Y-61268477D01*
X130317648Y-61300500D01*
X130317649Y-61300500D01*
X130522351Y-61300500D01*
X130522352Y-61300500D01*
X130724534Y-61268477D01*
X130919219Y-61205220D01*
X131101610Y-61112287D01*
X131194590Y-61044732D01*
X131267213Y-60991971D01*
X131267215Y-60991968D01*
X131267219Y-60991966D01*
X131411966Y-60847219D01*
X131411968Y-60847215D01*
X131411971Y-60847213D01*
X131464732Y-60774590D01*
X131532287Y-60681610D01*
X131625220Y-60499219D01*
X131688477Y-60304534D01*
X131720500Y-60102352D01*
X131720500Y-59897648D01*
X139279500Y-59897648D01*
X139279500Y-60102351D01*
X139311522Y-60304534D01*
X139374781Y-60499223D01*
X139467715Y-60681613D01*
X139588028Y-60847213D01*
X139732786Y-60991971D01*
X139887749Y-61104556D01*
X139898390Y-61112287D01*
X140014607Y-61171503D01*
X140080776Y-61205218D01*
X140080778Y-61205218D01*
X140080781Y-61205220D01*
X140185137Y-61239127D01*
X140275465Y-61268477D01*
X140376557Y-61284488D01*
X140477648Y-61300500D01*
X140477649Y-61300500D01*
X140682351Y-61300500D01*
X140682352Y-61300500D01*
X140884534Y-61268477D01*
X141079219Y-61205220D01*
X141261610Y-61112287D01*
X141354590Y-61044732D01*
X141427213Y-60991971D01*
X141427215Y-60991968D01*
X141427219Y-60991966D01*
X141571966Y-60847219D01*
X141571968Y-60847215D01*
X141571971Y-60847213D01*
X141624732Y-60774590D01*
X141692287Y-60681610D01*
X141785220Y-60499219D01*
X141848477Y-60304534D01*
X141852948Y-60276306D01*
X141868322Y-60179240D01*
X141880500Y-60102351D01*
X141880500Y-59897648D01*
X141848477Y-59695465D01*
X141819127Y-59605137D01*
X141785220Y-59500781D01*
X141785218Y-59500778D01*
X141785218Y-59500776D01*
X141751503Y-59434607D01*
X141692287Y-59318390D01*
X141654205Y-59265974D01*
X141571971Y-59152786D01*
X141471340Y-59052155D01*
X144560000Y-59052155D01*
X144560000Y-59750000D01*
X145584722Y-59750000D01*
X145540667Y-59826306D01*
X145510000Y-59940756D01*
X145510000Y-60059244D01*
X145540667Y-60173694D01*
X145584722Y-60250000D01*
X144560000Y-60250000D01*
X144560000Y-60947844D01*
X144566401Y-61007372D01*
X144566403Y-61007379D01*
X144616645Y-61142086D01*
X144616649Y-61142093D01*
X144702809Y-61257187D01*
X144702812Y-61257190D01*
X144817906Y-61343350D01*
X144817913Y-61343354D01*
X144952620Y-61393596D01*
X144952627Y-61393598D01*
X145012155Y-61399999D01*
X145012172Y-61400000D01*
X145710000Y-61400000D01*
X145710000Y-60375277D01*
X145786306Y-60419333D01*
X145900756Y-60450000D01*
X146019244Y-60450000D01*
X146133694Y-60419333D01*
X146210000Y-60375277D01*
X146210000Y-61400000D01*
X146907828Y-61400000D01*
X146907844Y-61399999D01*
X146967372Y-61393598D01*
X146967379Y-61393596D01*
X147102086Y-61343354D01*
X147102093Y-61343350D01*
X147217187Y-61257190D01*
X147217190Y-61257187D01*
X147303350Y-61142093D01*
X147303354Y-61142086D01*
X147333213Y-61062031D01*
X147375084Y-61006097D01*
X147440548Y-60981680D01*
X147508821Y-60996531D01*
X147537076Y-61017683D01*
X147587636Y-61068243D01*
X147587641Y-61068247D01*
X147743192Y-61181260D01*
X147765978Y-61197815D01*
X147882501Y-61257187D01*
X147962393Y-61297895D01*
X147962396Y-61297896D01*
X148067221Y-61331955D01*
X148172049Y-61366015D01*
X148389778Y-61400500D01*
X148389779Y-61400500D01*
X148610221Y-61400500D01*
X148610222Y-61400500D01*
X148827951Y-61366015D01*
X149037606Y-61297895D01*
X149234022Y-61197815D01*
X149412365Y-61068242D01*
X149568242Y-60912365D01*
X149697815Y-60734022D01*
X149797895Y-60537606D01*
X149866015Y-60327951D01*
X149900500Y-60110222D01*
X149900500Y-59889778D01*
X149866015Y-59672049D01*
X149831955Y-59567221D01*
X149797896Y-59462396D01*
X149797895Y-59462393D01*
X149763237Y-59394375D01*
X149697815Y-59265978D01*
X149615573Y-59152781D01*
X149568247Y-59087641D01*
X149568243Y-59087636D01*
X149412363Y-58931756D01*
X149412358Y-58931752D01*
X149234025Y-58802187D01*
X149234024Y-58802186D01*
X149234022Y-58802185D01*
X149171096Y-58770122D01*
X149037606Y-58702104D01*
X149037603Y-58702103D01*
X148827952Y-58633985D01*
X148719086Y-58616742D01*
X148610222Y-58599500D01*
X148389778Y-58599500D01*
X148317201Y-58610995D01*
X148172047Y-58633985D01*
X147962396Y-58702103D01*
X147962393Y-58702104D01*
X147765974Y-58802187D01*
X147587641Y-58931752D01*
X147587636Y-58931756D01*
X147537075Y-58982317D01*
X147475752Y-59015801D01*
X147406060Y-59010816D01*
X147350127Y-58968945D01*
X147333213Y-58937968D01*
X147303354Y-58857913D01*
X147303350Y-58857906D01*
X147217190Y-58742812D01*
X147217187Y-58742809D01*
X147102093Y-58656649D01*
X147102086Y-58656645D01*
X146967379Y-58606403D01*
X146967372Y-58606401D01*
X146907844Y-58600000D01*
X146210000Y-58600000D01*
X146210000Y-59624722D01*
X146133694Y-59580667D01*
X146019244Y-59550000D01*
X145900756Y-59550000D01*
X145786306Y-59580667D01*
X145710000Y-59624722D01*
X145710000Y-58600000D01*
X145012155Y-58600000D01*
X144952627Y-58606401D01*
X144952620Y-58606403D01*
X144817913Y-58656645D01*
X144817906Y-58656649D01*
X144702812Y-58742809D01*
X144702809Y-58742812D01*
X144616649Y-58857906D01*
X144616645Y-58857913D01*
X144566403Y-58992620D01*
X144566401Y-58992627D01*
X144560000Y-59052155D01*
X141471340Y-59052155D01*
X141427213Y-59008028D01*
X141261613Y-58887715D01*
X141261612Y-58887714D01*
X141261610Y-58887713D01*
X141203111Y-58857906D01*
X141079223Y-58794781D01*
X140884534Y-58731522D01*
X140698799Y-58702105D01*
X140682352Y-58699500D01*
X140477648Y-58699500D01*
X140461201Y-58702105D01*
X140275465Y-58731522D01*
X140080776Y-58794781D01*
X139898386Y-58887715D01*
X139732786Y-59008028D01*
X139588028Y-59152786D01*
X139467715Y-59318386D01*
X139374781Y-59500776D01*
X139311522Y-59695465D01*
X139279500Y-59897648D01*
X131720500Y-59897648D01*
X131688477Y-59695465D01*
X131659127Y-59605137D01*
X131625220Y-59500781D01*
X131625218Y-59500778D01*
X131625218Y-59500776D01*
X131591503Y-59434607D01*
X131532287Y-59318390D01*
X131494205Y-59265974D01*
X131411971Y-59152786D01*
X131267213Y-59008028D01*
X131101613Y-58887715D01*
X131101612Y-58887714D01*
X131101610Y-58887713D01*
X131043111Y-58857906D01*
X130919223Y-58794781D01*
X130724534Y-58731522D01*
X130538799Y-58702105D01*
X130522352Y-58699500D01*
X130317648Y-58699500D01*
X130301201Y-58702105D01*
X130115465Y-58731522D01*
X129920776Y-58794781D01*
X129738386Y-58887715D01*
X129572786Y-59008028D01*
X129428028Y-59152786D01*
X129307715Y-59318386D01*
X129214781Y-59500776D01*
X129151522Y-59695465D01*
X129119500Y-59897648D01*
X129119500Y-60102351D01*
X129151523Y-60304535D01*
X129156172Y-60318845D01*
X129158165Y-60388687D01*
X129125921Y-60444841D01*
X124031286Y-65539478D01*
X123919481Y-65651282D01*
X123919479Y-65651285D01*
X123869361Y-65738094D01*
X123869359Y-65738096D01*
X123840425Y-65788209D01*
X123840424Y-65788210D01*
X123840423Y-65788215D01*
X123799499Y-65940943D01*
X123799499Y-65940945D01*
X123799499Y-66109046D01*
X123799500Y-66109059D01*
X123799500Y-92184902D01*
X123779815Y-92251941D01*
X123763181Y-92272583D01*
X119707181Y-96328583D01*
X119645858Y-96362068D01*
X119576166Y-96357084D01*
X119520233Y-96315212D01*
X119495816Y-96249748D01*
X119495500Y-96240902D01*
X119495500Y-96047648D01*
X119463477Y-95845465D01*
X119426577Y-95731900D01*
X119400220Y-95650781D01*
X119400218Y-95650778D01*
X119400218Y-95650776D01*
X119317818Y-95489059D01*
X119307287Y-95468390D01*
X119275092Y-95424077D01*
X119186971Y-95302786D01*
X119042219Y-95158034D01*
X118948547Y-95089978D01*
X118905882Y-95034649D01*
X118899903Y-94965036D01*
X118932508Y-94903240D01*
X118982426Y-94871955D01*
X119064334Y-94844814D01*
X119213656Y-94752712D01*
X119337712Y-94628656D01*
X119429814Y-94479334D01*
X119484999Y-94312797D01*
X119495500Y-94210009D01*
X119495499Y-93009992D01*
X119484999Y-92907203D01*
X119429814Y-92740666D01*
X119337712Y-92591344D01*
X119213656Y-92467288D01*
X119087992Y-92389778D01*
X119064336Y-92375187D01*
X119064331Y-92375185D01*
X119062862Y-92374698D01*
X118897797Y-92320001D01*
X118897795Y-92320000D01*
X118795016Y-92309500D01*
X118795009Y-92309500D01*
X118339096Y-92309500D01*
X118272057Y-92289815D01*
X118226302Y-92237011D01*
X118216358Y-92167853D01*
X118245383Y-92104297D01*
X118251415Y-92097819D01*
X119655814Y-90693420D01*
X121514662Y-88834572D01*
X121575983Y-88801089D01*
X121578150Y-88800638D01*
X121636085Y-88789113D01*
X121733497Y-88769737D01*
X121879179Y-88709394D01*
X122010289Y-88621789D01*
X122121789Y-88510289D01*
X122209394Y-88379179D01*
X122269737Y-88233497D01*
X122300500Y-88078842D01*
X122300500Y-87921158D01*
X122300500Y-87921155D01*
X122300499Y-87921153D01*
X122269738Y-87766510D01*
X122269738Y-87766508D01*
X122269737Y-87766503D01*
X122269735Y-87766498D01*
X122209397Y-87620827D01*
X122209390Y-87620814D01*
X122121789Y-87489711D01*
X122121786Y-87489707D01*
X122010292Y-87378213D01*
X122010288Y-87378210D01*
X121879185Y-87290609D01*
X121879172Y-87290602D01*
X121733501Y-87230264D01*
X121733489Y-87230261D01*
X121578845Y-87199500D01*
X121578842Y-87199500D01*
X121421158Y-87199500D01*
X121421155Y-87199500D01*
X121266510Y-87230261D01*
X121266498Y-87230264D01*
X121120827Y-87290602D01*
X121120814Y-87290609D01*
X120989711Y-87378210D01*
X120989707Y-87378213D01*
X120878213Y-87489707D01*
X120878210Y-87489711D01*
X120790609Y-87620814D01*
X120790602Y-87620827D01*
X120730264Y-87766498D01*
X120730261Y-87766508D01*
X120699361Y-87921850D01*
X120666976Y-87983761D01*
X120665425Y-87985339D01*
X113619481Y-95031282D01*
X113619477Y-95031287D01*
X113579685Y-95100211D01*
X113579685Y-95100212D01*
X113540423Y-95168214D01*
X113533973Y-95192287D01*
X113499499Y-95320943D01*
X113499499Y-95320945D01*
X113499499Y-95489046D01*
X113499500Y-95489059D01*
X113499500Y-99124724D01*
X113479815Y-99191763D01*
X113427011Y-99237518D01*
X113357853Y-99247462D01*
X113337183Y-99242655D01*
X113304425Y-99232011D01*
X113304418Y-99232010D01*
X113102317Y-99200000D01*
X112897683Y-99200000D01*
X112695582Y-99232009D01*
X112500968Y-99295244D01*
X112318651Y-99388139D01*
X112248444Y-99439148D01*
X112182637Y-99462627D01*
X112114583Y-99446801D01*
X112087878Y-99426510D01*
X112018657Y-99357289D01*
X112018656Y-99357288D01*
X111869334Y-99265186D01*
X111769213Y-99232009D01*
X111702795Y-99210000D01*
X111698533Y-99209088D01*
X111637102Y-99175801D01*
X111603419Y-99114586D01*
X111600500Y-99087837D01*
X111600500Y-95486698D01*
X111620185Y-95419659D01*
X111672989Y-95373904D01*
X111705098Y-95364226D01*
X111804534Y-95348477D01*
X111999219Y-95285220D01*
X112181610Y-95192287D01*
X112305812Y-95102050D01*
X112347213Y-95071971D01*
X112347215Y-95071968D01*
X112347219Y-95071966D01*
X112491966Y-94927219D01*
X112491968Y-94927215D01*
X112491971Y-94927213D01*
X112563984Y-94828094D01*
X112612287Y-94761610D01*
X112705220Y-94579219D01*
X112768477Y-94384534D01*
X112800500Y-94182352D01*
X112800500Y-93977648D01*
X112772030Y-93797896D01*
X112768478Y-93775472D01*
X112768477Y-93775471D01*
X112768477Y-93775466D01*
X112763825Y-93761151D01*
X112761832Y-93691312D01*
X112794075Y-93635158D01*
X121358506Y-85070728D01*
X121358511Y-85070724D01*
X121368714Y-85060520D01*
X121368716Y-85060520D01*
X121480520Y-84948716D01*
X121554545Y-84820500D01*
X121559577Y-84811785D01*
X121600501Y-84659057D01*
X121600501Y-84500943D01*
X121600501Y-84493348D01*
X121600500Y-84493330D01*
X121600500Y-83079765D01*
X121620185Y-83012726D01*
X121621398Y-83010874D01*
X121709390Y-82879185D01*
X121709390Y-82879184D01*
X121709394Y-82879179D01*
X121769737Y-82733497D01*
X121800500Y-82578842D01*
X121800500Y-82421158D01*
X121800500Y-82421155D01*
X121800499Y-82421153D01*
X121769738Y-82266510D01*
X121769737Y-82266503D01*
X121768921Y-82264534D01*
X121709397Y-82120827D01*
X121709390Y-82120814D01*
X121621789Y-81989711D01*
X121621786Y-81989707D01*
X121510292Y-81878213D01*
X121510288Y-81878210D01*
X121379185Y-81790609D01*
X121379172Y-81790602D01*
X121233501Y-81730264D01*
X121233489Y-81730261D01*
X121078845Y-81699500D01*
X121078842Y-81699500D01*
X121060098Y-81699500D01*
X120993059Y-81679815D01*
X120972417Y-81663181D01*
X120094454Y-80785218D01*
X119174076Y-79864841D01*
X119140592Y-79803519D01*
X119143828Y-79738841D01*
X119148477Y-79724534D01*
X119180500Y-79522352D01*
X119180500Y-79317648D01*
X119148477Y-79115466D01*
X119085220Y-78920781D01*
X119085218Y-78920778D01*
X119085218Y-78920776D01*
X119051503Y-78854607D01*
X118992287Y-78738390D01*
X118984556Y-78727749D01*
X118871971Y-78572786D01*
X118727217Y-78428032D01*
X118727212Y-78428028D01*
X118633051Y-78359616D01*
X118590385Y-78304286D01*
X118584406Y-78234673D01*
X118617012Y-78172878D01*
X118666933Y-78141592D01*
X118749117Y-78114359D01*
X118749124Y-78114356D01*
X118898345Y-78022315D01*
X119022315Y-77898345D01*
X119114356Y-77749124D01*
X119114358Y-77749119D01*
X119169505Y-77582697D01*
X119169506Y-77582690D01*
X119179999Y-77479986D01*
X119180000Y-77479973D01*
X119180000Y-77130000D01*
X118195686Y-77130000D01*
X118200080Y-77125606D01*
X118252741Y-77034394D01*
X118280000Y-76932661D01*
X118280000Y-76827339D01*
X118252741Y-76725606D01*
X118200080Y-76634394D01*
X118195686Y-76630000D01*
X119179999Y-76630000D01*
X119179999Y-76280028D01*
X119179998Y-76280013D01*
X119169505Y-76177302D01*
X119114358Y-76010880D01*
X119114356Y-76010875D01*
X119022315Y-75861654D01*
X118898345Y-75737684D01*
X118749124Y-75645643D01*
X118749119Y-75645641D01*
X118582697Y-75590494D01*
X118582690Y-75590493D01*
X118479986Y-75580000D01*
X118130000Y-75580000D01*
X118130000Y-76564314D01*
X118125606Y-76559920D01*
X118034394Y-76507259D01*
X117932661Y-76480000D01*
X117827339Y-76480000D01*
X117725606Y-76507259D01*
X117634394Y-76559920D01*
X117630000Y-76564314D01*
X117630000Y-75580000D01*
X117280028Y-75580000D01*
X117280012Y-75580001D01*
X117177302Y-75590494D01*
X117010880Y-75645641D01*
X117010875Y-75645643D01*
X116861654Y-75737684D01*
X116737684Y-75861654D01*
X116645643Y-76010875D01*
X116645641Y-76010880D01*
X116590494Y-76177302D01*
X116590493Y-76177309D01*
X116580000Y-76280013D01*
X116580000Y-76630000D01*
X117564314Y-76630000D01*
X117559920Y-76634394D01*
X117507259Y-76725606D01*
X117480000Y-76827339D01*
X117480000Y-76932661D01*
X117507259Y-77034394D01*
X117559920Y-77125606D01*
X117564314Y-77130000D01*
X116580001Y-77130000D01*
X116580001Y-77479986D01*
X116590494Y-77582697D01*
X116645641Y-77749119D01*
X116645643Y-77749124D01*
X116737684Y-77898345D01*
X116861654Y-78022315D01*
X117010875Y-78114356D01*
X117010882Y-78114359D01*
X117093067Y-78141592D01*
X117150512Y-78181364D01*
X117177336Y-78245880D01*
X117165021Y-78314656D01*
X117126949Y-78359616D01*
X117032787Y-78428028D01*
X117032782Y-78428032D01*
X116888028Y-78572786D01*
X116767715Y-78738386D01*
X116674781Y-78920776D01*
X116611522Y-79115465D01*
X116579500Y-79317648D01*
X116579500Y-79522351D01*
X116611522Y-79724534D01*
X116674781Y-79919223D01*
X116738691Y-80044653D01*
X116756306Y-80079223D01*
X116767715Y-80101613D01*
X116888028Y-80267213D01*
X117032786Y-80411971D01*
X117187749Y-80524556D01*
X117198390Y-80532287D01*
X117276274Y-80571971D01*
X117291080Y-80579515D01*
X117341876Y-80627490D01*
X117358671Y-80695311D01*
X117336134Y-80761446D01*
X117291080Y-80800485D01*
X117198386Y-80847715D01*
X117032786Y-80968028D01*
X116888028Y-81112786D01*
X116767715Y-81278386D01*
X116674781Y-81460776D01*
X116611522Y-81655465D01*
X116579500Y-81857648D01*
X116579500Y-82062351D01*
X116611522Y-82264534D01*
X116674781Y-82459223D01*
X116728471Y-82564594D01*
X116756447Y-82619500D01*
X116767715Y-82641613D01*
X116888028Y-82807213D01*
X117032786Y-82951971D01*
X117142358Y-83031578D01*
X117198390Y-83072287D01*
X117289840Y-83118883D01*
X117291080Y-83119515D01*
X117341876Y-83167490D01*
X117358671Y-83235311D01*
X117336134Y-83301446D01*
X117291080Y-83340485D01*
X117198386Y-83387715D01*
X117032788Y-83508027D01*
X116900588Y-83640227D01*
X116839265Y-83673711D01*
X116769573Y-83668727D01*
X116713640Y-83626855D01*
X116709805Y-83621436D01*
X116621789Y-83489710D01*
X116510292Y-83378213D01*
X116510288Y-83378210D01*
X116379185Y-83290609D01*
X116379172Y-83290602D01*
X116233501Y-83230264D01*
X116233489Y-83230261D01*
X116078845Y-83199500D01*
X116078842Y-83199500D01*
X115921158Y-83199500D01*
X115921155Y-83199500D01*
X115766510Y-83230261D01*
X115766498Y-83230264D01*
X115620827Y-83290602D01*
X115620814Y-83290609D01*
X115489711Y-83378210D01*
X115489707Y-83378213D01*
X115378213Y-83489707D01*
X115378210Y-83489711D01*
X115290609Y-83620814D01*
X115290602Y-83620827D01*
X115230264Y-83766498D01*
X115230261Y-83766510D01*
X115199500Y-83921153D01*
X115199500Y-84078846D01*
X115230261Y-84233489D01*
X115230264Y-84233501D01*
X115290602Y-84379172D01*
X115290609Y-84379185D01*
X115378602Y-84510874D01*
X115399480Y-84577551D01*
X115399500Y-84579765D01*
X115399500Y-87920234D01*
X115379815Y-87987273D01*
X115378602Y-87989125D01*
X115290609Y-88120814D01*
X115290602Y-88120827D01*
X115230264Y-88266498D01*
X115230261Y-88266510D01*
X115199500Y-88421153D01*
X115199500Y-88578846D01*
X115230261Y-88733489D01*
X115230264Y-88733501D01*
X115290602Y-88879172D01*
X115290609Y-88879185D01*
X115378210Y-89010288D01*
X115378213Y-89010292D01*
X115461661Y-89093740D01*
X115495146Y-89155063D01*
X115490162Y-89224755D01*
X115461661Y-89269102D01*
X111944842Y-92785921D01*
X111883519Y-92819406D01*
X111818848Y-92816173D01*
X111804534Y-92811522D01*
X111629995Y-92783878D01*
X111602352Y-92779500D01*
X111397648Y-92779500D01*
X111373329Y-92783351D01*
X111195465Y-92811522D01*
X111000776Y-92874781D01*
X110818386Y-92967715D01*
X110652786Y-93088028D01*
X110508028Y-93232786D01*
X110387715Y-93398386D01*
X110294781Y-93580776D01*
X110231522Y-93775465D01*
X110199500Y-93977648D01*
X110199500Y-94182351D01*
X110231522Y-94384534D01*
X110294781Y-94579223D01*
X110320388Y-94629478D01*
X110383179Y-94752712D01*
X110385985Y-94758218D01*
X110399500Y-94814513D01*
X110399500Y-99087837D01*
X110379815Y-99154876D01*
X110327011Y-99200631D01*
X110301459Y-99209089D01*
X110297207Y-99209999D01*
X110130668Y-99265185D01*
X110130663Y-99265187D01*
X109981342Y-99357289D01*
X109857289Y-99481342D01*
X109765187Y-99630663D01*
X109765185Y-99630668D01*
X109757858Y-99652781D01*
X109710001Y-99797203D01*
X109710001Y-99797204D01*
X109710000Y-99797204D01*
X109699500Y-99899983D01*
X109699500Y-101100001D01*
X109699501Y-101100018D01*
X109710000Y-101202796D01*
X109710001Y-101202799D01*
X109736465Y-101282661D01*
X109765186Y-101369334D01*
X109857288Y-101518656D01*
X109981344Y-101642712D01*
X110130666Y-101734814D01*
X110297203Y-101789999D01*
X110399991Y-101800500D01*
X111600008Y-101800499D01*
X111702797Y-101789999D01*
X111869334Y-101734814D01*
X112018656Y-101642712D01*
X112087879Y-101573489D01*
X112149202Y-101540004D01*
X112218894Y-101544988D01*
X112248446Y-101560853D01*
X112318646Y-101611857D01*
X112500968Y-101704755D01*
X112695582Y-101767990D01*
X112897683Y-101800000D01*
X113102317Y-101800000D01*
X113304418Y-101767989D01*
X113304424Y-101767988D01*
X113337180Y-101757345D01*
X113365300Y-101756540D01*
X113393147Y-101752537D01*
X113399757Y-101755555D01*
X113407021Y-101755348D01*
X113431112Y-101769875D01*
X113456703Y-101781562D01*
X113460631Y-101787675D01*
X113466855Y-101791428D01*
X113479269Y-101816676D01*
X113494477Y-101840340D01*
X113495953Y-101850608D01*
X113497684Y-101854128D01*
X113499500Y-101875275D01*
X113499500Y-102099902D01*
X113479815Y-102166941D01*
X113463181Y-102187583D01*
X110944842Y-104705921D01*
X110883519Y-104739406D01*
X110818848Y-104736173D01*
X110804534Y-104731522D01*
X110629995Y-104703878D01*
X110602352Y-104699500D01*
X110397648Y-104699500D01*
X110373329Y-104703351D01*
X110195465Y-104731522D01*
X110000776Y-104794781D01*
X109818386Y-104887715D01*
X109652786Y-105008028D01*
X109508028Y-105152786D01*
X109387715Y-105318386D01*
X109294781Y-105500776D01*
X109231522Y-105695465D01*
X109199500Y-105897648D01*
X101000500Y-105897648D01*
X101000500Y-83817648D01*
X110199500Y-83817648D01*
X110199500Y-84022351D01*
X110231522Y-84224534D01*
X110294781Y-84419223D01*
X110352030Y-84531578D01*
X110376582Y-84579765D01*
X110387715Y-84601613D01*
X110508028Y-84767213D01*
X110652786Y-84911971D01*
X110772875Y-84999219D01*
X110818390Y-85032287D01*
X110934607Y-85091503D01*
X111000776Y-85125218D01*
X111000778Y-85125218D01*
X111000781Y-85125220D01*
X111105137Y-85159127D01*
X111195465Y-85188477D01*
X111296557Y-85204488D01*
X111397648Y-85220500D01*
X111397649Y-85220500D01*
X111602351Y-85220500D01*
X111602352Y-85220500D01*
X111804534Y-85188477D01*
X111999219Y-85125220D01*
X112181610Y-85032287D01*
X112274590Y-84964732D01*
X112347213Y-84911971D01*
X112347215Y-84911968D01*
X112347219Y-84911966D01*
X112491966Y-84767219D01*
X112491968Y-84767215D01*
X112491971Y-84767213D01*
X112559915Y-84673694D01*
X112612287Y-84601610D01*
X112705220Y-84419219D01*
X112768477Y-84224534D01*
X112800500Y-84022352D01*
X112800500Y-83817648D01*
X112768477Y-83615466D01*
X112759434Y-83587636D01*
X112710804Y-83437968D01*
X112705220Y-83420781D01*
X112705218Y-83420778D01*
X112705218Y-83420776D01*
X112644792Y-83302185D01*
X112612287Y-83238390D01*
X112560776Y-83167490D01*
X112491971Y-83072786D01*
X112347213Y-82928028D01*
X112181613Y-82807715D01*
X112181612Y-82807714D01*
X112181610Y-82807713D01*
X112124653Y-82778691D01*
X111999223Y-82714781D01*
X111804534Y-82651522D01*
X111629995Y-82623878D01*
X111602352Y-82619500D01*
X111397648Y-82619500D01*
X111373329Y-82623351D01*
X111195465Y-82651522D01*
X111000776Y-82714781D01*
X110818386Y-82807715D01*
X110652786Y-82928028D01*
X110508028Y-83072786D01*
X110387715Y-83238386D01*
X110294781Y-83420776D01*
X110231522Y-83615465D01*
X110199500Y-83817648D01*
X101000500Y-83817648D01*
X101000500Y-79477648D01*
X110199500Y-79477648D01*
X110199500Y-79682351D01*
X110231522Y-79884534D01*
X110294781Y-80079223D01*
X110387715Y-80261613D01*
X110508028Y-80427213D01*
X110652786Y-80571971D01*
X110807749Y-80684556D01*
X110818390Y-80692287D01*
X110928121Y-80748198D01*
X111000776Y-80785218D01*
X111000778Y-80785218D01*
X111000781Y-80785220D01*
X111047762Y-80800485D01*
X111195465Y-80848477D01*
X111296557Y-80864488D01*
X111397648Y-80880500D01*
X111397649Y-80880500D01*
X111602351Y-80880500D01*
X111602352Y-80880500D01*
X111804534Y-80848477D01*
X111999219Y-80785220D01*
X112181610Y-80692287D01*
X112336829Y-80579515D01*
X112347213Y-80571971D01*
X112347215Y-80571968D01*
X112347219Y-80571966D01*
X112491966Y-80427219D01*
X112491968Y-80427215D01*
X112491971Y-80427213D01*
X112544732Y-80354590D01*
X112612287Y-80261610D01*
X112705220Y-80079219D01*
X112768477Y-79884534D01*
X112800500Y-79682352D01*
X112800500Y-79477648D01*
X112768477Y-79275466D01*
X112705220Y-79080781D01*
X112705218Y-79080778D01*
X112705218Y-79080776D01*
X112671503Y-79014607D01*
X112612287Y-78898390D01*
X112604556Y-78887749D01*
X112491971Y-78732786D01*
X112347213Y-78588028D01*
X112181613Y-78467715D01*
X112181612Y-78467714D01*
X112181610Y-78467713D01*
X112103724Y-78428028D01*
X111999223Y-78374781D01*
X111804534Y-78311522D01*
X111629995Y-78283878D01*
X111602352Y-78279500D01*
X111397648Y-78279500D01*
X111373329Y-78283351D01*
X111195465Y-78311522D01*
X111000776Y-78374781D01*
X110818386Y-78467715D01*
X110652786Y-78588028D01*
X110508028Y-78732786D01*
X110387715Y-78898386D01*
X110294781Y-79080776D01*
X110231522Y-79275465D01*
X110199500Y-79477648D01*
X101000500Y-79477648D01*
X101000500Y-69327135D01*
X104149500Y-69327135D01*
X104149500Y-71122870D01*
X104149501Y-71122876D01*
X104155908Y-71182483D01*
X104206202Y-71317328D01*
X104206206Y-71317335D01*
X104292452Y-71432544D01*
X104292455Y-71432547D01*
X104407664Y-71518793D01*
X104407671Y-71518797D01*
X104452618Y-71535561D01*
X104542517Y-71569091D01*
X104602127Y-71575500D01*
X104612685Y-71575499D01*
X104679723Y-71595179D01*
X104700372Y-71611818D01*
X105370591Y-72282037D01*
X105307007Y-72299075D01*
X105192993Y-72364901D01*
X105099901Y-72457993D01*
X105034075Y-72572007D01*
X105017037Y-72635591D01*
X104384728Y-72003282D01*
X104384727Y-72003282D01*
X104345380Y-72057439D01*
X104248904Y-72246782D01*
X104183242Y-72448869D01*
X104183242Y-72448872D01*
X104150000Y-72658753D01*
X104150000Y-72871246D01*
X104183242Y-73081127D01*
X104183242Y-73081130D01*
X104248904Y-73283217D01*
X104345375Y-73472550D01*
X104384728Y-73526716D01*
X105017037Y-72894408D01*
X105034075Y-72957993D01*
X105099901Y-73072007D01*
X105192993Y-73165099D01*
X105307007Y-73230925D01*
X105370590Y-73247962D01*
X104738282Y-73880269D01*
X104738282Y-73880270D01*
X104792449Y-73919624D01*
X104981782Y-74016095D01*
X105183870Y-74081757D01*
X105393754Y-74115000D01*
X105606246Y-74115000D01*
X105816127Y-74081757D01*
X105816130Y-74081757D01*
X106018217Y-74016095D01*
X106207554Y-73919622D01*
X106261716Y-73880270D01*
X106261717Y-73880270D01*
X105629408Y-73247962D01*
X105692993Y-73230925D01*
X105807007Y-73165099D01*
X105900099Y-73072007D01*
X105965925Y-72957993D01*
X105982962Y-72894408D01*
X106615270Y-73526717D01*
X106615270Y-73526716D01*
X106654622Y-73472554D01*
X106751095Y-73283217D01*
X106816757Y-73081130D01*
X106816757Y-73081127D01*
X106850000Y-72871246D01*
X106850000Y-72658753D01*
X106816757Y-72448872D01*
X106816757Y-72448869D01*
X106751095Y-72246782D01*
X106654624Y-72057449D01*
X106615270Y-72003282D01*
X106615269Y-72003282D01*
X105982962Y-72635590D01*
X105965925Y-72572007D01*
X105900099Y-72457993D01*
X105807007Y-72364901D01*
X105692993Y-72299075D01*
X105629409Y-72282037D01*
X106299627Y-71611818D01*
X106360950Y-71578333D01*
X106387307Y-71575499D01*
X106397872Y-71575499D01*
X106457483Y-71569091D01*
X106592331Y-71518796D01*
X106707546Y-71432546D01*
X106793796Y-71317331D01*
X106844091Y-71182483D01*
X106850500Y-71122873D01*
X106850499Y-69327128D01*
X106849480Y-69317648D01*
X110199500Y-69317648D01*
X110199500Y-69522351D01*
X110231522Y-69724534D01*
X110294781Y-69919223D01*
X110387715Y-70101613D01*
X110508028Y-70267213D01*
X110652786Y-70411971D01*
X110807749Y-70524556D01*
X110818390Y-70532287D01*
X110934607Y-70591503D01*
X111000776Y-70625218D01*
X111000778Y-70625218D01*
X111000781Y-70625220D01*
X111105137Y-70659127D01*
X111195465Y-70688477D01*
X111296557Y-70704488D01*
X111397648Y-70720500D01*
X111397649Y-70720500D01*
X111602351Y-70720500D01*
X111602352Y-70720500D01*
X111804534Y-70688477D01*
X111999219Y-70625220D01*
X112181610Y-70532287D01*
X112274590Y-70464732D01*
X112347213Y-70411971D01*
X112347215Y-70411968D01*
X112347219Y-70411966D01*
X112491966Y-70267219D01*
X112491968Y-70267215D01*
X112491971Y-70267213D01*
X112544732Y-70194590D01*
X112612287Y-70101610D01*
X112705220Y-69919219D01*
X112768477Y-69724534D01*
X112800500Y-69522352D01*
X112800500Y-69317648D01*
X112781520Y-69197812D01*
X112768477Y-69115465D01*
X112708607Y-68931206D01*
X112705220Y-68920781D01*
X112705218Y-68920778D01*
X112705218Y-68920776D01*
X112667735Y-68847213D01*
X112612287Y-68738390D01*
X112604556Y-68727749D01*
X112491971Y-68572786D01*
X112347213Y-68428028D01*
X112181613Y-68307715D01*
X112181612Y-68307714D01*
X112181610Y-68307713D01*
X112119970Y-68276306D01*
X111999223Y-68214781D01*
X111804534Y-68151522D01*
X111629995Y-68123878D01*
X111602352Y-68119500D01*
X111397648Y-68119500D01*
X111373329Y-68123351D01*
X111195465Y-68151522D01*
X111000776Y-68214781D01*
X110818386Y-68307715D01*
X110652786Y-68428028D01*
X110508028Y-68572786D01*
X110387715Y-68738386D01*
X110294781Y-68920776D01*
X110231522Y-69115465D01*
X110199500Y-69317648D01*
X106849480Y-69317648D01*
X106844091Y-69267517D01*
X106841508Y-69260592D01*
X106793797Y-69132671D01*
X106793793Y-69132664D01*
X106707547Y-69017455D01*
X106707544Y-69017452D01*
X106592335Y-68931206D01*
X106592328Y-68931202D01*
X106457482Y-68880908D01*
X106457483Y-68880908D01*
X106397883Y-68874501D01*
X106397881Y-68874500D01*
X106397873Y-68874500D01*
X106397864Y-68874500D01*
X104602129Y-68874500D01*
X104602123Y-68874501D01*
X104542516Y-68880908D01*
X104407671Y-68931202D01*
X104407664Y-68931206D01*
X104292455Y-69017452D01*
X104292452Y-69017455D01*
X104206206Y-69132664D01*
X104206202Y-69132671D01*
X104155908Y-69267517D01*
X104150519Y-69317648D01*
X104149501Y-69327125D01*
X104149500Y-69327135D01*
X101000500Y-69327135D01*
X101000500Y-63397682D01*
X109200000Y-63397682D01*
X109200000Y-63602317D01*
X109232009Y-63804417D01*
X109295244Y-63999031D01*
X109388141Y-64181350D01*
X109388147Y-64181359D01*
X109420523Y-64225921D01*
X109420524Y-64225922D01*
X110100000Y-63546446D01*
X110100000Y-63552661D01*
X110127259Y-63654394D01*
X110179920Y-63745606D01*
X110254394Y-63820080D01*
X110345606Y-63872741D01*
X110447339Y-63900000D01*
X110453553Y-63900000D01*
X109774076Y-64579474D01*
X109818650Y-64611859D01*
X110000968Y-64704755D01*
X110195582Y-64767990D01*
X110397683Y-64800000D01*
X110602317Y-64800000D01*
X110804417Y-64767990D01*
X110999031Y-64704755D01*
X111181349Y-64611859D01*
X111225921Y-64579474D01*
X110546447Y-63900000D01*
X110552661Y-63900000D01*
X110654394Y-63872741D01*
X110745606Y-63820080D01*
X110820080Y-63745606D01*
X110872741Y-63654394D01*
X110900000Y-63552661D01*
X110900000Y-63546447D01*
X111579474Y-64225921D01*
X111611859Y-64181349D01*
X111639233Y-64127624D01*
X111687207Y-64076827D01*
X111755028Y-64060031D01*
X111821163Y-64082567D01*
X111860203Y-64127621D01*
X111887713Y-64181611D01*
X112008028Y-64347213D01*
X112152786Y-64491971D01*
X112273226Y-64579474D01*
X112318390Y-64612287D01*
X112434607Y-64671503D01*
X112500776Y-64705218D01*
X112500778Y-64705218D01*
X112500781Y-64705220D01*
X112605137Y-64739127D01*
X112695465Y-64768477D01*
X112796557Y-64784488D01*
X112897648Y-64800500D01*
X112897649Y-64800500D01*
X113102351Y-64800500D01*
X113102352Y-64800500D01*
X113304534Y-64768477D01*
X113499219Y-64705220D01*
X113681610Y-64612287D01*
X113774590Y-64544732D01*
X113847213Y-64491971D01*
X113847215Y-64491968D01*
X113847219Y-64491966D01*
X113991966Y-64347219D01*
X113991968Y-64347215D01*
X113991971Y-64347213D01*
X114044732Y-64274590D01*
X114112287Y-64181610D01*
X114205220Y-63999219D01*
X114268477Y-63804534D01*
X114300500Y-63602352D01*
X114300500Y-63397648D01*
X114292257Y-63345606D01*
X114268477Y-63195465D01*
X114237458Y-63100000D01*
X114205220Y-63000781D01*
X114205218Y-63000778D01*
X114205218Y-63000776D01*
X114162750Y-62917429D01*
X114112287Y-62818390D01*
X114080092Y-62774077D01*
X113991971Y-62652786D01*
X113847213Y-62508028D01*
X113681613Y-62387715D01*
X113681612Y-62387714D01*
X113681610Y-62387713D01*
X113624653Y-62358691D01*
X113499223Y-62294781D01*
X113304534Y-62231522D01*
X113129995Y-62203878D01*
X113102352Y-62199500D01*
X112897648Y-62199500D01*
X112873329Y-62203351D01*
X112695465Y-62231522D01*
X112500776Y-62294781D01*
X112318386Y-62387715D01*
X112152786Y-62508028D01*
X112008028Y-62652786D01*
X111887714Y-62818386D01*
X111860203Y-62872379D01*
X111812227Y-62923174D01*
X111744406Y-62939968D01*
X111678272Y-62917429D01*
X111639234Y-62872376D01*
X111611861Y-62818652D01*
X111579474Y-62774077D01*
X111579474Y-62774076D01*
X110900000Y-63453551D01*
X110900000Y-63447339D01*
X110872741Y-63345606D01*
X110820080Y-63254394D01*
X110745606Y-63179920D01*
X110654394Y-63127259D01*
X110552661Y-63100000D01*
X110546446Y-63100000D01*
X111225922Y-62420524D01*
X111225921Y-62420523D01*
X111181359Y-62388147D01*
X111181350Y-62388141D01*
X110999031Y-62295244D01*
X110804417Y-62232009D01*
X110602317Y-62200000D01*
X110397683Y-62200000D01*
X110195582Y-62232009D01*
X110000968Y-62295244D01*
X109818644Y-62388143D01*
X109774077Y-62420523D01*
X109774077Y-62420524D01*
X110453554Y-63100000D01*
X110447339Y-63100000D01*
X110345606Y-63127259D01*
X110254394Y-63179920D01*
X110179920Y-63254394D01*
X110127259Y-63345606D01*
X110100000Y-63447339D01*
X110100000Y-63453553D01*
X109420524Y-62774077D01*
X109420523Y-62774077D01*
X109388143Y-62818644D01*
X109295244Y-63000968D01*
X109232009Y-63195582D01*
X109200000Y-63397682D01*
X101000500Y-63397682D01*
X101000500Y-54124500D01*
X101020185Y-54057461D01*
X101072989Y-54011706D01*
X101124500Y-54000500D01*
X158875500Y-54000500D01*
X158942539Y-54020185D01*
G37*
%TD.AperFunction*%
%TD*%
M02*
