%TF.GenerationSoftware,KiCad,Pcbnew,10.0.4*%
%TF.CreationDate,2026-10-10T00:16:53+05:30*%
%TF.ProjectId,LED Chaser (CD4017 + 555),4c454420-4368-4617-9365-722028434434,rev?*%
%TF.SameCoordinates,Original*%
%TF.FileFunction,Copper,L1,Top*%
%TF.FilePolarity,Positive*%
%FSLAX46Y46*%
G04 Gerber Fmt 4.6, Leading zero omitted, Abs format (unit mm)*
G04 Created by KiCad (PCBNEW 10.0.4) date 2026-10-10 00:16:53*
%MOMM*%
%LPD*%
G01*
G04 APERTURE LIST*
G04 Aperture macros list*
%AMRoundRect*
0 Rectangle with rounded corners*
0 $1 Rounding radius*
0 $2 $3 $4 $5 $6 $7 $8 $9 X,Y pos of 4 corners*
0 Add a 4 corners polygon primitive as box body*
4,1,4,$2,$3,$4,$5,$6,$7,$8,$9,$2,$3,0*
0 Add four circle primitives for the rounded corners*
1,1,$1+$1,$2,$3*
1,1,$1+$1,$4,$5*
1,1,$1+$1,$6,$7*
1,1,$1+$1,$8,$9*
0 Add four rect primitives between the rounded corners*
20,1,$1+$1,$2,$3,$4,$5,0*
20,1,$1+$1,$4,$5,$6,$7,0*
20,1,$1+$1,$6,$7,$8,$9,0*
20,1,$1+$1,$8,$9,$2,$3,0*%
G04 Aperture macros list end*
%TA.AperFunction,ComponentPad*%
%ADD10C,1.600000*%
%TD*%
%TA.AperFunction,ComponentPad*%
%ADD11C,1.700000*%
%TD*%
%TA.AperFunction,ComponentPad*%
%ADD12R,1.700000X1.700000*%
%TD*%
%TA.AperFunction,ComponentPad*%
%ADD13C,1.800000*%
%TD*%
%TA.AperFunction,ComponentPad*%
%ADD14R,1.800000X1.800000*%
%TD*%
%TA.AperFunction,ComponentPad*%
%ADD15RoundRect,0.250000X-0.550000X-0.550000X0.550000X-0.550000X0.550000X0.550000X-0.550000X0.550000X0*%
%TD*%
%TA.AperFunction,ViaPad*%
%ADD16C,0.600000*%
%TD*%
%TA.AperFunction,Conductor*%
%ADD17C,0.200000*%
%TD*%
G04 APERTURE END LIST*
D10*
%TO.P,R3 1k,1*%
%TO.N,/Q0*%
X130420000Y-60000000D03*
%TO.P,R3 1k,2*%
%TO.N,Net-(D1-A)*%
X140580000Y-60000000D03*
%TD*%
%TO.P,R4 1k,2*%
%TO.N,Net-(D2-A)*%
X140580000Y-68000000D03*
%TO.P,R4 1k,1*%
%TO.N,/Q1*%
X130420000Y-68000000D03*
%TD*%
D11*
%TO.P,J1,2,Pin_2_2*%
%TO.N,GND*%
X105500000Y-72765000D03*
D12*
%TO.P,J1,1,Pin_1_1*%
%TO.N,+5V*%
X105500000Y-70225000D03*
%TD*%
D13*
%TO.P,D1,2,A_2*%
%TO.N,Net-(D1-A)*%
X148500000Y-60000000D03*
D14*
%TO.P,D1,1,K_1*%
%TO.N,GND*%
X145960000Y-60000000D03*
%TD*%
D15*
%TO.P,U2 4017,1,Q5_1*%
%TO.N,/Q5*%
X118195000Y-93610000D03*
D10*
%TO.P,U2 4017,2,Q1_2*%
%TO.N,/Q1*%
X118195000Y-96150000D03*
%TO.P,U2 4017,3,Q0_3*%
%TO.N,/Q0*%
X118195000Y-98690000D03*
%TO.P,U2 4017,4,Q2_4*%
%TO.N,/Q2*%
X118195000Y-101230000D03*
%TO.P,U2 4017,5,Q6_5*%
%TO.N,/Q6*%
X118195000Y-103770000D03*
%TO.P,U2 4017,6,Q7_6*%
%TO.N,/Q7*%
X118195000Y-106310000D03*
%TO.P,U2 4017,7,Q3_7*%
%TO.N,/Q3*%
X118195000Y-108850000D03*
%TO.P,U2 4017,8,VSS_8*%
%TO.N,GND*%
X118195000Y-111390000D03*
%TO.P,U2 4017,9,Q8_9*%
%TO.N,/Q8*%
X125815000Y-111390000D03*
%TO.P,U2 4017,10,Q4_10*%
%TO.N,/Q4*%
X125815000Y-108850000D03*
%TO.P,U2 4017,11,Q9_11*%
%TO.N,/Q9*%
X125815000Y-106310000D03*
%TO.P,U2 4017,12,Cout_12*%
%TO.N,unconnected-(U2-Cout-Pad12)*%
X125815000Y-103770000D03*
%TO.P,U2 4017,13,CKEN_13*%
%TO.N,GND*%
X125815000Y-101230000D03*
%TO.P,U2 4017,14,CLK_14*%
%TO.N,/CLOCK*%
X125815000Y-98690000D03*
%TO.P,U2 4017,15,Reset_15*%
%TO.N,GND*%
X125815000Y-96150000D03*
%TO.P,U2 4017,16,VDD_16*%
%TO.N,+5V*%
X125815000Y-93610000D03*
%TD*%
D15*
%TO.P,U1 NE555P,1,GND_1*%
%TO.N,GND*%
X117880000Y-76880000D03*
D10*
%TO.P,U1 NE555P,2,TRIG_2*%
%TO.N,Net-(U1-THRES)*%
X117880000Y-79420000D03*
%TO.P,U1 NE555P,3,OUT_3*%
%TO.N,/CLOCK*%
X117880000Y-81960000D03*
%TO.P,U1 NE555P,4,~{RST}_4*%
%TO.N,+5V*%
X117880000Y-84500000D03*
%TO.P,U1 NE555P,5,CONT_5*%
%TO.N,Net-(U1-CONT)*%
X125500000Y-84500000D03*
%TO.P,U1 NE555P,6,THRES_6*%
%TO.N,Net-(U1-THRES)*%
X125500000Y-81960000D03*
%TO.P,U1 NE555P,7,DISCH_7*%
%TO.N,Net-(U1-DISCH)*%
X125500000Y-79420000D03*
%TO.P,U1 NE555P,8,VCC_8*%
%TO.N,+5V*%
X125500000Y-76880000D03*
%TD*%
%TO.P,R12 1k,1*%
%TO.N,/Q9*%
X129920000Y-133500000D03*
%TO.P,R12 1k,2*%
%TO.N,Net-(D10-A)*%
X140080000Y-133500000D03*
%TD*%
%TO.P,R11 1k,1*%
%TO.N,/Q8*%
X129920000Y-125000000D03*
%TO.P,R11 1k,2*%
%TO.N,Net-(D9-A)*%
X140080000Y-125000000D03*
%TD*%
%TO.P,R10 1k,1*%
%TO.N,/Q7*%
X129920000Y-116500000D03*
%TO.P,R10 1k,2*%
%TO.N,Net-(D8-A)*%
X140080000Y-116500000D03*
%TD*%
%TO.P,R9 1k,1*%
%TO.N,/Q6*%
X130420000Y-108500000D03*
%TO.P,R9 1k,2*%
%TO.N,Net-(D7-A)*%
X140580000Y-108500000D03*
%TD*%
%TO.P,R8 1k,1*%
%TO.N,/Q5*%
X130420000Y-100500000D03*
%TO.P,R8 1k,2*%
%TO.N,Net-(D6-A)*%
X140580000Y-100500000D03*
%TD*%
%TO.P,R7 1k,1*%
%TO.N,/Q4*%
X130420000Y-93000000D03*
%TO.P,R7 1k,2*%
%TO.N,Net-(D5-A)*%
X140580000Y-93000000D03*
%TD*%
%TO.P,R6 1k,1*%
%TO.N,/Q3*%
X130420000Y-84500000D03*
%TO.P,R6 1k,2*%
%TO.N,Net-(D4-A)*%
X140580000Y-84500000D03*
%TD*%
%TO.P,R5 1k,1*%
%TO.N,/Q2*%
X130420000Y-76500000D03*
%TO.P,R5 1k,2*%
%TO.N,Net-(D3-A)*%
X140580000Y-76500000D03*
%TD*%
%TO.P,R2 100K,1*%
%TO.N,Net-(U1-DISCH)*%
X111500000Y-83920000D03*
%TO.P,R2 100K,2*%
%TO.N,Net-(U1-THRES)*%
X111500000Y-94080000D03*
%TD*%
%TO.P,R1 10K,1*%
%TO.N,+5V*%
X111500000Y-69420000D03*
%TO.P,R1 10K,2*%
%TO.N,Net-(U1-DISCH)*%
X111500000Y-79580000D03*
%TD*%
D14*
%TO.P,D10,1,K_1*%
%TO.N,GND*%
X146460000Y-133500000D03*
D13*
%TO.P,D10,2,A_2*%
%TO.N,Net-(D10-A)*%
X149000000Y-133500000D03*
%TD*%
D14*
%TO.P,D9,1,K_1*%
%TO.N,GND*%
X146460000Y-125000000D03*
D13*
%TO.P,D9,2,A_2*%
%TO.N,Net-(D9-A)*%
X149000000Y-125000000D03*
%TD*%
D14*
%TO.P,D8,1,K_1*%
%TO.N,GND*%
X146230000Y-116500000D03*
D13*
%TO.P,D8,2,A_2*%
%TO.N,Net-(D8-A)*%
X148770000Y-116500000D03*
%TD*%
D14*
%TO.P,D7,1,K_1*%
%TO.N,GND*%
X146225000Y-108500000D03*
D13*
%TO.P,D7,2,A_2*%
%TO.N,Net-(D7-A)*%
X148765000Y-108500000D03*
%TD*%
D14*
%TO.P,D6,1,K_1*%
%TO.N,GND*%
X145960000Y-100500000D03*
D13*
%TO.P,D6,2,A_2*%
%TO.N,Net-(D6-A)*%
X148500000Y-100500000D03*
%TD*%
D14*
%TO.P,D5,1,K_1*%
%TO.N,GND*%
X145960000Y-92500000D03*
D13*
%TO.P,D5,2,A_2*%
%TO.N,Net-(D5-A)*%
X148500000Y-92500000D03*
%TD*%
D14*
%TO.P,D4,1,K_1*%
%TO.N,GND*%
X145960000Y-84500000D03*
D13*
%TO.P,D4,2,A_2*%
%TO.N,Net-(D4-A)*%
X148500000Y-84500000D03*
%TD*%
D14*
%TO.P,D3,1,K_1*%
%TO.N,GND*%
X145960000Y-76500000D03*
D13*
%TO.P,D3,2,A_2*%
%TO.N,Net-(D3-A)*%
X148500000Y-76500000D03*
%TD*%
D14*
%TO.P,D2,1,K_1*%
%TO.N,GND*%
X145960000Y-68000000D03*
D13*
%TO.P,D2,2,A_2*%
%TO.N,Net-(D2-A)*%
X148500000Y-68000000D03*
%TD*%
D10*
%TO.P,C4 100 nF,1*%
%TO.N,GND*%
X121500000Y-119500000D03*
%TO.P,C4 100 nF,2*%
%TO.N,+5V*%
X124000000Y-119500000D03*
%TD*%
%TO.P,C3 100 nF,1*%
%TO.N,GND*%
X110500000Y-63500000D03*
%TO.P,C3 100 nF,2*%
%TO.N,+5V*%
X113000000Y-63500000D03*
%TD*%
%TO.P,C2 10nF,1*%
%TO.N,GND*%
X113000000Y-106000000D03*
%TO.P,C2 10nF,2*%
%TO.N,Net-(U1-CONT)*%
X110500000Y-106000000D03*
%TD*%
D15*
%TO.P,C1 10uF,1*%
%TO.N,Net-(U1-THRES)*%
X111000000Y-100500000D03*
D10*
%TO.P,C1 10uF,2*%
%TO.N,GND*%
X113000000Y-100500000D03*
%TD*%
D16*
%TO.N,GND*%
X120000000Y-98500000D03*
%TO.N,/CLOCK*%
X116000000Y-88500000D03*
X116000000Y-84000000D03*
%TO.N,Net-(U1-CONT)*%
X121500000Y-88000000D03*
%TO.N,Net-(U1-THRES)*%
X121000000Y-82500000D03*
%TO.N,/Q7*%
X116000000Y-114000000D03*
%TO.N,/Q6*%
X116000000Y-105000000D03*
%TD*%
%TO.N,GND*%
D17*
X113370000Y-100130000D02*
X113000000Y-100500000D01*
X118370000Y-100130000D02*
X113370000Y-100130000D01*
X120000000Y-98500000D02*
X118370000Y-100130000D01*
X127865000Y-99180000D02*
X125815000Y-101230000D01*
X125815000Y-96150000D02*
X127865000Y-98200000D01*
X127865000Y-98200000D02*
X127865000Y-99180000D01*
%TO.N,/CLOCK*%
X116000000Y-88875000D02*
X125815000Y-98690000D01*
X116000000Y-88500000D02*
X116000000Y-88875000D01*
X117880000Y-82120000D02*
X116000000Y-84000000D01*
X117880000Y-81960000D02*
X117880000Y-82120000D01*
%TO.N,Net-(U1-CONT)*%
X122000000Y-88000000D02*
X121500000Y-88000000D01*
X125500000Y-84500000D02*
X122000000Y-88000000D01*
%TO.N,Net-(U1-THRES)*%
X121540000Y-81960000D02*
X121000000Y-82500000D01*
X125500000Y-81960000D02*
X121540000Y-81960000D01*
%TO.N,Net-(U1-DISCH)*%
X125359365Y-94710000D02*
X111500000Y-80850635D01*
X126915000Y-94065635D02*
X126270635Y-94710000D01*
X126915000Y-80835000D02*
X126915000Y-94065635D01*
X126270635Y-94710000D02*
X125359365Y-94710000D01*
X111500000Y-80850635D02*
X111500000Y-79580000D01*
X125500000Y-79420000D02*
X126915000Y-80835000D01*
X111500000Y-79580000D02*
X111500000Y-83920000D01*
%TO.N,+5V*%
X122900000Y-118400000D02*
X124000000Y-119500000D01*
X119551471Y-118400000D02*
X122900000Y-118400000D01*
X106650000Y-105498529D02*
X119551471Y-118400000D01*
X106650000Y-71375000D02*
X106650000Y-105498529D01*
X105500000Y-70225000D02*
X106650000Y-71375000D01*
X109775000Y-70225000D02*
X105500000Y-70225000D01*
X110580000Y-69420000D02*
X109775000Y-70225000D01*
X111500000Y-69420000D02*
X110580000Y-69420000D01*
X111500000Y-65000000D02*
X113000000Y-63500000D01*
X111500000Y-69420000D02*
X111500000Y-65000000D01*
X118040000Y-69420000D02*
X111500000Y-69420000D01*
X125500000Y-76880000D02*
X118040000Y-69420000D01*
X117880000Y-85675000D02*
X125815000Y-93610000D01*
X117880000Y-84500000D02*
X117880000Y-85675000D01*
X125500000Y-76880000D02*
X117880000Y-84500000D01*
%TO.N,/Q7*%
X116000000Y-114000000D02*
X116000000Y-108505000D01*
X116000000Y-108505000D02*
X118195000Y-106310000D01*
%TO.N,/Q6*%
X116965000Y-105000000D02*
X118195000Y-103770000D01*
X116000000Y-105000000D02*
X116965000Y-105000000D01*
%TO.N,Net-(D10-A)*%
X147800000Y-132300000D02*
X149000000Y-133500000D01*
X141280000Y-132300000D02*
X147800000Y-132300000D01*
X140080000Y-133500000D02*
X141280000Y-132300000D01*
%TO.N,Net-(D9-A)*%
X147800000Y-123800000D02*
X149000000Y-125000000D01*
X141280000Y-123800000D02*
X147800000Y-123800000D01*
X140080000Y-125000000D02*
X141280000Y-123800000D01*
%TO.N,Net-(D8-A)*%
X147570000Y-115300000D02*
X148770000Y-116500000D01*
X141280000Y-115300000D02*
X147570000Y-115300000D01*
X140080000Y-116500000D02*
X141280000Y-115300000D01*
%TO.N,Net-(D7-A)*%
X141780000Y-107300000D02*
X147565000Y-107300000D01*
X147565000Y-107300000D02*
X148765000Y-108500000D01*
X140580000Y-108500000D02*
X141780000Y-107300000D01*
%TO.N,Net-(D6-A)*%
X147000000Y-99000000D02*
X148500000Y-100500000D01*
X140580000Y-100500000D02*
X142080000Y-99000000D01*
X142080000Y-99000000D02*
X147000000Y-99000000D01*
%TO.N,Net-(D5-A)*%
X147300000Y-91300000D02*
X148500000Y-92500000D01*
X140580000Y-93000000D02*
X142280000Y-91300000D01*
X142280000Y-91300000D02*
X147300000Y-91300000D01*
%TO.N,Net-(D4-A)*%
X147300000Y-83300000D02*
X148500000Y-84500000D01*
X141780000Y-83300000D02*
X147300000Y-83300000D01*
X140580000Y-84500000D02*
X141780000Y-83300000D01*
%TO.N,Net-(D3-A)*%
X141780000Y-75300000D02*
X147300000Y-75300000D01*
X147300000Y-75300000D02*
X148500000Y-76500000D01*
X140580000Y-76500000D02*
X141780000Y-75300000D01*
%TO.N,Net-(D2-A)*%
X147300000Y-66800000D02*
X148500000Y-68000000D01*
X141780000Y-66800000D02*
X147300000Y-66800000D01*
X140580000Y-68000000D02*
X141780000Y-66800000D01*
%TO.N,Net-(D1-A)*%
X147300000Y-58800000D02*
X148500000Y-60000000D01*
X141780000Y-58800000D02*
X147300000Y-58800000D01*
X140580000Y-60000000D02*
X141780000Y-58800000D01*
%TD*%
%TA.AperFunction,Conductor*%
%TO.N,GND*%
G36*
X117806942Y-70040185D02*
G01*
X117827584Y-70056819D01*
X124205922Y-76435157D01*
X124239407Y-76496480D01*
X124236173Y-76561155D01*
X124231522Y-76575468D01*
X124199500Y-76777648D01*
X124199500Y-76982351D01*
X124231522Y-77184534D01*
X124236173Y-77198848D01*
X124238165Y-77268690D01*
X124205921Y-77324842D01*
X119392181Y-82138583D01*
X119330858Y-82172068D01*
X119261166Y-82167084D01*
X119205233Y-82125212D01*
X119180816Y-82059748D01*
X119180500Y-82050902D01*
X119180500Y-81857648D01*
X119148477Y-81655465D01*
X119085218Y-81460776D01*
X119051503Y-81394607D01*
X118992287Y-81278390D01*
X118948305Y-81217853D01*
X118871971Y-81112786D01*
X118727213Y-80968028D01*
X118561614Y-80847715D01*
X118555006Y-80844348D01*
X118468917Y-80800483D01*
X118418123Y-80752511D01*
X118401328Y-80684690D01*
X118423865Y-80618555D01*
X118468917Y-80579516D01*
X118561610Y-80532287D01*
X118582770Y-80516913D01*
X118727213Y-80411971D01*
X118727215Y-80411968D01*
X118727219Y-80411966D01*
X118871966Y-80267219D01*
X118871968Y-80267215D01*
X118871971Y-80267213D01*
X118924732Y-80194590D01*
X118992287Y-80101610D01*
X119085220Y-79919219D01*
X119148477Y-79724534D01*
X119180500Y-79522352D01*
X119180500Y-79317648D01*
X119173819Y-79275465D01*
X119148477Y-79115465D01*
X119085218Y-78920776D01*
X119051503Y-78854607D01*
X118992287Y-78738390D01*
X118984556Y-78727749D01*
X118871971Y-78572786D01*
X118727217Y-78428032D01*
X118727212Y-78428028D01*
X118633051Y-78359616D01*
X118590385Y-78304286D01*
X118584406Y-78234673D01*
X118617012Y-78172878D01*
X118666933Y-78141592D01*
X118749117Y-78114359D01*
X118749124Y-78114356D01*
X118898345Y-78022315D01*
X119022315Y-77898345D01*
X119114356Y-77749124D01*
X119114358Y-77749119D01*
X119169505Y-77582697D01*
X119169506Y-77582690D01*
X119179999Y-77479986D01*
X119180000Y-77479973D01*
X119180000Y-77130000D01*
X118195686Y-77130000D01*
X118200080Y-77125606D01*
X118252741Y-77034394D01*
X118280000Y-76932661D01*
X118280000Y-76827339D01*
X118252741Y-76725606D01*
X118200080Y-76634394D01*
X118195686Y-76630000D01*
X119179999Y-76630000D01*
X119179999Y-76280028D01*
X119179998Y-76280013D01*
X119169505Y-76177302D01*
X119114358Y-76010880D01*
X119114356Y-76010875D01*
X119022315Y-75861654D01*
X118898345Y-75737684D01*
X118749124Y-75645643D01*
X118749119Y-75645641D01*
X118582697Y-75590494D01*
X118582690Y-75590493D01*
X118479986Y-75580000D01*
X118130000Y-75580000D01*
X118130000Y-76564314D01*
X118125606Y-76559920D01*
X118034394Y-76507259D01*
X117932661Y-76480000D01*
X117827339Y-76480000D01*
X117725606Y-76507259D01*
X117634394Y-76559920D01*
X117630000Y-76564314D01*
X117630000Y-75580000D01*
X117280028Y-75580000D01*
X117280012Y-75580001D01*
X117177302Y-75590494D01*
X117010880Y-75645641D01*
X117010875Y-75645643D01*
X116861654Y-75737684D01*
X116737684Y-75861654D01*
X116645643Y-76010875D01*
X116645641Y-76010880D01*
X116590494Y-76177302D01*
X116590493Y-76177309D01*
X116580000Y-76280013D01*
X116580000Y-76630000D01*
X117564314Y-76630000D01*
X117559920Y-76634394D01*
X117507259Y-76725606D01*
X117480000Y-76827339D01*
X117480000Y-76932661D01*
X117507259Y-77034394D01*
X117559920Y-77125606D01*
X117564314Y-77130000D01*
X116580001Y-77130000D01*
X116580001Y-77479986D01*
X116590494Y-77582697D01*
X116645641Y-77749119D01*
X116645643Y-77749124D01*
X116737684Y-77898345D01*
X116861654Y-78022315D01*
X117010875Y-78114356D01*
X117010882Y-78114359D01*
X117093067Y-78141592D01*
X117150512Y-78181364D01*
X117177336Y-78245880D01*
X117165021Y-78314656D01*
X117126949Y-78359616D01*
X117032787Y-78428028D01*
X117032782Y-78428032D01*
X116888028Y-78572786D01*
X116767715Y-78738386D01*
X116674781Y-78920776D01*
X116611522Y-79115465D01*
X116579500Y-79317648D01*
X116579500Y-79522351D01*
X116611522Y-79724534D01*
X116674781Y-79919223D01*
X116738691Y-80044653D01*
X116756306Y-80079223D01*
X116767715Y-80101613D01*
X116888028Y-80267213D01*
X117032786Y-80411971D01*
X117187749Y-80524556D01*
X117198390Y-80532287D01*
X117276270Y-80571969D01*
X117291080Y-80579515D01*
X117341876Y-80627490D01*
X117358671Y-80695311D01*
X117336134Y-80761446D01*
X117291080Y-80800485D01*
X117198386Y-80847715D01*
X117032786Y-80968028D01*
X116888028Y-81112786D01*
X116767715Y-81278386D01*
X116674781Y-81460776D01*
X116611522Y-81655465D01*
X116579500Y-81857648D01*
X116579500Y-82062351D01*
X116611522Y-82264534D01*
X116655410Y-82399603D01*
X116657405Y-82469444D01*
X116625160Y-82525603D01*
X115985339Y-83165425D01*
X115924016Y-83198910D01*
X115921850Y-83199361D01*
X115766508Y-83230261D01*
X115766498Y-83230264D01*
X115620827Y-83290602D01*
X115620814Y-83290609D01*
X115489711Y-83378210D01*
X115489707Y-83378213D01*
X115378213Y-83489707D01*
X115305981Y-83597809D01*
X115252368Y-83642613D01*
X115183043Y-83651320D01*
X115120016Y-83621165D01*
X115115198Y-83616598D01*
X112289645Y-80791045D01*
X112256160Y-80729722D01*
X112261144Y-80660030D01*
X112303016Y-80604097D01*
X112304442Y-80603045D01*
X112347215Y-80571969D01*
X112347215Y-80571968D01*
X112347219Y-80571966D01*
X112491966Y-80427219D01*
X112491968Y-80427215D01*
X112491971Y-80427213D01*
X112547967Y-80350139D01*
X112612287Y-80261610D01*
X112705220Y-80079219D01*
X112768477Y-79884534D01*
X112800500Y-79682352D01*
X112800500Y-79477648D01*
X112768477Y-79275466D01*
X112749253Y-79216302D01*
X112716490Y-79115466D01*
X112705220Y-79080781D01*
X112705218Y-79080778D01*
X112705218Y-79080776D01*
X112634016Y-78941036D01*
X112612287Y-78898390D01*
X112604556Y-78887749D01*
X112491971Y-78732786D01*
X112347213Y-78588028D01*
X112181613Y-78467715D01*
X112181612Y-78467714D01*
X112181610Y-78467713D01*
X112103724Y-78428028D01*
X111999223Y-78374781D01*
X111804534Y-78311522D01*
X111629995Y-78283878D01*
X111602352Y-78279500D01*
X111397648Y-78279500D01*
X111373329Y-78283351D01*
X111195465Y-78311522D01*
X111000776Y-78374781D01*
X110818386Y-78467715D01*
X110652786Y-78588028D01*
X110508028Y-78732786D01*
X110387715Y-78898386D01*
X110294781Y-79080776D01*
X110231522Y-79275465D01*
X110199500Y-79477648D01*
X110199500Y-79682351D01*
X110231522Y-79884534D01*
X110294781Y-80079223D01*
X110387715Y-80261613D01*
X110508028Y-80427213D01*
X110508034Y-80427219D01*
X110652781Y-80571966D01*
X110818390Y-80692287D01*
X110831791Y-80699115D01*
X110842854Y-80709562D01*
X110856701Y-80715886D01*
X110867742Y-80733065D01*
X110882587Y-80747085D01*
X110886828Y-80762765D01*
X110894476Y-80774664D01*
X110899498Y-80809597D01*
X110899499Y-80809599D01*
X110899499Y-80929692D01*
X110899499Y-80929694D01*
X110899500Y-80939688D01*
X110899500Y-82690397D01*
X110879815Y-82757436D01*
X110831800Y-82800879D01*
X110818389Y-82807712D01*
X110652786Y-82928028D01*
X110508028Y-83072786D01*
X110387715Y-83238386D01*
X110294781Y-83420776D01*
X110231522Y-83615465D01*
X110207684Y-83765974D01*
X110199500Y-83817648D01*
X110199500Y-84022352D01*
X110203878Y-84049995D01*
X110231522Y-84224534D01*
X110294781Y-84419223D01*
X110335940Y-84500000D01*
X110366126Y-84559244D01*
X110387715Y-84601613D01*
X110508028Y-84767213D01*
X110652786Y-84911971D01*
X110772875Y-84999219D01*
X110818390Y-85032287D01*
X110934607Y-85091503D01*
X111000776Y-85125218D01*
X111000778Y-85125218D01*
X111000781Y-85125220D01*
X111105137Y-85159127D01*
X111195465Y-85188477D01*
X111296557Y-85204488D01*
X111397648Y-85220500D01*
X111397649Y-85220500D01*
X111602351Y-85220500D01*
X111602352Y-85220500D01*
X111804534Y-85188477D01*
X111999219Y-85125220D01*
X112181610Y-85032287D01*
X112274590Y-84964732D01*
X112347213Y-84911971D01*
X112347215Y-84911968D01*
X112347219Y-84911966D01*
X112491966Y-84767219D01*
X112491968Y-84767215D01*
X112491971Y-84767213D01*
X112559915Y-84673694D01*
X112612287Y-84601610D01*
X112705220Y-84419219D01*
X112768477Y-84224534D01*
X112800500Y-84022352D01*
X112800500Y-83817648D01*
X112768477Y-83615466D01*
X112759434Y-83587636D01*
X112725846Y-83484262D01*
X112705220Y-83420781D01*
X112705218Y-83420778D01*
X112705218Y-83420776D01*
X112644792Y-83302185D01*
X112612287Y-83238390D01*
X112591223Y-83209397D01*
X112491971Y-83072786D01*
X112347213Y-82928028D01*
X112181610Y-82807712D01*
X112168200Y-82800879D01*
X112117406Y-82752903D01*
X112100500Y-82690397D01*
X112100500Y-82599732D01*
X112120185Y-82532693D01*
X112172989Y-82486938D01*
X112242147Y-82476994D01*
X112305703Y-82506019D01*
X112312181Y-82512051D01*
X124874504Y-95074374D01*
X124874514Y-95074385D01*
X124878844Y-95078715D01*
X124878845Y-95078716D01*
X124990649Y-95190520D01*
X125077460Y-95240639D01*
X125077462Y-95240641D01*
X125115516Y-95262611D01*
X125127580Y-95269577D01*
X125280308Y-95310501D01*
X125280310Y-95310501D01*
X125288368Y-95311562D01*
X125288105Y-95313558D01*
X125344731Y-95330186D01*
X125365373Y-95346820D01*
X125768554Y-95750000D01*
X125762339Y-95750000D01*
X125660606Y-95777259D01*
X125569394Y-95829920D01*
X125494920Y-95904394D01*
X125442259Y-95995606D01*
X125415000Y-96097339D01*
X125415000Y-96103553D01*
X124735524Y-95424077D01*
X124735523Y-95424077D01*
X124703143Y-95468644D01*
X124610244Y-95650968D01*
X124547009Y-95845582D01*
X124515000Y-96047682D01*
X124515000Y-96241403D01*
X124495315Y-96308442D01*
X124442511Y-96354197D01*
X124373353Y-96364141D01*
X124309797Y-96335116D01*
X124303319Y-96329084D01*
X116806316Y-88832081D01*
X116772831Y-88770758D01*
X116772380Y-88720208D01*
X116777332Y-88695317D01*
X116796192Y-88600501D01*
X116800500Y-88578844D01*
X116800500Y-88421155D01*
X116800499Y-88421153D01*
X116769737Y-88266503D01*
X116769735Y-88266498D01*
X116709397Y-88120827D01*
X116709390Y-88120814D01*
X116621789Y-87989711D01*
X116621786Y-87989707D01*
X116510292Y-87878213D01*
X116510288Y-87878210D01*
X116379185Y-87790609D01*
X116379172Y-87790602D01*
X116233501Y-87730264D01*
X116233489Y-87730261D01*
X116078845Y-87699500D01*
X116078842Y-87699500D01*
X115921158Y-87699500D01*
X115921155Y-87699500D01*
X115766510Y-87730261D01*
X115766498Y-87730264D01*
X115620827Y-87790602D01*
X115620814Y-87790609D01*
X115489711Y-87878210D01*
X115489707Y-87878213D01*
X115378213Y-87989707D01*
X115378210Y-87989711D01*
X115290609Y-88120814D01*
X115290602Y-88120827D01*
X115230264Y-88266498D01*
X115230261Y-88266510D01*
X115199500Y-88421153D01*
X115199500Y-88578846D01*
X115230261Y-88733489D01*
X115230264Y-88733501D01*
X115290602Y-88879172D01*
X115290609Y-88879185D01*
X115378209Y-89010287D01*
X115378210Y-89010288D01*
X115378211Y-89010289D01*
X115404380Y-89036458D01*
X115408860Y-89043133D01*
X115412923Y-89045929D01*
X115419876Y-89059544D01*
X115431060Y-89076206D01*
X115434301Y-89083939D01*
X115440423Y-89106785D01*
X115449086Y-89121789D01*
X115453020Y-89128604D01*
X115453024Y-89128612D01*
X115519475Y-89243709D01*
X115519481Y-89243717D01*
X115638349Y-89362585D01*
X115638355Y-89362590D01*
X118373584Y-92097819D01*
X118407069Y-92159142D01*
X118402085Y-92228834D01*
X118360213Y-92284767D01*
X118294749Y-92309184D01*
X118285903Y-92309500D01*
X117594998Y-92309500D01*
X117594980Y-92309501D01*
X117492203Y-92320000D01*
X117492200Y-92320001D01*
X117325668Y-92375185D01*
X117325663Y-92375187D01*
X117176342Y-92467289D01*
X117052289Y-92591342D01*
X116960187Y-92740663D01*
X116960185Y-92740668D01*
X116936707Y-92811522D01*
X116905001Y-92907203D01*
X116905001Y-92907204D01*
X116905000Y-92907204D01*
X116894500Y-93009983D01*
X116894500Y-94210001D01*
X116894501Y-94210018D01*
X116905000Y-94312796D01*
X116905001Y-94312799D01*
X116928772Y-94384534D01*
X116960186Y-94479334D01*
X117052288Y-94628656D01*
X117176344Y-94752712D01*
X117325666Y-94844814D01*
X117407570Y-94871954D01*
X117465015Y-94911727D01*
X117491838Y-94976243D01*
X117479523Y-95045018D01*
X117441451Y-95089978D01*
X117347787Y-95158028D01*
X117347782Y-95158032D01*
X117203028Y-95302786D01*
X117082715Y-95468386D01*
X116989781Y-95650776D01*
X116926522Y-95845465D01*
X116894500Y-96047648D01*
X116894500Y-96252351D01*
X116926522Y-96454534D01*
X116989781Y-96649223D01*
X117082715Y-96831613D01*
X117203028Y-96997213D01*
X117347786Y-97141971D01*
X117468226Y-97229474D01*
X117513390Y-97262287D01*
X117604840Y-97308883D01*
X117606080Y-97309515D01*
X117656876Y-97357490D01*
X117673671Y-97425311D01*
X117651134Y-97491446D01*
X117606080Y-97530485D01*
X117513386Y-97577715D01*
X117347786Y-97698028D01*
X117203028Y-97842786D01*
X117082715Y-98008386D01*
X116989781Y-98190776D01*
X116926522Y-98385465D01*
X116894500Y-98587648D01*
X116894500Y-98792351D01*
X116926522Y-98994534D01*
X116989781Y-99189223D01*
X117082715Y-99371613D01*
X117203028Y-99537213D01*
X117347786Y-99681971D01*
X117474562Y-99774077D01*
X117513390Y-99802287D01*
X117604840Y-99848883D01*
X117606080Y-99849515D01*
X117656876Y-99897490D01*
X117673671Y-99965311D01*
X117651134Y-100031446D01*
X117606080Y-100070485D01*
X117513386Y-100117715D01*
X117347786Y-100238028D01*
X117203028Y-100382786D01*
X117082715Y-100548386D01*
X116989781Y-100730776D01*
X116926522Y-100925465D01*
X116894500Y-101127648D01*
X116894500Y-101332351D01*
X116926522Y-101534534D01*
X116989781Y-101729223D01*
X117047933Y-101843350D01*
X117082585Y-101911359D01*
X117082715Y-101911613D01*
X117203028Y-102077213D01*
X117347786Y-102221971D01*
X117468226Y-102309474D01*
X117513390Y-102342287D01*
X117604840Y-102388883D01*
X117606080Y-102389515D01*
X117656876Y-102437490D01*
X117673671Y-102505311D01*
X117651134Y-102571446D01*
X117606080Y-102610485D01*
X117513386Y-102657715D01*
X117347786Y-102778028D01*
X117203028Y-102922786D01*
X117082715Y-103088386D01*
X116989781Y-103270776D01*
X116926522Y-103465465D01*
X116894500Y-103667648D01*
X116894500Y-103872351D01*
X116926523Y-104074534D01*
X116931172Y-104088843D01*
X116931606Y-104104055D01*
X116936925Y-104118315D01*
X116932583Y-104138270D01*
X116933167Y-104158684D01*
X116925078Y-104172770D01*
X116922073Y-104186588D01*
X116900925Y-104214838D01*
X116752582Y-104363182D01*
X116691262Y-104396666D01*
X116664903Y-104399500D01*
X116579766Y-104399500D01*
X116512727Y-104379815D01*
X116510875Y-104378602D01*
X116379185Y-104290609D01*
X116379172Y-104290602D01*
X116233501Y-104230264D01*
X116233489Y-104230261D01*
X116078845Y-104199500D01*
X116078842Y-104199500D01*
X115921158Y-104199500D01*
X115921155Y-104199500D01*
X115766510Y-104230261D01*
X115766498Y-104230264D01*
X115620827Y-104290602D01*
X115620814Y-104290609D01*
X115489711Y-104378210D01*
X115489707Y-104378213D01*
X115378213Y-104489707D01*
X115378210Y-104489711D01*
X115290609Y-104620814D01*
X115290602Y-104620827D01*
X115230264Y-104766498D01*
X115230261Y-104766510D01*
X115199500Y-104921153D01*
X115199500Y-105078846D01*
X115230261Y-105233489D01*
X115230264Y-105233501D01*
X115290602Y-105379172D01*
X115290609Y-105379185D01*
X115378210Y-105510288D01*
X115378213Y-105510292D01*
X115489707Y-105621786D01*
X115489711Y-105621789D01*
X115620814Y-105709390D01*
X115620827Y-105709397D01*
X115729461Y-105754394D01*
X115766503Y-105769737D01*
X115921153Y-105800499D01*
X115921156Y-105800500D01*
X115921158Y-105800500D01*
X116078844Y-105800500D01*
X116078845Y-105800499D01*
X116233497Y-105769737D01*
X116379179Y-105709394D01*
X116423290Y-105679920D01*
X116510875Y-105621398D01*
X116577553Y-105600520D01*
X116579766Y-105600500D01*
X116878339Y-105600500D01*
X116885940Y-105600500D01*
X116885943Y-105600501D01*
X116894581Y-105600501D01*
X116931257Y-105611273D01*
X116961612Y-105620186D01*
X116961614Y-105620188D01*
X116961619Y-105620190D01*
X116995780Y-105659618D01*
X117007367Y-105672990D01*
X117007367Y-105672991D01*
X117007371Y-105672996D01*
X117013014Y-105712264D01*
X117017311Y-105742148D01*
X117017309Y-105742152D01*
X117017310Y-105742156D01*
X117017304Y-105742166D01*
X117005058Y-105780796D01*
X116989781Y-105810776D01*
X116926522Y-106005465D01*
X116894500Y-106207648D01*
X116894500Y-106412351D01*
X116926523Y-106614535D01*
X116931172Y-106628845D01*
X116933165Y-106698687D01*
X116900921Y-106754841D01*
X115631286Y-108024478D01*
X115519481Y-108136282D01*
X115519479Y-108136285D01*
X115485313Y-108195464D01*
X115485312Y-108195466D01*
X115440423Y-108273214D01*
X115440423Y-108273215D01*
X115399499Y-108425943D01*
X115399499Y-108425945D01*
X115399499Y-108594046D01*
X115399500Y-108594059D01*
X115399500Y-113099432D01*
X115379815Y-113166471D01*
X115327011Y-113212226D01*
X115257853Y-113222170D01*
X115194297Y-113193145D01*
X115187819Y-113187113D01*
X107898354Y-105897648D01*
X109199500Y-105897648D01*
X109199500Y-106102351D01*
X109231522Y-106304534D01*
X109294781Y-106499223D01*
X109358691Y-106624653D01*
X109387585Y-106681359D01*
X109387715Y-106681613D01*
X109508028Y-106847213D01*
X109652786Y-106991971D01*
X109773226Y-107079474D01*
X109818390Y-107112287D01*
X109906574Y-107157219D01*
X110000776Y-107205218D01*
X110000778Y-107205218D01*
X110000781Y-107205220D01*
X110096045Y-107236173D01*
X110195465Y-107268477D01*
X110296557Y-107284488D01*
X110397648Y-107300500D01*
X110397649Y-107300500D01*
X110602351Y-107300500D01*
X110602352Y-107300500D01*
X110804534Y-107268477D01*
X110999219Y-107205220D01*
X111181610Y-107112287D01*
X111274590Y-107044732D01*
X111347213Y-106991971D01*
X111347215Y-106991968D01*
X111347219Y-106991966D01*
X111491966Y-106847219D01*
X111491968Y-106847215D01*
X111491971Y-106847213D01*
X111580093Y-106725921D01*
X111612287Y-106681610D01*
X111639795Y-106627621D01*
X111687769Y-106576826D01*
X111755589Y-106560030D01*
X111821725Y-106582567D01*
X111860765Y-106627621D01*
X111888141Y-106681350D01*
X111888147Y-106681359D01*
X111920523Y-106725921D01*
X111920524Y-106725922D01*
X112600000Y-106046446D01*
X112600000Y-106052661D01*
X112627259Y-106154394D01*
X112679920Y-106245606D01*
X112754394Y-106320080D01*
X112845606Y-106372741D01*
X112947339Y-106400000D01*
X112953553Y-106400000D01*
X112274076Y-107079474D01*
X112318650Y-107111859D01*
X112500968Y-107204755D01*
X112695582Y-107267990D01*
X112897683Y-107300000D01*
X113102317Y-107300000D01*
X113304417Y-107267990D01*
X113499031Y-107204755D01*
X113681349Y-107111859D01*
X113725921Y-107079474D01*
X113046447Y-106400000D01*
X113052661Y-106400000D01*
X113154394Y-106372741D01*
X113245606Y-106320080D01*
X113320080Y-106245606D01*
X113372741Y-106154394D01*
X113400000Y-106052661D01*
X113400000Y-106046447D01*
X114079474Y-106725921D01*
X114111859Y-106681349D01*
X114204755Y-106499031D01*
X114267990Y-106304417D01*
X114300000Y-106102317D01*
X114300000Y-105897682D01*
X114267990Y-105695582D01*
X114204755Y-105500968D01*
X114111859Y-105318650D01*
X114079474Y-105274077D01*
X114079474Y-105274076D01*
X113400000Y-105953551D01*
X113400000Y-105947339D01*
X113372741Y-105845606D01*
X113320080Y-105754394D01*
X113245606Y-105679920D01*
X113154394Y-105627259D01*
X113052661Y-105600000D01*
X113046446Y-105600000D01*
X113725922Y-104920524D01*
X113725921Y-104920523D01*
X113681359Y-104888147D01*
X113681350Y-104888141D01*
X113499031Y-104795244D01*
X113304417Y-104732009D01*
X113102317Y-104700000D01*
X112897683Y-104700000D01*
X112695582Y-104732009D01*
X112500968Y-104795244D01*
X112318644Y-104888143D01*
X112274077Y-104920523D01*
X112274077Y-104920524D01*
X112953554Y-105600000D01*
X112947339Y-105600000D01*
X112845606Y-105627259D01*
X112754394Y-105679920D01*
X112679920Y-105754394D01*
X112627259Y-105845606D01*
X112600000Y-105947339D01*
X112600000Y-105953553D01*
X111920524Y-105274077D01*
X111920523Y-105274077D01*
X111888143Y-105318644D01*
X111860765Y-105372378D01*
X111812790Y-105423174D01*
X111744969Y-105439969D01*
X111678834Y-105417431D01*
X111639795Y-105372378D01*
X111612284Y-105318385D01*
X111491971Y-105152786D01*
X111347213Y-105008028D01*
X111181613Y-104887715D01*
X111181612Y-104887714D01*
X111181610Y-104887713D01*
X111124653Y-104858691D01*
X110999223Y-104794781D01*
X110804534Y-104731522D01*
X110629995Y-104703878D01*
X110602352Y-104699500D01*
X110397648Y-104699500D01*
X110373329Y-104703351D01*
X110195465Y-104731522D01*
X110000776Y-104794781D01*
X109818386Y-104887715D01*
X109652786Y-105008028D01*
X109508028Y-105152786D01*
X109387715Y-105318386D01*
X109294781Y-105500776D01*
X109231522Y-105695465D01*
X109199500Y-105897648D01*
X107898354Y-105897648D01*
X107286819Y-105286113D01*
X107253334Y-105224790D01*
X107250500Y-105198432D01*
X107250500Y-99899983D01*
X109699500Y-99899983D01*
X109699500Y-101100001D01*
X109699501Y-101100018D01*
X109710000Y-101202796D01*
X109710001Y-101202799D01*
X109736465Y-101282661D01*
X109765186Y-101369334D01*
X109857288Y-101518656D01*
X109981344Y-101642712D01*
X110130666Y-101734814D01*
X110297203Y-101789999D01*
X110399991Y-101800500D01*
X111600008Y-101800499D01*
X111702797Y-101789999D01*
X111869334Y-101734814D01*
X112018656Y-101642712D01*
X112087879Y-101573489D01*
X112149202Y-101540004D01*
X112218894Y-101544988D01*
X112248446Y-101560853D01*
X112318646Y-101611857D01*
X112500968Y-101704755D01*
X112695582Y-101767990D01*
X112897683Y-101800000D01*
X113102317Y-101800000D01*
X113304417Y-101767990D01*
X113499031Y-101704755D01*
X113681349Y-101611859D01*
X113725921Y-101579474D01*
X113046447Y-100900000D01*
X113052661Y-100900000D01*
X113154394Y-100872741D01*
X113245606Y-100820080D01*
X113320080Y-100745606D01*
X113372741Y-100654394D01*
X113400000Y-100552661D01*
X113400000Y-100546447D01*
X114079474Y-101225921D01*
X114111859Y-101181349D01*
X114204755Y-100999031D01*
X114267990Y-100804417D01*
X114300000Y-100602317D01*
X114300000Y-100397682D01*
X114267990Y-100195582D01*
X114204755Y-100000968D01*
X114111859Y-99818650D01*
X114079474Y-99774077D01*
X114079474Y-99774076D01*
X113400000Y-100453551D01*
X113400000Y-100447339D01*
X113372741Y-100345606D01*
X113320080Y-100254394D01*
X113245606Y-100179920D01*
X113154394Y-100127259D01*
X113052661Y-100100000D01*
X113046446Y-100100000D01*
X113725922Y-99420524D01*
X113725921Y-99420523D01*
X113681359Y-99388147D01*
X113681350Y-99388141D01*
X113499031Y-99295244D01*
X113304417Y-99232009D01*
X113102317Y-99200000D01*
X112897683Y-99200000D01*
X112695582Y-99232009D01*
X112500968Y-99295244D01*
X112318651Y-99388139D01*
X112248444Y-99439148D01*
X112182637Y-99462627D01*
X112114583Y-99446801D01*
X112087878Y-99426510D01*
X112018657Y-99357289D01*
X112018656Y-99357288D01*
X111869334Y-99265186D01*
X111702797Y-99210001D01*
X111702795Y-99210000D01*
X111600010Y-99199500D01*
X110399998Y-99199500D01*
X110399981Y-99199501D01*
X110297203Y-99210000D01*
X110297200Y-99210001D01*
X110130668Y-99265185D01*
X110130663Y-99265187D01*
X109981342Y-99357289D01*
X109857289Y-99481342D01*
X109765187Y-99630663D01*
X109765185Y-99630668D01*
X109748187Y-99681966D01*
X109710001Y-99797203D01*
X109710001Y-99797204D01*
X109710000Y-99797204D01*
X109699500Y-99899983D01*
X107250500Y-99899983D01*
X107250500Y-93977648D01*
X110199500Y-93977648D01*
X110199500Y-94182351D01*
X110231522Y-94384534D01*
X110294781Y-94579223D01*
X110358691Y-94704653D01*
X110383179Y-94752712D01*
X110387715Y-94761613D01*
X110508028Y-94927213D01*
X110652786Y-95071971D01*
X110771244Y-95158034D01*
X110818390Y-95192287D01*
X110913286Y-95240639D01*
X111000776Y-95285218D01*
X111000778Y-95285218D01*
X111000781Y-95285220D01*
X111105137Y-95319127D01*
X111195465Y-95348477D01*
X111296557Y-95364488D01*
X111397648Y-95380500D01*
X111397649Y-95380500D01*
X111602351Y-95380500D01*
X111602352Y-95380500D01*
X111804534Y-95348477D01*
X111999219Y-95285220D01*
X112181610Y-95192287D01*
X112274590Y-95124732D01*
X112347213Y-95071971D01*
X112347215Y-95071968D01*
X112347219Y-95071966D01*
X112491966Y-94927219D01*
X112491968Y-94927215D01*
X112491971Y-94927213D01*
X112551838Y-94844812D01*
X112612287Y-94761610D01*
X112705220Y-94579219D01*
X112768477Y-94384534D01*
X112800500Y-94182352D01*
X112800500Y-93977648D01*
X112772030Y-93797896D01*
X112768477Y-93775465D01*
X112705218Y-93580776D01*
X112667816Y-93507372D01*
X112612287Y-93398390D01*
X112604556Y-93387749D01*
X112491971Y-93232786D01*
X112347213Y-93088028D01*
X112181613Y-92967715D01*
X112181612Y-92967714D01*
X112181610Y-92967713D01*
X112124653Y-92938691D01*
X111999223Y-92874781D01*
X111804534Y-92811522D01*
X111629995Y-92783878D01*
X111602352Y-92779500D01*
X111397648Y-92779500D01*
X111373329Y-92783351D01*
X111195465Y-92811522D01*
X111000776Y-92874781D01*
X110818386Y-92967715D01*
X110652786Y-93088028D01*
X110508028Y-93232786D01*
X110387715Y-93398386D01*
X110294781Y-93580776D01*
X110231522Y-93775465D01*
X110199500Y-93977648D01*
X107250500Y-93977648D01*
X107250500Y-71464060D01*
X107250501Y-71464047D01*
X107250501Y-71295944D01*
X107250501Y-71295943D01*
X107209577Y-71143216D01*
X107133531Y-71011499D01*
X107117059Y-70943599D01*
X107139912Y-70877572D01*
X107194834Y-70834382D01*
X107240919Y-70825500D01*
X109688331Y-70825500D01*
X109688347Y-70825501D01*
X109695943Y-70825501D01*
X109854054Y-70825501D01*
X109854057Y-70825501D01*
X110006785Y-70784577D01*
X110056904Y-70755639D01*
X110143716Y-70705520D01*
X110255520Y-70593716D01*
X110255520Y-70593714D01*
X110265728Y-70583507D01*
X110265729Y-70583504D01*
X110457346Y-70391887D01*
X110518666Y-70358405D01*
X110588358Y-70363389D01*
X110632705Y-70391890D01*
X110652786Y-70411971D01*
X110807749Y-70524556D01*
X110818390Y-70532287D01*
X110918903Y-70583501D01*
X111000776Y-70625218D01*
X111000778Y-70625218D01*
X111000781Y-70625220D01*
X111105137Y-70659127D01*
X111195465Y-70688477D01*
X111296557Y-70704488D01*
X111397648Y-70720500D01*
X111397649Y-70720500D01*
X111602351Y-70720500D01*
X111602352Y-70720500D01*
X111804534Y-70688477D01*
X111999219Y-70625220D01*
X112181610Y-70532287D01*
X112274590Y-70464732D01*
X112347213Y-70411971D01*
X112347215Y-70411968D01*
X112347219Y-70411966D01*
X112491966Y-70267219D01*
X112491968Y-70267215D01*
X112491971Y-70267213D01*
X112612284Y-70101614D01*
X112612283Y-70101614D01*
X112612287Y-70101610D01*
X112619117Y-70088204D01*
X112667091Y-70037409D01*
X112729602Y-70020500D01*
X117739903Y-70020500D01*
X117806942Y-70040185D01*
G37*
%TD.AperFunction*%
%TA.AperFunction,Conductor*%
G36*
X158942539Y-54020185D02*
G01*
X158988294Y-54072989D01*
X158999500Y-54124500D01*
X158999500Y-139375500D01*
X158979815Y-139442539D01*
X158927011Y-139488294D01*
X158875500Y-139499500D01*
X101124500Y-139499500D01*
X101057461Y-139479815D01*
X101011706Y-139427011D01*
X101000500Y-139375500D01*
X101000500Y-133397648D01*
X128619500Y-133397648D01*
X128619500Y-133602351D01*
X128651522Y-133804534D01*
X128714781Y-133999223D01*
X128807715Y-134181613D01*
X128928028Y-134347213D01*
X129072786Y-134491971D01*
X129227749Y-134604556D01*
X129238390Y-134612287D01*
X129354607Y-134671503D01*
X129420776Y-134705218D01*
X129420778Y-134705218D01*
X129420781Y-134705220D01*
X129525137Y-134739127D01*
X129615465Y-134768477D01*
X129716557Y-134784488D01*
X129817648Y-134800500D01*
X129817649Y-134800500D01*
X130022351Y-134800500D01*
X130022352Y-134800500D01*
X130224534Y-134768477D01*
X130419219Y-134705220D01*
X130601610Y-134612287D01*
X130694590Y-134544732D01*
X130767213Y-134491971D01*
X130767215Y-134491968D01*
X130767219Y-134491966D01*
X130911966Y-134347219D01*
X130911968Y-134347215D01*
X130911971Y-134347213D01*
X130964732Y-134274590D01*
X131032287Y-134181610D01*
X131125220Y-133999219D01*
X131188477Y-133804534D01*
X131220500Y-133602352D01*
X131220500Y-133397648D01*
X138779500Y-133397648D01*
X138779500Y-133602351D01*
X138811522Y-133804534D01*
X138874781Y-133999223D01*
X138967715Y-134181613D01*
X139088028Y-134347213D01*
X139232786Y-134491971D01*
X139387749Y-134604556D01*
X139398390Y-134612287D01*
X139514607Y-134671503D01*
X139580776Y-134705218D01*
X139580778Y-134705218D01*
X139580781Y-134705220D01*
X139685137Y-134739127D01*
X139775465Y-134768477D01*
X139876557Y-134784488D01*
X139977648Y-134800500D01*
X139977649Y-134800500D01*
X140182351Y-134800500D01*
X140182352Y-134800500D01*
X140384534Y-134768477D01*
X140579219Y-134705220D01*
X140761610Y-134612287D01*
X140854590Y-134544732D01*
X140927213Y-134491971D01*
X140927215Y-134491968D01*
X140927219Y-134491966D01*
X141071966Y-134347219D01*
X141071968Y-134347215D01*
X141071971Y-134347213D01*
X141124732Y-134274590D01*
X141192287Y-134181610D01*
X141285220Y-133999219D01*
X141348477Y-133804534D01*
X141352948Y-133776306D01*
X141368322Y-133679240D01*
X141380500Y-133602351D01*
X141380500Y-133397648D01*
X141348477Y-133195469D01*
X141348477Y-133195466D01*
X141343826Y-133181154D01*
X141343392Y-133165943D01*
X141338074Y-133151684D01*
X141342415Y-133131728D01*
X141341832Y-133111315D01*
X141349920Y-133097228D01*
X141352926Y-133083411D01*
X141374073Y-133055161D01*
X141492417Y-132936817D01*
X141553739Y-132903334D01*
X141580097Y-132900500D01*
X144936000Y-132900500D01*
X145003039Y-132920185D01*
X145048794Y-132972989D01*
X145060000Y-133024500D01*
X145060000Y-133250000D01*
X146084722Y-133250000D01*
X146040667Y-133326306D01*
X146010000Y-133440756D01*
X146010000Y-133559244D01*
X146040667Y-133673694D01*
X146084722Y-133750000D01*
X145060000Y-133750000D01*
X145060000Y-134447844D01*
X145066401Y-134507372D01*
X145066403Y-134507379D01*
X145116645Y-134642086D01*
X145116649Y-134642093D01*
X145202809Y-134757187D01*
X145202812Y-134757190D01*
X145317906Y-134843350D01*
X145317913Y-134843354D01*
X145452620Y-134893596D01*
X145452627Y-134893598D01*
X145512155Y-134899999D01*
X145512172Y-134900000D01*
X146210000Y-134900000D01*
X146210000Y-133875277D01*
X146286306Y-133919333D01*
X146400756Y-133950000D01*
X146519244Y-133950000D01*
X146633694Y-133919333D01*
X146710000Y-133875277D01*
X146710000Y-134900000D01*
X147407828Y-134900000D01*
X147407844Y-134899999D01*
X147467372Y-134893598D01*
X147467379Y-134893596D01*
X147602086Y-134843354D01*
X147602093Y-134843350D01*
X147717187Y-134757190D01*
X147717190Y-134757187D01*
X147803350Y-134642093D01*
X147803354Y-134642086D01*
X147833213Y-134562031D01*
X147875084Y-134506097D01*
X147940548Y-134481680D01*
X148008821Y-134496531D01*
X148037076Y-134517683D01*
X148087636Y-134568243D01*
X148087641Y-134568247D01*
X148243192Y-134681260D01*
X148265978Y-134697815D01*
X148382501Y-134757187D01*
X148462393Y-134797895D01*
X148462396Y-134797896D01*
X148567221Y-134831955D01*
X148672049Y-134866015D01*
X148889778Y-134900500D01*
X148889779Y-134900500D01*
X149110221Y-134900500D01*
X149110222Y-134900500D01*
X149327951Y-134866015D01*
X149537606Y-134797895D01*
X149734022Y-134697815D01*
X149912365Y-134568242D01*
X150068242Y-134412365D01*
X150197815Y-134234022D01*
X150297895Y-134037606D01*
X150366015Y-133827951D01*
X150400500Y-133610222D01*
X150400500Y-133389778D01*
X150366015Y-133172049D01*
X150328035Y-133055156D01*
X150297896Y-132962396D01*
X150297895Y-132962393D01*
X150263237Y-132894375D01*
X150197815Y-132765978D01*
X150115573Y-132652781D01*
X150068247Y-132587641D01*
X150068243Y-132587636D01*
X149912363Y-132431756D01*
X149912358Y-132431752D01*
X149734025Y-132302187D01*
X149734024Y-132302186D01*
X149734022Y-132302185D01*
X149604468Y-132236173D01*
X149537606Y-132202104D01*
X149537603Y-132202103D01*
X149327952Y-132133985D01*
X149219086Y-132116742D01*
X149110222Y-132099500D01*
X148889778Y-132099500D01*
X148846232Y-132106397D01*
X148672045Y-132133985D01*
X148601794Y-132156811D01*
X148531953Y-132158806D01*
X148475796Y-132126561D01*
X148287590Y-131938355D01*
X148287588Y-131938352D01*
X148168717Y-131819481D01*
X148168716Y-131819480D01*
X148081904Y-131769360D01*
X148081904Y-131769359D01*
X148081900Y-131769358D01*
X148031785Y-131740423D01*
X147879057Y-131699499D01*
X147720943Y-131699499D01*
X147713347Y-131699499D01*
X147713331Y-131699500D01*
X141359057Y-131699500D01*
X141200942Y-131699500D01*
X141048215Y-131740423D01*
X141048214Y-131740423D01*
X141048212Y-131740424D01*
X141048209Y-131740425D01*
X140998096Y-131769359D01*
X140998095Y-131769360D01*
X140954689Y-131794420D01*
X140911285Y-131819479D01*
X140911282Y-131819481D01*
X140799478Y-131931286D01*
X140524842Y-132205921D01*
X140463519Y-132239406D01*
X140398848Y-132236173D01*
X140384534Y-132231522D01*
X140198799Y-132202105D01*
X140182352Y-132199500D01*
X139977648Y-132199500D01*
X139961201Y-132202105D01*
X139775465Y-132231522D01*
X139580776Y-132294781D01*
X139398386Y-132387715D01*
X139232786Y-132508028D01*
X139088028Y-132652786D01*
X138967715Y-132818386D01*
X138874781Y-133000776D01*
X138811522Y-133195465D01*
X138779500Y-133397648D01*
X131220500Y-133397648D01*
X131188477Y-133195465D01*
X131152068Y-133083411D01*
X131125220Y-133000781D01*
X131125218Y-133000778D01*
X131125218Y-133000776D01*
X131074124Y-132900500D01*
X131032287Y-132818390D01*
X130994205Y-132765974D01*
X130911971Y-132652786D01*
X130767213Y-132508028D01*
X130601613Y-132387715D01*
X130601612Y-132387714D01*
X130601610Y-132387713D01*
X130544653Y-132358691D01*
X130419223Y-132294781D01*
X130224534Y-132231522D01*
X130038799Y-132202105D01*
X130022352Y-132199500D01*
X129817648Y-132199500D01*
X129801201Y-132202105D01*
X129615465Y-132231522D01*
X129420776Y-132294781D01*
X129238386Y-132387715D01*
X129072786Y-132508028D01*
X128928028Y-132652786D01*
X128807715Y-132818386D01*
X128714781Y-133000776D01*
X128651522Y-133195465D01*
X128619500Y-133397648D01*
X101000500Y-133397648D01*
X101000500Y-124897648D01*
X128619500Y-124897648D01*
X128619500Y-125102351D01*
X128651522Y-125304534D01*
X128714781Y-125499223D01*
X128807715Y-125681613D01*
X128928028Y-125847213D01*
X129072786Y-125991971D01*
X129227749Y-126104556D01*
X129238390Y-126112287D01*
X129354607Y-126171503D01*
X129420776Y-126205218D01*
X129420778Y-126205218D01*
X129420781Y-126205220D01*
X129525137Y-126239127D01*
X129615465Y-126268477D01*
X129716557Y-126284488D01*
X129817648Y-126300500D01*
X129817649Y-126300500D01*
X130022351Y-126300500D01*
X130022352Y-126300500D01*
X130224534Y-126268477D01*
X130419219Y-126205220D01*
X130601610Y-126112287D01*
X130694590Y-126044732D01*
X130767213Y-125991971D01*
X130767215Y-125991968D01*
X130767219Y-125991966D01*
X130911966Y-125847219D01*
X130911968Y-125847215D01*
X130911971Y-125847213D01*
X130964732Y-125774590D01*
X131032287Y-125681610D01*
X131125220Y-125499219D01*
X131188477Y-125304534D01*
X131220500Y-125102352D01*
X131220500Y-124897648D01*
X138779500Y-124897648D01*
X138779500Y-125102351D01*
X138811522Y-125304534D01*
X138874781Y-125499223D01*
X138967715Y-125681613D01*
X139088028Y-125847213D01*
X139232786Y-125991971D01*
X139387749Y-126104556D01*
X139398390Y-126112287D01*
X139514607Y-126171503D01*
X139580776Y-126205218D01*
X139580778Y-126205218D01*
X139580781Y-126205220D01*
X139685137Y-126239127D01*
X139775465Y-126268477D01*
X139876557Y-126284488D01*
X139977648Y-126300500D01*
X139977649Y-126300500D01*
X140182351Y-126300500D01*
X140182352Y-126300500D01*
X140384534Y-126268477D01*
X140579219Y-126205220D01*
X140761610Y-126112287D01*
X140854590Y-126044732D01*
X140927213Y-125991971D01*
X140927215Y-125991968D01*
X140927219Y-125991966D01*
X141071966Y-125847219D01*
X141071968Y-125847215D01*
X141071971Y-125847213D01*
X141124732Y-125774590D01*
X141192287Y-125681610D01*
X141285220Y-125499219D01*
X141348477Y-125304534D01*
X141352948Y-125276306D01*
X141368322Y-125179240D01*
X141380500Y-125102351D01*
X141380500Y-124897648D01*
X141348477Y-124695469D01*
X141348477Y-124695466D01*
X141343826Y-124681154D01*
X141343392Y-124665943D01*
X141338074Y-124651684D01*
X141342415Y-124631728D01*
X141341832Y-124611315D01*
X141349920Y-124597228D01*
X141352926Y-124583411D01*
X141374073Y-124555161D01*
X141492417Y-124436817D01*
X141553739Y-124403334D01*
X141580097Y-124400500D01*
X144936000Y-124400500D01*
X145003039Y-124420185D01*
X145048794Y-124472989D01*
X145060000Y-124524500D01*
X145060000Y-124750000D01*
X146084722Y-124750000D01*
X146040667Y-124826306D01*
X146010000Y-124940756D01*
X146010000Y-125059244D01*
X146040667Y-125173694D01*
X146084722Y-125250000D01*
X145060000Y-125250000D01*
X145060000Y-125947844D01*
X145066401Y-126007372D01*
X145066403Y-126007379D01*
X145116645Y-126142086D01*
X145116649Y-126142093D01*
X145202809Y-126257187D01*
X145202812Y-126257190D01*
X145317906Y-126343350D01*
X145317913Y-126343354D01*
X145452620Y-126393596D01*
X145452627Y-126393598D01*
X145512155Y-126399999D01*
X145512172Y-126400000D01*
X146210000Y-126400000D01*
X146210000Y-125375277D01*
X146286306Y-125419333D01*
X146400756Y-125450000D01*
X146519244Y-125450000D01*
X146633694Y-125419333D01*
X146710000Y-125375277D01*
X146710000Y-126400000D01*
X147407828Y-126400000D01*
X147407844Y-126399999D01*
X147467372Y-126393598D01*
X147467379Y-126393596D01*
X147602086Y-126343354D01*
X147602093Y-126343350D01*
X147717187Y-126257190D01*
X147717190Y-126257187D01*
X147803350Y-126142093D01*
X147803354Y-126142086D01*
X147833213Y-126062031D01*
X147875084Y-126006097D01*
X147940548Y-125981680D01*
X148008821Y-125996531D01*
X148037076Y-126017683D01*
X148087636Y-126068243D01*
X148087641Y-126068247D01*
X148243192Y-126181260D01*
X148265978Y-126197815D01*
X148382501Y-126257187D01*
X148462393Y-126297895D01*
X148462396Y-126297896D01*
X148567221Y-126331955D01*
X148672049Y-126366015D01*
X148889778Y-126400500D01*
X148889779Y-126400500D01*
X149110221Y-126400500D01*
X149110222Y-126400500D01*
X149327951Y-126366015D01*
X149537606Y-126297895D01*
X149734022Y-126197815D01*
X149912365Y-126068242D01*
X150068242Y-125912365D01*
X150197815Y-125734022D01*
X150297895Y-125537606D01*
X150366015Y-125327951D01*
X150400500Y-125110222D01*
X150400500Y-124889778D01*
X150366015Y-124672049D01*
X150328035Y-124555156D01*
X150297896Y-124462396D01*
X150297895Y-124462393D01*
X150263237Y-124394375D01*
X150197815Y-124265978D01*
X150115573Y-124152781D01*
X150068247Y-124087641D01*
X150068243Y-124087636D01*
X149912363Y-123931756D01*
X149912358Y-123931752D01*
X149734025Y-123802187D01*
X149734024Y-123802186D01*
X149734022Y-123802185D01*
X149604468Y-123736173D01*
X149537606Y-123702104D01*
X149537603Y-123702103D01*
X149327952Y-123633985D01*
X149219086Y-123616742D01*
X149110222Y-123599500D01*
X148889778Y-123599500D01*
X148846232Y-123606397D01*
X148672045Y-123633985D01*
X148601794Y-123656811D01*
X148531953Y-123658806D01*
X148475796Y-123626561D01*
X148287590Y-123438355D01*
X148287588Y-123438352D01*
X148168717Y-123319481D01*
X148168716Y-123319480D01*
X148081904Y-123269360D01*
X148081904Y-123269359D01*
X148081900Y-123269358D01*
X148031785Y-123240423D01*
X147879057Y-123199499D01*
X147720943Y-123199499D01*
X147713347Y-123199499D01*
X147713331Y-123199500D01*
X141359057Y-123199500D01*
X141200942Y-123199500D01*
X141048215Y-123240423D01*
X141048214Y-123240423D01*
X141048212Y-123240424D01*
X141048209Y-123240425D01*
X140998096Y-123269359D01*
X140998095Y-123269360D01*
X140954689Y-123294420D01*
X140911285Y-123319479D01*
X140911282Y-123319481D01*
X140799478Y-123431286D01*
X140524842Y-123705921D01*
X140463519Y-123739406D01*
X140398848Y-123736173D01*
X140384534Y-123731522D01*
X140198799Y-123702105D01*
X140182352Y-123699500D01*
X139977648Y-123699500D01*
X139961201Y-123702105D01*
X139775465Y-123731522D01*
X139580776Y-123794781D01*
X139398386Y-123887715D01*
X139232786Y-124008028D01*
X139088028Y-124152786D01*
X138967715Y-124318386D01*
X138874781Y-124500776D01*
X138811522Y-124695465D01*
X138779500Y-124897648D01*
X131220500Y-124897648D01*
X131188477Y-124695465D01*
X131152068Y-124583411D01*
X131125220Y-124500781D01*
X131125218Y-124500778D01*
X131125218Y-124500776D01*
X131074124Y-124400500D01*
X131032287Y-124318390D01*
X130994205Y-124265974D01*
X130911971Y-124152786D01*
X130767213Y-124008028D01*
X130601613Y-123887715D01*
X130601612Y-123887714D01*
X130601610Y-123887713D01*
X130544653Y-123858691D01*
X130419223Y-123794781D01*
X130224534Y-123731522D01*
X130038799Y-123702105D01*
X130022352Y-123699500D01*
X129817648Y-123699500D01*
X129801201Y-123702105D01*
X129615465Y-123731522D01*
X129420776Y-123794781D01*
X129238386Y-123887715D01*
X129072786Y-124008028D01*
X128928028Y-124152786D01*
X128807715Y-124318386D01*
X128714781Y-124500776D01*
X128651522Y-124695465D01*
X128619500Y-124897648D01*
X101000500Y-124897648D01*
X101000500Y-69327135D01*
X104149500Y-69327135D01*
X104149500Y-71122870D01*
X104149501Y-71122876D01*
X104155908Y-71182483D01*
X104206202Y-71317328D01*
X104206206Y-71317335D01*
X104292452Y-71432544D01*
X104292455Y-71432547D01*
X104407664Y-71518793D01*
X104407671Y-71518797D01*
X104452618Y-71535561D01*
X104542517Y-71569091D01*
X104602127Y-71575500D01*
X104612685Y-71575499D01*
X104679723Y-71595179D01*
X104700372Y-71611818D01*
X105370591Y-72282037D01*
X105307007Y-72299075D01*
X105192993Y-72364901D01*
X105099901Y-72457993D01*
X105034075Y-72572007D01*
X105017037Y-72635591D01*
X104384728Y-72003282D01*
X104384727Y-72003282D01*
X104345380Y-72057439D01*
X104248904Y-72246782D01*
X104183242Y-72448869D01*
X104183242Y-72448872D01*
X104150000Y-72658753D01*
X104150000Y-72871246D01*
X104183242Y-73081127D01*
X104183242Y-73081130D01*
X104248904Y-73283217D01*
X104345375Y-73472550D01*
X104384728Y-73526716D01*
X105017037Y-72894408D01*
X105034075Y-72957993D01*
X105099901Y-73072007D01*
X105192993Y-73165099D01*
X105307007Y-73230925D01*
X105370589Y-73247962D01*
X104738282Y-73880269D01*
X104738282Y-73880270D01*
X104792449Y-73919624D01*
X104981782Y-74016095D01*
X105183870Y-74081757D01*
X105393754Y-74115000D01*
X105606246Y-74115000D01*
X105816127Y-74081757D01*
X105816133Y-74081756D01*
X105887180Y-74058671D01*
X105957021Y-74056674D01*
X106016855Y-74092754D01*
X106047684Y-74155455D01*
X106049500Y-74176601D01*
X106049500Y-105411859D01*
X106049499Y-105411877D01*
X106049499Y-105577583D01*
X106049498Y-105577583D01*
X106060914Y-105620186D01*
X106085586Y-105712264D01*
X106090424Y-105730316D01*
X106102032Y-105750421D01*
X106102033Y-105750423D01*
X106169477Y-105867241D01*
X106169481Y-105867246D01*
X106288349Y-105986114D01*
X106288355Y-105986119D01*
X119066610Y-118764374D01*
X119066620Y-118764385D01*
X119070950Y-118768715D01*
X119070951Y-118768716D01*
X119182755Y-118880520D01*
X119261469Y-118925965D01*
X119319686Y-118959577D01*
X119472413Y-119000500D01*
X119472414Y-119000500D01*
X120124724Y-119000500D01*
X120191763Y-119020185D01*
X120237518Y-119072989D01*
X120247462Y-119142147D01*
X120242655Y-119162817D01*
X120232011Y-119195574D01*
X120232010Y-119195581D01*
X120200000Y-119397682D01*
X120200000Y-119602317D01*
X120232009Y-119804417D01*
X120295244Y-119999031D01*
X120388141Y-120181350D01*
X120388147Y-120181359D01*
X120420523Y-120225921D01*
X120420524Y-120225922D01*
X121100000Y-119546446D01*
X121100000Y-119552661D01*
X121127259Y-119654394D01*
X121179920Y-119745606D01*
X121254394Y-119820080D01*
X121345606Y-119872741D01*
X121447339Y-119900000D01*
X121453553Y-119900000D01*
X120774076Y-120579474D01*
X120818650Y-120611859D01*
X121000968Y-120704755D01*
X121195582Y-120767990D01*
X121397683Y-120800000D01*
X121602317Y-120800000D01*
X121804417Y-120767990D01*
X121999031Y-120704755D01*
X122181349Y-120611859D01*
X122225921Y-120579474D01*
X121546447Y-119900000D01*
X121552661Y-119900000D01*
X121654394Y-119872741D01*
X121745606Y-119820080D01*
X121820080Y-119745606D01*
X121872741Y-119654394D01*
X121900000Y-119552661D01*
X121900000Y-119546447D01*
X122579474Y-120225921D01*
X122611859Y-120181349D01*
X122639233Y-120127624D01*
X122687207Y-120076827D01*
X122755028Y-120060031D01*
X122821163Y-120082567D01*
X122860203Y-120127621D01*
X122887713Y-120181611D01*
X123008028Y-120347213D01*
X123152786Y-120491971D01*
X123273226Y-120579474D01*
X123318390Y-120612287D01*
X123434607Y-120671503D01*
X123500776Y-120705218D01*
X123500778Y-120705218D01*
X123500781Y-120705220D01*
X123605137Y-120739127D01*
X123695465Y-120768477D01*
X123796557Y-120784488D01*
X123897648Y-120800500D01*
X123897649Y-120800500D01*
X124102351Y-120800500D01*
X124102352Y-120800500D01*
X124304534Y-120768477D01*
X124499219Y-120705220D01*
X124681610Y-120612287D01*
X124774590Y-120544732D01*
X124847213Y-120491971D01*
X124847215Y-120491968D01*
X124847219Y-120491966D01*
X124991966Y-120347219D01*
X124991968Y-120347215D01*
X124991971Y-120347213D01*
X125044732Y-120274590D01*
X125112287Y-120181610D01*
X125205220Y-119999219D01*
X125268477Y-119804534D01*
X125300500Y-119602352D01*
X125300500Y-119397648D01*
X125292257Y-119345606D01*
X125268477Y-119195465D01*
X125228682Y-119072989D01*
X125205220Y-119000781D01*
X125205218Y-119000778D01*
X125205218Y-119000776D01*
X125167098Y-118925963D01*
X125112287Y-118818390D01*
X125076195Y-118768713D01*
X124991971Y-118652786D01*
X124847213Y-118508028D01*
X124681613Y-118387715D01*
X124681612Y-118387714D01*
X124681610Y-118387713D01*
X124624653Y-118358691D01*
X124499223Y-118294781D01*
X124304534Y-118231522D01*
X124129995Y-118203878D01*
X124102352Y-118199500D01*
X123897648Y-118199500D01*
X123859599Y-118205526D01*
X123695468Y-118231522D01*
X123686717Y-118234365D01*
X123681154Y-118236173D01*
X123665941Y-118236607D01*
X123651684Y-118241925D01*
X123631729Y-118237584D01*
X123611313Y-118238167D01*
X123597226Y-118230078D01*
X123583411Y-118227073D01*
X123555157Y-118205922D01*
X123387590Y-118038355D01*
X123387588Y-118038352D01*
X123268717Y-117919481D01*
X123268716Y-117919480D01*
X123176111Y-117866015D01*
X123131785Y-117840423D01*
X122979057Y-117799499D01*
X122820943Y-117799499D01*
X122813347Y-117799499D01*
X122813331Y-117799500D01*
X119851568Y-117799500D01*
X119784529Y-117779815D01*
X119763887Y-117763181D01*
X118398354Y-116397648D01*
X128619500Y-116397648D01*
X128619500Y-116602351D01*
X128651522Y-116804534D01*
X128714781Y-116999223D01*
X128807715Y-117181613D01*
X128928028Y-117347213D01*
X129072786Y-117491971D01*
X129227749Y-117604556D01*
X129238390Y-117612287D01*
X129354607Y-117671503D01*
X129420776Y-117705218D01*
X129420778Y-117705218D01*
X129420781Y-117705220D01*
X129525137Y-117739127D01*
X129615465Y-117768477D01*
X129687050Y-117779815D01*
X129817648Y-117800500D01*
X129817649Y-117800500D01*
X130022351Y-117800500D01*
X130022352Y-117800500D01*
X130224534Y-117768477D01*
X130419219Y-117705220D01*
X130601610Y-117612287D01*
X130694590Y-117544732D01*
X130767213Y-117491971D01*
X130767215Y-117491968D01*
X130767219Y-117491966D01*
X130911966Y-117347219D01*
X130911968Y-117347215D01*
X130911971Y-117347213D01*
X130964732Y-117274590D01*
X131032287Y-117181610D01*
X131125220Y-116999219D01*
X131188477Y-116804534D01*
X131220500Y-116602352D01*
X131220500Y-116397648D01*
X138779500Y-116397648D01*
X138779500Y-116602351D01*
X138811522Y-116804534D01*
X138874781Y-116999223D01*
X138967715Y-117181613D01*
X139088028Y-117347213D01*
X139232786Y-117491971D01*
X139387749Y-117604556D01*
X139398390Y-117612287D01*
X139514607Y-117671503D01*
X139580776Y-117705218D01*
X139580778Y-117705218D01*
X139580781Y-117705220D01*
X139685137Y-117739127D01*
X139775465Y-117768477D01*
X139847050Y-117779815D01*
X139977648Y-117800500D01*
X139977649Y-117800500D01*
X140182351Y-117800500D01*
X140182352Y-117800500D01*
X140384534Y-117768477D01*
X140579219Y-117705220D01*
X140761610Y-117612287D01*
X140854590Y-117544732D01*
X140927213Y-117491971D01*
X140927215Y-117491968D01*
X140927219Y-117491966D01*
X141071966Y-117347219D01*
X141071968Y-117347215D01*
X141071971Y-117347213D01*
X141124732Y-117274590D01*
X141192287Y-117181610D01*
X141285220Y-116999219D01*
X141348477Y-116804534D01*
X141352948Y-116776306D01*
X141368322Y-116679240D01*
X141380500Y-116602351D01*
X141380500Y-116397648D01*
X141348477Y-116195469D01*
X141348477Y-116195466D01*
X141343826Y-116181154D01*
X141343392Y-116165943D01*
X141338074Y-116151684D01*
X141342415Y-116131728D01*
X141341832Y-116111315D01*
X141349920Y-116097228D01*
X141352926Y-116083411D01*
X141374073Y-116055161D01*
X141492417Y-115936817D01*
X141553739Y-115903334D01*
X141580097Y-115900500D01*
X144706000Y-115900500D01*
X144773039Y-115920185D01*
X144818794Y-115972989D01*
X144830000Y-116024500D01*
X144830000Y-116250000D01*
X145854722Y-116250000D01*
X145810667Y-116326306D01*
X145780000Y-116440756D01*
X145780000Y-116559244D01*
X145810667Y-116673694D01*
X145854722Y-116750000D01*
X144830000Y-116750000D01*
X144830000Y-117447844D01*
X144836401Y-117507372D01*
X144836403Y-117507379D01*
X144886645Y-117642086D01*
X144886649Y-117642093D01*
X144972809Y-117757187D01*
X144972812Y-117757190D01*
X145087906Y-117843350D01*
X145087913Y-117843354D01*
X145222620Y-117893596D01*
X145222627Y-117893598D01*
X145282155Y-117899999D01*
X145282172Y-117900000D01*
X145980000Y-117900000D01*
X145980000Y-116875277D01*
X146056306Y-116919333D01*
X146170756Y-116950000D01*
X146289244Y-116950000D01*
X146403694Y-116919333D01*
X146480000Y-116875277D01*
X146480000Y-117900000D01*
X147177828Y-117900000D01*
X147177844Y-117899999D01*
X147237372Y-117893598D01*
X147237379Y-117893596D01*
X147372086Y-117843354D01*
X147372093Y-117843350D01*
X147487187Y-117757190D01*
X147487190Y-117757187D01*
X147573350Y-117642093D01*
X147573354Y-117642086D01*
X147603213Y-117562031D01*
X147645084Y-117506097D01*
X147710548Y-117481680D01*
X147778821Y-117496531D01*
X147807076Y-117517683D01*
X147857636Y-117568243D01*
X147857641Y-117568247D01*
X148013192Y-117681260D01*
X148035978Y-117697815D01*
X148152501Y-117757187D01*
X148232393Y-117797895D01*
X148232396Y-117797896D01*
X148337221Y-117831955D01*
X148442049Y-117866015D01*
X148659778Y-117900500D01*
X148659779Y-117900500D01*
X148880221Y-117900500D01*
X148880222Y-117900500D01*
X149097951Y-117866015D01*
X149307606Y-117797895D01*
X149504022Y-117697815D01*
X149682365Y-117568242D01*
X149838242Y-117412365D01*
X149967815Y-117234022D01*
X150067895Y-117037606D01*
X150136015Y-116827951D01*
X150170500Y-116610222D01*
X150170500Y-116389778D01*
X150136015Y-116172049D01*
X150098035Y-116055156D01*
X150067896Y-115962396D01*
X150067895Y-115962393D01*
X150033237Y-115894375D01*
X149967815Y-115765978D01*
X149885573Y-115652781D01*
X149838247Y-115587641D01*
X149838243Y-115587636D01*
X149682363Y-115431756D01*
X149682358Y-115431752D01*
X149504025Y-115302187D01*
X149504024Y-115302186D01*
X149504022Y-115302185D01*
X149374468Y-115236173D01*
X149307606Y-115202104D01*
X149307603Y-115202103D01*
X149097952Y-115133985D01*
X148989086Y-115116742D01*
X148880222Y-115099500D01*
X148659778Y-115099500D01*
X148616232Y-115106397D01*
X148442045Y-115133985D01*
X148371794Y-115156811D01*
X148301953Y-115158806D01*
X148245796Y-115126561D01*
X148057590Y-114938355D01*
X148057588Y-114938352D01*
X147938717Y-114819481D01*
X147938716Y-114819480D01*
X147851904Y-114769360D01*
X147851904Y-114769359D01*
X147851900Y-114769358D01*
X147801785Y-114740423D01*
X147649057Y-114699499D01*
X147490943Y-114699499D01*
X147483347Y-114699499D01*
X147483331Y-114699500D01*
X141359057Y-114699500D01*
X141200942Y-114699500D01*
X141048215Y-114740423D01*
X141048214Y-114740423D01*
X141048212Y-114740424D01*
X141048209Y-114740425D01*
X140998096Y-114769359D01*
X140998095Y-114769360D01*
X140954689Y-114794420D01*
X140911285Y-114819479D01*
X140911282Y-114819481D01*
X140799478Y-114931286D01*
X140524842Y-115205921D01*
X140463519Y-115239406D01*
X140398848Y-115236173D01*
X140384534Y-115231522D01*
X140198799Y-115202105D01*
X140182352Y-115199500D01*
X139977648Y-115199500D01*
X139961201Y-115202105D01*
X139775465Y-115231522D01*
X139580776Y-115294781D01*
X139398386Y-115387715D01*
X139232786Y-115508028D01*
X139088028Y-115652786D01*
X138967715Y-115818386D01*
X138874781Y-116000776D01*
X138811522Y-116195465D01*
X138779500Y-116397648D01*
X131220500Y-116397648D01*
X131188477Y-116195465D01*
X131152068Y-116083411D01*
X131125220Y-116000781D01*
X131125218Y-116000778D01*
X131125218Y-116000776D01*
X131074124Y-115900500D01*
X131032287Y-115818390D01*
X130994205Y-115765974D01*
X130911971Y-115652786D01*
X130767213Y-115508028D01*
X130601613Y-115387715D01*
X130601612Y-115387714D01*
X130601610Y-115387713D01*
X130544653Y-115358691D01*
X130419223Y-115294781D01*
X130224534Y-115231522D01*
X130038799Y-115202105D01*
X130022352Y-115199500D01*
X129817648Y-115199500D01*
X129801201Y-115202105D01*
X129615465Y-115231522D01*
X129420776Y-115294781D01*
X129238386Y-115387715D01*
X129072786Y-115508028D01*
X128928028Y-115652786D01*
X128807715Y-115818386D01*
X128714781Y-116000776D01*
X128651522Y-116195465D01*
X128619500Y-116397648D01*
X118398354Y-116397648D01*
X116649369Y-114648663D01*
X116615884Y-114587340D01*
X116620868Y-114517648D01*
X116633946Y-114492094D01*
X116709394Y-114379179D01*
X116769737Y-114233497D01*
X116800500Y-114078842D01*
X116800500Y-113921158D01*
X116800500Y-113921155D01*
X116800499Y-113921153D01*
X116769738Y-113766510D01*
X116769737Y-113766503D01*
X116769735Y-113766498D01*
X116709397Y-113620827D01*
X116709390Y-113620814D01*
X116621398Y-113489125D01*
X116600520Y-113422447D01*
X116600500Y-113420234D01*
X116600500Y-108805096D01*
X116620185Y-108738057D01*
X116636815Y-108717419D01*
X116682820Y-108671414D01*
X116744142Y-108637930D01*
X116813834Y-108642914D01*
X116869767Y-108684786D01*
X116894184Y-108750250D01*
X116894500Y-108759096D01*
X116894500Y-108952351D01*
X116926522Y-109154534D01*
X116989781Y-109349223D01*
X117040032Y-109447844D01*
X117069713Y-109506097D01*
X117082715Y-109531613D01*
X117203028Y-109697213D01*
X117347786Y-109841971D01*
X117513385Y-109962284D01*
X117513387Y-109962285D01*
X117513390Y-109962287D01*
X117606080Y-110009515D01*
X117606630Y-110009795D01*
X117657426Y-110057770D01*
X117674221Y-110125591D01*
X117651684Y-110191725D01*
X117606630Y-110230765D01*
X117513644Y-110278143D01*
X117469077Y-110310523D01*
X117469077Y-110310524D01*
X118148554Y-110990000D01*
X118142339Y-110990000D01*
X118040606Y-111017259D01*
X117949394Y-111069920D01*
X117874920Y-111144394D01*
X117822259Y-111235606D01*
X117795000Y-111337339D01*
X117795000Y-111343553D01*
X117115524Y-110664077D01*
X117115523Y-110664077D01*
X117083143Y-110708644D01*
X116990244Y-110890968D01*
X116927009Y-111085582D01*
X116895000Y-111287682D01*
X116895000Y-111492317D01*
X116927009Y-111694417D01*
X116990244Y-111889031D01*
X117083141Y-112071350D01*
X117083147Y-112071359D01*
X117115523Y-112115921D01*
X117115524Y-112115922D01*
X117795000Y-111436446D01*
X117795000Y-111442661D01*
X117822259Y-111544394D01*
X117874920Y-111635606D01*
X117949394Y-111710080D01*
X118040606Y-111762741D01*
X118142339Y-111790000D01*
X118148553Y-111790000D01*
X117469076Y-112469474D01*
X117513650Y-112501859D01*
X117695968Y-112594755D01*
X117890582Y-112657990D01*
X118092683Y-112690000D01*
X118297317Y-112690000D01*
X118499417Y-112657990D01*
X118694031Y-112594755D01*
X118876349Y-112501859D01*
X118920921Y-112469474D01*
X118241447Y-111790000D01*
X118247661Y-111790000D01*
X118349394Y-111762741D01*
X118440606Y-111710080D01*
X118515080Y-111635606D01*
X118567741Y-111544394D01*
X118595000Y-111442661D01*
X118595000Y-111436448D01*
X119274474Y-112115922D01*
X119274474Y-112115921D01*
X119306859Y-112071349D01*
X119399755Y-111889031D01*
X119462990Y-111694417D01*
X119495000Y-111492317D01*
X119495000Y-111287682D01*
X119462990Y-111085582D01*
X119399755Y-110890968D01*
X119306859Y-110708650D01*
X119274474Y-110664077D01*
X119274474Y-110664076D01*
X118595000Y-111343551D01*
X118595000Y-111337339D01*
X118567741Y-111235606D01*
X118515080Y-111144394D01*
X118440606Y-111069920D01*
X118349394Y-111017259D01*
X118247661Y-110990000D01*
X118241446Y-110990000D01*
X118920922Y-110310524D01*
X118920921Y-110310523D01*
X118876359Y-110278147D01*
X118876350Y-110278141D01*
X118783369Y-110230765D01*
X118732573Y-110182790D01*
X118715778Y-110114969D01*
X118738315Y-110048835D01*
X118783370Y-110009795D01*
X118783920Y-110009515D01*
X118876610Y-109962287D01*
X118961653Y-109900500D01*
X119042213Y-109841971D01*
X119042215Y-109841968D01*
X119042219Y-109841966D01*
X119186966Y-109697219D01*
X119186968Y-109697215D01*
X119186971Y-109697213D01*
X119248674Y-109612284D01*
X119307287Y-109531610D01*
X119400220Y-109349219D01*
X119463477Y-109154534D01*
X119495500Y-108952352D01*
X119495500Y-108747648D01*
X119493981Y-108738057D01*
X119463477Y-108545465D01*
X119400218Y-108350776D01*
X119360698Y-108273215D01*
X119307287Y-108168390D01*
X119299556Y-108157749D01*
X119186971Y-108002786D01*
X119042213Y-107858028D01*
X118876614Y-107737715D01*
X118870006Y-107734348D01*
X118783917Y-107690483D01*
X118733123Y-107642511D01*
X118716328Y-107574690D01*
X118738865Y-107508555D01*
X118783917Y-107469516D01*
X118876610Y-107422287D01*
X118924195Y-107387715D01*
X119042213Y-107301971D01*
X119042215Y-107301968D01*
X119042219Y-107301966D01*
X119186966Y-107157219D01*
X119186968Y-107157215D01*
X119186971Y-107157213D01*
X119243451Y-107079474D01*
X119307287Y-106991610D01*
X119400220Y-106809219D01*
X119463477Y-106614534D01*
X119495500Y-106412352D01*
X119495500Y-106207648D01*
X119487065Y-106154394D01*
X119463477Y-106005465D01*
X119428445Y-105897648D01*
X119400220Y-105810781D01*
X119400218Y-105810778D01*
X119400218Y-105810776D01*
X119348562Y-105709397D01*
X119307287Y-105628390D01*
X119294851Y-105611273D01*
X119186971Y-105462786D01*
X119042213Y-105318028D01*
X118876614Y-105197715D01*
X118870006Y-105194348D01*
X118783917Y-105150483D01*
X118733123Y-105102511D01*
X118716328Y-105034690D01*
X118738865Y-104968555D01*
X118783917Y-104929516D01*
X118876610Y-104882287D01*
X118897770Y-104866913D01*
X119042213Y-104761971D01*
X119042215Y-104761968D01*
X119042219Y-104761966D01*
X119186966Y-104617219D01*
X119186968Y-104617215D01*
X119186971Y-104617213D01*
X119279608Y-104489707D01*
X119307287Y-104451610D01*
X119400220Y-104269219D01*
X119463477Y-104074534D01*
X119495500Y-103872352D01*
X119495500Y-103667648D01*
X119463477Y-103465466D01*
X119400220Y-103270781D01*
X119400218Y-103270778D01*
X119400218Y-103270776D01*
X119366503Y-103204607D01*
X119307287Y-103088390D01*
X119299556Y-103077749D01*
X119186971Y-102922786D01*
X119042213Y-102778028D01*
X118876614Y-102657715D01*
X118870006Y-102654348D01*
X118783917Y-102610483D01*
X118733123Y-102562511D01*
X118716328Y-102494690D01*
X118738865Y-102428555D01*
X118783917Y-102389516D01*
X118876610Y-102342287D01*
X118921774Y-102309474D01*
X119042213Y-102221971D01*
X119042215Y-102221968D01*
X119042219Y-102221966D01*
X119186966Y-102077219D01*
X119186968Y-102077215D01*
X119186971Y-102077213D01*
X119239732Y-102004590D01*
X119307287Y-101911610D01*
X119400220Y-101729219D01*
X119463477Y-101534534D01*
X119495500Y-101332352D01*
X119495500Y-101127648D01*
X119475129Y-100999031D01*
X119463477Y-100925465D01*
X119411162Y-100764457D01*
X119400220Y-100730781D01*
X119400218Y-100730778D01*
X119400218Y-100730776D01*
X119361299Y-100654394D01*
X119307287Y-100548390D01*
X119275092Y-100504077D01*
X119186971Y-100382786D01*
X119042213Y-100238028D01*
X118876614Y-100117715D01*
X118841846Y-100100000D01*
X118783917Y-100070483D01*
X118733123Y-100022511D01*
X118716328Y-99954690D01*
X118738865Y-99888555D01*
X118783917Y-99849516D01*
X118876610Y-99802287D01*
X118915438Y-99774077D01*
X119042213Y-99681971D01*
X119042215Y-99681968D01*
X119042219Y-99681966D01*
X119186966Y-99537219D01*
X119186968Y-99537215D01*
X119186971Y-99537213D01*
X119263587Y-99431758D01*
X119307287Y-99371610D01*
X119400220Y-99189219D01*
X119463477Y-98994534D01*
X119495500Y-98792352D01*
X119495500Y-98587648D01*
X119475000Y-98458216D01*
X119463477Y-98385465D01*
X119400218Y-98190776D01*
X119366503Y-98124607D01*
X119307287Y-98008390D01*
X119299556Y-97997749D01*
X119186971Y-97842786D01*
X119042213Y-97698028D01*
X118876614Y-97577715D01*
X118870006Y-97574348D01*
X118783917Y-97530483D01*
X118733123Y-97482511D01*
X118716328Y-97414690D01*
X118738865Y-97348555D01*
X118783917Y-97309516D01*
X118876610Y-97262287D01*
X118921774Y-97229474D01*
X119042213Y-97141971D01*
X119042215Y-97141968D01*
X119042219Y-97141966D01*
X119186966Y-96997219D01*
X119186968Y-96997215D01*
X119186971Y-96997213D01*
X119239732Y-96924590D01*
X119307287Y-96831610D01*
X119400220Y-96649219D01*
X119463477Y-96454534D01*
X119495500Y-96252352D01*
X119495500Y-96047648D01*
X119487257Y-95995606D01*
X119463477Y-95845465D01*
X119432458Y-95750000D01*
X119400220Y-95650781D01*
X119400218Y-95650778D01*
X119400218Y-95650776D01*
X119307419Y-95468650D01*
X119307287Y-95468390D01*
X119275092Y-95424077D01*
X119186971Y-95302786D01*
X119042219Y-95158034D01*
X119042211Y-95158028D01*
X118948547Y-95089978D01*
X118905882Y-95034649D01*
X118899903Y-94965036D01*
X118932508Y-94903240D01*
X118982426Y-94871955D01*
X119064334Y-94844814D01*
X119213656Y-94752712D01*
X119337712Y-94628656D01*
X119429814Y-94479334D01*
X119484999Y-94312797D01*
X119495500Y-94210009D01*
X119495499Y-93519094D01*
X119515183Y-93452057D01*
X119567987Y-93406302D01*
X119637146Y-93396358D01*
X119700702Y-93425383D01*
X119707180Y-93431415D01*
X124520922Y-98245157D01*
X124554407Y-98306480D01*
X124551173Y-98371155D01*
X124546522Y-98385468D01*
X124514500Y-98587648D01*
X124514500Y-98792351D01*
X124546522Y-98994534D01*
X124609781Y-99189223D01*
X124702715Y-99371613D01*
X124823028Y-99537213D01*
X124967786Y-99681971D01*
X125133385Y-99802284D01*
X125133387Y-99802285D01*
X125133390Y-99802287D01*
X125226080Y-99849515D01*
X125226630Y-99849795D01*
X125277426Y-99897770D01*
X125294221Y-99965591D01*
X125271684Y-100031725D01*
X125226630Y-100070765D01*
X125133644Y-100118143D01*
X125089077Y-100150523D01*
X125089077Y-100150524D01*
X125768554Y-100830000D01*
X125762339Y-100830000D01*
X125660606Y-100857259D01*
X125569394Y-100909920D01*
X125494920Y-100984394D01*
X125442259Y-101075606D01*
X125415000Y-101177339D01*
X125415000Y-101183553D01*
X124735524Y-100504077D01*
X124735523Y-100504077D01*
X124703143Y-100548644D01*
X124610244Y-100730968D01*
X124547009Y-100925582D01*
X124515000Y-101127682D01*
X124515000Y-101332317D01*
X124547009Y-101534417D01*
X124610244Y-101729031D01*
X124703141Y-101911350D01*
X124703147Y-101911359D01*
X124735523Y-101955921D01*
X124735524Y-101955922D01*
X125415000Y-101276446D01*
X125415000Y-101282661D01*
X125442259Y-101384394D01*
X125494920Y-101475606D01*
X125569394Y-101550080D01*
X125660606Y-101602741D01*
X125762339Y-101630000D01*
X125768553Y-101630000D01*
X125089076Y-102309474D01*
X125133652Y-102341861D01*
X125226628Y-102389234D01*
X125277425Y-102437208D01*
X125294220Y-102505029D01*
X125271683Y-102571164D01*
X125226630Y-102610203D01*
X125133388Y-102657713D01*
X124967786Y-102778028D01*
X124823028Y-102922786D01*
X124702715Y-103088386D01*
X124609781Y-103270776D01*
X124546522Y-103465465D01*
X124514500Y-103667648D01*
X124514500Y-103872351D01*
X124546522Y-104074534D01*
X124609781Y-104269223D01*
X124702715Y-104451613D01*
X124823028Y-104617213D01*
X124967786Y-104761971D01*
X125122749Y-104874556D01*
X125133390Y-104882287D01*
X125209669Y-104921153D01*
X125226080Y-104929515D01*
X125276876Y-104977490D01*
X125293671Y-105045311D01*
X125271134Y-105111446D01*
X125226080Y-105150485D01*
X125133386Y-105197715D01*
X124967786Y-105318028D01*
X124823028Y-105462786D01*
X124702715Y-105628386D01*
X124609781Y-105810776D01*
X124546522Y-106005465D01*
X124514500Y-106207648D01*
X124514500Y-106412351D01*
X124546522Y-106614534D01*
X124609781Y-106809223D01*
X124702715Y-106991613D01*
X124823028Y-107157213D01*
X124967786Y-107301971D01*
X125085805Y-107387715D01*
X125133390Y-107422287D01*
X125224840Y-107468883D01*
X125226080Y-107469515D01*
X125276876Y-107517490D01*
X125293671Y-107585311D01*
X125271134Y-107651446D01*
X125226080Y-107690485D01*
X125133386Y-107737715D01*
X124967786Y-107858028D01*
X124823028Y-108002786D01*
X124702715Y-108168386D01*
X124609781Y-108350776D01*
X124546522Y-108545465D01*
X124514500Y-108747648D01*
X124514500Y-108952351D01*
X124546522Y-109154534D01*
X124609781Y-109349223D01*
X124660032Y-109447844D01*
X124689713Y-109506097D01*
X124702715Y-109531613D01*
X124823028Y-109697213D01*
X124967786Y-109841971D01*
X125122749Y-109954556D01*
X125133390Y-109962287D01*
X125224840Y-110008883D01*
X125226080Y-110009515D01*
X125276876Y-110057490D01*
X125293671Y-110125311D01*
X125271134Y-110191446D01*
X125226080Y-110230485D01*
X125133386Y-110277715D01*
X124967786Y-110398028D01*
X124823028Y-110542786D01*
X124702715Y-110708386D01*
X124609781Y-110890776D01*
X124546522Y-111085465D01*
X124514500Y-111287648D01*
X124514500Y-111492351D01*
X124546522Y-111694534D01*
X124609781Y-111889223D01*
X124673691Y-112014653D01*
X124702585Y-112071359D01*
X124702715Y-112071613D01*
X124823028Y-112237213D01*
X124967786Y-112381971D01*
X125088226Y-112469474D01*
X125133390Y-112502287D01*
X125249607Y-112561503D01*
X125315776Y-112595218D01*
X125315778Y-112595218D01*
X125315781Y-112595220D01*
X125420137Y-112629127D01*
X125510465Y-112658477D01*
X125611557Y-112674488D01*
X125712648Y-112690500D01*
X125712649Y-112690500D01*
X125917351Y-112690500D01*
X125917352Y-112690500D01*
X126119534Y-112658477D01*
X126314219Y-112595220D01*
X126496610Y-112502287D01*
X126589590Y-112434732D01*
X126662213Y-112381971D01*
X126662215Y-112381968D01*
X126662219Y-112381966D01*
X126806966Y-112237219D01*
X126806968Y-112237215D01*
X126806971Y-112237213D01*
X126859732Y-112164590D01*
X126927287Y-112071610D01*
X127020220Y-111889219D01*
X127083477Y-111694534D01*
X127115500Y-111492352D01*
X127115500Y-111287648D01*
X127107257Y-111235606D01*
X127083477Y-111085465D01*
X127052458Y-110990000D01*
X127020220Y-110890781D01*
X127020218Y-110890778D01*
X127020218Y-110890776D01*
X126927419Y-110708650D01*
X126927287Y-110708390D01*
X126895092Y-110664077D01*
X126806971Y-110542786D01*
X126662213Y-110398028D01*
X126496614Y-110277715D01*
X126490006Y-110274348D01*
X126403917Y-110230483D01*
X126353123Y-110182511D01*
X126336328Y-110114690D01*
X126358865Y-110048555D01*
X126403917Y-110009516D01*
X126496610Y-109962287D01*
X126517770Y-109946913D01*
X126662213Y-109841971D01*
X126662215Y-109841968D01*
X126662219Y-109841966D01*
X126806966Y-109697219D01*
X126806968Y-109697215D01*
X126806971Y-109697213D01*
X126868674Y-109612284D01*
X126927287Y-109531610D01*
X127020220Y-109349219D01*
X127083477Y-109154534D01*
X127115500Y-108952352D01*
X127115500Y-108747648D01*
X127113981Y-108738057D01*
X127083477Y-108545465D01*
X127068704Y-108500000D01*
X127035448Y-108397648D01*
X129119500Y-108397648D01*
X129119500Y-108602351D01*
X129151522Y-108804534D01*
X129214781Y-108999223D01*
X129307715Y-109181613D01*
X129428028Y-109347213D01*
X129572786Y-109491971D01*
X129727749Y-109604556D01*
X129738390Y-109612287D01*
X129854607Y-109671503D01*
X129920776Y-109705218D01*
X129920778Y-109705218D01*
X129920781Y-109705220D01*
X130025137Y-109739127D01*
X130115465Y-109768477D01*
X130216557Y-109784488D01*
X130317648Y-109800500D01*
X130317649Y-109800500D01*
X130522351Y-109800500D01*
X130522352Y-109800500D01*
X130724534Y-109768477D01*
X130919219Y-109705220D01*
X131101610Y-109612287D01*
X131212653Y-109531610D01*
X131267213Y-109491971D01*
X131267215Y-109491968D01*
X131267219Y-109491966D01*
X131411966Y-109347219D01*
X131411968Y-109347215D01*
X131411971Y-109347213D01*
X131464732Y-109274590D01*
X131532287Y-109181610D01*
X131625220Y-108999219D01*
X131688477Y-108804534D01*
X131720500Y-108602352D01*
X131720500Y-108397648D01*
X139279500Y-108397648D01*
X139279500Y-108602351D01*
X139311522Y-108804534D01*
X139374781Y-108999223D01*
X139467715Y-109181613D01*
X139588028Y-109347213D01*
X139732786Y-109491971D01*
X139887749Y-109604556D01*
X139898390Y-109612287D01*
X140014607Y-109671503D01*
X140080776Y-109705218D01*
X140080778Y-109705218D01*
X140080781Y-109705220D01*
X140185137Y-109739127D01*
X140275465Y-109768477D01*
X140376557Y-109784488D01*
X140477648Y-109800500D01*
X140477649Y-109800500D01*
X140682351Y-109800500D01*
X140682352Y-109800500D01*
X140884534Y-109768477D01*
X141079219Y-109705220D01*
X141261610Y-109612287D01*
X141372653Y-109531610D01*
X141427213Y-109491971D01*
X141427215Y-109491968D01*
X141427219Y-109491966D01*
X141571966Y-109347219D01*
X141571968Y-109347215D01*
X141571971Y-109347213D01*
X141624732Y-109274590D01*
X141692287Y-109181610D01*
X141785220Y-108999219D01*
X141848477Y-108804534D01*
X141857075Y-108750250D01*
X141868322Y-108679240D01*
X141871647Y-108658245D01*
X141880500Y-108602352D01*
X141880500Y-108397648D01*
X141848477Y-108195466D01*
X141843826Y-108181154D01*
X141843392Y-108165943D01*
X141838074Y-108151684D01*
X141842415Y-108131728D01*
X141841832Y-108111315D01*
X141849920Y-108097228D01*
X141852926Y-108083411D01*
X141874073Y-108055161D01*
X141992417Y-107936817D01*
X142053739Y-107903334D01*
X142080097Y-107900500D01*
X144701000Y-107900500D01*
X144768039Y-107920185D01*
X144813794Y-107972989D01*
X144825000Y-108024500D01*
X144825000Y-108250000D01*
X145849722Y-108250000D01*
X145805667Y-108326306D01*
X145775000Y-108440756D01*
X145775000Y-108559244D01*
X145805667Y-108673694D01*
X145849722Y-108750000D01*
X144825000Y-108750000D01*
X144825000Y-109447844D01*
X144831401Y-109507372D01*
X144831403Y-109507379D01*
X144881645Y-109642086D01*
X144881649Y-109642093D01*
X144967809Y-109757187D01*
X144967812Y-109757190D01*
X145082906Y-109843350D01*
X145082913Y-109843354D01*
X145217620Y-109893596D01*
X145217627Y-109893598D01*
X145277155Y-109899999D01*
X145277172Y-109900000D01*
X145975000Y-109900000D01*
X145975000Y-108875277D01*
X146051306Y-108919333D01*
X146165756Y-108950000D01*
X146284244Y-108950000D01*
X146398694Y-108919333D01*
X146475000Y-108875277D01*
X146475000Y-109900000D01*
X147172828Y-109900000D01*
X147172844Y-109899999D01*
X147232372Y-109893598D01*
X147232379Y-109893596D01*
X147367086Y-109843354D01*
X147367093Y-109843350D01*
X147482187Y-109757190D01*
X147482190Y-109757187D01*
X147568350Y-109642093D01*
X147568354Y-109642086D01*
X147598213Y-109562031D01*
X147640084Y-109506097D01*
X147705548Y-109481680D01*
X147773821Y-109496531D01*
X147802076Y-109517683D01*
X147852636Y-109568243D01*
X147852641Y-109568247D01*
X148008192Y-109681260D01*
X148030978Y-109697815D01*
X148147501Y-109757187D01*
X148227393Y-109797895D01*
X148227396Y-109797896D01*
X148332221Y-109831955D01*
X148437049Y-109866015D01*
X148654778Y-109900500D01*
X148654779Y-109900500D01*
X148875221Y-109900500D01*
X148875222Y-109900500D01*
X149092951Y-109866015D01*
X149302606Y-109797895D01*
X149499022Y-109697815D01*
X149677365Y-109568242D01*
X149833242Y-109412365D01*
X149962815Y-109234022D01*
X150062895Y-109037606D01*
X150131015Y-108827951D01*
X150165500Y-108610222D01*
X150165500Y-108389778D01*
X150131015Y-108172049D01*
X150093035Y-108055156D01*
X150062896Y-107962396D01*
X150062895Y-107962393D01*
X150009717Y-107858028D01*
X149962815Y-107765978D01*
X149942279Y-107737713D01*
X149833247Y-107587641D01*
X149833243Y-107587636D01*
X149677363Y-107431756D01*
X149677358Y-107431752D01*
X149499025Y-107302187D01*
X149499024Y-107302186D01*
X149499022Y-107302185D01*
X149369468Y-107236173D01*
X149302606Y-107202104D01*
X149302603Y-107202103D01*
X149092952Y-107133985D01*
X148984086Y-107116742D01*
X148875222Y-107099500D01*
X148654778Y-107099500D01*
X148611232Y-107106397D01*
X148437045Y-107133985D01*
X148366794Y-107156811D01*
X148296953Y-107158806D01*
X148240796Y-107126561D01*
X148052590Y-106938355D01*
X148052588Y-106938352D01*
X147933717Y-106819481D01*
X147933716Y-106819480D01*
X147846904Y-106769360D01*
X147846904Y-106769359D01*
X147846900Y-106769358D01*
X147796785Y-106740423D01*
X147644057Y-106699499D01*
X147485943Y-106699499D01*
X147478347Y-106699499D01*
X147478331Y-106699500D01*
X141859057Y-106699500D01*
X141700942Y-106699500D01*
X141548215Y-106740423D01*
X141548214Y-106740423D01*
X141548212Y-106740424D01*
X141548209Y-106740425D01*
X141498096Y-106769359D01*
X141498095Y-106769360D01*
X141454689Y-106794420D01*
X141411285Y-106819479D01*
X141411282Y-106819481D01*
X141299478Y-106931286D01*
X141024842Y-107205921D01*
X140963519Y-107239406D01*
X140898848Y-107236173D01*
X140884534Y-107231522D01*
X140698799Y-107202105D01*
X140682352Y-107199500D01*
X140477648Y-107199500D01*
X140461201Y-107202105D01*
X140275465Y-107231522D01*
X140080776Y-107294781D01*
X139898386Y-107387715D01*
X139732786Y-107508028D01*
X139588028Y-107652786D01*
X139467715Y-107818386D01*
X139374781Y-108000776D01*
X139311523Y-108195464D01*
X139279500Y-108397648D01*
X131720500Y-108397648D01*
X131688477Y-108195466D01*
X131688476Y-108195464D01*
X131688477Y-108195464D01*
X131648380Y-108072062D01*
X131625220Y-108000781D01*
X131625218Y-108000778D01*
X131625218Y-108000776D01*
X131574124Y-107900500D01*
X131532287Y-107818390D01*
X131473674Y-107737715D01*
X131411971Y-107652786D01*
X131267213Y-107508028D01*
X131101613Y-107387715D01*
X131101612Y-107387714D01*
X131101610Y-107387713D01*
X131044653Y-107358691D01*
X130919223Y-107294781D01*
X130724534Y-107231522D01*
X130538799Y-107202105D01*
X130522352Y-107199500D01*
X130317648Y-107199500D01*
X130301201Y-107202105D01*
X130115465Y-107231522D01*
X129920776Y-107294781D01*
X129738386Y-107387715D01*
X129572786Y-107508028D01*
X129428028Y-107652786D01*
X129307715Y-107818386D01*
X129214781Y-108000776D01*
X129151523Y-108195464D01*
X129119500Y-108397648D01*
X127035448Y-108397648D01*
X127020220Y-108350781D01*
X126927287Y-108168390D01*
X126919556Y-108157749D01*
X126806971Y-108002786D01*
X126662213Y-107858028D01*
X126496614Y-107737715D01*
X126490006Y-107734348D01*
X126403917Y-107690483D01*
X126353123Y-107642511D01*
X126336328Y-107574690D01*
X126358865Y-107508555D01*
X126403917Y-107469516D01*
X126496610Y-107422287D01*
X126544195Y-107387715D01*
X126662213Y-107301971D01*
X126662215Y-107301968D01*
X126662219Y-107301966D01*
X126806966Y-107157219D01*
X126806968Y-107157215D01*
X126806971Y-107157213D01*
X126863451Y-107079474D01*
X126927287Y-106991610D01*
X127020220Y-106809219D01*
X127083477Y-106614534D01*
X127115500Y-106412352D01*
X127115500Y-106207648D01*
X127107065Y-106154394D01*
X127083477Y-106005465D01*
X127048445Y-105897648D01*
X127020220Y-105810781D01*
X127020218Y-105810778D01*
X127020218Y-105810776D01*
X126968562Y-105709397D01*
X126927287Y-105628390D01*
X126914851Y-105611273D01*
X126806971Y-105462786D01*
X126662213Y-105318028D01*
X126496614Y-105197715D01*
X126490006Y-105194348D01*
X126403917Y-105150483D01*
X126353123Y-105102511D01*
X126336328Y-105034690D01*
X126358865Y-104968555D01*
X126403917Y-104929516D01*
X126496610Y-104882287D01*
X126517770Y-104866913D01*
X126662213Y-104761971D01*
X126662215Y-104761968D01*
X126662219Y-104761966D01*
X126806966Y-104617219D01*
X126806968Y-104617215D01*
X126806971Y-104617213D01*
X126899608Y-104489707D01*
X126927287Y-104451610D01*
X127020220Y-104269219D01*
X127083477Y-104074534D01*
X127115500Y-103872352D01*
X127115500Y-103667648D01*
X127083477Y-103465466D01*
X127020220Y-103270781D01*
X127020218Y-103270778D01*
X127020218Y-103270776D01*
X126986503Y-103204607D01*
X126927287Y-103088390D01*
X126919556Y-103077749D01*
X126806971Y-102922786D01*
X126662213Y-102778028D01*
X126496611Y-102657713D01*
X126403369Y-102610203D01*
X126352574Y-102562229D01*
X126335779Y-102494407D01*
X126358317Y-102428273D01*
X126403371Y-102389234D01*
X126496346Y-102341861D01*
X126496347Y-102341861D01*
X126540921Y-102309474D01*
X125861447Y-101630000D01*
X125867661Y-101630000D01*
X125969394Y-101602741D01*
X126060606Y-101550080D01*
X126135080Y-101475606D01*
X126187741Y-101384394D01*
X126215000Y-101282661D01*
X126215000Y-101276448D01*
X126894474Y-101955922D01*
X126894474Y-101955921D01*
X126926859Y-101911349D01*
X127019755Y-101729031D01*
X127082990Y-101534417D01*
X127115000Y-101332317D01*
X127115000Y-101127682D01*
X127082990Y-100925582D01*
X127019755Y-100730968D01*
X126926859Y-100548650D01*
X126894474Y-100504077D01*
X126894474Y-100504076D01*
X126215000Y-101183551D01*
X126215000Y-101177339D01*
X126187741Y-101075606D01*
X126135080Y-100984394D01*
X126060606Y-100909920D01*
X125969394Y-100857259D01*
X125867661Y-100830000D01*
X125861446Y-100830000D01*
X126293798Y-100397648D01*
X129119500Y-100397648D01*
X129119500Y-100602351D01*
X129151522Y-100804534D01*
X129214781Y-100999223D01*
X129307715Y-101181613D01*
X129428028Y-101347213D01*
X129572786Y-101491971D01*
X129725251Y-101602741D01*
X129738390Y-101612287D01*
X129854607Y-101671503D01*
X129920776Y-101705218D01*
X129920778Y-101705218D01*
X129920781Y-101705220D01*
X129994655Y-101729223D01*
X130115465Y-101768477D01*
X130216557Y-101784488D01*
X130317648Y-101800500D01*
X130317649Y-101800500D01*
X130522351Y-101800500D01*
X130522352Y-101800500D01*
X130724534Y-101768477D01*
X130919219Y-101705220D01*
X131101610Y-101612287D01*
X131230482Y-101518657D01*
X131267213Y-101491971D01*
X131267215Y-101491968D01*
X131267219Y-101491966D01*
X131411966Y-101347219D01*
X131411968Y-101347215D01*
X131411971Y-101347213D01*
X131464732Y-101274590D01*
X131532287Y-101181610D01*
X131625220Y-100999219D01*
X131688477Y-100804534D01*
X131720500Y-100602352D01*
X131720500Y-100397648D01*
X139279500Y-100397648D01*
X139279500Y-100602351D01*
X139311522Y-100804534D01*
X139374781Y-100999223D01*
X139467715Y-101181613D01*
X139588028Y-101347213D01*
X139732786Y-101491971D01*
X139885251Y-101602741D01*
X139898390Y-101612287D01*
X140014607Y-101671503D01*
X140080776Y-101705218D01*
X140080778Y-101705218D01*
X140080781Y-101705220D01*
X140154655Y-101729223D01*
X140275465Y-101768477D01*
X140376557Y-101784488D01*
X140477648Y-101800500D01*
X140477649Y-101800500D01*
X140682351Y-101800500D01*
X140682352Y-101800500D01*
X140884534Y-101768477D01*
X141079219Y-101705220D01*
X141261610Y-101612287D01*
X141390482Y-101518657D01*
X141427213Y-101491971D01*
X141427215Y-101491968D01*
X141427219Y-101491966D01*
X141571966Y-101347219D01*
X141571968Y-101347215D01*
X141571971Y-101347213D01*
X141624732Y-101274590D01*
X141692287Y-101181610D01*
X141785220Y-100999219D01*
X141848477Y-100804534D01*
X141854825Y-100764457D01*
X141868322Y-100679240D01*
X141880500Y-100602351D01*
X141880500Y-100397648D01*
X141868596Y-100322489D01*
X141848477Y-100195466D01*
X141843826Y-100181154D01*
X141841832Y-100111315D01*
X141874077Y-100055157D01*
X142079440Y-99849795D01*
X142292416Y-99636819D01*
X142353739Y-99603334D01*
X142380097Y-99600500D01*
X144436000Y-99600500D01*
X144503039Y-99620185D01*
X144548794Y-99672989D01*
X144560000Y-99724500D01*
X144560000Y-100250000D01*
X145584722Y-100250000D01*
X145540667Y-100326306D01*
X145510000Y-100440756D01*
X145510000Y-100559244D01*
X145540667Y-100673694D01*
X145584722Y-100750000D01*
X144560000Y-100750000D01*
X144560000Y-101447844D01*
X144566401Y-101507372D01*
X144566403Y-101507379D01*
X144616645Y-101642086D01*
X144616649Y-101642093D01*
X144702809Y-101757187D01*
X144702812Y-101757190D01*
X144817906Y-101843350D01*
X144817913Y-101843354D01*
X144952620Y-101893596D01*
X144952627Y-101893598D01*
X145012155Y-101899999D01*
X145012172Y-101900000D01*
X145710000Y-101900000D01*
X145710000Y-100875277D01*
X145786306Y-100919333D01*
X145900756Y-100950000D01*
X146019244Y-100950000D01*
X146133694Y-100919333D01*
X146210000Y-100875277D01*
X146210000Y-101900000D01*
X146907828Y-101900000D01*
X146907844Y-101899999D01*
X146967372Y-101893598D01*
X146967379Y-101893596D01*
X147102086Y-101843354D01*
X147102093Y-101843350D01*
X147217187Y-101757190D01*
X147217190Y-101757187D01*
X147303350Y-101642093D01*
X147303354Y-101642086D01*
X147333213Y-101562031D01*
X147375084Y-101506097D01*
X147440548Y-101481680D01*
X147508821Y-101496531D01*
X147537076Y-101517683D01*
X147587636Y-101568243D01*
X147587641Y-101568247D01*
X147743192Y-101681260D01*
X147765978Y-101697815D01*
X147882501Y-101757187D01*
X147962393Y-101797895D01*
X147962396Y-101797896D01*
X148067221Y-101831955D01*
X148172049Y-101866015D01*
X148389778Y-101900500D01*
X148389779Y-101900500D01*
X148610221Y-101900500D01*
X148610222Y-101900500D01*
X148827951Y-101866015D01*
X149037606Y-101797895D01*
X149234022Y-101697815D01*
X149412365Y-101568242D01*
X149568242Y-101412365D01*
X149697815Y-101234022D01*
X149797895Y-101037606D01*
X149866015Y-100827951D01*
X149900500Y-100610222D01*
X149900500Y-100389778D01*
X149866015Y-100172049D01*
X149828035Y-100055157D01*
X149797896Y-99962396D01*
X149797895Y-99962393D01*
X149740522Y-99849795D01*
X149697815Y-99765978D01*
X149603976Y-99636819D01*
X149568247Y-99587641D01*
X149568243Y-99587636D01*
X149412363Y-99431756D01*
X149412358Y-99431752D01*
X149234025Y-99302187D01*
X149234024Y-99302186D01*
X149234022Y-99302185D01*
X149104468Y-99236173D01*
X149037606Y-99202104D01*
X149037603Y-99202103D01*
X148827952Y-99133985D01*
X148719086Y-99116742D01*
X148610222Y-99099500D01*
X148389778Y-99099500D01*
X148346232Y-99106397D01*
X148172045Y-99133985D01*
X148101794Y-99156811D01*
X148031953Y-99158806D01*
X147975796Y-99126561D01*
X147487590Y-98638355D01*
X147487588Y-98638352D01*
X147368717Y-98519481D01*
X147368716Y-98519480D01*
X147262601Y-98458215D01*
X147262600Y-98458214D01*
X147231783Y-98440422D01*
X147175881Y-98425443D01*
X147079057Y-98399499D01*
X146920943Y-98399499D01*
X146913347Y-98399499D01*
X146913331Y-98399500D01*
X142000940Y-98399500D01*
X141960019Y-98410464D01*
X141960019Y-98410465D01*
X141922751Y-98420451D01*
X141848214Y-98440423D01*
X141848209Y-98440426D01*
X141711290Y-98519475D01*
X141711282Y-98519481D01*
X141599478Y-98631286D01*
X141024842Y-99205921D01*
X140963519Y-99239406D01*
X140898848Y-99236173D01*
X140884534Y-99231522D01*
X140698799Y-99202105D01*
X140682352Y-99199500D01*
X140477648Y-99199500D01*
X140461201Y-99202105D01*
X140275465Y-99231522D01*
X140080776Y-99294781D01*
X139898386Y-99387715D01*
X139732786Y-99508028D01*
X139588028Y-99652786D01*
X139467715Y-99818386D01*
X139374781Y-100000776D01*
X139311522Y-100195465D01*
X139279500Y-100397648D01*
X131720500Y-100397648D01*
X131688477Y-100195465D01*
X131657458Y-100100000D01*
X131625220Y-100000781D01*
X131625218Y-100000778D01*
X131625218Y-100000776D01*
X131573865Y-99899991D01*
X131532287Y-99818390D01*
X131500092Y-99774077D01*
X131411971Y-99652786D01*
X131267213Y-99508028D01*
X131101613Y-99387715D01*
X131101612Y-99387714D01*
X131101610Y-99387713D01*
X131041898Y-99357288D01*
X130919223Y-99294781D01*
X130724534Y-99231522D01*
X130538799Y-99202105D01*
X130522352Y-99199500D01*
X130317648Y-99199500D01*
X130301201Y-99202105D01*
X130115465Y-99231522D01*
X129920776Y-99294781D01*
X129738386Y-99387715D01*
X129572786Y-99508028D01*
X129428028Y-99652786D01*
X129307715Y-99818386D01*
X129214781Y-100000776D01*
X129151522Y-100195465D01*
X129119500Y-100397648D01*
X126293798Y-100397648D01*
X126540922Y-100150524D01*
X126540921Y-100150523D01*
X126496359Y-100118147D01*
X126496350Y-100118141D01*
X126403369Y-100070765D01*
X126352573Y-100022790D01*
X126335778Y-99954969D01*
X126358315Y-99888835D01*
X126403370Y-99849795D01*
X126403920Y-99849515D01*
X126496610Y-99802287D01*
X126546591Y-99765974D01*
X126662213Y-99681971D01*
X126662215Y-99681968D01*
X126662219Y-99681966D01*
X126806966Y-99537219D01*
X126806968Y-99537215D01*
X126806971Y-99537213D01*
X126883587Y-99431758D01*
X126927287Y-99371610D01*
X127020220Y-99189219D01*
X127083477Y-98994534D01*
X127115500Y-98792352D01*
X127115500Y-98587648D01*
X127095000Y-98458216D01*
X127083477Y-98385465D01*
X127020218Y-98190776D01*
X126986503Y-98124607D01*
X126927287Y-98008390D01*
X126919556Y-97997749D01*
X126806971Y-97842786D01*
X126662213Y-97698028D01*
X126496611Y-97577713D01*
X126403369Y-97530203D01*
X126352574Y-97482229D01*
X126335779Y-97414407D01*
X126358317Y-97348273D01*
X126403371Y-97309234D01*
X126496346Y-97261861D01*
X126496347Y-97261861D01*
X126540921Y-97229474D01*
X125861446Y-96550000D01*
X125867661Y-96550000D01*
X125969394Y-96522741D01*
X126060606Y-96470080D01*
X126135080Y-96395606D01*
X126187741Y-96304394D01*
X126215000Y-96202661D01*
X126215000Y-96196448D01*
X126894474Y-96875922D01*
X126894474Y-96875921D01*
X126926859Y-96831349D01*
X127019755Y-96649031D01*
X127082990Y-96454417D01*
X127115000Y-96252317D01*
X127115000Y-96047682D01*
X127082990Y-95845582D01*
X127019755Y-95650968D01*
X126926859Y-95468650D01*
X126894474Y-95424077D01*
X126894474Y-95424076D01*
X126215000Y-96103551D01*
X126215000Y-96097339D01*
X126187741Y-95995606D01*
X126135080Y-95904394D01*
X126060606Y-95829920D01*
X125969394Y-95777259D01*
X125867661Y-95750000D01*
X125861446Y-95750000D01*
X126264627Y-95346820D01*
X126325950Y-95313335D01*
X126341643Y-95311647D01*
X126341632Y-95311562D01*
X126349689Y-95310501D01*
X126349692Y-95310501D01*
X126502420Y-95269577D01*
X126552539Y-95240639D01*
X126639351Y-95190520D01*
X126751155Y-95078716D01*
X126751155Y-95078714D01*
X126761363Y-95068507D01*
X126761364Y-95068504D01*
X127395520Y-94434351D01*
X127474577Y-94297419D01*
X127515501Y-94144692D01*
X127515501Y-93986577D01*
X127515501Y-93978982D01*
X127515500Y-93978964D01*
X127515500Y-92897648D01*
X129119500Y-92897648D01*
X129119500Y-93102351D01*
X129151522Y-93304534D01*
X129214781Y-93499223D01*
X129256335Y-93580776D01*
X129287574Y-93642086D01*
X129307715Y-93681613D01*
X129428028Y-93847213D01*
X129572786Y-93991971D01*
X129727749Y-94104556D01*
X129738390Y-94112287D01*
X129854607Y-94171503D01*
X129920776Y-94205218D01*
X129920778Y-94205218D01*
X129920781Y-94205220D01*
X130025137Y-94239127D01*
X130115465Y-94268477D01*
X130216557Y-94284488D01*
X130317648Y-94300500D01*
X130317649Y-94300500D01*
X130522351Y-94300500D01*
X130522352Y-94300500D01*
X130724534Y-94268477D01*
X130919219Y-94205220D01*
X131101610Y-94112287D01*
X131194590Y-94044732D01*
X131267213Y-93991971D01*
X131267215Y-93991968D01*
X131267219Y-93991966D01*
X131411966Y-93847219D01*
X131411968Y-93847215D01*
X131411971Y-93847213D01*
X131477375Y-93757190D01*
X131532287Y-93681610D01*
X131625220Y-93499219D01*
X131688477Y-93304534D01*
X131720500Y-93102352D01*
X131720500Y-92897648D01*
X139279500Y-92897648D01*
X139279500Y-93102351D01*
X139311522Y-93304534D01*
X139374781Y-93499223D01*
X139416335Y-93580776D01*
X139447574Y-93642086D01*
X139467715Y-93681613D01*
X139588028Y-93847213D01*
X139732786Y-93991971D01*
X139887749Y-94104556D01*
X139898390Y-94112287D01*
X140014607Y-94171503D01*
X140080776Y-94205218D01*
X140080778Y-94205218D01*
X140080781Y-94205220D01*
X140185137Y-94239127D01*
X140275465Y-94268477D01*
X140376557Y-94284488D01*
X140477648Y-94300500D01*
X140477649Y-94300500D01*
X140682351Y-94300500D01*
X140682352Y-94300500D01*
X140884534Y-94268477D01*
X141079219Y-94205220D01*
X141261610Y-94112287D01*
X141354590Y-94044732D01*
X141427213Y-93991971D01*
X141427215Y-93991968D01*
X141427219Y-93991966D01*
X141571966Y-93847219D01*
X141571968Y-93847215D01*
X141571971Y-93847213D01*
X141637375Y-93757190D01*
X141692287Y-93681610D01*
X141785220Y-93499219D01*
X141848477Y-93304534D01*
X141880500Y-93102352D01*
X141880500Y-92897648D01*
X141848477Y-92695466D01*
X141842114Y-92675883D01*
X141840881Y-92670493D01*
X141842677Y-92640923D01*
X141841832Y-92611312D01*
X141844789Y-92606161D01*
X141845118Y-92600752D01*
X141858003Y-92583148D01*
X141874075Y-92555158D01*
X142492416Y-91936819D01*
X142553739Y-91903334D01*
X142580097Y-91900500D01*
X144436000Y-91900500D01*
X144503039Y-91920185D01*
X144548794Y-91972989D01*
X144560000Y-92024500D01*
X144560000Y-92250000D01*
X145584722Y-92250000D01*
X145540667Y-92326306D01*
X145510000Y-92440756D01*
X145510000Y-92559244D01*
X145540667Y-92673694D01*
X145584722Y-92750000D01*
X144560000Y-92750000D01*
X144560000Y-93447844D01*
X144566401Y-93507372D01*
X144566403Y-93507379D01*
X144616645Y-93642086D01*
X144616649Y-93642093D01*
X144702809Y-93757187D01*
X144702812Y-93757190D01*
X144817906Y-93843350D01*
X144817913Y-93843354D01*
X144952620Y-93893596D01*
X144952627Y-93893598D01*
X145012155Y-93899999D01*
X145012172Y-93900000D01*
X145710000Y-93900000D01*
X145710000Y-92875277D01*
X145786306Y-92919333D01*
X145900756Y-92950000D01*
X146019244Y-92950000D01*
X146133694Y-92919333D01*
X146210000Y-92875277D01*
X146210000Y-93900000D01*
X146907828Y-93900000D01*
X146907844Y-93899999D01*
X146967372Y-93893598D01*
X146967379Y-93893596D01*
X147102086Y-93843354D01*
X147102093Y-93843350D01*
X147217187Y-93757190D01*
X147217190Y-93757187D01*
X147303350Y-93642093D01*
X147303354Y-93642086D01*
X147333213Y-93562031D01*
X147375084Y-93506097D01*
X147440548Y-93481680D01*
X147508821Y-93496531D01*
X147537076Y-93517683D01*
X147587636Y-93568243D01*
X147587641Y-93568247D01*
X147743192Y-93681260D01*
X147765978Y-93697815D01*
X147882501Y-93757187D01*
X147962393Y-93797895D01*
X147962396Y-93797896D01*
X148067221Y-93831955D01*
X148172049Y-93866015D01*
X148389778Y-93900500D01*
X148389779Y-93900500D01*
X148610221Y-93900500D01*
X148610222Y-93900500D01*
X148827951Y-93866015D01*
X149037606Y-93797895D01*
X149234022Y-93697815D01*
X149412365Y-93568242D01*
X149568242Y-93412365D01*
X149697815Y-93234022D01*
X149797895Y-93037606D01*
X149866015Y-92827951D01*
X149900500Y-92610222D01*
X149900500Y-92389778D01*
X149866015Y-92172049D01*
X149831955Y-92067221D01*
X149797896Y-91962396D01*
X149797895Y-91962393D01*
X149759843Y-91887713D01*
X149697815Y-91765978D01*
X149649516Y-91699500D01*
X149568247Y-91587641D01*
X149568243Y-91587636D01*
X149412363Y-91431756D01*
X149412358Y-91431752D01*
X149234025Y-91302187D01*
X149234024Y-91302186D01*
X149234022Y-91302185D01*
X149171096Y-91270122D01*
X149037606Y-91202104D01*
X149037603Y-91202103D01*
X148827952Y-91133985D01*
X148719086Y-91116742D01*
X148610222Y-91099500D01*
X148389778Y-91099500D01*
X148346232Y-91106397D01*
X148172045Y-91133985D01*
X148101794Y-91156811D01*
X148031953Y-91158806D01*
X147975796Y-91126561D01*
X147787590Y-90938355D01*
X147787588Y-90938352D01*
X147668717Y-90819481D01*
X147668716Y-90819480D01*
X147581904Y-90769360D01*
X147581904Y-90769359D01*
X147581900Y-90769358D01*
X147531785Y-90740423D01*
X147379057Y-90699499D01*
X147220943Y-90699499D01*
X147213347Y-90699499D01*
X147213331Y-90699500D01*
X142359057Y-90699500D01*
X142200943Y-90699500D01*
X142048215Y-90740423D01*
X142048214Y-90740423D01*
X142048212Y-90740424D01*
X142048209Y-90740425D01*
X141998096Y-90769359D01*
X141998095Y-90769360D01*
X141954689Y-90794420D01*
X141911285Y-90819479D01*
X141911282Y-90819481D01*
X141799478Y-90931286D01*
X141024842Y-91705921D01*
X140963519Y-91739406D01*
X140898848Y-91736173D01*
X140884534Y-91731522D01*
X140709995Y-91703878D01*
X140682352Y-91699500D01*
X140477648Y-91699500D01*
X140453329Y-91703351D01*
X140275465Y-91731522D01*
X140080776Y-91794781D01*
X139898386Y-91887715D01*
X139732786Y-92008028D01*
X139588028Y-92152786D01*
X139467715Y-92318386D01*
X139374781Y-92500776D01*
X139311522Y-92695465D01*
X139279500Y-92897648D01*
X131720500Y-92897648D01*
X131701281Y-92776306D01*
X131688477Y-92695465D01*
X131644216Y-92559244D01*
X131625220Y-92500781D01*
X131625218Y-92500778D01*
X131625218Y-92500776D01*
X131568661Y-92389778D01*
X131532287Y-92318390D01*
X131524556Y-92307749D01*
X131411971Y-92152786D01*
X131267213Y-92008028D01*
X131101613Y-91887715D01*
X131101612Y-91887714D01*
X131101610Y-91887713D01*
X131044653Y-91858691D01*
X130919223Y-91794781D01*
X130724534Y-91731522D01*
X130549995Y-91703878D01*
X130522352Y-91699500D01*
X130317648Y-91699500D01*
X130293329Y-91703351D01*
X130115465Y-91731522D01*
X129920776Y-91794781D01*
X129738386Y-91887715D01*
X129572786Y-92008028D01*
X129428028Y-92152786D01*
X129307715Y-92318386D01*
X129214781Y-92500776D01*
X129151522Y-92695465D01*
X129119500Y-92897648D01*
X127515500Y-92897648D01*
X127515500Y-84397648D01*
X129119500Y-84397648D01*
X129119500Y-84602351D01*
X129151522Y-84804534D01*
X129214781Y-84999223D01*
X129307715Y-85181613D01*
X129428028Y-85347213D01*
X129572786Y-85491971D01*
X129727749Y-85604556D01*
X129738390Y-85612287D01*
X129812055Y-85649821D01*
X129920776Y-85705218D01*
X129920778Y-85705218D01*
X129920781Y-85705220D01*
X130025137Y-85739127D01*
X130115465Y-85768477D01*
X130216557Y-85784488D01*
X130317648Y-85800500D01*
X130317649Y-85800500D01*
X130522351Y-85800500D01*
X130522352Y-85800500D01*
X130724534Y-85768477D01*
X130919219Y-85705220D01*
X131101610Y-85612287D01*
X131202288Y-85539141D01*
X131267213Y-85491971D01*
X131267215Y-85491968D01*
X131267219Y-85491966D01*
X131411966Y-85347219D01*
X131411968Y-85347215D01*
X131411971Y-85347213D01*
X131464732Y-85274590D01*
X131532287Y-85181610D01*
X131625220Y-84999219D01*
X131688477Y-84804534D01*
X131720500Y-84602352D01*
X131720500Y-84397648D01*
X139279500Y-84397648D01*
X139279500Y-84602351D01*
X139311522Y-84804534D01*
X139374781Y-84999223D01*
X139467715Y-85181613D01*
X139588028Y-85347213D01*
X139732786Y-85491971D01*
X139887749Y-85604556D01*
X139898390Y-85612287D01*
X139972055Y-85649821D01*
X140080776Y-85705218D01*
X140080778Y-85705218D01*
X140080781Y-85705220D01*
X140185137Y-85739127D01*
X140275465Y-85768477D01*
X140376557Y-85784488D01*
X140477648Y-85800500D01*
X140477649Y-85800500D01*
X140682351Y-85800500D01*
X140682352Y-85800500D01*
X140884534Y-85768477D01*
X141079219Y-85705220D01*
X141261610Y-85612287D01*
X141362288Y-85539141D01*
X141427213Y-85491971D01*
X141427215Y-85491968D01*
X141427219Y-85491966D01*
X141571966Y-85347219D01*
X141571968Y-85347215D01*
X141571971Y-85347213D01*
X141624732Y-85274590D01*
X141692287Y-85181610D01*
X141785220Y-84999219D01*
X141848477Y-84804534D01*
X141855605Y-84759532D01*
X141868322Y-84679240D01*
X141880500Y-84602351D01*
X141880500Y-84397648D01*
X141852948Y-84223694D01*
X141848477Y-84195466D01*
X141843826Y-84181154D01*
X141843392Y-84165943D01*
X141838074Y-84151684D01*
X141842415Y-84131728D01*
X141841832Y-84111315D01*
X141849920Y-84097228D01*
X141852926Y-84083411D01*
X141874073Y-84055161D01*
X141992417Y-83936817D01*
X142053739Y-83903334D01*
X142080097Y-83900500D01*
X144436000Y-83900500D01*
X144503039Y-83920185D01*
X144548794Y-83972989D01*
X144560000Y-84024500D01*
X144560000Y-84250000D01*
X145584722Y-84250000D01*
X145540667Y-84326306D01*
X145510000Y-84440756D01*
X145510000Y-84559244D01*
X145540667Y-84673694D01*
X145584722Y-84750000D01*
X144560000Y-84750000D01*
X144560000Y-85447844D01*
X144566401Y-85507372D01*
X144566403Y-85507379D01*
X144616645Y-85642086D01*
X144616649Y-85642093D01*
X144702809Y-85757187D01*
X144702812Y-85757190D01*
X144817906Y-85843350D01*
X144817913Y-85843354D01*
X144952620Y-85893596D01*
X144952627Y-85893598D01*
X145012155Y-85899999D01*
X145012172Y-85900000D01*
X145710000Y-85900000D01*
X145710000Y-84875277D01*
X145786306Y-84919333D01*
X145900756Y-84950000D01*
X146019244Y-84950000D01*
X146133694Y-84919333D01*
X146210000Y-84875277D01*
X146210000Y-85900000D01*
X146907828Y-85900000D01*
X146907844Y-85899999D01*
X146967372Y-85893598D01*
X146967379Y-85893596D01*
X147102086Y-85843354D01*
X147102093Y-85843350D01*
X147217187Y-85757190D01*
X147217190Y-85757187D01*
X147303350Y-85642093D01*
X147303354Y-85642086D01*
X147333213Y-85562031D01*
X147375084Y-85506097D01*
X147440548Y-85481680D01*
X147508821Y-85496531D01*
X147537076Y-85517683D01*
X147587636Y-85568243D01*
X147587641Y-85568247D01*
X147705140Y-85653614D01*
X147765978Y-85697815D01*
X147862363Y-85746926D01*
X147962393Y-85797895D01*
X147962396Y-85797896D01*
X148067221Y-85831955D01*
X148172049Y-85866015D01*
X148389778Y-85900500D01*
X148389779Y-85900500D01*
X148610221Y-85900500D01*
X148610222Y-85900500D01*
X148827951Y-85866015D01*
X149037606Y-85797895D01*
X149234022Y-85697815D01*
X149412365Y-85568242D01*
X149568242Y-85412365D01*
X149697815Y-85234022D01*
X149797895Y-85037606D01*
X149866015Y-84827951D01*
X149900500Y-84610222D01*
X149900500Y-84389778D01*
X149866015Y-84172049D01*
X149828035Y-84055156D01*
X149797896Y-83962396D01*
X149797895Y-83962393D01*
X149763237Y-83894375D01*
X149697815Y-83765978D01*
X149589285Y-83616598D01*
X149568247Y-83587641D01*
X149568243Y-83587636D01*
X149412363Y-83431756D01*
X149412358Y-83431752D01*
X149234025Y-83302187D01*
X149234024Y-83302186D01*
X149234022Y-83302185D01*
X149108819Y-83238390D01*
X149037606Y-83202104D01*
X149037603Y-83202103D01*
X148827952Y-83133985D01*
X148719086Y-83116742D01*
X148610222Y-83099500D01*
X148389778Y-83099500D01*
X148346232Y-83106397D01*
X148172045Y-83133985D01*
X148101794Y-83156811D01*
X148031953Y-83158806D01*
X147975796Y-83126561D01*
X147787590Y-82938355D01*
X147787588Y-82938352D01*
X147668717Y-82819481D01*
X147668716Y-82819480D01*
X147562252Y-82758013D01*
X147562250Y-82758012D01*
X147531785Y-82740423D01*
X147531784Y-82740422D01*
X147531783Y-82740422D01*
X147475881Y-82725443D01*
X147379057Y-82699499D01*
X147220943Y-82699499D01*
X147213347Y-82699499D01*
X147213331Y-82699500D01*
X141859057Y-82699500D01*
X141700942Y-82699500D01*
X141548215Y-82740423D01*
X141517749Y-82758013D01*
X141464516Y-82788746D01*
X141411285Y-82819479D01*
X141411282Y-82819481D01*
X141299478Y-82931286D01*
X141024842Y-83205921D01*
X140963519Y-83239406D01*
X140898848Y-83236173D01*
X140884534Y-83231522D01*
X140698799Y-83202105D01*
X140682352Y-83199500D01*
X140477648Y-83199500D01*
X140461201Y-83202105D01*
X140275465Y-83231522D01*
X140080776Y-83294781D01*
X139898386Y-83387715D01*
X139732786Y-83508028D01*
X139588028Y-83652786D01*
X139467715Y-83818386D01*
X139374781Y-84000776D01*
X139311522Y-84195465D01*
X139279500Y-84397648D01*
X131720500Y-84397648D01*
X131688477Y-84195465D01*
X131652068Y-84083411D01*
X131625220Y-84000781D01*
X131625218Y-84000778D01*
X131625218Y-84000776D01*
X131574124Y-83900500D01*
X131532287Y-83818390D01*
X131494205Y-83765974D01*
X131411971Y-83652786D01*
X131267213Y-83508028D01*
X131101613Y-83387715D01*
X131101612Y-83387714D01*
X131101610Y-83387713D01*
X131044653Y-83358691D01*
X130919223Y-83294781D01*
X130724534Y-83231522D01*
X130538799Y-83202105D01*
X130522352Y-83199500D01*
X130317648Y-83199500D01*
X130301201Y-83202105D01*
X130115465Y-83231522D01*
X129920776Y-83294781D01*
X129738386Y-83387715D01*
X129572786Y-83508028D01*
X129428028Y-83652786D01*
X129307715Y-83818386D01*
X129214781Y-84000776D01*
X129151522Y-84195465D01*
X129119500Y-84397648D01*
X127515500Y-84397648D01*
X127515500Y-80755946D01*
X127515500Y-80755943D01*
X127515189Y-80754780D01*
X127474577Y-80603215D01*
X127433626Y-80532287D01*
X127395520Y-80466284D01*
X127283716Y-80354480D01*
X127283715Y-80354479D01*
X127279385Y-80350149D01*
X127279374Y-80350139D01*
X126794077Y-79864842D01*
X126760592Y-79803519D01*
X126763828Y-79738841D01*
X126768477Y-79724534D01*
X126800500Y-79522352D01*
X126800500Y-79317648D01*
X126793819Y-79275465D01*
X126768477Y-79115465D01*
X126705218Y-78920776D01*
X126671503Y-78854607D01*
X126612287Y-78738390D01*
X126604556Y-78727749D01*
X126491971Y-78572786D01*
X126347213Y-78428028D01*
X126181614Y-78307715D01*
X126174884Y-78304286D01*
X126088917Y-78260483D01*
X126038123Y-78212511D01*
X126021328Y-78144690D01*
X126043865Y-78078555D01*
X126088917Y-78039516D01*
X126181610Y-77992287D01*
X126202770Y-77976913D01*
X126347213Y-77871971D01*
X126347215Y-77871968D01*
X126347219Y-77871966D01*
X126491966Y-77727219D01*
X126491968Y-77727215D01*
X126491971Y-77727213D01*
X126575470Y-77612284D01*
X126612287Y-77561610D01*
X126705220Y-77379219D01*
X126768477Y-77184534D01*
X126800500Y-76982352D01*
X126800500Y-76777648D01*
X126768477Y-76575466D01*
X126768476Y-76575462D01*
X126768476Y-76575461D01*
X126721568Y-76431094D01*
X126710700Y-76397648D01*
X129119500Y-76397648D01*
X129119500Y-76602351D01*
X129151522Y-76804534D01*
X129214781Y-76999223D01*
X129278691Y-77124653D01*
X129279177Y-77125606D01*
X129307715Y-77181613D01*
X129428028Y-77347213D01*
X129572786Y-77491971D01*
X129727749Y-77604556D01*
X129738390Y-77612287D01*
X129854607Y-77671503D01*
X129920776Y-77705218D01*
X129920778Y-77705218D01*
X129920781Y-77705220D01*
X129988487Y-77727219D01*
X130115465Y-77768477D01*
X130216557Y-77784488D01*
X130317648Y-77800500D01*
X130317649Y-77800500D01*
X130522351Y-77800500D01*
X130522352Y-77800500D01*
X130724534Y-77768477D01*
X130919219Y-77705220D01*
X131101610Y-77612287D01*
X131194590Y-77544732D01*
X131267213Y-77491971D01*
X131267215Y-77491968D01*
X131267219Y-77491966D01*
X131411966Y-77347219D01*
X131411968Y-77347215D01*
X131411971Y-77347213D01*
X131480608Y-77252741D01*
X131532287Y-77181610D01*
X131625220Y-76999219D01*
X131688477Y-76804534D01*
X131720500Y-76602352D01*
X131720500Y-76397648D01*
X139279500Y-76397648D01*
X139279500Y-76602351D01*
X139311522Y-76804534D01*
X139374781Y-76999223D01*
X139438691Y-77124653D01*
X139439177Y-77125606D01*
X139467715Y-77181613D01*
X139588028Y-77347213D01*
X139732786Y-77491971D01*
X139887749Y-77604556D01*
X139898390Y-77612287D01*
X140014607Y-77671503D01*
X140080776Y-77705218D01*
X140080778Y-77705218D01*
X140080781Y-77705220D01*
X140148487Y-77727219D01*
X140275465Y-77768477D01*
X140376557Y-77784488D01*
X140477648Y-77800500D01*
X140477649Y-77800500D01*
X140682351Y-77800500D01*
X140682352Y-77800500D01*
X140884534Y-77768477D01*
X141079219Y-77705220D01*
X141261610Y-77612287D01*
X141354590Y-77544732D01*
X141427213Y-77491971D01*
X141427215Y-77491968D01*
X141427219Y-77491966D01*
X141571966Y-77347219D01*
X141571968Y-77347215D01*
X141571971Y-77347213D01*
X141640608Y-77252741D01*
X141692287Y-77181610D01*
X141785220Y-76999219D01*
X141848477Y-76804534D01*
X141852948Y-76776306D01*
X141868322Y-76679240D01*
X141880500Y-76602351D01*
X141880500Y-76397648D01*
X141868596Y-76322489D01*
X141848477Y-76195466D01*
X141843826Y-76181154D01*
X141843392Y-76165943D01*
X141838074Y-76151684D01*
X141842415Y-76131728D01*
X141841832Y-76111315D01*
X141849920Y-76097228D01*
X141852926Y-76083411D01*
X141874073Y-76055161D01*
X141992417Y-75936817D01*
X142053739Y-75903334D01*
X142080097Y-75900500D01*
X144436000Y-75900500D01*
X144503039Y-75920185D01*
X144548794Y-75972989D01*
X144560000Y-76024500D01*
X144560000Y-76250000D01*
X145584722Y-76250000D01*
X145540667Y-76326306D01*
X145510000Y-76440756D01*
X145510000Y-76559244D01*
X145540667Y-76673694D01*
X145584722Y-76750000D01*
X144560000Y-76750000D01*
X144560000Y-77447844D01*
X144566401Y-77507372D01*
X144566403Y-77507379D01*
X144616645Y-77642086D01*
X144616649Y-77642093D01*
X144702809Y-77757187D01*
X144702812Y-77757190D01*
X144817906Y-77843350D01*
X144817913Y-77843354D01*
X144952620Y-77893596D01*
X144952627Y-77893598D01*
X145012155Y-77899999D01*
X145012172Y-77900000D01*
X145710000Y-77900000D01*
X145710000Y-76875277D01*
X145786306Y-76919333D01*
X145900756Y-76950000D01*
X146019244Y-76950000D01*
X146133694Y-76919333D01*
X146210000Y-76875277D01*
X146210000Y-77900000D01*
X146907828Y-77900000D01*
X146907844Y-77899999D01*
X146967372Y-77893598D01*
X146967379Y-77893596D01*
X147102086Y-77843354D01*
X147102093Y-77843350D01*
X147217187Y-77757190D01*
X147217190Y-77757187D01*
X147303350Y-77642093D01*
X147303354Y-77642086D01*
X147333213Y-77562031D01*
X147375084Y-77506097D01*
X147440548Y-77481680D01*
X147508821Y-77496531D01*
X147537076Y-77517683D01*
X147587636Y-77568243D01*
X147587641Y-77568247D01*
X147743192Y-77681260D01*
X147765978Y-77697815D01*
X147866667Y-77749119D01*
X147962393Y-77797895D01*
X147962396Y-77797896D01*
X148067221Y-77831955D01*
X148172049Y-77866015D01*
X148389778Y-77900500D01*
X148389779Y-77900500D01*
X148610221Y-77900500D01*
X148610222Y-77900500D01*
X148827951Y-77866015D01*
X149037606Y-77797895D01*
X149234022Y-77697815D01*
X149412365Y-77568242D01*
X149568242Y-77412365D01*
X149697815Y-77234022D01*
X149797895Y-77037606D01*
X149866015Y-76827951D01*
X149900500Y-76610222D01*
X149900500Y-76389778D01*
X149866015Y-76172049D01*
X149828035Y-76055156D01*
X149797896Y-75962396D01*
X149797895Y-75962393D01*
X149746565Y-75861654D01*
X149697815Y-75765978D01*
X149585597Y-75611522D01*
X149568247Y-75587641D01*
X149568243Y-75587636D01*
X149412363Y-75431756D01*
X149412358Y-75431752D01*
X149234025Y-75302187D01*
X149234024Y-75302186D01*
X149234022Y-75302185D01*
X149104468Y-75236173D01*
X149037606Y-75202104D01*
X149037603Y-75202103D01*
X148827952Y-75133985D01*
X148719086Y-75116742D01*
X148610222Y-75099500D01*
X148389778Y-75099500D01*
X148346232Y-75106397D01*
X148172045Y-75133985D01*
X148101794Y-75156811D01*
X148031953Y-75158806D01*
X147975796Y-75126561D01*
X147787590Y-74938355D01*
X147787588Y-74938352D01*
X147668717Y-74819481D01*
X147668716Y-74819480D01*
X147581904Y-74769360D01*
X147581904Y-74769359D01*
X147581900Y-74769358D01*
X147531785Y-74740423D01*
X147379057Y-74699499D01*
X147220943Y-74699499D01*
X147213347Y-74699499D01*
X147213331Y-74699500D01*
X141859057Y-74699500D01*
X141700942Y-74699500D01*
X141548215Y-74740423D01*
X141548214Y-74740423D01*
X141548212Y-74740424D01*
X141548209Y-74740425D01*
X141498096Y-74769359D01*
X141498095Y-74769360D01*
X141454689Y-74794420D01*
X141411285Y-74819479D01*
X141411282Y-74819481D01*
X141299478Y-74931286D01*
X141024842Y-75205921D01*
X140963519Y-75239406D01*
X140898848Y-75236173D01*
X140884534Y-75231522D01*
X140698799Y-75202105D01*
X140682352Y-75199500D01*
X140477648Y-75199500D01*
X140461201Y-75202105D01*
X140275465Y-75231522D01*
X140080776Y-75294781D01*
X139898386Y-75387715D01*
X139732786Y-75508028D01*
X139588028Y-75652786D01*
X139467715Y-75818386D01*
X139374781Y-76000776D01*
X139311522Y-76195465D01*
X139279500Y-76397648D01*
X131720500Y-76397648D01*
X131688477Y-76195465D01*
X131652068Y-76083411D01*
X131625220Y-76000781D01*
X131625218Y-76000778D01*
X131625218Y-76000776D01*
X131554331Y-75861654D01*
X131532287Y-75818390D01*
X131495470Y-75767715D01*
X131411971Y-75652786D01*
X131267213Y-75508028D01*
X131101613Y-75387715D01*
X131101612Y-75387714D01*
X131101610Y-75387713D01*
X131044653Y-75358691D01*
X130919223Y-75294781D01*
X130724534Y-75231522D01*
X130538799Y-75202105D01*
X130522352Y-75199500D01*
X130317648Y-75199500D01*
X130301201Y-75202105D01*
X130115465Y-75231522D01*
X129920776Y-75294781D01*
X129738386Y-75387715D01*
X129572786Y-75508028D01*
X129428028Y-75652786D01*
X129307715Y-75818386D01*
X129214781Y-76000776D01*
X129151522Y-76195465D01*
X129119500Y-76397648D01*
X126710700Y-76397648D01*
X126708143Y-76389778D01*
X126705220Y-76380781D01*
X126612287Y-76198390D01*
X126588713Y-76165943D01*
X126491971Y-76032786D01*
X126347213Y-75888028D01*
X126181613Y-75767715D01*
X126181612Y-75767714D01*
X126181610Y-75767713D01*
X126122675Y-75737684D01*
X125999223Y-75674781D01*
X125804534Y-75611522D01*
X125629995Y-75583878D01*
X125602352Y-75579500D01*
X125397648Y-75579500D01*
X125359599Y-75585526D01*
X125195468Y-75611522D01*
X125186717Y-75614365D01*
X125181154Y-75616173D01*
X125111313Y-75618167D01*
X125055157Y-75585922D01*
X118527590Y-69058355D01*
X118527588Y-69058352D01*
X118408717Y-68939481D01*
X118408716Y-68939480D01*
X118307267Y-68880909D01*
X118307266Y-68880908D01*
X118271783Y-68860422D01*
X118215881Y-68845443D01*
X118119057Y-68819499D01*
X117960943Y-68819499D01*
X117953347Y-68819499D01*
X117953331Y-68819500D01*
X112729602Y-68819500D01*
X112662563Y-68799815D01*
X112619117Y-68751795D01*
X112612284Y-68738385D01*
X112491971Y-68572786D01*
X112347213Y-68428028D01*
X112181610Y-68307712D01*
X112168200Y-68300879D01*
X112117406Y-68252903D01*
X112100500Y-68190397D01*
X112100500Y-67897648D01*
X129119500Y-67897648D01*
X129119500Y-68102351D01*
X129151522Y-68304534D01*
X129214781Y-68499223D01*
X129307715Y-68681613D01*
X129428028Y-68847213D01*
X129572786Y-68991971D01*
X129727749Y-69104556D01*
X129738390Y-69112287D01*
X129854607Y-69171503D01*
X129920776Y-69205218D01*
X129920778Y-69205218D01*
X129920781Y-69205220D01*
X130025137Y-69239127D01*
X130115465Y-69268477D01*
X130216557Y-69284488D01*
X130317648Y-69300500D01*
X130317649Y-69300500D01*
X130522351Y-69300500D01*
X130522352Y-69300500D01*
X130724534Y-69268477D01*
X130919219Y-69205220D01*
X131101610Y-69112287D01*
X131194590Y-69044732D01*
X131267213Y-68991971D01*
X131267215Y-68991968D01*
X131267219Y-68991966D01*
X131411966Y-68847219D01*
X131411968Y-68847215D01*
X131411971Y-68847213D01*
X131491034Y-68738390D01*
X131532287Y-68681610D01*
X131625220Y-68499219D01*
X131688477Y-68304534D01*
X131720500Y-68102352D01*
X131720500Y-67897648D01*
X139279500Y-67897648D01*
X139279500Y-68102351D01*
X139311522Y-68304534D01*
X139374781Y-68499223D01*
X139467715Y-68681613D01*
X139588028Y-68847213D01*
X139732786Y-68991971D01*
X139887749Y-69104556D01*
X139898390Y-69112287D01*
X140014607Y-69171503D01*
X140080776Y-69205218D01*
X140080778Y-69205218D01*
X140080781Y-69205220D01*
X140185137Y-69239127D01*
X140275465Y-69268477D01*
X140376557Y-69284488D01*
X140477648Y-69300500D01*
X140477649Y-69300500D01*
X140682351Y-69300500D01*
X140682352Y-69300500D01*
X140884534Y-69268477D01*
X141079219Y-69205220D01*
X141261610Y-69112287D01*
X141354590Y-69044732D01*
X141427213Y-68991971D01*
X141427215Y-68991968D01*
X141427219Y-68991966D01*
X141571966Y-68847219D01*
X141571968Y-68847215D01*
X141571971Y-68847213D01*
X141651034Y-68738390D01*
X141692287Y-68681610D01*
X141785220Y-68499219D01*
X141848477Y-68304534D01*
X141856655Y-68252903D01*
X141868322Y-68179240D01*
X141880500Y-68102351D01*
X141880500Y-67897648D01*
X141848477Y-67695469D01*
X141848477Y-67695466D01*
X141843826Y-67681154D01*
X141843392Y-67665943D01*
X141838074Y-67651684D01*
X141842415Y-67631728D01*
X141841832Y-67611315D01*
X141849920Y-67597228D01*
X141852926Y-67583411D01*
X141874073Y-67555161D01*
X141992417Y-67436817D01*
X142053739Y-67403334D01*
X142080097Y-67400500D01*
X144436000Y-67400500D01*
X144503039Y-67420185D01*
X144548794Y-67472989D01*
X144560000Y-67524500D01*
X144560000Y-67750000D01*
X145584722Y-67750000D01*
X145540667Y-67826306D01*
X145510000Y-67940756D01*
X145510000Y-68059244D01*
X145540667Y-68173694D01*
X145584722Y-68250000D01*
X144560000Y-68250000D01*
X144560000Y-68947844D01*
X144566401Y-69007372D01*
X144566403Y-69007379D01*
X144616645Y-69142086D01*
X144616649Y-69142093D01*
X144702809Y-69257187D01*
X144702812Y-69257190D01*
X144817906Y-69343350D01*
X144817913Y-69343354D01*
X144952620Y-69393596D01*
X144952627Y-69393598D01*
X145012155Y-69399999D01*
X145012172Y-69400000D01*
X145710000Y-69400000D01*
X145710000Y-68375277D01*
X145786306Y-68419333D01*
X145900756Y-68450000D01*
X146019244Y-68450000D01*
X146133694Y-68419333D01*
X146210000Y-68375277D01*
X146210000Y-69400000D01*
X146907828Y-69400000D01*
X146907844Y-69399999D01*
X146967372Y-69393598D01*
X146967379Y-69393596D01*
X147102086Y-69343354D01*
X147102093Y-69343350D01*
X147217187Y-69257190D01*
X147217190Y-69257187D01*
X147303350Y-69142093D01*
X147303354Y-69142086D01*
X147333213Y-69062031D01*
X147375084Y-69006097D01*
X147440548Y-68981680D01*
X147508821Y-68996531D01*
X147537076Y-69017683D01*
X147587636Y-69068243D01*
X147587641Y-69068247D01*
X147743192Y-69181260D01*
X147765978Y-69197815D01*
X147882501Y-69257187D01*
X147962393Y-69297895D01*
X147962396Y-69297896D01*
X148052328Y-69327116D01*
X148172049Y-69366015D01*
X148389778Y-69400500D01*
X148389779Y-69400500D01*
X148610221Y-69400500D01*
X148610222Y-69400500D01*
X148827951Y-69366015D01*
X149037606Y-69297895D01*
X149234022Y-69197815D01*
X149412365Y-69068242D01*
X149568242Y-68912365D01*
X149697815Y-68734022D01*
X149797895Y-68537606D01*
X149866015Y-68327951D01*
X149900500Y-68110222D01*
X149900500Y-67889778D01*
X149866015Y-67672049D01*
X149828035Y-67555156D01*
X149797896Y-67462396D01*
X149797895Y-67462393D01*
X149763237Y-67394375D01*
X149697815Y-67265978D01*
X149615573Y-67152781D01*
X149568247Y-67087641D01*
X149568243Y-67087636D01*
X149412363Y-66931756D01*
X149412358Y-66931752D01*
X149234025Y-66802187D01*
X149234024Y-66802186D01*
X149234022Y-66802185D01*
X149104468Y-66736173D01*
X149037606Y-66702104D01*
X149037603Y-66702103D01*
X148827952Y-66633985D01*
X148719086Y-66616742D01*
X148610222Y-66599500D01*
X148389778Y-66599500D01*
X148346232Y-66606397D01*
X148172045Y-66633985D01*
X148101794Y-66656811D01*
X148031953Y-66658806D01*
X147975796Y-66626561D01*
X147787590Y-66438355D01*
X147787588Y-66438352D01*
X147668717Y-66319481D01*
X147668716Y-66319480D01*
X147581904Y-66269360D01*
X147581904Y-66269359D01*
X147581900Y-66269358D01*
X147531785Y-66240423D01*
X147379057Y-66199499D01*
X147220943Y-66199499D01*
X147213347Y-66199499D01*
X147213331Y-66199500D01*
X141859057Y-66199500D01*
X141700942Y-66199500D01*
X141548215Y-66240423D01*
X141548214Y-66240423D01*
X141548212Y-66240424D01*
X141548209Y-66240425D01*
X141498096Y-66269359D01*
X141498095Y-66269360D01*
X141454689Y-66294420D01*
X141411285Y-66319479D01*
X141411282Y-66319481D01*
X141299478Y-66431286D01*
X141024842Y-66705921D01*
X140963519Y-66739406D01*
X140898848Y-66736173D01*
X140884534Y-66731522D01*
X140698799Y-66702105D01*
X140682352Y-66699500D01*
X140477648Y-66699500D01*
X140461201Y-66702105D01*
X140275465Y-66731522D01*
X140080776Y-66794781D01*
X139898386Y-66887715D01*
X139732786Y-67008028D01*
X139588028Y-67152786D01*
X139467715Y-67318386D01*
X139374781Y-67500776D01*
X139311522Y-67695465D01*
X139279500Y-67897648D01*
X131720500Y-67897648D01*
X131688477Y-67695465D01*
X131652068Y-67583411D01*
X131625220Y-67500781D01*
X131625218Y-67500778D01*
X131625218Y-67500776D01*
X131574124Y-67400500D01*
X131532287Y-67318390D01*
X131494205Y-67265974D01*
X131411971Y-67152786D01*
X131267213Y-67008028D01*
X131101613Y-66887715D01*
X131101612Y-66887714D01*
X131101610Y-66887713D01*
X131044653Y-66858691D01*
X130919223Y-66794781D01*
X130724534Y-66731522D01*
X130538799Y-66702105D01*
X130522352Y-66699500D01*
X130317648Y-66699500D01*
X130301201Y-66702105D01*
X130115465Y-66731522D01*
X129920776Y-66794781D01*
X129738386Y-66887715D01*
X129572786Y-67008028D01*
X129428028Y-67152786D01*
X129307715Y-67318386D01*
X129214781Y-67500776D01*
X129151522Y-67695465D01*
X129119500Y-67897648D01*
X112100500Y-67897648D01*
X112100500Y-65300096D01*
X112120185Y-65233057D01*
X112136815Y-65212419D01*
X112555157Y-64794076D01*
X112616480Y-64760592D01*
X112681154Y-64763826D01*
X112695466Y-64768477D01*
X112897648Y-64800500D01*
X112897649Y-64800500D01*
X113102351Y-64800500D01*
X113102352Y-64800500D01*
X113304534Y-64768477D01*
X113499219Y-64705220D01*
X113681610Y-64612287D01*
X113809352Y-64519478D01*
X113847213Y-64491971D01*
X113847215Y-64491968D01*
X113847219Y-64491966D01*
X113991966Y-64347219D01*
X113991968Y-64347215D01*
X113991971Y-64347213D01*
X114044732Y-64274590D01*
X114112287Y-64181610D01*
X114205220Y-63999219D01*
X114268477Y-63804534D01*
X114300500Y-63602352D01*
X114300500Y-63397648D01*
X114292257Y-63345606D01*
X114268477Y-63195465D01*
X114237458Y-63100000D01*
X114205220Y-63000781D01*
X114205218Y-63000778D01*
X114205218Y-63000776D01*
X114162750Y-62917429D01*
X114112287Y-62818390D01*
X114080092Y-62774077D01*
X113991971Y-62652786D01*
X113847213Y-62508028D01*
X113681613Y-62387715D01*
X113681612Y-62387714D01*
X113681610Y-62387713D01*
X113624653Y-62358691D01*
X113499223Y-62294781D01*
X113304534Y-62231522D01*
X113129995Y-62203878D01*
X113102352Y-62199500D01*
X112897648Y-62199500D01*
X112873329Y-62203351D01*
X112695465Y-62231522D01*
X112500776Y-62294781D01*
X112318386Y-62387715D01*
X112152786Y-62508028D01*
X112008028Y-62652786D01*
X111887714Y-62818386D01*
X111860203Y-62872379D01*
X111812227Y-62923174D01*
X111744406Y-62939968D01*
X111678272Y-62917429D01*
X111639234Y-62872376D01*
X111611861Y-62818652D01*
X111579474Y-62774077D01*
X111579474Y-62774076D01*
X110900000Y-63453553D01*
X110900000Y-63447339D01*
X110872741Y-63345606D01*
X110820080Y-63254394D01*
X110745606Y-63179920D01*
X110654394Y-63127259D01*
X110552661Y-63100000D01*
X110546446Y-63100000D01*
X111225922Y-62420524D01*
X111225921Y-62420523D01*
X111181359Y-62388147D01*
X111181350Y-62388141D01*
X110999031Y-62295244D01*
X110804417Y-62232009D01*
X110602317Y-62200000D01*
X110397683Y-62200000D01*
X110195582Y-62232009D01*
X110000968Y-62295244D01*
X109818644Y-62388143D01*
X109774077Y-62420523D01*
X109774077Y-62420524D01*
X110453554Y-63100000D01*
X110447339Y-63100000D01*
X110345606Y-63127259D01*
X110254394Y-63179920D01*
X110179920Y-63254394D01*
X110127259Y-63345606D01*
X110100000Y-63447339D01*
X110100000Y-63453553D01*
X109420524Y-62774077D01*
X109420523Y-62774077D01*
X109388143Y-62818644D01*
X109295244Y-63000968D01*
X109232009Y-63195582D01*
X109200000Y-63397682D01*
X109200000Y-63602317D01*
X109232009Y-63804417D01*
X109295244Y-63999031D01*
X109388141Y-64181350D01*
X109388147Y-64181359D01*
X109420523Y-64225921D01*
X109420524Y-64225922D01*
X110100000Y-63546446D01*
X110100000Y-63552661D01*
X110127259Y-63654394D01*
X110179920Y-63745606D01*
X110254394Y-63820080D01*
X110345606Y-63872741D01*
X110447339Y-63900000D01*
X110453553Y-63900000D01*
X109774076Y-64579474D01*
X109818650Y-64611859D01*
X110000968Y-64704755D01*
X110195582Y-64767990D01*
X110397683Y-64800000D01*
X110602316Y-64800000D01*
X110758076Y-64775329D01*
X110777237Y-64777804D01*
X110796388Y-64775253D01*
X110811171Y-64782189D01*
X110827370Y-64784283D01*
X110842152Y-64796726D01*
X110859641Y-64804933D01*
X110868327Y-64818761D01*
X110880822Y-64829279D01*
X110886529Y-64847736D01*
X110896807Y-64864098D01*
X110898400Y-64886129D01*
X110901462Y-64896031D01*
X110901468Y-64899082D01*
X110901312Y-64914176D01*
X110899499Y-64920943D01*
X110899499Y-65079057D01*
X110899500Y-65079060D01*
X110899500Y-65089661D01*
X110899500Y-68190397D01*
X110879815Y-68257436D01*
X110831800Y-68300879D01*
X110818389Y-68307712D01*
X110652786Y-68428028D01*
X110508028Y-68572786D01*
X110387713Y-68738388D01*
X110332754Y-68846250D01*
X110284780Y-68897045D01*
X110284270Y-68897341D01*
X110211287Y-68939477D01*
X110211282Y-68939481D01*
X110154233Y-68996531D01*
X110099480Y-69051284D01*
X110099478Y-69051286D01*
X109823630Y-69327135D01*
X109562584Y-69588181D01*
X109501261Y-69621666D01*
X109474903Y-69624500D01*
X106974499Y-69624500D01*
X106907460Y-69604815D01*
X106861705Y-69552011D01*
X106850499Y-69500500D01*
X106850499Y-69327129D01*
X106850498Y-69327123D01*
X106850497Y-69327116D01*
X106844091Y-69267517D01*
X106840239Y-69257190D01*
X106793797Y-69132671D01*
X106793793Y-69132664D01*
X106707547Y-69017455D01*
X106707544Y-69017452D01*
X106592335Y-68931206D01*
X106592328Y-68931202D01*
X106457482Y-68880908D01*
X106457483Y-68880908D01*
X106397883Y-68874501D01*
X106397881Y-68874500D01*
X106397873Y-68874500D01*
X106397864Y-68874500D01*
X104602129Y-68874500D01*
X104602123Y-68874501D01*
X104542516Y-68880908D01*
X104407671Y-68931202D01*
X104407664Y-68931206D01*
X104292455Y-69017452D01*
X104292452Y-69017455D01*
X104206206Y-69132664D01*
X104206202Y-69132671D01*
X104155908Y-69267517D01*
X104149501Y-69327116D01*
X104149501Y-69327123D01*
X104149500Y-69327135D01*
X101000500Y-69327135D01*
X101000500Y-59897648D01*
X129119500Y-59897648D01*
X129119500Y-60102351D01*
X129151522Y-60304534D01*
X129214781Y-60499223D01*
X129307715Y-60681613D01*
X129428028Y-60847213D01*
X129572786Y-60991971D01*
X129727749Y-61104556D01*
X129738390Y-61112287D01*
X129854607Y-61171503D01*
X129920776Y-61205218D01*
X129920778Y-61205218D01*
X129920781Y-61205220D01*
X130025137Y-61239127D01*
X130115465Y-61268477D01*
X130216557Y-61284488D01*
X130317648Y-61300500D01*
X130317649Y-61300500D01*
X130522351Y-61300500D01*
X130522352Y-61300500D01*
X130724534Y-61268477D01*
X130919219Y-61205220D01*
X131101610Y-61112287D01*
X131194590Y-61044732D01*
X131267213Y-60991971D01*
X131267215Y-60991968D01*
X131267219Y-60991966D01*
X131411966Y-60847219D01*
X131411968Y-60847215D01*
X131411971Y-60847213D01*
X131464732Y-60774590D01*
X131532287Y-60681610D01*
X131625220Y-60499219D01*
X131688477Y-60304534D01*
X131720500Y-60102352D01*
X131720500Y-59897648D01*
X139279500Y-59897648D01*
X139279500Y-60102351D01*
X139311522Y-60304534D01*
X139374781Y-60499223D01*
X139467715Y-60681613D01*
X139588028Y-60847213D01*
X139732786Y-60991971D01*
X139887749Y-61104556D01*
X139898390Y-61112287D01*
X140014607Y-61171503D01*
X140080776Y-61205218D01*
X140080778Y-61205218D01*
X140080781Y-61205220D01*
X140185137Y-61239127D01*
X140275465Y-61268477D01*
X140376557Y-61284488D01*
X140477648Y-61300500D01*
X140477649Y-61300500D01*
X140682351Y-61300500D01*
X140682352Y-61300500D01*
X140884534Y-61268477D01*
X141079219Y-61205220D01*
X141261610Y-61112287D01*
X141354590Y-61044732D01*
X141427213Y-60991971D01*
X141427215Y-60991968D01*
X141427219Y-60991966D01*
X141571966Y-60847219D01*
X141571968Y-60847215D01*
X141571971Y-60847213D01*
X141624732Y-60774590D01*
X141692287Y-60681610D01*
X141785220Y-60499219D01*
X141848477Y-60304534D01*
X141852948Y-60276306D01*
X141868322Y-60179240D01*
X141880500Y-60102351D01*
X141880500Y-59897648D01*
X141848477Y-59695469D01*
X141848477Y-59695466D01*
X141843826Y-59681154D01*
X141843392Y-59665943D01*
X141838074Y-59651684D01*
X141842415Y-59631728D01*
X141841832Y-59611315D01*
X141849920Y-59597228D01*
X141852926Y-59583411D01*
X141874073Y-59555161D01*
X141992417Y-59436817D01*
X142053739Y-59403334D01*
X142080097Y-59400500D01*
X144436000Y-59400500D01*
X144503039Y-59420185D01*
X144548794Y-59472989D01*
X144560000Y-59524500D01*
X144560000Y-59750000D01*
X145584722Y-59750000D01*
X145540667Y-59826306D01*
X145510000Y-59940756D01*
X145510000Y-60059244D01*
X145540667Y-60173694D01*
X145584722Y-60250000D01*
X144560000Y-60250000D01*
X144560000Y-60947844D01*
X144566401Y-61007372D01*
X144566403Y-61007379D01*
X144616645Y-61142086D01*
X144616649Y-61142093D01*
X144702809Y-61257187D01*
X144702812Y-61257190D01*
X144817906Y-61343350D01*
X144817913Y-61343354D01*
X144952620Y-61393596D01*
X144952627Y-61393598D01*
X145012155Y-61399999D01*
X145012172Y-61400000D01*
X145710000Y-61400000D01*
X145710000Y-60375277D01*
X145786306Y-60419333D01*
X145900756Y-60450000D01*
X146019244Y-60450000D01*
X146133694Y-60419333D01*
X146210000Y-60375277D01*
X146210000Y-61400000D01*
X146907828Y-61400000D01*
X146907844Y-61399999D01*
X146967372Y-61393598D01*
X146967379Y-61393596D01*
X147102086Y-61343354D01*
X147102093Y-61343350D01*
X147217187Y-61257190D01*
X147217190Y-61257187D01*
X147303350Y-61142093D01*
X147303354Y-61142086D01*
X147333213Y-61062031D01*
X147375084Y-61006097D01*
X147440548Y-60981680D01*
X147508821Y-60996531D01*
X147537076Y-61017683D01*
X147587636Y-61068243D01*
X147587641Y-61068247D01*
X147743192Y-61181260D01*
X147765978Y-61197815D01*
X147882501Y-61257187D01*
X147962393Y-61297895D01*
X147962396Y-61297896D01*
X148067221Y-61331955D01*
X148172049Y-61366015D01*
X148389778Y-61400500D01*
X148389779Y-61400500D01*
X148610221Y-61400500D01*
X148610222Y-61400500D01*
X148827951Y-61366015D01*
X149037606Y-61297895D01*
X149234022Y-61197815D01*
X149412365Y-61068242D01*
X149568242Y-60912365D01*
X149697815Y-60734022D01*
X149797895Y-60537606D01*
X149866015Y-60327951D01*
X149900500Y-60110222D01*
X149900500Y-59889778D01*
X149866015Y-59672049D01*
X149828035Y-59555156D01*
X149797896Y-59462396D01*
X149797895Y-59462393D01*
X149763237Y-59394375D01*
X149697815Y-59265978D01*
X149615573Y-59152781D01*
X149568247Y-59087641D01*
X149568243Y-59087636D01*
X149412363Y-58931756D01*
X149412358Y-58931752D01*
X149234025Y-58802187D01*
X149234024Y-58802186D01*
X149234022Y-58802185D01*
X149104468Y-58736173D01*
X149037606Y-58702104D01*
X149037603Y-58702103D01*
X148827952Y-58633985D01*
X148719086Y-58616742D01*
X148610222Y-58599500D01*
X148389778Y-58599500D01*
X148346232Y-58606397D01*
X148172045Y-58633985D01*
X148101794Y-58656811D01*
X148031953Y-58658806D01*
X147975796Y-58626561D01*
X147787590Y-58438355D01*
X147787588Y-58438352D01*
X147668717Y-58319481D01*
X147668716Y-58319480D01*
X147581904Y-58269360D01*
X147581904Y-58269359D01*
X147581900Y-58269358D01*
X147531785Y-58240423D01*
X147379057Y-58199499D01*
X147220943Y-58199499D01*
X147213347Y-58199499D01*
X147213331Y-58199500D01*
X141859057Y-58199500D01*
X141700942Y-58199500D01*
X141548215Y-58240423D01*
X141548214Y-58240423D01*
X141548212Y-58240424D01*
X141548209Y-58240425D01*
X141498096Y-58269359D01*
X141498095Y-58269360D01*
X141454689Y-58294420D01*
X141411285Y-58319479D01*
X141411282Y-58319481D01*
X141299478Y-58431286D01*
X141024842Y-58705921D01*
X140963519Y-58739406D01*
X140898848Y-58736173D01*
X140884534Y-58731522D01*
X140698799Y-58702105D01*
X140682352Y-58699500D01*
X140477648Y-58699500D01*
X140461201Y-58702105D01*
X140275465Y-58731522D01*
X140080776Y-58794781D01*
X139898386Y-58887715D01*
X139732786Y-59008028D01*
X139588028Y-59152786D01*
X139467715Y-59318386D01*
X139374781Y-59500776D01*
X139311522Y-59695465D01*
X139279500Y-59897648D01*
X131720500Y-59897648D01*
X131688477Y-59695465D01*
X131652068Y-59583411D01*
X131625220Y-59500781D01*
X131625218Y-59500778D01*
X131625218Y-59500776D01*
X131574124Y-59400500D01*
X131532287Y-59318390D01*
X131494205Y-59265974D01*
X131411971Y-59152786D01*
X131267213Y-59008028D01*
X131101613Y-58887715D01*
X131101612Y-58887714D01*
X131101610Y-58887713D01*
X131044653Y-58858691D01*
X130919223Y-58794781D01*
X130724534Y-58731522D01*
X130538799Y-58702105D01*
X130522352Y-58699500D01*
X130317648Y-58699500D01*
X130301201Y-58702105D01*
X130115465Y-58731522D01*
X129920776Y-58794781D01*
X129738386Y-58887715D01*
X129572786Y-59008028D01*
X129428028Y-59152786D01*
X129307715Y-59318386D01*
X129214781Y-59500776D01*
X129151522Y-59695465D01*
X129119500Y-59897648D01*
X101000500Y-59897648D01*
X101000500Y-54124500D01*
X101020185Y-54057461D01*
X101072989Y-54011706D01*
X101124500Y-54000500D01*
X158875500Y-54000500D01*
X158942539Y-54020185D01*
G37*
%TD.AperFunction*%
%TD*%
M02*
